<!-- Created with Inkscape (http://www.inkscape.org/) -->
<svg id="svg2" xmlns:rdf="http://www.w3.org/1999/02/22-rdf-syntax-ns#" xmlns="http://www.w3.org/2000/svg" viewBox="0 0 750 350" version="1.1" xmlns:cc="http://creativecommons.org/ns#" xmlns:dc="http://purl.org/dc/elements/1.1/">
	<metadata id="metadata7">
		<rdf:RDF>
			<cc:Work rdf:about="">
				<dc:format>image/svg+xml</dc:format>
				<dc:type rdf:resource="http://purl.org/dc/dcmitype/StillImage"/>
				<dc:title/>
			</cc:Work>
		</rdf:RDF>
	</metadata>
	<g id="layer1" transform="translate(0,-702.36218)">
		<path id="path3818" style="fill:#9fdbff;" d="m448.57,245.71a154.29,154.29,0,1,1,-308.57,0,154.29,154.29,0,1,1,308.57,0z" transform="matrix(0.97222218,0,0,0.97222218,-101.82539,632.90188)"/>
		<path id="path3818-1" style="fill:#ffffff;" d="m448.57,245.71a154.29,154.29,0,1,1,-308.57,0,154.29,154.29,0,1,1,308.57,0z" transform="matrix(0.46504628,0,0,0.46504628,216.32209,762.91511)"/>
		<path id="path3818-1-7" style="fill:#ffffff;" d="m448.57,245.71a154.29,154.29,0,1,1,-308.57,0,154.29,154.29,0,1,1,308.57,0z" transform="matrix(0.46504628,0,0,0.46504628,371.73281,762.91511)"/>
		<path id="path3818-1-4" style="fill:#ffffff;" d="m448.57,245.71a154.29,154.29,0,1,1,-308.57,0,154.29,154.29,0,1,1,308.57,0z" transform="matrix(0.46504628,0,0,0.46504628,527.14354,762.91511)"/>
		<g id="text3863" style="font-size:41.99659348px;font-family:Century Gothic;writing-mode:lr-tb;fill:#ffffff;letter-spacing:0px;text-anchor:start;line-height:125%;word-spacing:0px;font-stretch:normal;font-variant:normal;font-weight:bold;font-style:normal;text-align:start;">
			<path id="path5214" style="" d="m302.17,732.02,5.6597,0,4.3473,19.255,5.3931-19.255,4.7779,0,5.4546,19.255,4.3063-19.255,5.6597,0-6.7875,30.165-5.5162,0-5.5572-19.501-5.4546,19.501-5.4546,0z"/>
			<path id="path5216" style="" d="m364.02,752.65-17.984,0c0.25974,1.5858,0.95353,2.8469,2.0814,3.7834,1.1278,0.93645,2.5667,1.4047,4.3165,1.4047,2.0916,0,3.8893-0.73138,5.3931-2.1942l4.7164,2.2147c-1.1757,1.6678-2.5838,2.9016-4.2243,3.7014-1.6405,0.79974-3.5886,1.1996-5.8443,1.1996-3.4997,0-6.3501-1.1039-8.5511-3.3117s-3.3015-4.9727-3.3015-8.2947c0-3.404,1.0971-6.2304,3.2912-8.4793,2.1942-2.2488,4.9454-3.3732,8.2537-3.3733,3.5134,0.00002,6.3706,1.1244,8.5716,3.3733s3.3015,5.2188,3.3015,8.9099zm-5.6187-4.4088c-0.36913-1.244-1.0971-2.2557-2.1839-3.0349-1.0868-0.77922-2.348-1.1688-3.7834-1.1688-1.5585,0.00002-2.9256,0.43748-4.1012,1.3124-0.73823,0.54685-1.4218,1.5106-2.0506,2.8914z"/>
			<path id="path5218" style="" d="m367.97,731.26,5.5982,0,0,30.923-5.5982,0z"/>
			<path id="path5220" style="" d="m400.5,744.39-4.6549,2.5633c-0.87495-0.91592-1.7396-1.5516-2.594-1.9071-0.85444-0.35542-1.8558-0.53314-3.0042-0.53316-2.0916,0.00002-3.7834,0.62545-5.0753,1.8763-1.2919,1.2509-1.9378,2.8538-1.9378,4.8087-0.00001,1.9002,0.62201,3.4519,1.8661,4.6549,1.244,1.203,2.8777,1.8046,4.901,1.8045,2.5017,0.00001,4.4498-0.85442,5.8442-2.5633l4.4088,3.0144c-2.3924,3.1033-5.7691,4.6549-10.13,4.6549-3.9235,0-6.996-1.162-9.2175-3.486s-3.3322-5.0445-3.3322-8.1614c0-2.16,0.54-4.1491,1.62-5.9673s2.5872-3.2468,4.5216-4.2858,4.0978-1.5584,6.4902-1.5585c2.2146,0.00002,4.2037,0.4409,5.9673,1.3226,1.7635,0.88179,3.2058,2.1361,4.3268,3.7629z"/>
			<path id="path5222" style="" d="m416.04,739.3c2.1053,0.00002,4.0841,0.52634,5.9365,1.579s3.298,2.4813,4.337,4.2858c1.039,1.8046,1.5584,3.7526,1.5585,5.8442-0.00003,2.1053-0.52293,4.0739-1.5687,5.9058s-2.471,3.2639-4.2755,4.296c-1.8046,1.0321-3.7936,1.5482-5.9673,1.5482-3.199,0-5.9297-1.1381-8.1922-3.4143s-3.3938-5.0411-3.3938-8.2947c0-3.486,1.2782-6.3911,3.8346-8.7151,2.242-2.0232,4.8189-3.0349,7.7308-3.0349zm0.082,5.2701c-1.7362,0.00002-3.1819,0.60495-4.337,1.8148-1.1552,1.2099-1.7328,2.7581-1.7328,4.6446,0,1.9412,0.57075,3.5134,1.7123,4.7164,1.1415,1.203,2.5872,1.8046,4.337,1.8045,1.7498,0.00001,3.2058-0.60834,4.3678-1.825s1.743-2.782,1.743-4.6959c-0.00002-1.9139-0.57077-3.469-1.7123-4.6652s-2.6009-1.7943-4.3781-1.7943z"/>
			<path id="path5224" style="" d="m432.42,739.87,5.6187,0,0,2.5633c0.95694-1.0526,2.0198-1.8387,3.1887-2.3582,1.1688-0.51946,2.4436-0.77921,3.8244-0.77923,1.3944,0.00002,2.6521,0.34179,3.7731,1.0253,1.121,0.68355,2.0233,1.6815,2.7068,2.9939,0.88857-1.3124,1.9788-2.3103,3.2707-2.9939,1.2919-0.68352,2.7034-1.0253,4.2345-1.0253,1.5858,0.00002,2.9802,0.36913,4.1832,1.1073,1.203,0.73824,2.0677,1.702,2.594,2.8914,0.52629,1.1894,0.78945,3.1238,0.78949,5.8032v13.083h-5.6392v-11.319c-0.00003-2.5291-0.31445-4.2413-0.94328-5.1368-0.62888-0.89542-1.5722-1.3431-2.8298-1.3432-0.95698,0.00002-1.8148,0.27344-2.5735,0.82025-0.75875,0.54685-1.3227,1.3022-1.6918,2.2659-0.36913,0.9638-0.55368,2.512-0.55366,4.6446v10.069h-5.6392v-10.807c-0.00002-1.9959-0.14698-3.4416-0.44088-4.337-0.29394-0.89542-0.73482-1.5619-1.3226-1.9994-0.58786-0.43745-1.2987-0.65618-2.1326-0.6562-0.92963,0.00002-1.7738,0.27685-2.5325,0.8305-0.75874,0.55368-1.3261,1.3295-1.702,2.3274-0.37596,0.99798-0.56393,2.5701-0.56392,4.7164v9.925h-5.6187z"/>
			<path id="path5226" style="" d="m494.27,752.65-17.984,0c0.25974,1.5858,0.95353,2.8469,2.0814,3.7834,1.1278,0.93645,2.5667,1.4047,4.3166,1.4047,2.0916,0,3.8893-0.73138,5.3931-2.1942l4.7164,2.2147c-1.1757,1.6678-2.5838,2.9016-4.2243,3.7014-1.6405,0.79974-3.5886,1.1996-5.8442,1.1996-3.4997,0-6.3501-1.1039-8.5511-3.3117s-3.3015-4.9727-3.3015-8.2947c-0.00001-3.404,1.0971-6.2304,3.2912-8.4793,2.1942-2.2488,4.9454-3.3732,8.2537-3.3733,3.5134,0.00002,6.3706,1.1244,8.5716,3.3733s3.3015,5.2188,3.3015,8.9099zm-5.6187-4.4088c-0.36913-1.244-1.0971-2.2557-2.1839-3.0349-1.0868-0.77922-2.348-1.1688-3.7834-1.1688-1.5585,0.00002-2.9256,0.43748-4.1012,1.3124-0.73823,0.54685-1.4218,1.5106-2.0506,2.8914z"/>
			<path id="path5228" style="" d="m511.23,731.65,5.5777,0,0,8.223,3.322,0,0,4.819-3.322,0,0,17.492-5.5777,0,0-17.492-2.8709,0,0-4.819,2.8709,0z"/>
			<path id="path5230" style="" d="m533.66,739.3c2.1053,0.00002,4.0841,0.52634,5.9365,1.579s3.298,2.4813,4.337,4.2858c1.039,1.8046,1.5584,3.7526,1.5585,5.8442-0.00003,2.1053-0.52294,4.0739-1.5687,5.9058s-2.471,3.2639-4.2755,4.296c-1.8046,1.0321-3.7936,1.5482-5.9673,1.5482-3.199,0-5.9297-1.1381-8.1922-3.4143s-3.3938-5.0411-3.3938-8.2947c0-3.486,1.2782-6.3911,3.8346-8.7151,2.242-2.0232,4.8189-3.0349,7.7308-3.0349zm0.082,5.2701c-1.7362,0.00002-3.1819,0.60495-4.337,1.8148-1.1552,1.2099-1.7328,2.7581-1.7328,4.6446-0.00001,1.9412,0.57075,3.5134,1.7123,4.7164,1.1415,1.203,2.5872,1.8046,4.337,1.8045,1.7498,0.00001,3.2058-0.60834,4.3678-1.825s1.743-2.782,1.743-4.6959c-0.00002-1.9139-0.57078-3.469-1.7123-4.6652s-2.6009-1.7943-4.3781-1.7943z"/>
			<path id="path5232" style="" d="m590.16,737.33-4.0192,3.8346c-2.7342-2.8845-5.8101-4.3268-9.2278-4.3268-2.8846,0.00003-5.3145,0.98432-7.2899,2.9529s-2.9632,4.3952-2.9631,7.2797c-0.00001,2.0096,0.43746,3.7936,1.3124,5.3521,0.87491,1.5585,2.1121,2.782,3.7116,3.6706,1.5995,0.88861,3.3767,1.3329,5.3316,1.3329,1.6678,0.00001,3.1921-0.311,4.5729-0.93303,1.3807-0.62201,2.8982-1.7533,4.5524-3.3938l3.8962,4.0602c-2.2284,2.1737-4.3337,3.6809-6.3159,4.5216-1.9823,0.84075-4.2448,1.2611-6.7875,1.2611-4.6891,0-8.5272-1.4867-11.514-4.4601-2.9871-2.9734-4.4806-6.7841-4.4806-11.432-0.00001-3.0076,0.68011-5.6802,2.0404-8.0179,1.3602-2.3377,3.3083-4.2174,5.8442-5.6392,2.5359-1.4217,5.2666-2.1326,8.1922-2.1326,2.4881,0.00003,4.8839,0.52635,7.1874,1.579,2.3035,1.0527,4.2892,2.5496,5.957,4.4908z"/>
			<path id="path5234" style="" d="m594.53,739.87,5.6597,0,0,10.745c-0.00001,2.0916,0.14353,3.5442,0.43062,4.3576,0.28708,0.81342,0.74847,1.4457,1.3842,1.8968,0.63568,0.45114,1.4183,0.67671,2.348,0.6767,0.9296,0.00001,1.7191-0.22214,2.3685-0.66645,0.64935-0.44429,1.1312-1.0971,1.4457-1.9583,0.23238-0.64251,0.34859-2.0164,0.3486-4.1217v-10.93h5.6187v9.4533c-0.00003,3.8962-0.30762,6.562-0.92278,7.9974-0.75191,1.7499-1.8592,3.093-3.322,4.0295-1.4628,0.93645-3.322,1.4047-5.5777,1.4047-2.4471,0-4.4259-0.54683-5.9365-1.6405s-2.5735-2.618-3.1887-4.5729c-0.43747-1.3534-0.6562-3.8141-0.6562-7.3822z"/>
			<path id="path5236" style="" d="m642.08,752.65-17.984,0c0.25974,1.5858,0.95353,2.8469,2.0814,3.7834,1.1278,0.93645,2.5667,1.4047,4.3165,1.4047,2.0916,0,3.8893-0.73138,5.3931-2.1942l4.7164,2.2147c-1.1757,1.6678-2.5838,2.9016-4.2243,3.7014-1.6405,0.79974-3.5886,1.1996-5.8443,1.1996-3.4997,0-6.3501-1.1039-8.5511-3.3117s-3.3015-4.9727-3.3015-8.2947c0-3.404,1.0971-6.2304,3.2912-8.4793,2.1942-2.2488,4.9454-3.3732,8.2537-3.3733,3.5134,0.00002,6.3706,1.1244,8.5716,3.3733s3.3015,5.2188,3.3015,8.9099zm-5.6187-4.4088c-0.36913-1.244-1.0971-2.2557-2.1839-3.0349-1.0868-0.77922-2.348-1.1688-3.7834-1.1688-1.5585,0.00002-2.9256,0.43748-4.1012,1.3124-0.73823,0.54685-1.4218,1.5106-2.0506,2.8914z"/>
			<path id="path5238" style="fill:#9fdbff;" d="m645.65,732.02,18.25,0-10.766,24.648,10.069,0,0,5.5162-18.435,0,10.725-24.484-9.843,0z"/>
			<path id="path5240" style="fill:#9fdbff;" d="m689.98,752.65-17.984,0c0.25973,1.5858,0.95353,2.8469,2.0814,3.7834,1.1278,0.93645,2.5667,1.4047,4.3166,1.4047,2.0916,0,3.8893-0.73138,5.3931-2.1942l4.7164,2.2147c-1.1757,1.6678-2.5838,2.9016-4.2243,3.7014-1.6405,0.79974-3.5886,1.1996-5.8442,1.1996-3.4997,0-6.3501-1.1039-8.5511-3.3117s-3.3015-4.9727-3.3015-8.2947c0-3.404,1.0971-6.2304,3.2912-8.4793,2.1942-2.2488,4.9454-3.3732,8.2537-3.3733,3.5134,0.00002,6.3706,1.1244,8.5716,3.3733s3.3015,5.2188,3.3015,8.9099zm-5.6187-4.4088c-0.36913-1.244-1.0971-2.2557-2.1839-3.0349-1.0868-0.77922-2.348-1.1688-3.7834-1.1688-1.5585,0.00002-2.9256,0.43748-4.1012,1.3124-0.73823,0.54685-1.4218,1.5106-2.0506,2.8914z"/>
			<path id="path5242" style="fill:#9fdbff;" d="m693.22,739.87,4.7984,0,0,2.8093c0.51948-1.1073,1.2098-1.9481,2.0711-2.5222,0.86125-0.57415,1.8045-0.86124,2.8298-0.86126,0.72453,0.00002,1.4833,0.19141,2.2762,0.57417l-1.743,4.819c-0.65621-0.32809-1.1962-0.49213-1.62-0.49215-0.86127,0.00002-1.5892,0.53317-2.1839,1.5995-0.59469,1.0663-0.89203,3.158-0.89202,6.2749l0.0205,1.0868v9.0227h-5.5572z"/>
			<path id="path5244" style="fill:#9fdbff;" d="m718.47,739.3c2.1053,0.00002,4.0841,0.52634,5.9365,1.579s3.298,2.4813,4.337,4.2858c1.039,1.8046,1.5584,3.7526,1.5585,5.8442-0.00003,2.1053-0.52293,4.0739-1.5687,5.9058s-2.471,3.2639-4.2755,4.296c-1.8046,1.0321-3.7937,1.5482-5.9673,1.5482-3.199,0-5.9297-1.1381-8.1922-3.4143s-3.3938-5.0411-3.3938-8.2947c0-3.486,1.2782-6.3911,3.8346-8.7151,2.242-2.0232,4.8189-3.0349,7.7308-3.0349zm0.082,5.2701c-1.7362,0.00002-3.1819,0.60495-4.337,1.8148-1.1552,1.2099-1.7328,2.7581-1.7328,4.6446,0,1.9412,0.57075,3.5134,1.7123,4.7164,1.1415,1.203,2.5872,1.8046,4.337,1.8045,1.7498,0.00001,3.2058-0.60834,4.3678-1.825s1.743-2.782,1.743-4.6959c-0.00002-1.9139-0.57077-3.469-1.7123-4.6652s-2.6009-1.7943-4.3781-1.7943z"/>
		</g>
		<g id="text5290" style="font-size:28px;font-family:Century Gothic;writing-mode:lr-tb;fill:#ffffff;letter-spacing:0px;text-anchor:start;line-height:125%;word-spacing:0px;font-stretch:normal;font-variant:normal;font-weight:normal;font-style:normal;text-align:start;">
			<path id="path5301" style="" d="m332.79,972.98,0-1.9551,11.033,0,0,1.9551-4.4844,0,0,18.156-2.0508,0,0-18.156z"/>
			<path id="path5303" style="" d="m346.39,970.52,1.9141,0,0,8.4082c0.77474-1.0208,1.627-1.7842,2.5566-2.29,0.92968-0.50585,1.9368-0.75878,3.0215-0.75879,1.112,0.00001,2.0986,0.28256,2.96,0.84765,0.86131,0.56512,1.4971,1.3239,1.9072,2.2764,0.41014,0.95249,0.61521,2.445,0.61523,4.4775v7.6562h-1.9141v-7.0957c-0.00002-1.7135-0.0684-2.8574-0.20508-3.4316-0.23699-0.98437-0.66766-1.7249-1.292-2.2217-0.62436-0.49673-1.4424-0.74511-2.4541-0.74512-1.1576,0.00001-2.1944,0.38283-3.1104,1.1484-0.91602,0.76563-1.5199,1.7136-1.8115,2.8438-0.1823,0.72917-0.27344,2.0781-0.27344,4.0469v5.4551h-1.9141z"/>
			<path id="path5305" style="" d="m375.98,986.2,1.6133,0.84766c-0.52866,1.0391-1.1393,1.8776-1.832,2.5156-0.69272,0.63803-1.472,1.1234-2.3379,1.4561-0.8659,0.33268-1.8457,0.49902-2.9395,0.49902-2.4245,0-4.3203-0.79524-5.6875-2.3857s-2.0508-3.3883-2.0508-5.3936c0-1.8867,0.57878-3.5684,1.7363-5.0449,1.4674-1.8776,3.4316-2.8164,5.8926-2.8164,2.5338,0.00001,4.5573,0.9616,6.0703,2.8848,1.0755,1.3581,1.6224,3.0534,1.6406,5.0859h-13.371c0.0365,1.7318,0.58789,3.1514,1.6543,4.2588s2.3835,1.6611,3.9512,1.6611c0.7565,0,1.4925-0.13216,2.208-0.39648,0.71548-0.26432,1.3239-0.61523,1.8252-1.0527,0.50129-0.43749,1.0436-1.1439,1.627-2.1191zm0-4.0059c-0.25522-1.0208-0.62664-1.8366-1.1143-2.4473-0.48764-0.61067-1.1325-1.1028-1.9346-1.4766-0.80209-0.37369-1.6452-0.56054-2.5293-0.56055-1.4583,0.00001-2.7116,0.46941-3.7598,1.4082-0.76563,0.68361-1.3444,1.709-1.7363,3.0762z"/>
			<path id="path5307" style="" d="m389.46,976.26,1.9004,0,0,2.7344c0.7565-1.039,1.6269-1.8184,2.6113-2.3379,0.98436-0.51951,2.0827-0.77928,3.2949-0.77929,2.1146,0.00001,3.9238,0.76108,5.4277,2.2832,1.5039,1.5222,2.2558,3.3542,2.2559,5.4961-0.00002,2.1875-0.74513,4.0446-2.2354,5.5713-1.4902,1.5267-3.2881,2.29-5.3936,2.29-1.1849,0-2.2741-0.24609-3.2676-0.73828s-1.8913-1.2259-2.6934-2.2012v7.998h-1.9004zm7.6562,1.4629c-1.6589,0.00001-3.0557,0.57879-4.1904,1.7363-1.1348,1.1576-1.7022,2.5977-1.7022,4.3203-0.00001,1.1302,0.25292,2.1465,0.75879,3.0488,0.50585,0.90235,1.2305,1.6178,2.1738,2.1465,0.94335,0.52865,1.9391,0.79297,2.9873,0.79297,1.0299,0,1.9984-0.2666,2.9053-0.7998,0.90689-0.5332,1.6292-1.2783,2.167-2.2354,0.53774-0.95703,0.80662-1.9596,0.80664-3.0078-0.00002-1.0573-0.26662-2.0599-0.79981-3.0078-0.53322-0.9479-1.251-1.6839-2.1533-2.208-0.90235-0.52407-1.8867-0.78612-2.9531-0.78613z"/>
			<path id="path5309" style="" d="m421.04,986.2,1.6133,0.84766c-0.52866,1.0391-1.1393,1.8776-1.832,2.5156-0.69272,0.63803-1.472,1.1234-2.3379,1.4561-0.8659,0.33268-1.8457,0.49902-2.9395,0.49902-2.4245,0-4.3203-0.79524-5.6875-2.3857s-2.0508-3.3883-2.0508-5.3936c0-1.8867,0.57878-3.5684,1.7363-5.0449,1.4674-1.8776,3.4316-2.8164,5.8926-2.8164,2.5338,0.00001,4.5573,0.9616,6.0703,2.8848,1.0755,1.3581,1.6224,3.0534,1.6406,5.0859h-13.371c0.0365,1.7318,0.58789,3.1514,1.6543,4.2588s2.3835,1.6611,3.9512,1.6611c0.7565,0,1.4925-0.13216,2.208-0.39648,0.71548-0.26432,1.3239-0.61523,1.8252-1.0527,0.50129-0.43749,1.0436-1.1439,1.627-2.1191zm0-4.0059c-0.25522-1.0208-0.62664-1.8366-1.1143-2.4473-0.48764-0.61067-1.1325-1.1028-1.9346-1.4766-0.80209-0.37369-1.6452-0.56054-2.5293-0.56055-1.4583,0.00001-2.7116,0.46941-3.7598,1.4082-0.76563,0.68361-1.3444,1.709-1.7363,3.0762z"/>
			<path id="path5311" style="" d="m426,976.26,1.9551,0,0,2.1738c0.58333-0.85676,1.1986-1.4971,1.8457-1.9209,0.64713-0.42381,1.3216-0.63573,2.0234-0.63574,0.52864,0.00001,1.0937,0.16863,1.6953,0.50586l-0.99805,1.6133c-0.40105-0.17317-0.73829-0.25975-1.0117-0.25977-0.63802,0.00002-1.2533,0.26206-1.8457,0.78614-0.59245,0.5241-1.0436,1.3376-1.3535,2.4404-0.23699,0.84766-0.35548,2.5612-0.35547,5.1406v5.0312h-1.9551z"/>
			<path id="path5313" style="" d="m441.27,970.52,0,1.873c-0.70183-0.30076-1.3034-0.45115-1.8047-0.45117-0.37371,0.00002-0.6836,0.0752-0.92969,0.22558-0.2461,0.15041-0.40105,0.32359-0.46485,0.51953-0.0638,0.19599-0.0957,0.7178-0.0957,1.5654v2.0098h3.1035v1.6406h-3.1172v13.234h-1.9141v-13.234h-1.9551v-1.6406h1.9551v-2.3242c-0.00001-1.0664,0.098-1.8274,0.29394-2.2832,0.19596-0.45571,0.52864-0.82257,0.99805-1.1006,0.4694-0.27797,1.0368-0.41697,1.7022-0.41699,0.61978,0.00002,1.3626,0.12763,2.2285,0.38281z"/>
			<path id="path5315" style="" d="m450.99,975.88c2.2878,0.00001,4.1836,0.82944,5.6875,2.4883,1.3672,1.513,2.0508,3.304,2.0508,5.373-0.00002,2.0781-0.72235,3.8942-2.167,5.4482-1.4447,1.554-3.3018,2.331-5.5713,2.331-2.2787,0-4.1403-0.77702-5.585-2.331s-2.167-3.3701-2.167-5.4482c0-2.0599,0.68359-3.8464,2.0508-5.3594,1.5039-1.668,3.4043-2.5019,5.7012-2.502zm0,1.873c-1.586,0.00002-2.9486,0.58791-4.0879,1.7637s-1.709,2.5977-1.709,4.2656c0,1.0755,0.25976,2.0781,0.7793,3.0078,0.51952,0.92969,1.2214,1.6475,2.1055,2.1533,0.8841,0.50587,1.8548,0.75879,2.9121,0.75879s2.028-0.25292,2.9121-0.75879c0.8841-0.50585,1.5859-1.2236,2.1055-2.1533,0.51952-0.92968,0.77929-1.9323,0.7793-3.0078-0.00001-1.668-0.57195-3.0898-1.7158-4.2656-1.1439-1.1758-2.5042-1.7637-4.081-1.7637z"/>
			<path id="path5317" style="" d="m461.55,976.26,1.9551,0,0,2.1738c0.58333-0.85676,1.1986-1.4971,1.8457-1.9209,0.64713-0.42381,1.3216-0.63573,2.0234-0.63574,0.52864,0.00001,1.0937,0.16863,1.6953,0.50586l-0.99804,1.6133c-0.40105-0.17317-0.73829-0.25975-1.0117-0.25977-0.63803,0.00002-1.2533,0.26206-1.8457,0.78614-0.59246,0.5241-1.0436,1.3376-1.3535,2.4404-0.23698,0.84766-0.35547,2.5612-0.35547,5.1406v5.0312h-1.9551z"/>
			<path id="path5319" style="" d="m470.68,976.26,1.9004,0,0,2.5703c0.66536-0.9479,1.349-1.6406,2.0508-2.0781,0.96614-0.58332,1.9824-0.87499,3.0488-0.875,0.72004,0.00001,1.4036,0.14129,2.0508,0.42383,0.64712,0.28256,1.1758,0.65854,1.5859,1.1279,0.41015,0.46941,0.76562,1.1416,1.0664,2.0166,0.63801-1.1667,1.4355-2.053,2.3926-2.6592,0.95701-0.60611,1.987-0.90917,3.0898-0.90918,1.0299,0.00001,1.9391,0.25978,2.7275,0.77929,0.78839,0.51955,1.374,1.2442,1.7568,2.1738,0.38279,0.9297,0.57419,2.3242,0.57422,4.1836v8.1211h-1.9551v-8.1211c-0.00002-1.595-0.11396-2.6911-0.3418-3.2881-0.22788-0.59699-0.61753-1.0778-1.1689-1.4424-0.55146-0.36457-1.21-0.54686-1.9756-0.54688-0.9297,0.00002-1.7796,0.27345-2.5498,0.82032-0.7702,0.54688-1.333,1.276-1.6885,2.1875-0.35548,0.91146-0.53322,2.4336-0.5332,4.5664v5.8242h-1.9004v-7.6152c-0.00002-1.7956-0.11167-3.0146-0.33497-3.6572-0.22331-0.64257-0.61296-1.1575-1.1689-1.5449-0.556-0.38736-1.2168-0.58104-1.9824-0.58106-0.88413,0.00002-1.7113,0.26662-2.4814,0.79981-0.77019,0.53321-1.3398,1.251-1.709,2.1533-0.36915,0.90235-0.55372,2.2832-0.55371,4.1426v6.3027h-1.9004z"/>
			<path id="path5321" style="" d="m511.76,976.26,0,14.875-1.8867,0,0-2.5566c-0.8021,0.97526-1.7022,1.709-2.7002,2.2012-0.99806,0.49219-2.0895,0.73828-3.2744,0.73828-2.1055,0-3.9033-0.76334-5.3936-2.29-1.4902-1.5267-2.2354-3.3838-2.2354-5.5713-0.00001-2.1419,0.75195-3.9739,2.2559-5.4961,1.5039-1.5221,3.3131-2.2832,5.4277-2.2832,1.2213,0.00001,2.3265,0.25978,3.3154,0.77929,0.98892,0.51955,1.8571,1.2988,2.6045,2.3379v-2.7344zm-7.6562,1.4629c-1.0664,0.00001-2.0508,0.26206-2.9531,0.78613-0.90235,0.5241-1.6201,1.2601-2.1533,2.208-0.53321,0.94793-0.79981,1.9505-0.79981,3.0078,0,1.0482,0.26888,2.0508,0.80664,3.0078,0.53776,0.95703,1.2601,1.7022,2.167,2.2354s1.8799,0.7998,2.919,0.7998c1.0482,0,2.0416-0.26432,2.9805-0.79297,0.93879-0.52864,1.6611-1.2441,2.167-2.1465,0.50584-0.90234,0.75877-1.9186,0.75879-3.0488-0.00002-1.7226-0.5674-3.1628-1.7022-4.3203s-2.5316-1.7363-4.1904-1.7363z"/>
			<path id="path5323" style="" d="m516.09,976.26,1.9141,0,0,2.666c0.76562-1.0208,1.6133-1.7842,2.543-2.29,0.92968-0.50585,1.9414-0.75878,3.0352-0.75879,1.112,0.00001,2.0986,0.28256,2.96,0.84765,0.86132,0.56512,1.4971,1.3262,1.9072,2.2832,0.41014,0.95704,0.61522,2.4473,0.61523,4.4707v7.6562h-1.9004v-7.0957c-0.00001-1.7135-0.0729-2.8574-0.21875-3.4316-0.22788-0.98437-0.65626-1.7249-1.2852-2.2217-0.62892-0.49673-1.4492-0.74511-2.4609-0.74512-1.1576,0.00001-2.1943,0.38283-3.1104,1.1484-0.91602,0.76563-1.5199,1.7136-1.8115,2.8438-0.18229,0.73829-0.27344,2.0872-0.27343,4.0469v5.4551h-1.9141z"/>
			<path id="path5325" style="" d="m547.59,979.35-1.5176,0.94336c-1.3125-1.7409-3.1035-2.6113-5.373-2.6113-1.8138,0.00001-3.32,0.58334-4.5186,1.75s-1.7978,2.584-1.7978,4.252c0,1.0846,0.27571,2.1055,0.82715,3.0625,0.55143,0.95703,1.3079,1.6999,2.2695,2.2285,0.96158,0.52865,2.0394,0.79297,3.2334,0.79297,2.1875,0,3.9739-0.87044,5.3594-2.6113l1.5176,0.99805c-0.71095,1.0664-1.6657,1.8936-2.8642,2.4814-1.1986,0.58789-2.5635,0.88183-4.0947,0.88183-2.3516,0-4.3021-0.74739-5.8516-2.2422s-2.3242-3.3132-2.3242-5.4551c0-1.4401,0.3623-2.7777,1.0869-4.0127,0.72461-1.235,1.7204-2.1989,2.9873-2.8916,1.2669-0.69269,2.6842-1.039,4.252-1.0391,0.98436,0.00001,1.9346,0.1504,2.8506,0.45117,0.916,0.3008,1.693,0.69272,2.331,1.1758,0.63801,0.48309,1.1803,1.0983,1.627,1.8457z"/>
			<path id="path5327" style="" d="m563.77,986.2,1.6133,0.84766c-0.52866,1.0391-1.1393,1.8776-1.832,2.5156-0.69272,0.63803-1.472,1.1234-2.3379,1.4561-0.86589,0.33268-1.8457,0.49902-2.9394,0.49902-2.4245,0-4.3203-0.79524-5.6875-2.3857s-2.0508-3.3883-2.0508-5.3936c0-1.8867,0.57877-3.5684,1.7363-5.0449,1.4674-1.8776,3.4316-2.8164,5.8926-2.8164,2.5338,0.00001,4.5573,0.9616,6.0703,2.8848,1.0755,1.3581,1.6224,3.0534,1.6406,5.0859h-13.371c0.0364,1.7318,0.58788,3.1514,1.6543,4.2588s2.3835,1.6611,3.9512,1.6611c0.7565,0,1.4925-0.13216,2.208-0.39648,0.71549-0.26432,1.3239-0.61523,1.8252-1.0527,0.50129-0.43749,1.0436-1.1439,1.627-2.1191zm0-4.0059c-0.25522-1.0208-0.62664-1.8366-1.1142-2.4473-0.48765-0.61067-1.1325-1.1028-1.9346-1.4766-0.80209-0.37369-1.6452-0.56054-2.5293-0.56055-1.4583,0.00001-2.7116,0.46941-3.7598,1.4082-0.76563,0.68361-1.3444,1.709-1.7363,3.0762z"/>
			<path id="path5329" style="" d="m583.35,970.52,0,1.873c-0.70183-0.30076-1.3034-0.45115-1.8047-0.45117-0.3737,0.00002-0.6836,0.0752-0.92969,0.22558-0.2461,0.15041-0.40104,0.32359-0.46484,0.51953-0.0638,0.19599-0.0957,0.7178-0.0957,1.5654v2.0098h3.1035v1.6406h-3.1172v13.234h-1.9141v-13.234h-1.9551v-1.6406h1.9551v-2.3242c0-1.0664,0.098-1.8274,0.29395-2.2832,0.19596-0.45571,0.52864-0.82257,0.99804-1.1006,0.4694-0.27797,1.0368-0.41697,1.7022-0.41699,0.61979,0.00002,1.3626,0.12763,2.2285,0.38281z"/>
			<path id="path5331" style="" d="m598.55,986.2,1.6133,0.84766c-0.52866,1.0391-1.1393,1.8776-1.832,2.5156-0.69272,0.63803-1.472,1.1234-2.3379,1.4561-0.86589,0.33268-1.8457,0.49902-2.9394,0.49902-2.4245,0-4.3203-0.79524-5.6875-2.3857s-2.0508-3.3883-2.0508-5.3936c0-1.8867,0.57877-3.5684,1.7363-5.0449,1.4674-1.8776,3.4316-2.8164,5.8926-2.8164,2.5338,0.00001,4.5573,0.9616,6.0703,2.8848,1.0755,1.3581,1.6224,3.0534,1.6406,5.0859h-13.371c0.0364,1.7318,0.58788,3.1514,1.6543,4.2588s2.3835,1.6611,3.9512,1.6611c0.7565,0,1.4925-0.13216,2.208-0.39648,0.71549-0.26432,1.3239-0.61523,1.8252-1.0527,0.50129-0.43749,1.0436-1.1439,1.627-2.1191zm0-4.0059c-0.25522-1.0208-0.62664-1.8366-1.1142-2.4473-0.48765-0.61067-1.1325-1.1028-1.9346-1.4766-0.80209-0.37369-1.6452-0.56054-2.5293-0.56055-1.4583,0.00001-2.7116,0.46941-3.7598,1.4082-0.76563,0.68361-1.3444,1.709-1.7363,3.0762z"/>
			<path id="path5333" style="" d="m616.76,986.2,1.6133,0.84766c-0.52866,1.0391-1.1393,1.8776-1.832,2.5156-0.69272,0.63803-1.472,1.1234-2.3379,1.4561-0.8659,0.33268-1.8457,0.49902-2.9394,0.49902-2.4245,0-4.3203-0.79524-5.6875-2.3857s-2.0508-3.3883-2.0508-5.3936c-0.00001-1.8867,0.57877-3.5684,1.7363-5.0449,1.4674-1.8776,3.4316-2.8164,5.8926-2.8164,2.5338,0.00001,4.5573,0.9616,6.0703,2.8848,1.0755,1.3581,1.6224,3.0534,1.6406,5.0859h-13.371c0.0365,1.7318,0.58788,3.1514,1.6543,4.2588s2.3835,1.6611,3.9512,1.6611c0.7565,0,1.4925-0.13216,2.208-0.39648,0.71548-0.26432,1.3239-0.61523,1.8252-1.0527,0.50129-0.43749,1.0436-1.1439,1.627-2.1191zm0-4.0059c-0.25522-1.0208-0.62664-1.8366-1.1143-2.4473-0.48764-0.61067-1.1325-1.1028-1.9346-1.4766-0.80209-0.37369-1.6452-0.56054-2.5293-0.56055-1.4584,0.00001-2.7116,0.46941-3.7598,1.4082-0.76563,0.68361-1.3444,1.709-1.7363,3.0762z"/>
			<path id="path5335" style="" d="m637.3,970.52,0,20.617-1.8867,0,0-2.5566c-0.8021,0.97526-1.7022,1.709-2.7002,2.2012-0.99806,0.49219-2.0895,0.73828-3.2744,0.73828-2.1055,0-3.9033-0.76334-5.3936-2.29-1.4902-1.5267-2.2354-3.3838-2.2354-5.5713,0-2.1419,0.75195-3.9739,2.2559-5.4961,1.5039-1.5221,3.3132-2.2832,5.4277-2.2832,1.2213,0.00001,2.3265,0.25978,3.3154,0.77929,0.98891,0.51955,1.8571,1.2988,2.6045,2.3379v-8.4766zm-7.6562,7.2051c-1.0664,0.00001-2.0508,0.26206-2.9531,0.78613-0.90235,0.5241-1.6201,1.2601-2.1533,2.208-0.53321,0.94793-0.79981,1.9505-0.7998,3.0078-0.00001,1.0482,0.26887,2.0508,0.80664,3.0078,0.53775,0.95703,1.2601,1.7022,2.167,2.2354,0.90689,0.5332,1.8799,0.7998,2.9189,0.7998,1.0482,0,2.0417-0.26432,2.9805-0.79297,0.93879-0.52864,1.6611-1.2441,2.167-2.1465,0.50584-0.90234,0.75877-1.9186,0.75878-3.0488-0.00001-1.7226-0.56739-3.1628-1.7021-4.3203-1.1348-1.1575-2.5316-1.7363-4.1904-1.7363z"/>
			<path id="path5337" style="" d="m641.77,991.14,0-20.617,1.9004,0,0,8.2988c0.80208-0.98436,1.6999-1.7204,2.6934-2.208,0.99348-0.48761,2.0827-0.73143,3.2676-0.73144,2.1054,0.00001,3.9033,0.76336,5.3936,2.29,1.4902,1.5267,2.2353,3.3792,2.2354,5.5576-0.00001,2.151-0.75197,3.9876-2.2559,5.5098-1.5039,1.5221-3.3132,2.2832-5.4277,2.2832-1.2122,0-2.3106-0.25976-3.2949-0.77929-0.98438-0.51953-1.8548-1.2988-2.6113-2.3379v2.7344zm7.6562-1.4629c1.0664,0,2.0508-0.26204,2.9531-0.78613,0.90233-0.52409,1.6201-1.2601,2.1533-2.208,0.53318-0.94791,0.79978-1.9505,0.7998-3.0078-0.00002-1.0573-0.2689-2.0644-0.80664-3.0215-0.53778-0.95702-1.2601-1.7021-2.167-2.2354-0.90692-0.53319-1.8753-0.79979-2.9053-0.7998-1.0482,0.00001-2.044,0.26661-2.9873,0.7998-0.94337,0.53322-1.668,1.251-2.1738,2.1533-0.50586,0.90235-0.75879,1.9186-0.75879,3.0488,0,1.7227,0.56738,3.1628,1.7022,4.3203,1.1348,1.1576,2.5316,1.7363,4.1904,1.7363z"/>
			<path id="path5339" style="" d="m675.55,976.26,0,14.875-1.8867,0,0-2.5566c-0.80209,0.97526-1.7022,1.709-2.7002,2.2012-0.99806,0.49219-2.0895,0.73828-3.2744,0.73828-2.1055,0-3.9033-0.76334-5.3936-2.29-1.4902-1.5267-2.2354-3.3838-2.2354-5.5713,0-2.1419,0.75195-3.9739,2.2559-5.4961,1.5039-1.5221,3.3131-2.2832,5.4277-2.2832,1.2214,0.00001,2.3265,0.25978,3.3154,0.77929,0.98892,0.51955,1.8571,1.2988,2.6045,2.3379v-2.7344zm-7.6562,1.4629c-1.0664,0.00001-2.0508,0.26206-2.9531,0.78613-0.90235,0.5241-1.6201,1.2601-2.1533,2.208-0.53321,0.94793-0.79981,1.9505-0.79981,3.0078,0,1.0482,0.26888,2.0508,0.80664,3.0078,0.53776,0.95703,1.2601,1.7022,2.167,2.2354,0.90689,0.5332,1.8799,0.7998,2.9189,0.7998,1.0482,0,2.0417-0.26432,2.9805-0.79297,0.93879-0.52864,1.6611-1.2441,2.167-2.1465,0.50585-0.90234,0.75878-1.9186,0.75879-3.0488-0.00001-1.7226-0.5674-3.1628-1.7022-4.3203s-2.5316-1.7363-4.1904-1.7363z"/>
			<path id="path5341" style="" d="m694.31,979.35-1.5176,0.94336c-1.3125-1.7409-3.1035-2.6113-5.373-2.6113-1.8138,0.00001-3.32,0.58334-4.5186,1.75s-1.7979,2.584-1.7979,4.252c0,1.0846,0.27572,2.1055,0.82715,3.0625,0.55143,0.95703,1.3079,1.6999,2.2695,2.2285,0.96159,0.52865,2.0394,0.79297,3.2334,0.79297,2.1875,0,3.974-0.87044,5.3594-2.6113l1.5176,0.99805c-0.71096,1.0664-1.6657,1.8936-2.8643,2.4814-1.1986,0.58789-2.5635,0.88183-4.0947,0.88183-2.3516,0-4.3021-0.74739-5.8516-2.2422s-2.3242-3.3132-2.3242-5.4551c0-1.4401,0.3623-2.7777,1.0869-4.0127,0.72461-1.235,1.7204-2.1989,2.9873-2.8916,1.2669-0.69269,2.6842-1.039,4.252-1.0391,0.98437,0.00001,1.9346,0.1504,2.8506,0.45117,0.916,0.3008,1.693,0.69272,2.331,1.1758,0.63801,0.48309,1.1803,1.0983,1.627,1.8457z"/>
			<path id="path5343" style="" d="m697.96,970.52,1.9277,0,0,11.73,6.877-5.9883,2.8164,0-8.1621,7.0957,8.6406,7.7793-2.707,0-7.4648-6.6856,0,6.6856-1.9277,0z"/>
			<path id="path5345" style="" d="m334.18,1005.5,1.9141,0,0,20.617-1.9141,0z"/>
			<path id="path5347" style="" d="m347.14,1010.9c2.2878,0,4.1836,0.8294,5.6875,2.4883,1.3672,1.513,2.0508,3.304,2.0508,5.373-0.00001,2.0781-0.72234,3.8942-2.167,5.4482-1.4447,1.5541-3.3018,2.3311-5.5713,2.3311-2.2786,0-4.1403-0.777-5.585-2.3311-1.4447-1.554-2.167-3.3701-2.167-5.4482,0-2.0599,0.68359-3.8463,2.0508-5.3594,1.5039-1.6679,3.4043-2.5019,5.7012-2.5019zm0,1.873c-1.5859,0-2.9486,0.5879-4.0879,1.7637s-1.709,2.5977-1.709,4.2656c0,1.0755,0.25976,2.0782,0.7793,3.0078,0.51952,0.9297,1.2213,1.6475,2.1055,2.1534,0.88411,0.5058,1.8548,0.7587,2.9121,0.7587s2.028-0.2529,2.9121-0.7587c0.8841-0.5059,1.5859-1.2237,2.1055-2.1534,0.51952-0.9296,0.77928-1.9323,0.7793-3.0078-0.00002-1.6679-0.57196-3.0898-1.7158-4.2656-1.1439-1.1758-2.5042-1.7637-4.0811-1.7637z"/>
			<path id="path5349" style="" d="m365.46,1010.9c2.2878,0,4.1836,0.8294,5.6875,2.4883,1.3672,1.513,2.0508,3.304,2.0508,5.373-0.00002,2.0781-0.72235,3.8942-2.167,5.4482-1.4447,1.5541-3.3018,2.3311-5.5713,2.3311-2.2787,0-4.1403-0.777-5.585-2.3311-1.4447-1.554-2.167-3.3701-2.167-5.4482,0-2.0599,0.68359-3.8463,2.0508-5.3594,1.5039-1.6679,3.4043-2.5019,5.7012-2.5019zm0,1.873c-1.586,0-2.9486,0.5879-4.0879,1.7637s-1.709,2.5977-1.709,4.2656c0,1.0755,0.25976,2.0782,0.7793,3.0078,0.51952,0.9297,1.2214,1.6475,2.1055,2.1534,0.8841,0.5058,1.8548,0.7587,2.9121,0.7587s2.028-0.2529,2.9121-0.7587c0.8841-0.5059,1.5859-1.2237,2.1055-2.1534,0.51952-0.9296,0.77929-1.9323,0.7793-3.0078-0.00001-1.6679-0.57195-3.0898-1.7158-4.2656-1.1439-1.1758-2.5042-1.7637-4.081-1.7637z"/>
			<path id="path5351" style="" d="m376.77,1011.3,1.9004,0,0,2.7344c0.7565-1.0391,1.6269-1.8184,2.6113-2.3379,0.98436-0.5195,2.0827-0.7793,3.2949-0.7793,2.1146,0,3.9238,0.7611,5.4277,2.2832s2.2558,3.3542,2.2559,5.4961c-0.00002,2.1875-0.74513,4.0446-2.2354,5.5713-1.4902,1.5267-3.2881,2.29-5.3936,2.29-1.1849,0-2.2741-0.2461-3.2676-0.7383s-1.8913-1.2259-2.6934-2.2012v7.9981h-1.9004zm7.6562,1.4629c-1.6589,0-3.0557,0.5788-4.1904,1.7363-1.1348,1.1576-1.7022,2.5977-1.7022,4.3203-0.00001,1.1302,0.25292,2.1465,0.75879,3.0488,0.50585,0.9024,1.2305,1.6179,2.1738,2.1465,0.94335,0.5287,1.9391,0.793,2.9873,0.793,1.0299,0,1.9984-0.2666,2.9053-0.7998,0.90689-0.5332,1.6292-1.2783,2.167-2.2354,0.53774-0.957,0.80662-1.9596,0.80664-3.0078-0.00002-1.0572-0.26662-2.0599-0.79981-3.0078-0.53322-0.9479-1.251-1.6839-2.1533-2.208-0.90235-0.5241-1.8867-0.7861-2.9531-0.7861z"/>
			<path id="path5353" style="" d="m409.72,1005.5,0,1.873c-0.70183-0.3007-1.3034-0.4511-1.8047-0.4511-0.37371,0-0.6836,0.075-0.92969,0.2256-0.2461,0.1504-0.40105,0.3235-0.46484,0.5195-0.0638,0.196-0.0957,0.7178-0.0957,1.5654v2.0098h3.1035v1.6406h-3.1172v13.234h-1.9141v-13.234h-1.9551v-1.6406h1.9551v-2.3242c0-1.0664,0.098-1.8275,0.29394-2.2832,0.19596-0.4557,0.52865-0.8226,0.99805-1.1006s1.0368-0.417,1.7022-0.417c0.61978,0,1.3626,0.1276,2.2285,0.3828z"/>
			<path id="path5355" style="" d="m419.44,1010.9c2.2878,0,4.1836,0.8294,5.6875,2.4883,1.3672,1.513,2.0508,3.304,2.0508,5.373-0.00002,2.0781-0.72235,3.8942-2.167,5.4482-1.4447,1.5541-3.3018,2.3311-5.5713,2.3311-2.2786,0-4.1403-0.777-5.585-2.3311-1.4447-1.554-2.167-3.3701-2.167-5.4482-0.00001-2.0599,0.68359-3.8463,2.0508-5.3594,1.5039-1.6679,3.4043-2.5019,5.7012-2.5019zm0,1.873c-1.586,0-2.9486,0.5879-4.0879,1.7637s-1.709,2.5977-1.709,4.2656c0,1.0755,0.25977,2.0782,0.7793,3.0078,0.51953,0.9297,1.2214,1.6475,2.1055,2.1534,0.88411,0.5058,1.8548,0.7587,2.9121,0.7587s2.028-0.2529,2.9121-0.7587c0.8841-0.5059,1.5859-1.2237,2.1055-2.1534,0.51951-0.9296,0.77928-1.9323,0.77929-3.0078-0.00001-1.6679-0.57195-3.0898-1.7158-4.2656-1.1439-1.1758-2.5042-1.7637-4.081-1.7637z"/>
			<path id="path5357" style="" d="m429.99,1011.3,1.9551,0,0,2.1738c0.58333-0.8567,1.1986-1.497,1.8457-1.9209,0.64713-0.4238,1.3216-0.6357,2.0234-0.6357,0.52864,0,1.0938,0.1686,1.6953,0.5058l-0.99805,1.6133c-0.40105-0.1731-0.73829-0.2597-1.0117-0.2597-0.63803,0-1.2533,0.262-1.8457,0.7861-0.59245,0.5241-1.0436,1.3376-1.3535,2.4404-0.23698,0.8477-0.35547,2.5612-0.35547,5.1406v5.0313h-1.9551z"/>
			<path id="path5359" style="" d="m461.73,1011.3,0,14.875-1.8867,0,0-2.5567c-0.8021,0.9753-1.7022,1.709-2.7002,2.2012-0.99805,0.4922-2.0895,0.7383-3.2744,0.7383-2.1055,0-3.9033-0.7633-5.3936-2.29-1.4902-1.5267-2.2354-3.3838-2.2354-5.5713,0-2.1419,0.75195-3.974,2.2559-5.4961,1.5039-1.5221,3.3132-2.2832,5.4277-2.2832,1.2213,0,2.3265,0.2598,3.3154,0.7793,0.98892,0.5195,1.8571,1.2988,2.6045,2.3379v-2.7344zm-7.6562,1.4629c-1.0664,0-2.0508,0.262-2.9531,0.7861-0.90235,0.5241-1.6201,1.2601-2.1533,2.208s-0.79981,1.9506-0.7998,3.0078c-0.00001,1.0482,0.26887,2.0508,0.80664,3.0078,0.53775,0.9571,1.2601,1.7022,2.167,2.2354,0.90689,0.5332,1.8799,0.7998,2.919,0.7998,1.0482,0,2.0416-0.2643,2.9805-0.793,0.93879-0.5286,1.6611-1.2441,2.167-2.1465,0.50584-0.9023,0.75877-1.9186,0.75879-3.0488-0.00002-1.7226-0.5674-3.1627-1.7022-4.3203-1.1348-1.1575-2.5316-1.7363-4.1904-1.7363z"/>
			<path id="path5361" style="" d="m478.86,1011.3,1.9277,0,0,11.854c-0.00002,2.0872-0.18231,3.6139-0.54687,4.5801-0.50132,1.3672-1.3718,2.4199-2.6113,3.1582-1.2396,0.7383-2.7298,1.1074-4.4707,1.1074-1.276,0-2.4222-0.18-3.4385-0.54-1.0163-0.3601-1.8434-0.8431-2.4814-1.4492-0.63802-0.6062-1.2259-1.4926-1.7637-2.6592h2.0781c0.5651,0.9843,1.2943,1.7135,2.1875,2.1875,0.89322,0.4739,2.0006,0.7109,3.3223,0.7109,1.3034,0,2.404-0.2438,3.3018-0.7314,0.89777-0.4877,1.5381-1.1006,1.9209-1.8389s0.5742-1.9277,0.57422-3.5684v-0.7656c-0.72007,0.9115-1.5996,1.611-2.6387,2.0986-1.0391,0.4877-2.1419,0.7315-3.3086,0.7315-1.3672,0-2.6524-0.3395-3.8555-1.0186-1.2031-0.679-2.1328-1.5927-2.7891-2.7412-0.65625-1.1484-0.98438-2.4108-0.98437-3.7871-0.00001-1.3763,0.34179-2.6592,1.0254-3.8486,0.68359-1.1895,1.6292-2.1305,2.8369-2.8233,1.2077-0.6927,2.4814-1.039,3.8213-1.039,1.112,0,2.1488,0.2301,3.1104,0.6904,0.96158,0.4603,1.889,1.2191,2.7822,2.2764zm-5.6465,1.4629c-1.0846,0-2.0918,0.262-3.0215,0.7861-0.92969,0.5241-1.6589,1.2487-2.1875,2.1738-0.52865,0.9252-0.79297,1.9255-0.79297,3.001,0,1.6315,0.54687,2.9805,1.6406,4.0469,1.0938,1.0664,2.5111,1.5996,4.252,1.5996,1.7591,0,3.1741-0.5286,4.2451-1.5859,1.0709-1.0573,1.6064-2.4473,1.6064-4.17-0.00001-1.121-0.24611-2.1214-0.73828-3.0009-0.4922-0.8796-1.1895-1.5746-2.0918-2.085-0.90235-0.5104-1.873-0.7656-2.9121-0.7656z"/>
			<path id="path5363" style="" d="m485.58,1005.1c0.4375,0,0.81119,0.155,1.1211,0.4648,0.3099,0.3099,0.46484,0.6836,0.46485,1.1211-0.00001,0.4284-0.15495,0.7976-0.46485,1.1074-0.3099,0.31-0.68359,0.4649-1.1211,0.4649-0.42839,0-0.79753-0.1549-1.1074-0.4649-0.3099-0.3098-0.46485-0.679-0.46485-1.1074,0-0.4375,0.15495-0.8112,0.46485-1.1211,0.30989-0.3098,0.67903-0.4648,1.1074-0.4648zm-0.95703,6.125,1.9277,0,0,14.875-1.9277,0z"/>
			<path id="path5365" style="" d="m490.26,1005.5,1.9141,0,0,20.617-1.9141,0z"/>
			<path id="path5367" style="" d="m508.7,1021.2,1.6133,0.8477c-0.52866,1.0391-1.1393,1.8776-1.832,2.5156-0.69272,0.638-1.472,1.1234-2.3379,1.4561s-1.8457,0.499-2.9394,0.499c-2.4245,0-4.3203-0.7952-5.6875-2.3857s-2.0508-3.3884-2.0508-5.3936c-0.00001-1.8867,0.57877-3.5683,1.7363-5.0449,1.4674-1.8776,3.4316-2.8164,5.8926-2.8164,2.5338,0,4.5573,0.9616,6.0703,2.8847,1.0755,1.3581,1.6224,3.0534,1.6406,5.086h-13.371c0.0365,1.7318,0.58788,3.1514,1.6543,4.2588s2.3835,1.6611,3.9512,1.6611c0.7565,0,1.4925-0.1322,2.208-0.3965,0.71548-0.2643,1.3239-0.6152,1.8252-1.0527,0.50129-0.4375,1.0436-1.1439,1.627-2.1192zm0-4.0058c-0.25522-1.0208-0.62664-1.8366-1.1143-2.4473-0.48764-0.6106-1.1325-1.1028-1.9346-1.4765-0.80209-0.3737-1.6452-0.5606-2.5293-0.5606-1.4584,0-2.7116,0.4694-3.7598,1.4082-0.76563,0.6836-1.3444,1.709-1.7363,3.0762z"/>
			<path id="path5369" style="" d="m529.2,1010.9c2.2878,0,4.1836,0.8294,5.6875,2.4883,1.3672,1.513,2.0508,3.304,2.0508,5.373-0.00001,2.0781-0.72234,3.8942-2.167,5.4482-1.4447,1.5541-3.3018,2.3311-5.5713,2.3311-2.2786,0-4.1403-0.777-5.585-2.3311-1.4447-1.554-2.167-3.3701-2.167-5.4482,0-2.0599,0.68359-3.8463,2.0508-5.3594,1.5039-1.6679,3.4043-2.5019,5.7012-2.5019zm0,1.873c-1.5859,0-2.9486,0.5879-4.0879,1.7637s-1.709,2.5977-1.709,4.2656c-0.00001,1.0755,0.25976,2.0782,0.77929,3.0078,0.51953,0.9297,1.2214,1.6475,2.1055,2.1534,0.88411,0.5058,1.8548,0.7587,2.9121,0.7587s2.028-0.2529,2.9121-0.7587c0.8841-0.5059,1.5859-1.2237,2.1055-2.1534,0.51952-0.9296,0.77928-1.9323,0.7793-3.0078-0.00002-1.6679-0.57196-3.0898-1.7158-4.2656-1.1439-1.1758-2.5042-1.7637-4.0811-1.7637z"/>
			<path id="path5371" style="" d="m539.75,1011.3,1.9551,0,0,2.1738c0.58333-0.8567,1.1986-1.497,1.8457-1.9209,0.64713-0.4238,1.3216-0.6357,2.0234-0.6357,0.52864,0,1.0937,0.1686,1.6953,0.5058l-0.99805,1.6133c-0.40105-0.1731-0.73829-0.2597-1.0117-0.2597-0.63802,0-1.2533,0.262-1.8457,0.7861-0.59245,0.5241-1.0436,1.3376-1.3535,2.4404-0.23699,0.8477-0.35548,2.5612-0.35547,5.1406v5.0313h-1.9551z"/>
			<path id="path5373" style="" d="m561.71,1011.3,1.9277,0,0,11.854c-0.00001,2.0872-0.1823,3.6139-0.54687,4.5801-0.50132,1.3672-1.3718,2.4199-2.6113,3.1582-1.2396,0.7383-2.7298,1.1074-4.4707,1.1074-1.276,0-2.4222-0.18-3.4385-0.54-1.0163-0.3601-1.8434-0.8431-2.4814-1.4492-0.63803-0.6062-1.2259-1.4926-1.7637-2.6592h2.0781c0.5651,0.9843,1.2943,1.7135,2.1875,2.1875,0.89322,0.4739,2.0006,0.7109,3.3223,0.7109,1.3034,0,2.404-0.2438,3.3018-0.7314,0.89778-0.4877,1.5381-1.1006,1.9209-1.8389s0.5742-1.9277,0.57422-3.5684v-0.7656c-0.72007,0.9115-1.5996,1.611-2.6387,2.0986-1.0391,0.4877-2.1419,0.7315-3.3086,0.7315-1.3672,0-2.6524-0.3395-3.8555-1.0186-1.2031-0.679-2.1328-1.5927-2.7891-2.7412-0.65625-1.1484-0.98437-2.4108-0.98437-3.7871s0.34179-2.6592,1.0254-3.8486c0.68359-1.1895,1.6292-2.1305,2.8369-2.8233,1.2077-0.6927,2.4814-1.039,3.8213-1.039,1.112,0,2.1488,0.2301,3.1104,0.6904,0.96158,0.4603,1.889,1.2191,2.7822,2.2764zm-5.6465,1.4629c-1.0846,0-2.0918,0.262-3.0215,0.7861-0.92969,0.5241-1.6589,1.2487-2.1875,2.1738-0.52865,0.9252-0.79297,1.9255-0.79297,3.001,0,1.6315,0.54687,2.9805,1.6406,4.0469s2.5111,1.5996,4.252,1.5996c1.7591,0,3.1741-0.5286,4.2451-1.5859s1.6064-2.4473,1.6064-4.17c-0.00001-1.121-0.24611-2.1214-0.73828-3.0009-0.4922-0.8796-1.1895-1.5746-2.0918-2.085-0.90235-0.5104-1.873-0.7656-2.9121-0.7656z"/>
			<path id="path5375" style="" d="m582.59,1011.3,0,14.875-1.8867,0,0-2.5567c-0.80209,0.9753-1.7022,1.709-2.7002,2.2012-0.99806,0.4922-2.0895,0.7383-3.2744,0.7383-2.1055,0-3.9033-0.7633-5.3936-2.29-1.4902-1.5267-2.2354-3.3838-2.2354-5.5713,0-2.1419,0.75195-3.974,2.2559-5.4961,1.5039-1.5221,3.3131-2.2832,5.4277-2.2832,1.2214,0,2.3265,0.2598,3.3154,0.7793,0.98892,0.5195,1.8571,1.2988,2.6045,2.3379v-2.7344zm-7.6562,1.4629c-1.0664,0-2.0508,0.262-2.9531,0.7861-0.90235,0.5241-1.6201,1.2601-2.1533,2.208-0.53321,0.9479-0.79981,1.9506-0.79981,3.0078,0,1.0482,0.26888,2.0508,0.80664,3.0078,0.53776,0.9571,1.2601,1.7022,2.167,2.2354,0.90689,0.5332,1.8799,0.7998,2.9189,0.7998,1.0482,0,2.0417-0.2643,2.9805-0.793,0.93879-0.5286,1.6611-1.2441,2.167-2.1465,0.50585-0.9023,0.75878-1.9186,0.75879-3.0488-0.00001-1.7226-0.5674-3.1627-1.7022-4.3203-1.1348-1.1575-2.5316-1.7363-4.1904-1.7363z"/>
			<path id="path5377" style="" d="m586.91,1011.3,1.9141,0,0,2.666c0.76562-1.0208,1.6133-1.7842,2.543-2.29,0.92968-0.5059,1.9414-0.7588,3.0352-0.7588,1.112,0,2.0986,0.2825,2.96,0.8476,0.86132,0.5652,1.4971,1.3262,1.9072,2.2832,0.41014,0.9571,0.61522,2.4473,0.61523,4.4707v7.6563h-1.9004v-7.0957c-0.00001-1.7135-0.0729-2.8574-0.21875-3.4317-0.22787-0.9843-0.65626-1.7249-1.2852-2.2216-0.62892-0.4968-1.4492-0.7451-2.4609-0.7452-1.1576,0.0001-2.1943,0.3829-3.1104,1.1485-0.91602,0.7656-1.5199,1.7135-1.8115,2.8437-0.1823,0.7383-0.27345,2.0873-0.27344,4.0469v5.4551h-1.9141z"/>
			<path id="path5379" style="" d="m604.64,1005.1c0.43749,0,0.81119,0.155,1.1211,0.4648,0.30989,0.3099,0.46484,0.6836,0.46484,1.1211,0,0.4284-0.15495,0.7976-0.46484,1.1074-0.3099,0.31-0.6836,0.4649-1.1211,0.4649-0.42839,0-0.79753-0.1549-1.1074-0.4649-0.3099-0.3098-0.46485-0.679-0.46485-1.1074,0-0.4375,0.15495-0.8112,0.46485-1.1211,0.30989-0.3098,0.67903-0.4648,1.1074-0.4648zm-0.95703,6.125,1.9277,0,0,14.875-1.9277,0z"/>
			<path id="path5381" style="" d="m608.38,1011.3,10.924,0-8.4219,13.18,8.1484,0,0,1.6953-11.443,0,8.4219-13.193-7.6289,0z"/>
			<path id="path5383" style="" d="m636.34,1011.3,0,14.875-1.8867,0,0-2.5567c-0.8021,0.9753-1.7022,1.709-2.7002,2.2012-0.99806,0.4922-2.0895,0.7383-3.2744,0.7383-2.1055,0-3.9033-0.7633-5.3936-2.29-1.4902-1.5267-2.2354-3.3838-2.2354-5.5713,0-2.1419,0.75195-3.974,2.2559-5.4961,1.5039-1.5221,3.3131-2.2832,5.4277-2.2832,1.2214,0,2.3265,0.2598,3.3154,0.7793,0.98892,0.5195,1.8571,1.2988,2.6045,2.3379v-2.7344zm-7.6562,1.4629c-1.0664,0-2.0508,0.262-2.9531,0.7861-0.90235,0.5241-1.6201,1.2601-2.1533,2.208-0.53321,0.9479-0.79981,1.9506-0.7998,3.0078-0.00001,1.0482,0.26887,2.0508,0.80664,3.0078,0.53775,0.9571,1.2601,1.7022,2.167,2.2354,0.90689,0.5332,1.8799,0.7998,2.9189,0.7998,1.0482,0,2.0417-0.2643,2.9805-0.793,0.93879-0.5286,1.6611-1.2441,2.167-2.1465,0.50585-0.9023,0.75878-1.9186,0.75879-3.0488-0.00001-1.7226-0.56739-3.1627-1.7021-4.3203-1.1348-1.1575-2.5316-1.7363-4.1904-1.7363z"/>
			<path id="path5385" style="" d="m642.33,1005.7,1.9277,0,0,5.5234,3.0352,0,0,1.6406-3.0352,0,0,13.234-1.9277,0,0-13.234-2.6113,0,0-1.6406,2.6113,0z"/>
			<path id="path5387" style="" d="m650.85,1005.1c0.4375,0,0.8112,0.155,1.1211,0.4648,0.30989,0.3099,0.46484,0.6836,0.46484,1.1211,0,0.4284-0.15495,0.7976-0.46484,1.1074-0.3099,0.31-0.6836,0.4649-1.1211,0.4649-0.42838,0-0.79752-0.1549-1.1074-0.4649-0.30989-0.3098-0.46484-0.679-0.46484-1.1074,0-0.4375,0.15495-0.8112,0.46484-1.1211,0.3099-0.3098,0.67904-0.4648,1.1074-0.4648zm-0.95703,6.125,1.9277,0,0,14.875-1.9277,0z"/>
			<path id="path5389" style="" d="m662.85,1010.9c2.2878,0,4.1836,0.8294,5.6875,2.4883,1.3672,1.513,2.0508,3.304,2.0508,5.373-0.00001,2.0781-0.72234,3.8942-2.167,5.4482-1.4447,1.5541-3.3018,2.3311-5.5713,2.3311-2.2786,0-4.1403-0.777-5.585-2.3311-1.4447-1.554-2.167-3.3701-2.167-5.4482,0-2.0599,0.68359-3.8463,2.0508-5.3594,1.5039-1.6679,3.4043-2.5019,5.7012-2.5019zm0,1.873c-1.5859,0-2.9486,0.5879-4.0879,1.7637s-1.709,2.5977-1.709,4.2656c-0.00001,1.0755,0.25976,2.0782,0.77929,3.0078,0.51953,0.9297,1.2214,1.6475,2.1055,2.1534,0.88411,0.5058,1.8548,0.7587,2.9121,0.7587s2.028-0.2529,2.9121-0.7587c0.8841-0.5059,1.5859-1.2237,2.1055-2.1534,0.51952-0.9296,0.77928-1.9323,0.7793-3.0078-0.00002-1.6679-0.57196-3.0898-1.7158-4.2656-1.1439-1.1758-2.5042-1.7637-4.0811-1.7637z"/>
			<path id="path5391" style="" d="m674.13,1011.3,1.9141,0,0,2.666c0.76562-1.0208,1.6133-1.7842,2.543-2.29,0.92968-0.5059,1.9414-0.7588,3.0352-0.7588,1.112,0,2.0986,0.2825,2.96,0.8476,0.86131,0.5652,1.497,1.3262,1.9072,2.2832,0.41014,0.9571,0.61522,2.4473,0.61524,4.4707v7.6563h-1.9004v-7.0957c-0.00002-1.7135-0.0729-2.8574-0.21875-3.4317-0.22788-0.9843-0.65627-1.7249-1.2852-2.2216-0.62892-0.4968-1.4492-0.7451-2.4609-0.7452-1.1576,0.0001-2.1943,0.3829-3.1104,1.1485-0.91602,0.7656-1.5199,1.7135-1.8115,2.8437-0.1823,0.7383-0.27344,2.0873-0.27344,4.0469v5.4551h-1.9141z"/>
			<path id="path5393" style="" d="m698.67,1012.9-1.2305,1.2715c-1.0208-0.9934-2.0189-1.4902-2.9941-1.4902-0.61979,0-1.1507,0.2051-1.5928,0.6152-0.44206,0.4102-0.66309,0.8887-0.66309,1.4356,0,0.4831,0.18229,0.9433,0.54688,1.3808,0.36458,0.4467,1.1302,0.9707,2.2969,1.5723,1.4219,0.7383,2.388,1.4492,2.8984,2.1328,0.5013,0.6927,0.75195,1.472,0.75196,2.3379-0.00001,1.2214-0.4284,2.2559-1.2852,3.1035-0.85678,0.8477-1.9277,1.2715-3.2129,1.2715-0.85678,0-1.6748-0.1868-2.4541-0.5605s-1.4242-0.8887-1.9346-1.545l1.2031-1.3672c0.97526,1.1029,2.0098,1.6543,3.1035,1.6543,0.76562,0,1.4173-0.246,1.9551-0.7382,0.53775-0.4922,0.80663-1.071,0.80664-1.7364-0.00001-0.5468-0.17775-1.0345-0.53321-1.4629-0.35547-0.4192-1.1576-0.9479-2.4062-1.5859-1.3398-0.6927-2.2513-1.3763-2.7344-2.0508-0.48308-0.6744-0.72461-1.4446-0.72461-2.3105,0-1.1302,0.38509-2.069,1.1553-2.8164,0.77018-0.7474,1.7432-1.1211,2.919-1.1211,1.3672,0,2.7435,0.6699,4.1289,2.0097z"/>
		</g>
	</g>
</svg>
