<!-- Created with Inkscape (http://www.inkscape.org/) -->
<svg id="svg2" xmlns:rdf="http://www.w3.org/1999/02/22-rdf-syntax-ns#" xmlns="http://www.w3.org/2000/svg" viewBox="0 0 750 350" version="1.1" xmlns:cc="http://creativecommons.org/ns#" xmlns:dc="http://purl.org/dc/elements/1.1/">
	<metadata id="metadata7">
		<rdf:RDF>
			<cc:Work rdf:about="">
				<dc:format>image/svg+xml</dc:format>
				<dc:type rdf:resource="http://purl.org/dc/dcmitype/StillImage"/>
				<dc:title/>
			</cc:Work>
		</rdf:RDF>
	</metadata>
	<g id="layer1" transform="translate(0,-702.36218)">
		<path id="path3818" style="fill:#9fdbff;" d="m448.57143,245.71428a154.28572,154.28572,0,1,1,-308.57145,0,154.28572,154.28572,0,1,1,308.57145,0z" transform="matrix(0.97222218,0,0,0.97222218,-101.82539,632.90188)"/>
		<path id="path3818-1" style="fill:#ffffff;" d="m448.57143,245.71428a154.28572,154.28572,0,1,1,-308.57145,0,154.28572,154.28572,0,1,1,308.57145,0z" transform="matrix(0.46504628,0,0,0.46504628,216.32209,762.91511)"/>
		<path id="path3818-1-7" style="fill:#ffffff;" d="m448.57143,245.71428a154.28572,154.28572,0,1,1,-308.57145,0,154.28572,154.28572,0,1,1,308.57145,0z" transform="matrix(0.46504628,0,0,0.46504628,371.73281,762.91511)"/>
		<path id="path3818-1-4" style="fill:#ffffff;" d="m448.57143,245.71428a154.28572,154.28572,0,1,1,-308.57145,0,154.28572,154.28572,0,1,1,308.57145,0z" transform="matrix(0.46504628,0,0,0.46504628,527.14354,762.91511)"/>
		<g id="text3863" style="font-size:41.99659348px;font-family:Century Gothic;writing-mode:lr-tb;fill:#ffffff;letter-spacing:0px;text-anchor:start;line-height:125%;word-spacing:0px;font-stretch:normal;font-variant:normal;font-weight:bold;font-style:normal;text-align:start;">
			<path id="path5214" style="" d="m302.16992,732.02002,5.6597,0,4.3473,19.25528,5.39312-19.25528,4.77793,0,5.45464,19.25528,4.30629-19.25528,5.6597,0-6.78754,30.16455-5.51615,0-5.55717-19.50135-5.45464,19.50135-5.45463,0z"/>
			<path id="path5216" style="" d="m364.01647,752.64921-17.9839,0c0.25974,1.58582,0.95353,2.84694,2.08138,3.78339,1.12783,0.93645,2.56667,1.40467,4.31654,1.40467,2.09161,0,3.88932-0.73138,5.39312-2.19416l4.71641,2.21466c-1.1757,1.66784-2.58379,2.90162-4.22426,3.70136-1.64051,0.79974-3.5886,1.19961-5.84426,1.19961-3.49972,0-6.35007-1.10391-8.55106-3.31174-2.201-2.20782-3.30149-4.97273-3.30149-8.29474,0-3.404,1.09708-6.23043,3.29124-8.47929,2.19415-2.24882,4.94539-3.37324,8.25372-3.37326,3.51337,0.00002,6.37056,1.12444,8.57157,3.37326,2.20097,2.24886,3.30147,5.21883,3.30149,8.90992zm-5.61869-4.40882c-0.36913-1.24403-1.0971-2.25566-2.1839-3.03491-1.08685-0.77922-2.34797-1.16883-3.78339-1.16885-1.55848,0.00002-2.92555,0.43748-4.10123,1.31239-0.73823,0.54685-1.42177,1.51064-2.05061,2.89137z"/>
			<path id="path5218" style="" d="m367.97415,731.2613,5.59818,0,0,30.92327-5.59818,0z"/>
			<path id="path5220" style="" d="m400.49691,744.38523-4.6549,2.56327c-0.87495-0.91592-1.73962-1.55161-2.59403-1.90707-0.85444-0.35542-1.85582-0.53314-3.00415-0.53316-2.09164,0.00002-3.78339,0.62545-5.07527,1.87631-1.29189,1.25089-1.93784,2.85379-1.93783,4.80869-0.00001,1.90025,0.62201,3.45188,1.86606,4.6549,1.24403,1.20303,2.87768,1.80455,4.90097,1.80454,2.50173,0.00001,4.44982-0.85442,5.84425-2.56327l4.40882,3.01441c-2.3924,3.10326-5.76908,4.65489-10.13003,4.65489-3.92352,0-6.99603-1.16201-9.21752-3.48604-2.2215-2.32403-3.33225-5.04451-3.33225-8.16145,0-2.15997,0.54-4.14906,1.61999-5.96729,1.07999-1.81819,2.58719-3.24679,4.5216-4.28578,1.93441-1.03896,4.09781-1.55845,6.4902-1.55847,2.21465,0.00002,4.20374,0.4409,5.96729,1.32264,1.76351,0.88179,3.20577,2.13608,4.3268,3.76288z"/>
			<path id="path5222" style="" d="m416.04057,739.29971c2.10528,0.00002,4.08412,0.52634,5.93653,1.57897,1.85237,1.05267,3.29805,2.48126,4.33705,4.28579,1.03895,1.80455,1.55844,3.75264,1.55847,5.84425-0.00003,2.10531-0.52293,4.07389-1.56872,5.90577-1.04584,1.83189-2.47102,3.2639-4.27554,4.29604-1.80455,1.03214-3.79365,1.54821-5.96728,1.54821-3.19897,0-5.92971-1.13809-8.19221-3.41427-2.26252-2.27618-3.39377-5.04109-3.39377-8.29474,0-3.48603,1.27821-6.39106,3.83465-8.71511,2.242-2.02325,4.81894-3.03489,7.73082-3.03491zm0.082,5.27008c-1.73619,0.00002-3.18188,0.60495-4.33705,1.81479-1.15518,1.20988-1.73277,2.75809-1.73277,4.64465,0,1.94125,0.57075,3.51339,1.71227,4.71641,1.1415,1.20303,2.58718,1.80455,4.33705,1.80454,1.74984,0.00001,3.20578-0.60834,4.36781-1.82505,1.16199-1.21669,1.743-2.78199,1.74302-4.6959-0.00002-1.9139-0.57077-3.46895-1.71226-4.66515-1.14153-1.19618-2.60088-1.79427-4.37807-1.79429z"/>
			<path id="path5224" style="" d="m432.42498,739.87388,5.61868,0,0,2.56327c0.95694-1.05263,2.01985-1.8387,3.18871-2.35821,1.16883-0.51946,2.44363-0.77921,3.82439-0.77923,1.3944,0.00002,2.65211,0.34179,3.77313,1.02531,1.12099,0.68355,2.02326,1.68152,2.70682,2.99389,0.88857-1.31237,1.97882-2.31034,3.27073-2.99389,1.29186-0.68352,2.70336-1.02529,4.23452-1.02531,1.58577,0.00002,2.98019,0.36913,4.18325,1.10733,1.20299,0.73824,2.06767,1.70203,2.59403,2.89137,0.52629,1.18937,0.78945,3.12378,0.78949,5.80324v13.08292h-5.6392v-11.31939c-0.00003-2.52908-0.31445-4.24134-0.94328-5.13679-0.62888-0.89542-1.57216-1.34314-2.82985-1.34316-0.95698,0.00002-1.81482,0.27344-2.57352,0.82025-0.75875,0.54685-1.32267,1.30215-1.69176,2.26593-0.36913,0.9638-0.55368,2.51201-0.55366,4.64464v10.06852h-5.63919v-10.80674c-0.00002-1.99592-0.14698-3.4416-0.44088-4.33705-0.29394-0.89542-0.73482-1.56187-1.32265-1.99935-0.58786-0.43745-1.29874-0.65618-2.13264-0.6562-0.92963,0.00002-1.77379,0.27685-2.53251,0.8305-0.75874,0.55368-1.32607,1.3295-1.70201,2.32745-0.37596,0.99798-0.56393,2.57012-0.56392,4.71641v9.92498h-5.61868z"/>
			<path id="path5226" style="" d="m494.27153,752.64921-17.98389,0c0.25974,1.58582,0.95353,2.84694,2.08137,3.78339,1.12783,0.93645,2.56668,1.40467,4.31655,1.40467,2.09161,0,3.88931-0.73138,5.39312-2.19416l4.71641,2.21466c-1.17571,1.66784-2.5838,2.90162-4.22427,3.70136-1.64051,0.79974-3.58859,1.19961-5.84425,1.19961-3.49973,0-6.35008-1.10391-8.55106-3.31174-2.201-2.20782-3.3015-4.97273-3.30149-8.29474-0.00001-3.404,1.09707-6.23043,3.29123-8.47929,2.19415-2.24882,4.94539-3.37324,8.25373-3.37326,3.51337,0.00002,6.37056,1.12444,8.57157,3.37326,2.20097,2.24886,3.30146,5.21883,3.30149,8.90992zm-5.61868-4.40882c-0.36913-1.24403-1.0971-2.25566-2.18391-3.03491-1.08684-0.77922-2.34797-1.16883-3.78338-1.16885-1.55848,0.00002-2.92556,0.43748-4.10123,1.31239-0.73823,0.54685-1.42177,1.51064-2.05062,2.89137z"/>
			<path id="path5228" style="" d="m511.23011,731.65091,5.57767,0,0,8.22297,3.322,0,0,4.81895-3.322,0,0,17.49174-5.57767,0,0-17.49174-2.87086,0,0-4.81895,2.87086,0z"/>
			<path id="path5230" style="" d="m533.66384,739.29971c2.10528,0.00002,4.08412,0.52634,5.93653,1.57897,1.85237,1.05267,3.29805,2.48126,4.33705,4.28579,1.03895,1.80455,1.55844,3.75264,1.55847,5.84425-0.00003,2.10531-0.52294,4.07389-1.56872,5.90577-1.04584,1.83189-2.47102,3.2639-4.27554,4.29604-1.80456,1.03214-3.79365,1.54821-5.96729,1.54821-3.19897,0-5.9297-1.13809-8.1922-3.41427-2.26252-2.27618-3.39377-5.04109-3.39377-8.29474,0-3.48603,1.27821-6.39106,3.83465-8.71511,2.242-2.02325,4.81893-3.03489,7.73082-3.03491zm0.082,5.27008c-1.7362,0.00002-3.18188,0.60495-4.33705,1.81479-1.15519,1.20988-1.73278,2.75809-1.73277,4.64465-0.00001,1.94125,0.57075,3.51339,1.71227,4.71641,1.14149,1.20303,2.58718,1.80455,4.33705,1.80454,1.74984,0.00001,3.20577-0.60834,4.36781-1.82505,1.16199-1.21669,1.743-2.78199,1.74302-4.6959-0.00002-1.9139-0.57078-3.46895-1.71227-4.66515-1.14152-1.19618-2.60087-1.79427-4.37806-1.79429z"/>
			<path id="path5232" style="" d="m590.15827,737.33112-4.01921,3.83465c-2.73417-2.88451-5.81009-4.32677-9.22776-4.3268-2.88455,0.00003-5.31453,0.98432-7.28994,2.95289-1.97543,1.96861-2.96315,4.39516-2.96314,7.27968-0.00001,2.00961,0.43746,3.79365,1.3124,5.3521,0.87491,1.55848,2.11212,2.78201,3.71161,3.6706,1.59946,0.88861,3.37666,1.33291,5.3316,1.3329,1.66781,0.00001,3.1921-0.311,4.57287-0.93303,1.38072-0.62201,2.89818-1.75326,4.55236-3.39376l3.89617,4.06021c-2.22836,2.17366-4.33366,3.68086-6.31589,4.52161-1.98229,0.84075-4.2448,1.26113-6.78754,1.26113-4.68908,0-8.52715-1.4867-11.5142-4.46009-2.98707-2.97338-4.4806-6.78411-4.48059-11.43218-0.00001-3.00755,0.68011-5.68018,2.04036-8.0179,1.36023-2.33768,3.30832-4.21741,5.84425-5.63919,2.53592-1.42173,5.26665-2.13261,8.19221-2.13264,2.48806,0.00003,4.88386,0.52635,7.1874,1.57897,2.3035,1.05268,4.28918,2.54963,5.95704,4.49085z"/>
			<path id="path5234" style="" d="m594.52608,739.87388,5.6597,0,0,10.74522c-0.00001,2.09164,0.14353,3.54416,0.43062,4.35756,0.28708,0.81342,0.74847,1.44569,1.38417,1.89682,0.63568,0.45114,1.41833,0.67671,2.34795,0.6767,0.9296,0.00001,1.71909-0.22214,2.36846-0.66645,0.64935-0.44429,1.13124-1.09707,1.44569-1.95834,0.23238-0.64251,0.34859-2.01643,0.3486-4.12173v-10.92978h5.61869v9.45333c-0.00003,3.89618-0.30762,6.56198-0.92278,7.9974-0.75191,1.74986-1.85924,3.09302-3.322,4.02946-1.46278,0.93645-3.32201,1.40467-5.57767,1.40467-2.44708,0-4.42592-0.54683-5.93653-1.64049-1.51062-1.09366-2.57352-2.61795-3.1887-4.57287-0.43747-1.3534-0.6562-3.81413-0.6562-7.38221z"/>
			<path id="path5236" style="" d="m642.07984,752.64921-17.9839,0c0.25974,1.58582,0.95353,2.84694,2.08138,3.78339,1.12783,0.93645,2.56667,1.40467,4.31654,1.40467,2.09161,0,3.88932-0.73138,5.39312-2.19416l4.71641,2.21466c-1.17571,1.66784-2.58379,2.90162-4.22426,3.70136-1.64051,0.79974-3.5886,1.19961-5.84426,1.19961-3.49972,0-6.35007-1.10391-8.55106-3.31174-2.201-2.20782-3.30149-4.97273-3.30149-8.29474,0-3.404,1.09708-6.23043,3.29124-8.47929,2.19415-2.24882,4.94539-3.37324,8.25372-3.37326,3.51337,0.00002,6.37056,1.12444,8.57157,3.37326,2.20097,2.24886,3.30147,5.21883,3.30149,8.90992zm-5.61869-4.40882c-0.36913-1.24403-1.0971-2.25566-2.1839-3.03491-1.08685-0.77922-2.34797-1.16883-3.78339-1.16885-1.55848,0.00002-2.92555,0.43748-4.10123,1.31239-0.73823,0.54685-1.42177,1.51064-2.05061,2.89137z"/>
			<path id="path5238" style="fill:#9fdbff;" d="m645.64792,732.02002,18.25047,0-10.76572,24.6484,10.06852,0,0,5.51615-18.43503,0,10.72471-24.48434-9.84295,0z"/>
			<path id="path5240" style="fill:#9fdbff;" d="m689.98221,752.64921-17.98389,0c0.25973,1.58582,0.95353,2.84694,2.08137,3.78339,1.12783,0.93645,2.56668,1.40467,4.31655,1.40467,2.09161,0,3.88931-0.73138,5.39311-2.19416l4.71642,2.21466c-1.17571,1.66784-2.5838,2.90162-4.22427,3.70136-1.64051,0.79974-3.58859,1.19961-5.84425,1.19961-3.49973,0-6.35008-1.10391-8.55107-3.31174-2.20099-2.20782-3.30149-4.97273-3.30149-8.29474,0-3.404,1.09708-6.23043,3.29124-8.47929,2.19415-2.24882,4.94539-3.37324,8.25373-3.37326,3.51337,0.00002,6.37055,1.12444,8.57157,3.37326,2.20097,2.24886,3.30146,5.21883,3.30149,8.90992zm-5.61868-4.40882c-0.36913-1.24403-1.0971-2.25566-2.18391-3.03491-1.08684-0.77922-2.34797-1.16883-3.78338-1.16885-1.55848,0.00002-2.92556,0.43748-4.10123,1.31239-0.73823,0.54685-1.42177,1.51064-2.05062,2.89137z"/>
			<path id="path5242" style="fill:#9fdbff;" d="m693.2222,739.87388,4.79844,0,0,2.80934c0.51948-1.10731,1.20985-1.94806,2.07112-2.52225,0.86125-0.57415,1.80453-0.86124,2.82985-0.86126,0.72453,0.00002,1.48326,0.19141,2.27618,0.57417l-1.74302,4.81895c-0.65621-0.32809-1.19621-0.49213-1.61999-0.49215-0.86127,0.00002-1.58923,0.53317-2.1839,1.59948-0.59469,1.06633-0.89203,3.15796-0.89202,6.27488l0.0205,1.08682v9.02271h-5.55716z"/>
			<path id="path5244" style="fill:#9fdbff;" d="m718.46526,739.29971c2.10528,0.00002,4.08412,0.52634,5.93653,1.57897,1.85237,1.05267,3.29805,2.48126,4.33705,4.28579,1.03895,1.80455,1.55844,3.75264,1.55847,5.84425-0.00003,2.10531-0.52293,4.07389-1.56872,5.90577-1.04584,1.83189-2.47101,3.2639-4.27553,4.29604-1.80456,1.03214-3.79366,1.54821-5.96729,1.54821-3.19897,0-5.92971-1.13809-8.19221-3.41427-2.26252-2.27618-3.39377-5.04109-3.39377-8.29474,0-3.48603,1.27822-6.39106,3.83465-8.71511,2.242-2.02325,4.81894-3.03489,7.73082-3.03491zm0.082,5.27008c-1.73619,0.00002-3.18188,0.60495-4.33705,1.81479-1.15518,1.20988-1.73277,2.75809-1.73277,4.64465,0,1.94125,0.57075,3.51339,1.71227,4.71641,1.1415,1.20303,2.58718,1.80455,4.33705,1.80454,1.74984,0.00001,3.20578-0.60834,4.36781-1.82505,1.16199-1.21669,1.743-2.78199,1.74302-4.6959-0.00002-1.9139-0.57077-3.46895-1.71226-4.66515-1.14153-1.19618-2.60088-1.79427-4.37807-1.79429z"/>
		</g>
		<g id="text5290" style="font-size:28px;font-family:Century Gothic;writing-mode:lr-tb;fill:#ffffff;letter-spacing:0px;text-anchor:start;line-height:125%;word-spacing:0px;font-stretch:normal;font-variant:normal;font-weight:normal;font-style:normal;text-align:start;">
			<path id="path5400" style="" d="m332.78625,972.98114,0-1.95508,11.03321,0,0,1.95508-4.48438,0,0,18.15625-2.05078,0,0-18.15625z"/>
			<path id="path5402" style="" d="m346.38977,970.5202,1.91406,0,0,8.40821c0.77474-1.02082,1.62695-1.78417,2.55664-2.29004,0.92968-0.50585,1.93684-0.75878,3.02149-0.75879,1.11197,0.00001,2.09862,0.28256,2.95996,0.84765,0.86131,0.56512,1.49706,1.32391,1.90723,2.27637,0.41014,0.95249,0.61521,2.445,0.61523,4.47754v7.65625h-1.91406v-7.0957c-0.00002-1.71354-0.0684-2.85741-0.20508-3.43164-0.23699-0.98437-0.66766-1.72493-1.29199-2.22168-0.62436-0.49673-1.4424-0.74511-2.4541-0.74512-1.15756,0.00001-2.19435,0.38283-3.11036,1.14844-0.91602,0.76563-1.51986,1.71355-1.81152,2.84375-0.1823,0.72917-0.27344,2.07813-0.27344,4.04687v5.45508h-1.91406z"/>
			<path id="path5404" style="" d="m375.97571,986.20184,1.61328,0.84766c-0.52866,1.03907-1.13934,1.87761-1.83203,2.51562-0.69272,0.63803-1.47202,1.12338-2.33789,1.45606-0.8659,0.33268-1.84572,0.49902-2.93946,0.49902-2.42448,0-4.32031-0.79524-5.6875-2.38574-1.36719-1.59049-2.05078-3.38834-2.05078-5.39355,0-1.88671,0.57878-3.56835,1.73633-5.04493,1.46744-1.87759,3.43164-2.81639,5.89258-2.8164,2.53384,0.00001,4.55728,0.9616,6.07031,2.88476,1.07551,1.35809,1.62238,3.0534,1.64063,5.08594h-13.3711c0.0365,1.73178,0.58789,3.15137,1.6543,4.25879,1.0664,1.10742,2.38346,1.66113,3.95117,1.66113,0.7565,0,1.4925-0.13216,2.20801-0.39648,0.71548-0.26432,1.32388-0.61523,1.82519-1.05274,0.50129-0.43749,1.04361-1.14387,1.62696-2.11914zm0-4.00586c-0.25522-1.02082-0.62664-1.83657-1.11426-2.44726-0.48764-0.61067-1.1325-1.10285-1.93457-1.47656-0.80209-0.37369-1.64519-0.56054-2.5293-0.56055-1.45834,0.00001-2.71159,0.46941-3.75976,1.4082-0.76563,0.68361-1.34441,1.709-1.73633,3.07617z"/>
			<path id="path5406" style="" d="m388.70422,976.26239,1.95508,0,0,2.17383c0.58333-0.85676,1.19856-1.49706,1.8457-1.9209,0.64713-0.42381,1.32161-0.63573,2.02344-0.63574,0.52864,0.00001,1.09374,0.16863,1.69531,0.50586l-0.99804,1.61328c-0.40105-0.17317-0.73829-0.25975-1.01172-0.25977-0.63803,0.00002-1.25326,0.26206-1.8457,0.78614-0.59246,0.5241-1.04363,1.33757-1.35352,2.44043-0.23698,0.84766-0.35547,2.5612-0.35547,5.14062v5.03125h-1.95508z"/>
			<path id="path5408" style="" d="m410.37415,986.20184,1.61328,0.84766c-0.52866,1.03907-1.13934,1.87761-1.83203,2.51562-0.69273,0.63803-1.47202,1.12338-2.3379,1.45606-0.86589,0.33268-1.84571,0.49902-2.93945,0.49902-2.42448,0-4.32032-0.79524-5.6875-2.38574-1.36719-1.59049-2.05078-3.38834-2.05078-5.39355,0-1.88671,0.57877-3.56835,1.73633-5.04493,1.46744-1.87759,3.43163-2.81639,5.89258-2.8164,2.53384,0.00001,4.55727,0.9616,6.07031,2.88476,1.0755,1.35809,1.62238,3.0534,1.64062,5.08594h-13.37109c0.0365,1.73178,0.58789,3.15137,1.6543,4.25879,1.0664,1.10742,2.38345,1.66113,3.95117,1.66113,0.7565,0,1.4925-0.13216,2.20801-0.39648,0.71548-0.26432,1.32388-0.61523,1.82519-1.05274,0.50129-0.43749,1.04361-1.14387,1.62696-2.11914zm0-4.00586c-0.25523-1.02082-0.62665-1.83657-1.11426-2.44726-0.48765-0.61067-1.1325-1.10285-1.93457-1.47656-0.8021-0.37369-1.64519-0.56054-2.5293-0.56055-1.45834,0.00001-2.71159,0.46941-3.75977,1.4082-0.76562,0.68361-1.3444,1.709-1.73632,3.07617z"/>
			<path id="path5410" style="" d="m430.88196,976.26239,0,14.875-1.88672,0,0-2.55664c-0.8021,0.97526-1.70216,1.70898-2.7002,2.20117-0.99805,0.49219-2.08952,0.73828-3.27441,0.73828-2.10548,0-3.90333-0.76334-5.39355-2.29004-1.49024-1.52669-2.23536-3.38378-2.23536-5.57129,0-2.14191,0.75195-3.97394,2.25586-5.49609,1.5039-1.52212,3.31315-2.28319,5.42774-2.2832,1.22134,0.00001,2.32648,0.25978,3.31543,0.77929,0.98892,0.51955,1.85708,1.29885,2.60449,2.3379v-2.73438zm-7.65625,1.46289c-1.06642,0.00001-2.05079,0.26206-2.95313,0.78613-0.90235,0.5241-1.62012,1.26011-2.15332,2.20801-0.5332,0.94793-0.79981,1.95053-0.7998,3.00781-0.00001,1.04819,0.26887,2.05079,0.80664,3.00782,0.53775,0.95703,1.26008,1.70215,2.16699,2.23535,0.90689,0.5332,1.87988,0.7998,2.91895,0.7998,1.04816,0,2.04165-0.26432,2.98046-0.79297,0.93879-0.52864,1.66112-1.24413,2.167-2.14648,0.50584-0.90234,0.75877-1.91861,0.75879-3.04883-0.00002-1.72265-0.5674-3.16275-1.70215-4.32031-1.13478-1.15754-2.53159-1.73632-4.19043-1.73633z"/>
			<path id="path5412" style="" d="m434.91516,970.5202,1.91406,0,0,20.61719-1.91406,0z"/>
			<path id="path5414" style="" d="m439.59094,982.74286,7.51953,0,0,1.66797-7.51953,0z"/>
			<path id="path5416" style="" d="m451.79993,970.73895,1.92773,0,0,5.52344,3.03516,0,0,1.64063-3.03516,0,0,13.23437-1.92773,0,0-13.23437-2.61133,0,0-1.64063,2.61133,0z"/>
			<path id="path5418" style="" d="m460.3175,970.13739c0.4375,0.00002,0.8112,0.15497,1.1211,0.46484,0.30989,0.30992,0.46484,0.68362,0.46484,1.1211,0,0.4284-0.15495,0.79754-0.46484,1.10742-0.3099,0.30991-0.6836,0.46486-1.1211,0.46484-0.42838,0.00002-0.79752-0.15493-1.10742-0.46484-0.30989-0.30988-0.46484-0.67902-0.46484-1.10742,0-0.43748,0.15495-0.81118,0.46484-1.1211,0.3099-0.30987,0.67904-0.46482,1.10742-0.46484zm-0.95703,6.125,1.92774,0,0,14.875-1.92774,0z"/>
			<path id="path5420" style="" d="m465.26672,976.26239,1.90039,0,0,2.57031c0.66536-0.9479,1.34896-1.64061,2.05079-2.07812,0.96613-0.58332,1.98241-0.87499,3.04882-0.875,0.72005,0.00001,1.40364,0.14129,2.05078,0.42383,0.64713,0.28256,1.17577,0.65854,1.58594,1.12793,0.41015,0.46941,0.76561,1.14161,1.06641,2.0166,0.63801-1.16666,1.43553-2.05305,2.39258-2.65918,0.95701-0.60611,1.98696-0.90917,3.08984-0.90918,1.02993,0.00001,1.93911,0.25978,2.72754,0.77929,0.78839,0.51955,1.374,1.24416,1.75684,2.17383,0.38278,0.9297,0.57419,2.32423,0.57421,4.1836v8.12109h-1.95507v-8.12109c-0.00003-1.59505-0.11396-2.69107-0.3418-3.28809-0.22789-0.59699-0.61754-1.07779-1.16895-1.44238-0.55145-0.36457-1.20998-0.54686-1.97558-0.54688-0.92971,0.00002-1.77964,0.27345-2.54981,0.82032-0.77019,0.54688-1.33302,1.27605-1.68847,2.1875-0.35549,0.91146-0.53322,2.4336-0.53321,4.5664v5.82422h-1.90039v-7.61523c-0.00001-1.79557-0.11166-3.01464-0.33496-3.65723-0.22332-0.64257-0.61296-1.15754-1.16894-1.54492-0.556-0.38736-1.21681-0.58104-1.98243-0.58106-0.88412,0.00002-1.71127,0.26662-2.48144,0.79981-0.77019,0.53321-1.33985,1.25099-1.70898,2.15332-0.36915,0.90235-0.55372,2.28321-0.55372,4.14258v6.30273h-1.90039z"/>
			<path id="path5422" style="" d="m504.05383,986.20184,1.61328,0.84766c-0.52866,1.03907-1.13933,1.87761-1.83203,2.51562-0.69272,0.63803-1.47202,1.12338-2.33789,1.45606-0.86589,0.33268-1.84571,0.49902-2.93945,0.49902-2.42449,0-4.32032-0.79524-5.6875-2.38574-1.36719-1.59049-2.05078-3.38834-2.05078-5.39355,0-1.88671,0.57877-3.56835,1.73633-5.04493,1.46744-1.87759,3.43163-2.81639,5.89257-2.8164,2.53385,0.00001,4.55728,0.9616,6.07032,2.88476,1.0755,1.35809,1.62238,3.0534,1.64062,5.08594h-13.37109c0.0365,1.73178,0.58788,3.15137,1.65429,4.25879s2.38346,1.66113,3.95118,1.66113c0.7565,0,1.4925-0.13216,2.208-0.39648,0.71549-0.26432,1.32389-0.61523,1.8252-1.05274,0.50129-0.43749,1.04361-1.14387,1.62695-2.11914zm0-4.00586c-0.25522-1.02082-0.62664-1.83657-1.11425-2.44726-0.48765-0.61067-1.1325-1.10285-1.93458-1.47656-0.80209-0.37369-1.64519-0.56054-2.52929-0.56055-1.45834,0.00001-2.7116,0.46941-3.75977,1.4082-0.76563,0.68361-1.3444,1.709-1.73633,3.07617z"/>
			<path id="path5424" style="" d="m523.63196,970.5202,0,1.87305c-0.70183-0.30076-1.30339-0.45115-1.80469-0.45117-0.3737,0.00002-0.6836,0.0752-0.92969,0.22558-0.2461,0.15041-0.40104,0.32359-0.46484,0.51953-0.0638,0.19599-0.0957,0.7178-0.0957,1.56543v2.00977h3.10351v1.64063h-3.11719v13.23437h-1.91406v-13.23437h-1.95508v-1.64063h1.95508v-2.32422c0-1.06639,0.098-1.82745,0.29395-2.2832,0.19596-0.45571,0.52864-0.82257,0.99804-1.10059,0.4694-0.27797,1.03678-0.41697,1.70215-0.41699,0.61979,0.00002,1.36263,0.12763,2.22852,0.38281z"/>
			<path id="path5426" style="" d="m538.83508,986.20184,1.61328,0.84766c-0.52866,1.03907-1.13933,1.87761-1.83203,2.51562-0.69272,0.63803-1.47202,1.12338-2.33789,1.45606-0.86589,0.33268-1.84571,0.49902-2.93945,0.49902-2.42449,0-4.32032-0.79524-5.6875-2.38574-1.36719-1.59049-2.05078-3.38834-2.05078-5.39355,0-1.88671,0.57877-3.56835,1.73633-5.04493,1.46744-1.87759,3.43163-2.81639,5.89257-2.8164,2.53385,0.00001,4.55728,0.9616,6.07032,2.88476,1.0755,1.35809,1.62238,3.0534,1.64062,5.08594h-13.37109c0.0364,1.73178,0.58788,3.15137,1.65429,4.25879s2.38346,1.66113,3.95118,1.66113c0.7565,0,1.4925-0.13216,2.208-0.39648,0.71549-0.26432,1.32389-0.61523,1.8252-1.05274,0.50129-0.43749,1.04361-1.14387,1.62695-2.11914zm0-4.00586c-0.25522-1.02082-0.62664-1.83657-1.11425-2.44726-0.48765-0.61067-1.1325-1.10285-1.93458-1.47656-0.80209-0.37369-1.64519-0.56054-2.52929-0.56055-1.45834,0.00001-2.7116,0.46941-3.75977,1.4082-0.76563,0.68361-1.3444,1.709-1.73633,3.07617z"/>
			<path id="path5428" style="" d="m557.04602,986.20184,1.61328,0.84766c-0.52866,1.03907-1.13934,1.87761-1.83203,2.51562-0.69272,0.63803-1.47202,1.12338-2.33789,1.45606-0.8659,0.33268-1.84571,0.49902-2.93945,0.49902-2.42449,0-4.32032-0.79524-5.6875-2.38574-1.36719-1.59049-2.05079-3.38834-2.05078-5.39355-0.00001-1.88671,0.57877-3.56835,1.73632-5.04493,1.46745-1.87759,3.43164-2.81639,5.89258-2.8164,2.53384,0.00001,4.55728,0.9616,6.07031,2.88476,1.07551,1.35809,1.62238,3.0534,1.64063,5.08594h-13.37109c0.0365,1.73178,0.58788,3.15137,1.65429,4.25879,1.0664,1.10742,2.38346,1.66113,3.95117,1.66113,0.7565,0,1.49251-0.13216,2.20801-0.39648,0.71548-0.26432,1.32388-0.61523,1.8252-1.05274,0.50129-0.43749,1.0436-1.14387,1.62695-2.11914zm0-4.00586c-0.25522-1.02082-0.62664-1.83657-1.11426-2.44726-0.48764-0.61067-1.1325-1.10285-1.93457-1.47656-0.80209-0.37369-1.64519-0.56054-2.52929-0.56055-1.45835,0.00001-2.7116,0.46941-3.75977,1.4082-0.76563,0.68361-1.34441,1.709-1.73633,3.07617z"/>
			<path id="path5430" style="" d="m577.58118,970.5202,0,20.61719-1.88672,0,0-2.55664c-0.8021,0.97526-1.70216,1.70898-2.7002,2.20117-0.99806,0.49219-2.08953,0.73828-3.27441,0.73828-2.10548,0-3.90333-0.76334-5.39356-2.29004-1.49023-1.52669-2.23535-3.38378-2.23535-5.57129,0-2.14191,0.75195-3.97394,2.25586-5.49609,1.5039-1.52212,3.31315-2.28319,5.42774-2.2832,1.22134,0.00001,2.32648,0.25978,3.31543,0.77929,0.98891,0.51955,1.85708,1.29885,2.60449,2.3379v-8.47657zm-7.65625,7.20508c-1.06642,0.00001-2.05079,0.26206-2.95313,0.78613-0.90235,0.5241-1.62012,1.26011-2.15332,2.20801-0.53321,0.94793-0.79981,1.95053-0.7998,3.00781-0.00001,1.04819,0.26887,2.05079,0.80664,3.00782,0.53775,0.95703,1.26008,1.70215,2.16699,2.23535,0.90689,0.5332,1.87987,0.7998,2.91894,0.7998,1.04817,0,2.04166-0.26432,2.98047-0.79297,0.93879-0.52864,1.66112-1.24413,2.167-2.14648,0.50584-0.90234,0.75877-1.91861,0.75878-3.04883-0.00001-1.72265-0.56739-3.16275-1.70214-4.32031-1.13478-1.15754-2.53159-1.73632-4.19043-1.73633z"/>
			<path id="path5432" style="" d="m582.05188,991.13739,0-20.61719,1.90039,0,0,8.29883c0.80208-0.98436,1.69986-1.72036,2.69336-2.20801,0.99348-0.48761,2.08267-0.73143,3.26758-0.73144,2.10545,0.00001,3.9033,0.76336,5.39355,2.29004,1.49022,1.5267,2.23534,3.37924,2.23535,5.55761-0.00001,2.15105-0.75197,3.98764-2.25586,5.50977-1.50392,1.52214-3.31316,2.2832-5.42773,2.2832-1.21225,0-2.31055-0.25976-3.29492-0.77929-0.98438-0.51953-1.85482-1.29883-2.61133-2.33789v2.73437zm7.65625-1.46289c1.0664,0,2.05077-0.26204,2.95312-0.78613,0.90233-0.52409,1.62011-1.26009,2.15333-2.20801,0.53318-0.94791,0.79978-1.95052,0.7998-3.00781-0.00002-1.05729-0.2689-2.06445-0.80664-3.02149-0.53778-0.95702-1.26011-1.70213-2.16699-2.23535-0.90692-0.53319-1.87534-0.79979-2.90528-0.7998-1.04818,0.00001-2.04395,0.26661-2.9873,0.7998-0.94337,0.53322-1.66798,1.25099-2.17383,2.15332-0.50586,0.90235-0.75879,1.91863-0.75879,3.04883,0,1.72266,0.56738,3.16276,1.70215,4.32031,1.13476,1.15756,2.53157,1.73633,4.19043,1.73633z"/>
			<path id="path5434" style="" d="m615.83508,976.26239,0,14.875-1.88672,0,0-2.55664c-0.80209,0.97526-1.70216,1.70898-2.70019,2.20117-0.99806,0.49219-2.08953,0.73828-3.27442,0.73828-2.10547,0-3.90332-0.76334-5.39355-2.29004-1.49024-1.52669-2.23535-3.38378-2.23535-5.57129,0-2.14191,0.75195-3.97394,2.25586-5.49609,1.5039-1.52212,3.31314-2.28319,5.42773-2.2832,1.22135,0.00001,2.32649,0.25978,3.31543,0.77929,0.98892,0.51955,1.85708,1.29885,2.60449,2.3379v-2.73438zm-7.65625,1.46289c-1.06641,0.00001-2.05079,0.26206-2.95312,0.78613-0.90235,0.5241-1.62012,1.26011-2.15332,2.20801-0.53321,0.94793-0.79981,1.95053-0.79981,3.00781,0,1.04819,0.26888,2.05079,0.80664,3.00782s1.26009,1.70215,2.167,2.23535c0.90689,0.5332,1.87987,0.7998,2.91894,0.7998,1.04817,0,2.04166-0.26432,2.98047-0.79297,0.93879-0.52864,1.66112-1.24413,2.16699-2.14648,0.50585-0.90234,0.75878-1.91861,0.75879-3.04883-0.00001-1.72265-0.5674-3.16275-1.70215-4.32031-1.13478-1.15754-2.53158-1.73632-4.19043-1.73633z"/>
			<path id="path5436" style="" d="m634.5929,979.35223-1.51758,0.94336c-1.31252-1.74087-3.10353-2.61131-5.37305-2.61132-1.81381,0.00001-3.31999,0.58334-4.51855,1.75-1.19858,1.16667-1.79786,2.58399-1.79786,4.25195,0,1.08464,0.27572,2.10547,0.82715,3.0625s1.30794,1.69987,2.26953,2.22851c0.96159,0.52865,2.03938,0.79297,3.2334,0.79297,2.18749,0,3.97395-0.87044,5.35938-2.61133l1.51758,0.99805c-0.71096,1.06641-1.66571,1.89356-2.86426,2.48145-1.19858,0.58789-2.56349,0.88183-4.09473,0.88183-2.35157,0-4.30209-0.74739-5.85156-2.24218-1.54948-1.49479-2.32422-3.31315-2.32422-5.45508,0-1.4401,0.3623-2.77766,1.08691-4.0127,0.72461-1.23501,1.72038-2.19888,2.98731-2.8916,1.26692-0.69269,2.68424-1.03905,4.25195-1.03906,0.98437,0.00001,1.93456,0.1504,2.85059,0.45117,0.916,0.3008,1.69302,0.69272,2.33105,1.17578,0.63801,0.48309,1.18032,1.09832,1.62696,1.8457z"/>
			<path id="path5438" style="" d="m638.24329,970.5202,1.92773,0,0,11.73047,6.87695-5.98828,2.81641,0-8.16211,7.0957,8.64063,7.7793-2.70704,0-7.46484-6.68555,0,6.68555-1.92773,0z"/>
			<path id="path5440" style="" d="m659.79016,970.5202,1.91406,0,0,20.61719-1.91406,0z"/>
			<path id="path5442" style="" d="m672.7511,975.87958c2.28775,0.00001,4.18358,0.82944,5.6875,2.48828,1.36717,1.51303,2.05076,3.30404,2.05078,5.37305-0.00002,2.07813-0.72235,3.8942-2.16699,5.44824-1.44468,1.55403-3.30177,2.33105-5.57129,2.33105-2.27865,0-4.14031-0.77702-5.58496-2.33105-1.44467-1.55404-2.167-3.37011-2.16699-5.44824-0.00001-2.05989,0.68359-3.84635,2.05078-5.35938,1.5039-1.66795,3.40429-2.50194,5.70117-2.50195zm0,1.87304c-1.58595,0.00002-2.94858,0.58791-4.08789,1.76368-1.13933,1.17579-1.70899,2.59766-1.70899,4.26562,0,1.07553,0.25977,2.07813,0.7793,3.00781,0.51953,0.92969,1.22135,1.64747,2.10547,2.15332,0.88411,0.50587,1.85481,0.75879,2.91211,0.75879,1.05728,0,2.02798-0.25292,2.91211-0.75879,0.8841-0.50585,1.58592-1.22363,2.10547-2.15332,0.51951-0.92968,0.77928-1.93228,0.77929-3.00781-0.00001-1.66796-0.57195-3.08983-1.71582-4.26562-1.14389-1.17577-2.50424-1.76366-4.08105-1.76368z"/>
			<path id="path5444" style="" d="m691.07141,975.87958c2.28775,0.00001,4.18358,0.82944,5.6875,2.48828,1.36717,1.51303,2.05077,3.30404,2.05078,5.37305-0.00001,2.07813-0.72234,3.8942-2.16699,5.44824-1.44467,1.55403-3.30177,2.33105-5.57129,2.33105-2.27865,0-4.1403-0.77702-5.58496-2.33105-1.44466-1.55404-2.16699-3.37011-2.16699-5.44824,0-2.05989,0.68359-3.84635,2.05078-5.35938,1.5039-1.66795,3.40429-2.50194,5.70117-2.50195zm0,1.87304c-1.58594,0.00002-2.94857,0.58791-4.08789,1.76368-1.13933,1.17579-1.70899,2.59766-1.70898,4.26562-0.00001,1.07553,0.25976,2.07813,0.77929,3.00781,0.51953,0.92969,1.22135,1.64747,2.10547,2.15332,0.88411,0.50587,1.85481,0.75879,2.91211,0.75879,1.05728,0,2.02798-0.25292,2.91211-0.75879,0.8841-0.50585,1.58592-1.22363,2.10547-2.15332,0.51952-0.92968,0.77928-1.93228,0.7793-3.00781-0.00002-1.66796-0.57196-3.08983-1.71582-4.26562-1.1439-1.17577-2.50425-1.76366-4.08106-1.76368z"/>
			<path id="path5446" style="" d="m702.37805,976.26239,1.90039,0,0,2.73438c0.75651-1.03905,1.62695-1.81835,2.61133-2.3379,0.98437-0.51951,2.08267-0.77928,3.29492-0.77929,2.11457,0.00001,3.92382,0.76108,5.42774,2.2832,1.50389,1.52215,2.25584,3.35418,2.25586,5.49609-0.00002,2.18751-0.74514,4.0446-2.23536,5.57129-1.49024,1.5267-3.28809,2.29004-5.39355,2.29004-1.1849,0-2.2741-0.24609-3.26758-0.73828-0.99349-0.49219-1.89128-1.22591-2.69336-2.20117v7.99805h-1.90039zm7.65625,1.46289c-1.65886,0.00001-3.05567,0.57879-4.19043,1.73633-1.13477,1.15756-1.70215,2.59766-1.70215,4.32031,0,1.13022,0.25293,2.14649,0.75879,3.04883,0.50586,0.90235,1.23047,1.61784,2.17383,2.14648,0.94335,0.52865,1.93912,0.79297,2.98731,0.79297,1.02993,0,1.99836-0.2666,2.90527-0.7998,0.90689-0.5332,1.62922-1.27832,2.16699-2.23535,0.53775-0.95703,0.80663-1.95963,0.80664-3.00782-0.00001-1.05728-0.26662-2.05988-0.7998-3.00781-0.53322-0.9479-1.25099-1.68391-2.15332-2.20801-0.90236-0.52407-1.88673-0.78612-2.95313-0.78613z"/>
			<path id="path5448" style="" d="m340.5929,1005.5202,0,1.873c-0.70183-0.3007-1.3034-0.4511-1.80469-0.4511-0.37371,0-0.6836,0.075-0.92969,0.2256-0.2461,0.1504-0.40105,0.3235-0.46484,0.5195-0.0638,0.196-0.0957,0.7178-0.0957,1.5654v2.0098h3.10352v1.6406h-3.11719v13.2344h-1.91406v-13.2344h-1.95508v-1.6406h1.95508v-2.3242c0-1.0664,0.098-1.8275,0.29394-2.2832,0.19596-0.4557,0.52865-0.8226,0.99805-1.1006s1.03678-0.417,1.70215-0.417c0.61978,0,1.36262,0.1276,2.22852,0.3828z"/>
			<path id="path5450" style="" d="m350.3136,1010.8796c2.28775,0,4.18358,0.8294,5.6875,2.4883,1.36717,1.513,2.05076,3.304,2.05078,5.373-0.00002,2.0781-0.72235,3.8942-2.16699,5.4482-1.44468,1.5541-3.30177,2.3311-5.57129,2.3311-2.27865,0-4.14031-0.777-5.58496-2.3311-1.44467-1.554-2.167-3.3701-2.16699-5.4482-0.00001-2.0599,0.68359-3.8463,2.05078-5.3594,1.5039-1.6679,3.40429-2.5019,5.70117-2.5019zm0,1.873c-1.58595,0-2.94858,0.5879-4.08789,1.7637-1.13933,1.1758-1.70899,2.5977-1.70899,4.2656,0,1.0755,0.25977,2.0782,0.7793,3.0078,0.51953,0.9297,1.22135,1.6475,2.10547,2.1534,0.88411,0.5058,1.85481,0.7587,2.91211,0.7587,1.05728,0,2.02798-0.2529,2.91211-0.7587,0.8841-0.5059,1.58592-1.2237,2.10547-2.1534,0.51951-0.9296,0.77928-1.9323,0.77929-3.0078-0.00001-1.6679-0.57195-3.0898-1.71582-4.2656-1.14389-1.1758-2.50424-1.7637-4.08105-1.7637z"/>
			<path id="path5452" style="" d="m360.86829,1011.2624,1.95507,0,0,2.1738c0.58333-0.8567,1.19857-1.497,1.84571-1.9209,0.64713-0.4238,1.32161-0.6357,2.02343-0.6357,0.52864,0,1.09375,0.1686,1.69532,0.5058l-0.99805,1.6133c-0.40105-0.1731-0.73829-0.2597-1.01172-0.2597-0.63803,0-1.25326,0.262-1.8457,0.7861-0.59245,0.5241-1.04363,1.3376-1.35352,2.4404-0.23698,0.8477-0.35547,2.5612-0.35547,5.1406v5.0313h-1.95507z"/>
			<path id="path5454" style="" d="m392.60071,1011.2624,0,14.875-1.88672,0,0-2.5567c-0.8021,0.9753-1.70216,1.709-2.7002,2.2012-0.99805,0.4922-2.08952,0.7383-3.27441,0.7383-2.10548,0-3.90333-0.7633-5.39355-2.29-1.49024-1.5267-2.23536-3.3838-2.23536-5.5713,0-2.1419,0.75195-3.974,2.25586-5.4961,1.5039-1.5221,3.31315-2.2832,5.42774-2.2832,1.22134,0,2.32648,0.2598,3.31543,0.7793,0.98892,0.5195,1.85708,1.2988,2.60449,2.3379v-2.7344zm-7.65625,1.4629c-1.06642,0-2.05079,0.262-2.95313,0.7861-0.90235,0.5241-1.62012,1.2601-2.15332,2.208s-0.79981,1.9506-0.7998,3.0078c-0.00001,1.0482,0.26887,2.0508,0.80664,3.0078,0.53775,0.9571,1.26008,1.7022,2.16699,2.2354,0.90689,0.5332,1.87988,0.7998,2.91895,0.7998,1.04816,0,2.04165-0.2643,2.98046-0.793,0.93879-0.5286,1.66112-1.2441,2.167-2.1465,0.50584-0.9023,0.75877-1.9186,0.75879-3.0488-0.00002-1.7226-0.5674-3.1627-1.70215-4.3203-1.13478-1.1575-2.53159-1.7363-4.19043-1.7363z"/>
			<path id="path5456" style="" d="m409.73157,1011.2624,1.92773,0,0,11.8535c-0.00002,2.0872-0.18231,3.6139-0.54687,4.5801-0.50132,1.3672-1.37176,2.4199-2.61133,3.1582-1.2396,0.7383-2.72983,1.1074-4.4707,1.1074-1.27605,0-2.42221-0.18-3.43848-0.54-1.01628-0.3601-1.84343-0.8431-2.48145-1.4492-0.63802-0.6062-1.22591-1.4926-1.76367-2.6592h2.07813c0.5651,0.9843,1.29426,1.7135,2.1875,2.1875,0.89322,0.4739,2.00064,0.7109,3.32226,0.7109,1.30338,0,2.40396-0.2438,3.30176-0.7314,0.89777-0.4877,1.53807-1.1006,1.9209-1.8389,0.3828-0.7383,0.5742-1.9277,0.57422-3.5684v-0.7656c-0.72007,0.9115-1.59963,1.611-2.63867,2.0986-1.03908,0.4877-2.14194,0.7315-3.3086,0.7315-1.36719,0-2.65235-0.3395-3.85547-1.0186-1.20313-0.679-2.13281-1.5927-2.78906-2.7412-0.65625-1.1484-0.98438-2.4108-0.98437-3.7871-0.00001-1.3763,0.34179-2.6592,1.02539-3.8486,0.68359-1.1895,1.62922-2.1305,2.83691-2.8233,1.20768-0.6927,2.48144-1.039,3.82129-1.039,1.11197,0,2.14875,0.2301,3.11035,0.6904,0.96158,0.4603,1.88898,1.2191,2.78223,2.2764zm-5.64649,1.4629c-1.08464,0-2.0918,0.262-3.02148,0.7861-0.92969,0.5241-1.65886,1.2487-2.1875,2.1738-0.52865,0.9252-0.79297,1.9255-0.79297,3.001,0,1.6315,0.54687,2.9805,1.64062,4.0469s2.51107,1.5996,4.25196,1.5996c1.7591,0,3.17414-0.5286,4.24512-1.5859,1.07094-1.0573,1.60643-2.4473,1.60644-4.17-0.00001-1.121-0.24611-2.1214-0.73828-3.0009-0.4922-0.8796-1.18947-1.5746-2.0918-2.085-0.90235-0.5104-1.87305-0.7656-2.91211-0.7656z"/>
			<path id="path5458" style="" d="m416.45813,1005.1374c0.4375,0,0.81119,0.155,1.12109,0.4648,0.3099,0.3099,0.46484,0.6836,0.46485,1.1211-0.00001,0.4284-0.15495,0.7976-0.46485,1.1074-0.3099,0.31-0.68359,0.4649-1.12109,0.4649-0.42839,0-0.79753-0.1549-1.10742-0.4649-0.3099-0.3098-0.46485-0.679-0.46485-1.1074,0-0.4375,0.15495-0.8112,0.46485-1.1211,0.30989-0.3098,0.67903-0.4648,1.10742-0.4648zm-0.95703,6.125,1.92773,0,0,14.875-1.92773,0z"/>
			<path id="path5460" style="" d="m421.13391,1005.5202,1.91406,0,0,20.6172-1.91406,0z"/>
			<path id="path5462" style="" d="m439.57727,1021.2018,1.61328,0.8477c-0.52866,1.0391-1.13934,1.8776-1.83203,2.5156-0.69272,0.638-1.47202,1.1234-2.33789,1.4561-0.8659,0.3327-1.84571,0.499-2.93945,0.499-2.42449,0-4.32032-0.7952-5.6875-2.3857-1.36719-1.5905-2.05079-3.3884-2.05078-5.3936-0.00001-1.8867,0.57877-3.5683,1.73632-5.0449,1.46745-1.8776,3.43164-2.8164,5.89258-2.8164,2.53384,0,4.55728,0.9616,6.07031,2.8847,1.07551,1.3581,1.62238,3.0534,1.64063,5.086h-13.37109c0.0365,1.7318,0.58788,3.1514,1.65429,4.2588,1.0664,1.1074,2.38346,1.6611,3.95117,1.6611,0.7565,0,1.49251-0.1322,2.20801-0.3965,0.71548-0.2643,1.32388-0.6152,1.8252-1.0527,0.50129-0.4375,1.0436-1.1439,1.62695-2.1192zm0-4.0058c-0.25522-1.0208-0.62664-1.8366-1.11426-2.4473-0.48764-0.6106-1.1325-1.1028-1.93457-1.4765-0.80209-0.3737-1.64519-0.5606-2.52929-0.5606-1.45835,0-2.7116,0.4694-3.75977,1.4082-0.76563,0.6836-1.34441,1.709-1.73633,3.0762z"/>
			<path id="path5464" style="" d="m460.07141,1010.8796c2.28775,0,4.18358,0.8294,5.6875,2.4883,1.36717,1.513,2.05077,3.304,2.05078,5.373-0.00001,2.0781-0.72234,3.8942-2.16699,5.4482-1.44467,1.5541-3.30177,2.3311-5.57129,2.3311-2.27865,0-4.1403-0.777-5.58496-2.3311-1.44466-1.554-2.16699-3.3701-2.16699-5.4482,0-2.0599,0.68359-3.8463,2.05078-5.3594,1.5039-1.6679,3.40429-2.5019,5.70117-2.5019zm0,1.873c-1.58594,0-2.94857,0.5879-4.08789,1.7637-1.13933,1.1758-1.70899,2.5977-1.70898,4.2656-0.00001,1.0755,0.25976,2.0782,0.77929,3.0078,0.51953,0.9297,1.22135,1.6475,2.10547,2.1534,0.88411,0.5058,1.85481,0.7587,2.91211,0.7587,1.05728,0,2.02798-0.2529,2.91211-0.7587,0.8841-0.5059,1.58592-1.2237,2.10547-2.1534,0.51952-0.9296,0.77928-1.9323,0.7793-3.0078-0.00002-1.6679-0.57196-3.0898-1.71582-4.2656-1.1439-1.1758-2.50425-1.7637-4.08106-1.7637z"/>
			<path id="path5466" style="" d="m470.6261,1011.2624,1.95508,0,0,2.1738c0.58333-0.8567,1.19856-1.497,1.8457-1.9209,0.64713-0.4238,1.32161-0.6357,2.02344-0.6357,0.52864,0,1.09374,0.1686,1.69531,0.5058l-0.99805,1.6133c-0.40105-0.1731-0.73829-0.2597-1.01172-0.2597-0.63802,0-1.25326,0.262-1.8457,0.7861-0.59245,0.5241-1.04362,1.3376-1.35351,2.4404-0.23699,0.8477-0.35548,2.5612-0.35547,5.1406v5.0313h-1.95508z"/>
			<path id="path5468" style="" d="m492.58313,1011.2624,1.92773,0,0,11.8535c-0.00001,2.0872-0.1823,3.6139-0.54687,4.5801-0.50132,1.3672-1.37176,2.4199-2.61133,3.1582-1.23959,0.7383-2.72983,1.1074-4.4707,1.1074-1.27605,0-2.42221-0.18-3.43848-0.54-1.01628-0.3601-1.84343-0.8431-2.48144-1.4492-0.63803-0.6062-1.22592-1.4926-1.76368-2.6592h2.07813c0.5651,0.9843,1.29427,1.7135,2.1875,2.1875,0.89322,0.4739,2.00064,0.7109,3.32226,0.7109,1.30338,0,2.40396-0.2438,3.30176-0.7314,0.89778-0.4877,1.53807-1.1006,1.9209-1.8389,0.3828-0.7383,0.5742-1.9277,0.57422-3.5684v-0.7656c-0.72007,0.9115-1.59962,1.611-2.63867,2.0986-1.03908,0.4877-2.14194,0.7315-3.3086,0.7315-1.36719,0-2.65235-0.3395-3.85546-1.0186-1.20313-0.679-2.13282-1.5927-2.78907-2.7412-0.65625-1.1484-0.98437-2.4108-0.98437-3.7871s0.34179-2.6592,1.02539-3.8486c0.68359-1.1895,1.62923-2.1305,2.83691-2.8233,1.20768-0.6927,2.48144-1.039,3.82129-1.039,1.11197,0,2.14875,0.2301,3.11035,0.6904,0.96158,0.4603,1.88899,1.2191,2.78223,2.2764zm-5.64648,1.4629c-1.08465,0-2.09181,0.262-3.02149,0.7861-0.92969,0.5241-1.65886,1.2487-2.1875,2.1738-0.52865,0.9252-0.79297,1.9255-0.79297,3.001,0,1.6315,0.54687,2.9805,1.64063,4.0469,1.09374,1.0664,2.51106,1.5996,4.25195,1.5996,1.7591,0,3.17414-0.5286,4.24512-1.5859,1.07095-1.0573,1.60643-2.4473,1.60644-4.17-0.00001-1.121-0.24611-2.1214-0.73828-3.0009-0.4922-0.8796-1.18946-1.5746-2.0918-2.085-0.90235-0.5104-1.87305-0.7656-2.9121-0.7656z"/>
			<path id="path5470" style="" d="m513.46008,1011.2624,0,14.875-1.88672,0,0-2.5567c-0.80209,0.9753-1.70216,1.709-2.70019,2.2012-0.99806,0.4922-2.08953,0.7383-3.27442,0.7383-2.10547,0-3.90332-0.7633-5.39355-2.29-1.49024-1.5267-2.23535-3.3838-2.23535-5.5713,0-2.1419,0.75195-3.974,2.25586-5.4961,1.5039-1.5221,3.31314-2.2832,5.42773-2.2832,1.22135,0,2.32649,0.2598,3.31543,0.7793,0.98892,0.5195,1.85708,1.2988,2.60449,2.3379v-2.7344zm-7.65625,1.4629c-1.06641,0-2.05079,0.262-2.95312,0.7861-0.90235,0.5241-1.62012,1.2601-2.15332,2.208-0.53321,0.9479-0.79981,1.9506-0.79981,3.0078,0,1.0482,0.26888,2.0508,0.80664,3.0078,0.53776,0.9571,1.26009,1.7022,2.167,2.2354,0.90689,0.5332,1.87987,0.7998,2.91894,0.7998,1.04817,0,2.04166-0.2643,2.98047-0.793,0.93879-0.5286,1.66112-1.2441,2.16699-2.1465,0.50585-0.9023,0.75878-1.9186,0.75879-3.0488-0.00001-1.7226-0.5674-3.1627-1.70215-4.3203-1.13478-1.1575-2.53158-1.7363-4.19043-1.7363z"/>
			<path id="path5472" style="" d="m517.7804,1011.2624,1.91406,0,0,2.666c0.76562-1.0208,1.61327-1.7842,2.54297-2.29,0.92968-0.5059,1.94139-0.7588,3.03515-0.7588,1.11197,0,2.09862,0.2825,2.95996,0.8476,0.86132,0.5652,1.49706,1.3262,1.90723,2.2832,0.41014,0.9571,0.61522,2.4473,0.61523,4.4707v7.6563h-1.90039v-7.0957c-0.00001-1.7135-0.0729-2.8574-0.21875-3.4317-0.22787-0.9843-0.65626-1.7249-1.28515-2.2216-0.62892-0.4968-1.44923-0.7451-2.46094-0.7452-1.15756,0.0001-2.19434,0.3829-3.11035,1.1485-0.91602,0.7656-1.51986,1.7135-1.81152,2.8437-0.1823,0.7383-0.27345,2.0873-0.27344,4.0469v5.4551h-1.91406z"/>
			<path id="path5474" style="" d="m535.51282,1005.1374c0.43749,0,0.81119,0.155,1.12109,0.4648,0.30989,0.3099,0.46484,0.6836,0.46484,1.1211,0,0.4284-0.15495,0.7976-0.46484,1.1074-0.3099,0.31-0.6836,0.4649-1.12109,0.4649-0.42839,0-0.79753-0.1549-1.10742-0.4649-0.3099-0.3098-0.46485-0.679-0.46485-1.1074,0-0.4375,0.15495-0.8112,0.46485-1.1211,0.30989-0.3098,0.67903-0.4648,1.10742-0.4648zm-0.95703,6.125,1.92773,0,0,14.875-1.92773,0z"/>
			<path id="path5476" style="" d="m539.25891,1011.2624,10.92383,0-8.42188,13.1797,8.14844,0,0,1.6953-11.44336,0,8.42188-13.1934-7.62891,0z"/>
			<path id="path5478" style="" d="m567.2179,1011.2624,0,14.875-1.88672,0,0-2.5567c-0.8021,0.9753-1.70217,1.709-2.7002,2.2012-0.99806,0.4922-2.08953,0.7383-3.27441,0.7383-2.10548,0-3.90333-0.7633-5.39356-2.29s-2.23535-3.3838-2.23535-5.5713c0-2.1419,0.75195-3.974,2.25586-5.4961,1.5039-1.5221,3.31314-2.2832,5.42773-2.2832,1.22135,0,2.32649,0.2598,3.31543,0.7793,0.98892,0.5195,1.85709,1.2988,2.6045,2.3379v-2.7344zm-7.65625,1.4629c-1.06642,0-2.05079,0.262-2.95313,0.7861-0.90235,0.5241-1.62012,1.2601-2.15332,2.208-0.53321,0.9479-0.79981,1.9506-0.7998,3.0078-0.00001,1.0482,0.26887,2.0508,0.80664,3.0078,0.53775,0.9571,1.26008,1.7022,2.16699,2.2354,0.90689,0.5332,1.87987,0.7998,2.91894,0.7998,1.04817,0,2.04166-0.2643,2.98047-0.793,0.93879-0.5286,1.66112-1.2441,2.16699-2.1465,0.50585-0.9023,0.75878-1.9186,0.75879-3.0488-0.00001-1.7226-0.56739-3.1627-1.70214-4.3203-1.13478-1.1575-2.53159-1.7363-4.19043-1.7363z"/>
			<path id="path5480" style="" d="m573.20618,1005.739,1.92773,0,0,5.5234,3.03516,0,0,1.6406-3.03516,0,0,13.2344-1.92773,0,0-13.2344-2.61133,0,0-1.6406,2.61133,0z"/>
			<path id="path5482" style="" d="m581.72375,1005.1374c0.4375,0,0.8112,0.155,1.1211,0.4648,0.30989,0.3099,0.46484,0.6836,0.46484,1.1211,0,0.4284-0.15495,0.7976-0.46484,1.1074-0.3099,0.31-0.6836,0.4649-1.1211,0.4649-0.42838,0-0.79752-0.1549-1.10742-0.4649-0.30989-0.3098-0.46484-0.679-0.46484-1.1074,0-0.4375,0.15495-0.8112,0.46484-1.1211,0.3099-0.3098,0.67904-0.4648,1.10742-0.4648zm-0.95703,6.125,1.92774,0,0,14.875-1.92774,0z"/>
			<path id="path5484" style="" d="m593.72766,1010.8796c2.28775,0,4.18358,0.8294,5.6875,2.4883,1.36717,1.513,2.05077,3.304,2.05078,5.373-0.00001,2.0781-0.72234,3.8942-2.16699,5.4482-1.44467,1.5541-3.30177,2.3311-5.57129,2.3311-2.27865,0-4.1403-0.777-5.58496-2.3311-1.44466-1.554-2.16699-3.3701-2.16699-5.4482,0-2.0599,0.68359-3.8463,2.05078-5.3594,1.5039-1.6679,3.40429-2.5019,5.70117-2.5019zm0,1.873c-1.58594,0-2.94857,0.5879-4.08789,1.7637-1.13933,1.1758-1.70899,2.5977-1.70898,4.2656-0.00001,1.0755,0.25976,2.0782,0.77929,3.0078,0.51953,0.9297,1.22135,1.6475,2.10547,2.1534,0.88411,0.5058,1.85481,0.7587,2.91211,0.7587,1.05728,0,2.02798-0.2529,2.91211-0.7587,0.8841-0.5059,1.58592-1.2237,2.10547-2.1534,0.51952-0.9296,0.77928-1.9323,0.7793-3.0078-0.00002-1.6679-0.57196-3.0898-1.71582-4.2656-1.1439-1.1758-2.50425-1.7637-4.08106-1.7637z"/>
			<path id="path5486" style="" d="m605.00696,1011.2624,1.91406,0,0,2.666c0.76562-1.0208,1.61328-1.7842,2.54297-2.29,0.92968-0.5059,1.9414-0.7588,3.03516-0.7588,1.11196,0,2.09862,0.2825,2.95996,0.8476,0.86131,0.5652,1.49705,1.3262,1.90722,2.2832,0.41014,0.9571,0.61522,2.4473,0.61524,4.4707v7.6563h-1.90039v-7.0957c-0.00002-1.7135-0.0729-2.8574-0.21875-3.4317-0.22788-0.9843-0.65627-1.7249-1.28516-2.2216-0.62892-0.4968-1.44923-0.7451-2.46094-0.7452-1.15756,0.0001-2.19434,0.3829-3.11035,1.1485-0.91602,0.7656-1.51986,1.7135-1.81152,2.8437-0.1823,0.7383-0.27344,2.0873-0.27344,4.0469v5.4551h-1.91406z"/>
			<path id="path5488" style="" d="m629.54797,1012.8893-1.23047,1.2715c-1.02084-0.9934-2.01888-1.4902-2.99414-1.4902-0.61979,0-1.15072,0.2051-1.59277,0.6152-0.44206,0.4102-0.66309,0.8887-0.66309,1.4356,0,0.4831,0.18229,0.9433,0.54688,1.3808,0.36458,0.4467,1.1302,0.9707,2.29687,1.5723,1.42187,0.7383,2.38802,1.4492,2.89844,2.1328,0.5013,0.6927,0.75195,1.472,0.75196,2.3379-0.00001,1.2214-0.4284,2.2559-1.28516,3.1035-0.85678,0.8477-1.92774,1.2715-3.21289,1.2715-0.85678,0-1.67481-0.1868-2.4541-0.5605-0.7793-0.3737-1.42416-0.8887-1.93457-1.545l1.20312-1.3672c0.97526,1.1029,2.00976,1.6543,3.10352,1.6543,0.76562,0,1.41731-0.246,1.95508-0.7382,0.53775-0.4922,0.80663-1.071,0.80664-1.7364-0.00001-0.5468-0.17775-1.0345-0.53321-1.4629-0.35547-0.4192-1.15756-0.9479-2.40625-1.5859-1.33984-0.6927-2.2513-1.3763-2.73437-2.0508-0.48308-0.6744-0.72461-1.4446-0.72461-2.3105,0-1.1302,0.38509-2.069,1.15527-2.8164s1.74316-1.1211,2.91895-1.1211c1.36718,0,2.74348,0.6699,4.1289,2.0097z"/>
		</g>
	</g>
</svg>
