<?xml version="1.0" encoding="UTF-8" standalone="no"?>
<!-- Created with Inkscape (http://www.inkscape.org/) -->

<svg
   xmlns:dc="http://purl.org/dc/elements/1.1/"
   xmlns:cc="http://creativecommons.org/ns#"
   xmlns:rdf="http://www.w3.org/1999/02/22-rdf-syntax-ns#"
   xmlns:svg="http://www.w3.org/2000/svg"
   xmlns="http://www.w3.org/2000/svg"
   version="1.1"
   width="100%"
   height="100%"
   viewBox="0 0 219.99927 129.98999"
   id="svg2">
  <defs
     id="defs5266" />
  <metadata
     id="metadata7">
    <rdf:RDF>
      <cc:Work
         rdf:about="">
        <dc:format>image/svg+xml</dc:format>
        <dc:type
           rdf:resource="http://purl.org/dc/dcmitype/StillImage" />
        <dc:title></dc:title>
      </cc:Work>
    </rdf:RDF>
  </metadata>
  <path
     d="m 86.27763,48.14005 c 0,21.06367 -17.07391,38.14005 -38.13758,38.14005 C 27.07638,86.2801 10,69.20372 10,48.14005 10,27.07638 27.07539,10 48.14005,10 69.20372,10 86.2801,27.07539 86.2801,48.14005 z"
     id="path3818"
     style="fill:#9fdbff" />
  <path
     d="m 109.32467,49.51179 c 0,10.07546 -8.16703,18.24366 -18.24248,18.24366 -10.07546,0 -18.24366,-8.1682 -18.24366,-18.24366 0,-10.07545 8.16773,-18.24366 18.24366,-18.24366 10.07545,0 18.24366,8.16773 18.24366,18.24366 z"
     id="path3818-1"
     style="fill:#ffffff" />
  <path
     d="m 148.83939,49.51179 c 0,10.07546 -8.16702,18.24366 -18.24248,18.24366 -10.07545,0 -18.24365,-8.1682 -18.24365,-18.24366 0,-10.07545 8.16773,-18.24366 18.24365,-18.24366 10.07546,0 18.24366,8.16773 18.24366,18.24366 z"
     id="path3818-1-7"
     style="fill:#ffffff" />
  <path
     d="m 188.35412,49.51179 c 0,10.07546 -8.16702,18.24366 -18.24248,18.24366 -10.07545,0 -18.24366,-8.1682 -18.24366,-18.24366 0,-10.07545 8.16773,-18.24366 18.24366,-18.24366 10.07546,0 18.24366,8.16773 18.24366,18.24366 z"
     id="path3818-1-4"
     style="fill:#ffffff" />
  <g
     transform="matrix(0.25425997,0,0,0.25425997,1.28251,-3.58264)"
     id="text3863"
     style="font-size:154.80223083px;font-style:normal;font-variant:normal;font-weight:bold;font-stretch:normal;text-align:start;line-height:125%;letter-spacing:0px;word-spacing:0px;writing-mode:lr-tb;text-anchor:start;fill:#ffffff;font-family:Century Gothic">
    <path
       d="m 304.31763,391.6008 -14.81505,14.13478 c -10.07836,-10.63249 -21.41641,-15.94877 -34.01416,-15.94886 -10.63264,9e-5 -19.58969,3.62826 -26.87119,10.88453 -7.28158,7.25643 -10.92236,16.20088 -10.92233,26.83339 -3e-5,7.40758 1.6125,13.98364 4.83757,19.72822 3.22501,5.74464 7.78542,10.25466 13.68125,13.53007 5.89574,3.27546 12.44661,4.91318 19.65263,4.91316 6.14767,2e-5 11.7663,-1.14638 16.85591,-3.43921 5.08944,-2.29278 10.68287,-6.46266 16.78032,-12.50965 l 14.36153,14.96623 c -8.21389,8.01223 -15.97415,13.56787 -23.2808,16.66694 -7.30683,3.09906 -15.64659,4.6486 -25.01931,4.6486 -17.28428,0 -31.43164,-5.48006 -42.44211,-16.44018 -11.01053,-10.96009 -16.51578,-25.00667 -16.51577,-42.13977 -1e-5,-11.08603 2.50696,-20.93753 7.52091,-29.55452 5.01392,-8.61683 12.19468,-15.54563 21.5423,-20.78644 9.34755,-5.24058 19.41322,-7.86093 30.19702,-7.86105 9.17115,1.2e-4 18.00223,1.94018 26.49325,5.8202 8.49084,3.88024 15.81018,9.39809 21.95803,16.55356 z"
       id="path5276" />
    <path
       d="m 320.41767,400.9736 20.86202,0 0,39.6076 c -3e-5,7.70991 0.52908,13.06398 1.58733,16.06224 1.05818,2.99831 2.75889,5.32891 5.10212,6.9918 2.34316,1.66293 5.22806,2.49439 8.65472,2.49437 3.42656,2e-5 6.33666,-0.81884 8.7303,-2.45658 2.39353,-1.63769 4.16982,-4.04388 5.32888,-7.21856 0.8566,-2.36836 1.28492,-7.43269 1.28498,-15.19299 l 0,-40.28788 20.71085,0 0,34.84561 c -8e-5,14.36157 -1.13389,24.18788 -3.40142,29.47894 -2.7716,6.45011 -6.85329,11.40105 -12.2451,14.85286 -5.39193,3.4518 -12.24515,5.1777 -20.55967,5.17771 -9.02009,-10e-6 -16.31423,-2.01566 -21.88244,-6.04697 -5.56826,-4.0313 -9.48619,-9.64993 -11.75378,-16.8559 -1.61254,-4.98872 -2.4188,-14.05915 -2.41879,-27.21133 z"
       id="path5278" />
    <path
       d="m 495.70399,448.06431 -66.28983,0 c 0.95741,5.84543 3.51477,10.49403 7.67209,13.94581 4.15725,3.45182 9.46093,5.17773 15.91107,5.17771 7.70982,2e-5 14.33627,-2.69592 19.87938,-8.08781 l 17.38502,8.1634 c -4.33374,6.14775 -9.52404,10.69557 -15.57093,13.64346 -6.04702,2.94789 -13.22779,4.42183 -21.5423,4.42184 -12.90022,-10e-6 -23.40681,-4.0691 -31.51979,-12.20731 -8.11302,-8.13818 -12.16952,-18.32982 -12.16951,-30.57495 -10e-6,-12.54739 4.04389,-22.96579 12.13172,-31.25524 8.08778,-8.28929 18.22903,-12.43398 30.42378,-12.43406 12.95051,8e-5 23.48229,4.14477 31.59537,12.43406 8.11292,8.28945 12.16942,19.23696 12.16951,32.84257 z M 474.99314,431.8131 c -1.36064,-4.58555 -4.04397,-8.31451 -8.05002,-11.18688 -4.00617,-2.87224 -8.65477,-4.30839 -13.9458,-4.30846 -5.74466,7e-5 -10.78379,1.61259 -15.11741,4.83757 -2.72116,2.01572 -5.24073,5.5683 -7.5587,10.65777 z"
       id="path5280" />
    <path
       d="m 508.85612,372.02376 67.27245,0 -39.68319,90.85561 37.11323,0 0,20.33291 -67.95274,0 39.53202,-90.25091 -36.28177,0 z"
       id="path5282"
       style="fill:#9fdbff" />
    <path
       d="m 672.27528,448.06431 -66.28983,0 c 0.95741,5.84543 3.51477,10.49403 7.67209,13.94581 4.15724,3.45182 9.46093,5.17773 15.91107,5.17771 7.70981,2e-5 14.33627,-2.69592 19.87938,-8.08781 l 17.38502,8.1634 c -4.33374,6.14775 -9.52404,10.69557 -15.57093,13.64346 -6.04703,2.94789 -13.22779,4.42183 -21.5423,4.42184 -12.90022,-10e-6 -23.40681,-4.0691 -31.51979,-12.20731 -8.11302,-8.13818 -12.16952,-18.32982 -12.16951,-30.57495 -10e-6,-12.54739 4.04389,-22.96579 12.13172,-31.25524 8.08778,-8.28929 18.22903,-12.43398 30.42377,-12.43406 12.95052,8e-5 23.4823,4.14477 31.59538,12.43406 8.11292,8.28945 12.16942,19.23696 12.16951,32.84257 z M 651.56443,431.8131 c -1.36064,-4.58555 -4.04397,-8.31451 -8.05002,-11.18688 -4.00617,-2.87224 -8.65477,-4.30839 -13.9458,-4.30846 -5.74466,7e-5 -10.78379,1.61259 -15.11741,4.83757 -2.72117,2.01572 -5.24073,5.5683 -7.5587,10.65777 z"
       id="path5284"
       style="fill:#9fdbff" />
    <path
       d="m 684.21804,400.9736 17.68737,0 0,10.35542 c 1.91484,-4.08163 4.4596,-7.18069 7.63429,-9.29721 3.17462,-2.11635 6.65162,-3.17457 10.43101,-3.17465 2.67069,8e-5 5.46741,0.70556 8.39016,2.11644 l -6.4249,17.76295 c -2.41883,-1.20933 -4.40928,-1.81403 -5.97138,-1.81409 -3.17468,6e-5 -5.85802,1.96532 -8.05001,5.89579 -2.19205,3.93058 -3.28807,11.64045 -3.28804,23.12963 l 0.0756,4.00611 0,33.25829 -20.48409,0 z"
       id="path5286"
       style="fill:#9fdbff" />
    <path
       d="m 777.26564,398.85716 c 7.76021,8e-5 15.05435,1.94015 21.88244,5.8202 6.82795,3.88021 12.15683,9.1461 15.98666,15.79769 3.82965,6.65171 5.74452,13.83247 5.74461,21.5423 -9e-5,7.7603 -1.92756,15.01665 -5.78241,21.76906 -3.85502,6.75246 -9.10831,12.03095 -15.75989,15.83549 -6.65172,3.80454 -13.98366,5.70681 -21.99583,5.70682 -11.79161,-10e-6 -21.85727,-4.19508 -30.19701,-12.58524 -8.33978,-8.39014 -12.50966,-18.58178 -12.50966,-30.57496 0,-12.84974 4.71158,-23.55789 14.13478,-32.12448 8.26415,-7.45784 17.76291,-11.1868 28.49631,-11.18688 z m 0.30234,19.42586 c -6.39974,7e-5 -11.72862,2.22988 -15.98665,6.68946 -4.2581,4.45968 -6.38713,10.1665 -6.38711,17.12046 -2e-5,7.1556 2.10381,12.9506 6.31152,17.38501 4.20764,4.43446 9.53652,6.65168 15.98666,6.65166 6.45003,2e-5 11.81671,-2.24239 16.10003,-6.72724 4.2832,-4.48481 6.42483,-10.25461 6.4249,-17.30943 -7e-5,-7.05474 -2.10391,-12.78675 -6.31152,-17.19605 -4.20773,-4.40918 -9.58701,-6.6138 -16.13783,-6.61387 z"
       id="path5288"
       style="fill:#9fdbff" />
  </g>
</svg>
