<!-- Created with Inkscape (http://www.inkscape.org/) -->
<svg id="svg2" xmlns:rdf="http://www.w3.org/1999/02/22-rdf-syntax-ns#" xmlns="http://www.w3.org/2000/svg" viewBox="0 0 900 500" height="100%" width="100%" version="1.1" xmlns:cc="http://creativecommons.org/ns#" xmlns:dc="http://purl.org/dc/elements/1.1/">
	<metadata id="metadata7">
		<rdf:RDF>
			<cc:Work rdf:about="">
				<dc:format>image/svg+xml</dc:format>
				<dc:type rdf:resource="http://purl.org/dc/dcmitype/StillImage"/>
				<dc:title/>
			</cc:Work>
		</rdf:RDF>
	</metadata>
	<path id="path3818" style="fill:#9fdbff;" d="m334.28,203.42c0,82.843-67.151,150-149.99,150-82.843,0-150-67.161-150-150,0-82.843,67.157-150,150-150s150,67.157,150,150z"/>
	<path id="path3818-1" style="fill:#ffffff;" d="m424.93,208.82c0,39.627-32.121,71.752-71.747,71.752-39.627,0-71.752-32.125-71.752-71.752s32.124-71.752,71.752-71.752c39.627,0,71.752,32.124,71.752,71.752z"/>
	<path id="path3818-1-7" style="fill:#ffffff;" d="m580.34,208.82c0,39.627-32.121,71.752-71.747,71.752-39.627,0-71.752-32.125-71.752-71.752s32.124-71.752,71.752-71.752c39.627,0,71.752,32.124,71.752,71.752z"/>
	<path id="path3818-1-4" style="fill:#ffffff;" d="m735.75,208.82c0,39.627-32.121,71.752-71.747,71.752-39.627,0-71.752-32.125-71.752-71.752s32.124-71.752,71.752-71.752c39.627,0,71.752,32.124,71.752,71.752z"/>
	<g id="text3863" style="font-size:154.80223083px;font-family:Century Gothic;writing-mode:lr-tb;fill:#ffffff;letter-spacing:0px;text-anchor:start;line-height:125%;word-spacing:0px;font-stretch:normal;font-variant:normal;font-weight:bold;font-style:normal;text-align:start;">
		<path id="path5276" style="" d="m304.32,391.6-14.815,14.135c-10.078-10.632-21.416-15.949-34.014-15.949-10.633,0.00009-19.59,3.6283-26.871,10.885-7.2816,7.2564-10.922,16.201-10.922,26.833-0.00003,7.4076,1.6125,13.984,4.8376,19.728,3.225,5.7446,7.7854,10.255,13.681,13.53,5.8957,3.2755,12.447,4.9132,19.653,4.9132,6.1477,0.00002,11.766-1.1464,16.856-3.4392,5.0894-2.2928,10.683-6.4627,16.78-12.51l14.362,14.966c-8.2139,8.0122-15.974,13.568-23.281,16.667-7.3068,3.0991-15.647,4.6486-25.019,4.6486-17.284,0-31.432-5.4801-42.442-16.44-11.011-10.96-16.516-25.007-16.516-42.14-0.00001-11.086,2.507-20.938,7.5209-29.555,5.0139-8.6168,12.195-15.546,21.542-20.786,9.3476-5.2406,19.413-7.8609,30.197-7.861,9.1712,0.00012,18.002,1.9402,26.493,5.8202,8.4908,3.8802,15.81,9.3981,21.958,16.554z"/>
		<path id="path5278" style="" d="m320.42,400.97,20.862,0,0,39.608c-0.00003,7.7099,0.52908,13.064,1.5873,16.062,1.0582,2.9983,2.7589,5.3289,5.1021,6.9918s5.2281,2.4944,8.6547,2.4944c3.4266,0.00002,6.3367-0.81884,8.7303-2.4566,2.3935-1.6377,4.1698-4.0439,5.3289-7.2186,0.8566-2.3684,1.2849-7.4327,1.285-15.193v-40.288h20.711v34.846c-0.00008,14.362-1.1339,24.188-3.4014,29.479-2.7716,6.4501-6.8533,11.401-12.245,14.853-5.3919,3.4518-12.245,5.1777-20.56,5.1777-9.0201-0.00001-16.314-2.0157-21.882-6.047-5.5683-4.0313-9.4862-9.6499-11.754-16.856-1.6125-4.9887-2.4188-14.059-2.4188-27.211z"/>
		<path id="path5280" style="" d="m495.7,448.06-66.29,0c0.95741,5.8454,3.5148,10.494,7.6721,13.946,4.1572,3.4518,9.4609,5.1777,15.911,5.1777,7.7098,0.00002,14.336-2.6959,19.879-8.0878l17.385,8.1634c-4.3337,6.1478-9.524,10.696-15.571,13.643-6.047,2.9479-13.228,4.4218-21.542,4.4218-12.9-0.00001-23.407-4.0691-31.52-12.207-8.113-8.1382-12.17-18.33-12.17-30.575-0.00001-12.547,4.0439-22.966,12.132-31.255,8.0878-8.2893,18.229-12.434,30.424-12.434,12.951,0.00008,23.482,4.1448,31.595,12.434,8.1129,8.2894,12.169,19.237,12.17,32.843zm45.58-16.25c-1.3606-4.5856-4.044-8.3145-8.05-11.187-4.0062-2.8722-8.6548-4.3084-13.946-4.3085-5.7447,0.00007-10.784,1.6126-15.117,4.8376-2.7212,2.0157-5.2407,5.5683-7.5587,10.658z"/>
		<path id="path5282" style="fill:#9fdbff;" d="m508.86,372.02,67.272,0-39.683,90.856,37.113,0,0,20.333-67.953,0,39.532-90.251-36.282,0z"/>
		<path id="path5284" style="fill:#9fdbff;" d="m672.28,448.06-66.29,0c0.95741,5.8454,3.5148,10.494,7.6721,13.946,4.1572,3.4518,9.4609,5.1777,15.911,5.1777,7.7098,0.00002,14.336-2.6959,19.879-8.0878l17.385,8.1634c-4.3337,6.1478-9.524,10.696-15.571,13.643-6.047,2.9479-13.228,4.4218-21.542,4.4218-12.9-0.00001-23.407-4.0691-31.52-12.207-8.113-8.1382-12.17-18.33-12.17-30.575-0.00001-12.547,4.0439-22.966,12.132-31.255,8.0878-8.2893,18.229-12.434,30.424-12.434,12.951,0.00008,23.482,4.1448,31.595,12.434,8.1129,8.2894,12.169,19.237,12.17,32.843zm45.57-16.25c-1.3606-4.5856-4.044-8.3145-8.05-11.187-4.0062-2.8722-8.6548-4.3084-13.946-4.3085-5.7447,0.00007-10.784,1.6126-15.117,4.8376-2.7212,2.0157-5.2407,5.5683-7.5587,10.658z"/>
		<path id="path5286" style="fill:#9fdbff;" d="m684.22,400.97,17.687,0,0,10.355c1.9148-4.0816,4.4596-7.1807,7.6343-9.2972,3.1746-2.1164,6.6516-3.1746,10.431-3.1746,2.6707,0.00008,5.4674,0.70556,8.3902,2.1164l-6.4249,17.763c-2.4188-1.2093-4.4093-1.814-5.9714-1.8141-3.1747,0.00006-5.858,1.9653-8.05,5.8958-2.192,3.9306-3.2881,11.64-3.288,23.13l0.0756,4.0061v33.258h-20.484z"/>
		<path id="path5288" style="fill:#9fdbff;" d="m777.27,398.86c7.7602,0.00008,15.054,1.9402,21.882,5.8202,6.828,3.8802,12.157,9.1461,15.987,15.798,3.8296,6.6517,5.7445,13.832,5.7446,21.542-0.00009,7.7603-1.9276,15.017-5.7824,21.769-3.855,6.7525-9.1083,12.031-15.76,15.835-6.6517,3.8045-13.984,5.7068-21.996,5.7068-11.792-0.00001-21.857-4.1951-30.197-12.585-8.3398-8.3901-12.51-18.582-12.51-30.575,0-12.85,4.7116-23.558,14.135-32.124,8.2642-7.4578,17.763-11.187,28.496-11.187zm0.30234,19.426c-6.3997,0.00007-11.729,2.2299-15.987,6.6895-4.2581,4.4597-6.3871,10.166-6.3871,17.12-0.00002,7.1556,2.1038,12.951,6.3115,17.385,4.2076,4.4345,9.5365,6.6517,15.987,6.6517,6.45,0.00002,11.817-2.2424,16.1-6.7272,4.2832-4.4848,6.4248-10.255,6.4249-17.309-0.00007-7.0547-2.1039-12.787-6.3115-17.196-4.2077-4.4092-9.587-6.6138-16.138-6.6139z"/>
	</g>
</svg>
