<!-- Created with Inkscape (http://www.inkscape.org/) -->
<svg id="svg2" xmlns:rdf="http://www.w3.org/1999/02/22-rdf-syntax-ns#" xmlns="http://www.w3.org/2000/svg" viewBox="0 0 900 500" height="100%" width="100%" version="1.1" xmlns:cc="http://creativecommons.org/ns#" xmlns:dc="http://purl.org/dc/elements/1.1/">
	<metadata id="metadata7">
		<rdf:RDF>
			<cc:Work rdf:about="">
				<dc:format>image/svg+xml</dc:format>
				<dc:type rdf:resource="http://purl.org/dc/dcmitype/StillImage"/>
				<dc:title/>
			</cc:Work>
		</rdf:RDF>
	</metadata>
	<path id="path3818" style="fill:#9fdbff;" d="m334.28431,203.42441c0,82.84305-67.15138,150.00416-149.99443,150.00416-82.84306,0-150.004165-67.16111-150.004165-150.00416s67.157215-150.004158,150.004165-150.004158c82.84305,0,150.00416,67.157218,150.00416,150.004158z"/>
	<path id="path3818-1" style="fill:#ffffff;" d="m424.9279,208.81945c0,39.62659-32.12075,71.75199-71.74734,71.75199s-71.75199-32.1254-71.75199-71.75199,32.12354-71.75199,71.75199-71.75199c39.62659,0,71.75199,32.12354,71.75199,71.75199z"/>
	<path id="path3818-1-7" style="fill:#ffffff;" d="m580.33862,208.81945c0,39.62659-32.12075,71.75199-71.74734,71.75199s-71.75199-32.1254-71.75199-71.75199,32.12354-71.75199,71.75199-71.75199c39.62659,0,71.75199,32.12354,71.75199,71.75199z"/>
	<path id="path3818-1-4" style="fill:#ffffff;" d="m735.74935,208.81945c0,39.62659-32.12075,71.75199-71.74734,71.75199s-71.75199-32.1254-71.75199-71.75199,32.12354-71.75199,71.75199-71.75199c39.62659,0,71.75199,32.12354,71.75199,71.75199z"/>
	<g id="text3863" style="font-size:154.80223083px;font-family:Century Gothic;writing-mode:lr-tb;fill:#ffffff;letter-spacing:0px;text-anchor:start;line-height:125%;word-spacing:0px;font-stretch:normal;font-variant:normal;font-weight:bold;font-style:normal;text-align:start;">
		<path id="path5276" style="" d="m304.31763,391.6008-14.81505,14.13478c-10.07836-10.63249-21.41641-15.94877-34.01416-15.94886-10.63264,0.00009-19.58969,3.62826-26.87119,10.88453-7.28158,7.25643-10.92236,16.20088-10.92233,26.83339-0.00003,7.40758,1.6125,13.98364,4.83757,19.72822,3.22501,5.74464,7.78542,10.25466,13.68125,13.53007,5.89574,3.27546,12.44661,4.91318,19.65263,4.91316,6.14767,0.00002,11.7663-1.14638,16.85591-3.43921,5.08944-2.29278,10.68287-6.46266,16.78032-12.50965l14.36153,14.96623c-8.21389,8.01223-15.97415,13.56787-23.2808,16.66694-7.30683,3.09906-15.64659,4.6486-25.01931,4.6486-17.28428,0-31.43164-5.48006-42.44211-16.44018-11.01053-10.96009-16.51578-25.00667-16.51577-42.13977-0.00001-11.08603,2.50696-20.93753,7.52091-29.55452,5.01392-8.61683,12.19468-15.54563,21.5423-20.78644,9.34755-5.24058,19.41322-7.86093,30.19702-7.86105,9.17115,0.00012,18.00223,1.94018,26.49325,5.8202,8.49084,3.88024,15.81018,9.39809,21.95803,16.55356z"/>
		<path id="path5278" style="" d="m320.41767,400.9736,20.86202,0,0,39.6076c-0.00003,7.70991,0.52908,13.06398,1.58733,16.06224,1.05818,2.99831,2.75889,5.32891,5.10212,6.9918,2.34316,1.66293,5.22806,2.49439,8.65472,2.49437,3.42656,0.00002,6.33666-0.81884,8.7303-2.45658,2.39353-1.63769,4.16982-4.04388,5.32888-7.21856,0.8566-2.36836,1.28492-7.43269,1.28498-15.19299v-40.28788h20.71085v34.84561c-0.00008,14.36157-1.13389,24.18788-3.40142,29.47894-2.7716,6.45011-6.85329,11.40105-12.2451,14.85286-5.39193,3.4518-12.24515,5.1777-20.55967,5.17771-9.02009-0.00001-16.31423-2.01566-21.88244-6.04697-5.56826-4.0313-9.48619-9.64993-11.75378-16.8559-1.61254-4.98872-2.4188-14.05915-2.41879-27.21133z"/>
		<path id="path5280" style="" d="m495.70399,448.06431-66.28983,0c0.95741,5.84543,3.51477,10.49403,7.67209,13.94581,4.15725,3.45182,9.46093,5.17773,15.91107,5.17771,7.70982,0.00002,14.33627-2.69592,19.87938-8.08781l17.38502,8.1634c-4.33374,6.14775-9.52404,10.69557-15.57093,13.64346-6.04702,2.94789-13.22779,4.42183-21.5423,4.42184-12.90022-0.00001-23.40681-4.0691-31.51979-12.20731-8.11302-8.13818-12.16952-18.32982-12.16951-30.57495-0.00001-12.54739,4.04389-22.96579,12.13172-31.25524,8.08778-8.28929,18.22903-12.43398,30.42378-12.43406,12.95051,0.00008,23.48229,4.14477,31.59537,12.43406,8.11292,8.28945,12.16942,19.23696,12.16951,32.84257zm45.57898-16.25121c-1.36064-4.58555-4.04397-8.31451-8.05002-11.18688-4.00617-2.87224-8.65477-4.30839-13.9458-4.30846-5.74466,0.00007-10.78379,1.61259-15.11741,4.83757-2.72116,2.01572-5.24073,5.5683-7.5587,10.65777z"/>
		<path id="path5282" style="fill:#9fdbff;" d="m508.85612,372.02376,67.27245,0-39.68319,90.85561,37.11323,0,0,20.33291-67.95274,0,39.53202-90.25091-36.28177,0z"/>
		<path id="path5284" style="fill:#9fdbff;" d="m672.27528,448.06431-66.28983,0c0.95741,5.84543,3.51477,10.49403,7.67209,13.94581,4.15724,3.45182,9.46093,5.17773,15.91107,5.17771,7.70981,0.00002,14.33627-2.69592,19.87938-8.08781l17.38502,8.1634c-4.33374,6.14775-9.52404,10.69557-15.57093,13.64346-6.04703,2.94789-13.22779,4.42183-21.5423,4.42184-12.90022-0.00001-23.40681-4.0691-31.51979-12.20731-8.11302-8.13818-12.16952-18.32982-12.16951-30.57495-0.00001-12.54739,4.04389-22.96579,12.13172-31.25524,8.08778-8.28929,18.22903-12.43398,30.42377-12.43406,12.95052,0.00008,23.4823,4.14477,31.59538,12.43406,8.11292,8.28945,12.16942,19.23696,12.16951,32.84257zm45.57898-16.25121c-1.36064-4.58555-4.04397-8.31451-8.05002-11.18688-4.00617-2.87224-8.65477-4.30839-13.9458-4.30846-5.74466,0.00007-10.78379,1.61259-15.11741,4.83757-2.72117,2.01572-5.24073,5.5683-7.5587,10.65777z"/>
		<path id="path5286" style="fill:#9fdbff;" d="m684.21804,400.9736,17.68737,0,0,10.35542c1.91484-4.08163,4.4596-7.18069,7.63429-9.29721,3.17462-2.11635,6.65162-3.17457,10.43101-3.17465,2.67069,0.00008,5.46741,0.70556,8.39016,2.11644l-6.4249,17.76295c-2.41883-1.20933-4.40928-1.81403-5.97138-1.81409-3.17468,0.00006-5.85802,1.96532-8.05001,5.89579-2.19205,3.93058-3.28807,11.64045-3.28804,23.12963l0.0756,4.00611v33.25829h-20.48409z"/>
		<path id="path5288" style="fill:#9fdbff;" d="m777.26564,398.85716c7.76021,0.00008,15.05435,1.94015,21.88244,5.8202,6.82795,3.88021,12.15683,9.1461,15.98666,15.79769,3.82965,6.65171,5.74452,13.83247,5.74461,21.5423-0.00009,7.7603-1.92756,15.01665-5.78241,21.76906-3.85502,6.75246-9.10831,12.03095-15.75989,15.83549-6.65172,3.80454-13.98366,5.70681-21.99583,5.70682-11.79161-0.00001-21.85727-4.19508-30.19701-12.58524-8.33978-8.39014-12.50966-18.58178-12.50966-30.57496,0-12.84974,4.71158-23.55789,14.13478-32.12448,8.26415-7.45784,17.76291-11.1868,28.49631-11.18688zm0.30234,19.42586c-6.39974,0.00007-11.72862,2.22988-15.98665,6.68946-4.2581,4.45968-6.38713,10.1665-6.38711,17.12046-0.00002,7.1556,2.10381,12.9506,6.31152,17.38501,4.20764,4.43446,9.53652,6.65168,15.98666,6.65166,6.45003,0.00002,11.81671-2.24239,16.10003-6.72724,4.2832-4.48481,6.42483-10.25461,6.4249-17.30943-0.00007-7.05474-2.10391-12.78675-6.31152-17.19605-4.20773-4.40918-9.58701-6.6138-16.13783-6.61387z"/>
	</g>
</svg>
