<!-- Created with Inkscape (http://www.inkscape.org/) -->

<svg id="svg2" xmlns:rdf="http://www.w3.org/1999/02/22-rdf-syntax-ns#" xmlns="http://www.w3.org/2000/svg" viewBox="0 0 900 500" version="1.1" xmlns:cc="http://creativecommons.org/ns#" xmlns:dc="http://purl.org/dc/elements/1.1/">

	<metadata id="metadata7">

		<rdf:RDF>

			<cc:Work rdf:about="">

				<dc:format>image/svg+xml</dc:format>

				<dc:type rdf:resource="http://purl.org/dc/dcmitype/StillImage"/>

				<dc:title/>

			</cc:Work>

		</rdf:RDF>

	</metadata>

	<g id="layer1" transform="translate(0,-552.36218)">

		<path id="path3818" style="fill:#9fdbff;" d="M448.57,245.71c0,85.21-69.07,154.29-154.28,154.29s-154.29-69.08-154.29-154.29,69.076-154.29,154.29-154.29c85.21,0,154.29,69.076,154.29,154.29z" transform="matrix(0.97222218,0,0,0.97222218,-101.82539,516.90188)"/>

		<path id="path3818-1" style="fill:#ffffff;" d="M448.57,245.71c0,85.21-69.07,154.29-154.28,154.29s-154.29-69.08-154.29-154.29,69.076-154.29,154.29-154.29c85.21,0,154.29,69.076,154.29,154.29z" transform="matrix(0.46504628,0,0,0.46504628,216.32209,646.91511)"/>

		<path id="path3818-1-7" style="fill:#ffffff;" d="M448.57,245.71c0,85.21-69.07,154.29-154.28,154.29s-154.29-69.08-154.29-154.29,69.076-154.29,154.29-154.29c85.21,0,154.29,69.076,154.29,154.29z" transform="matrix(0.46504628,0,0,0.46504628,371.73281,646.91511)"/>

		<path id="path3818-1-4" style="fill:#ffffff;" d="M448.57,245.71c0,85.21-69.07,154.29-154.28,154.29s-154.29-69.08-154.29-154.29,69.076-154.29,154.29-154.29c85.21,0,154.29,69.076,154.29,154.29z" transform="matrix(0.46504628,0,0,0.46504628,527.14354,646.91511)"/>

		<text id="text3863" style="font-size:154.80223083px;font-family:Century Gothic;fill:#ffffff;letter-spacing:0px;text-anchor:start;line-height:125%;word-spacing:0px;font-stretch:normal;font-variant:normal;font-weight:bold;font-style:normal;text-align:start;" xml:space="preserve" y="1035.5745" x="189.42535"><tspan id="tspan3865" x="189.42535" y="1035.5745">Cue<tspan id="tspan3867" style="fill:#9fdbff;">Zero</tspan></tspan></text>

	</g>

</svg>

