<!-- Created with Inkscape (http://www.inkscape.org/) -->
<svg id="svg2" xmlns:rdf="http://www.w3.org/1999/02/22-rdf-syntax-ns#" xmlns="http://www.w3.org/2000/svg" viewBox="0 0 750 350" version="1.1" xmlns:cc="http://creativecommons.org/ns#" xmlns:dc="http://purl.org/dc/elements/1.1/">
	<metadata id="metadata7">
		<rdf:RDF>
			<cc:Work rdf:about="">
				<dc:format>image/svg+xml</dc:format>
				<dc:type rdf:resource="http://purl.org/dc/dcmitype/StillImage"/>
				<dc:title/>
			</cc:Work>
		</rdf:RDF>
	</metadata>
	<g id="layer1" transform="translate(0,-702.36218)">
		<path id="path3818" style="fill:#9fdbff;" d="m448.57,245.71a154.29,154.29,0,1,1,-308.57,0,154.29,154.29,0,1,1,308.57,0z" transform="matrix(0.97222218,0,0,0.97222218,-101.82539,632.90188)"/>
		<path id="path3818-1" style="fill:#ffffff;" d="m448.57,245.71a154.29,154.29,0,1,1,-308.57,0,154.29,154.29,0,1,1,308.57,0z" transform="matrix(0.46504628,0,0,0.46504628,216.32209,762.91511)"/>
		<path id="path3818-1-7" style="fill:#ffffff;" d="m448.57,245.71a154.29,154.29,0,1,1,-308.57,0,154.29,154.29,0,1,1,308.57,0z" transform="matrix(0.46504628,0,0,0.46504628,371.73281,762.91511)"/>
		<path id="path3818-1-4" style="fill:#ffffff;" d="m448.57,245.71a154.29,154.29,0,1,1,-308.57,0,154.29,154.29,0,1,1,308.57,0z" transform="matrix(0.46504628,0,0,0.46504628,527.14354,762.91511)"/>
		<g id="text3863" style="font-size:41.99659348px;font-family:Century Gothic;writing-mode:lr-tb;fill:#ffffff;letter-spacing:0px;text-anchor:start;line-height:125%;word-spacing:0px;font-stretch:normal;font-variant:normal;font-weight:bold;font-style:normal;text-align:start;">
			<path id="path5214" style="" d="m302.17,732.02,5.6597,0,4.3473,19.255,5.3931-19.255,4.7779,0,5.4546,19.255,4.3063-19.255,5.6597,0-6.7875,30.165-5.5162,0-5.5572-19.501-5.4546,19.501-5.4546,0z"/>
			<path id="path5216" style="" d="m364.02,752.65-17.984,0c0.25974,1.5858,0.95353,2.8469,2.0814,3.7834,1.1278,0.93645,2.5667,1.4047,4.3165,1.4047,2.0916,0,3.8893-0.73138,5.3931-2.1942l4.7164,2.2147c-1.1757,1.6678-2.5838,2.9016-4.2243,3.7014-1.6405,0.79974-3.5886,1.1996-5.8443,1.1996-3.4997,0-6.3501-1.1039-8.5511-3.3117s-3.3015-4.9727-3.3015-8.2947c0-3.404,1.0971-6.2304,3.2912-8.4793,2.1942-2.2488,4.9454-3.3732,8.2537-3.3733,3.5134,0.00002,6.3706,1.1244,8.5716,3.3733s3.3015,5.2188,3.3015,8.9099zm-5.6187-4.4088c-0.36913-1.244-1.0971-2.2557-2.1839-3.0349-1.0868-0.77922-2.348-1.1688-3.7834-1.1688-1.5585,0.00002-2.9256,0.43748-4.1012,1.3124-0.73823,0.54685-1.4218,1.5106-2.0506,2.8914z"/>
			<path id="path5218" style="" d="m367.97,731.26,5.5982,0,0,30.923-5.5982,0z"/>
			<path id="path5220" style="" d="m400.5,744.39-4.6549,2.5633c-0.87495-0.91592-1.7396-1.5516-2.594-1.9071-0.85444-0.35542-1.8558-0.53314-3.0042-0.53316-2.0916,0.00002-3.7834,0.62545-5.0753,1.8763-1.2919,1.2509-1.9378,2.8538-1.9378,4.8087-0.00001,1.9002,0.62201,3.4519,1.8661,4.6549,1.244,1.203,2.8777,1.8046,4.901,1.8045,2.5017,0.00001,4.4498-0.85442,5.8442-2.5633l4.4088,3.0144c-2.3924,3.1033-5.7691,4.6549-10.13,4.6549-3.9235,0-6.996-1.162-9.2175-3.486s-3.3322-5.0445-3.3322-8.1614c0-2.16,0.54-4.1491,1.62-5.9673s2.5872-3.2468,4.5216-4.2858,4.0978-1.5584,6.4902-1.5585c2.2146,0.00002,4.2037,0.4409,5.9673,1.3226,1.7635,0.88179,3.2058,2.1361,4.3268,3.7629z"/>
			<path id="path5222" style="" d="m416.04,739.3c2.1053,0.00002,4.0841,0.52634,5.9365,1.579s3.298,2.4813,4.337,4.2858c1.039,1.8046,1.5584,3.7526,1.5585,5.8442-0.00003,2.1053-0.52293,4.0739-1.5687,5.9058s-2.471,3.2639-4.2755,4.296c-1.8046,1.0321-3.7936,1.5482-5.9673,1.5482-3.199,0-5.9297-1.1381-8.1922-3.4143s-3.3938-5.0411-3.3938-8.2947c0-3.486,1.2782-6.3911,3.8346-8.7151,2.242-2.0232,4.8189-3.0349,7.7308-3.0349zm0.082,5.2701c-1.7362,0.00002-3.1819,0.60495-4.337,1.8148-1.1552,1.2099-1.7328,2.7581-1.7328,4.6446,0,1.9412,0.57075,3.5134,1.7123,4.7164,1.1415,1.203,2.5872,1.8046,4.337,1.8045,1.7498,0.00001,3.2058-0.60834,4.3678-1.825s1.743-2.782,1.743-4.6959c-0.00002-1.9139-0.57077-3.469-1.7123-4.6652s-2.6009-1.7943-4.3781-1.7943z"/>
			<path id="path5224" style="" d="m432.42,739.87,5.6187,0,0,2.5633c0.95694-1.0526,2.0198-1.8387,3.1887-2.3582,1.1688-0.51946,2.4436-0.77921,3.8244-0.77923,1.3944,0.00002,2.6521,0.34179,3.7731,1.0253,1.121,0.68355,2.0233,1.6815,2.7068,2.9939,0.88857-1.3124,1.9788-2.3103,3.2707-2.9939,1.2919-0.68352,2.7034-1.0253,4.2345-1.0253,1.5858,0.00002,2.9802,0.36913,4.1832,1.1073,1.203,0.73824,2.0677,1.702,2.594,2.8914,0.52629,1.1894,0.78945,3.1238,0.78949,5.8032v13.083h-5.6392v-11.319c-0.00003-2.5291-0.31445-4.2413-0.94328-5.1368-0.62888-0.89542-1.5722-1.3431-2.8298-1.3432-0.95698,0.00002-1.8148,0.27344-2.5735,0.82025-0.75875,0.54685-1.3227,1.3022-1.6918,2.2659-0.36913,0.9638-0.55368,2.512-0.55366,4.6446v10.069h-5.6392v-10.807c-0.00002-1.9959-0.14698-3.4416-0.44088-4.337-0.29394-0.89542-0.73482-1.5619-1.3226-1.9994-0.58786-0.43745-1.2987-0.65618-2.1326-0.6562-0.92963,0.00002-1.7738,0.27685-2.5325,0.8305-0.75874,0.55368-1.3261,1.3295-1.702,2.3274-0.37596,0.99798-0.56393,2.5701-0.56392,4.7164v9.925h-5.6187z"/>
			<path id="path5226" style="" d="m494.27,752.65-17.984,0c0.25974,1.5858,0.95353,2.8469,2.0814,3.7834,1.1278,0.93645,2.5667,1.4047,4.3166,1.4047,2.0916,0,3.8893-0.73138,5.3931-2.1942l4.7164,2.2147c-1.1757,1.6678-2.5838,2.9016-4.2243,3.7014-1.6405,0.79974-3.5886,1.1996-5.8442,1.1996-3.4997,0-6.3501-1.1039-8.5511-3.3117s-3.3015-4.9727-3.3015-8.2947c-0.00001-3.404,1.0971-6.2304,3.2912-8.4793,2.1942-2.2488,4.9454-3.3732,8.2537-3.3733,3.5134,0.00002,6.3706,1.1244,8.5716,3.3733s3.3015,5.2188,3.3015,8.9099zm-5.6187-4.4088c-0.36913-1.244-1.0971-2.2557-2.1839-3.0349-1.0868-0.77922-2.348-1.1688-3.7834-1.1688-1.5585,0.00002-2.9256,0.43748-4.1012,1.3124-0.73823,0.54685-1.4218,1.5106-2.0506,2.8914z"/>
			<path id="path5228" style="" d="m511.23,731.65,5.5777,0,0,8.223,3.322,0,0,4.819-3.322,0,0,17.492-5.5777,0,0-17.492-2.8709,0,0-4.819,2.8709,0z"/>
			<path id="path5230" style="" d="m533.66,739.3c2.1053,0.00002,4.0841,0.52634,5.9365,1.579s3.298,2.4813,4.337,4.2858c1.039,1.8046,1.5584,3.7526,1.5585,5.8442-0.00003,2.1053-0.52294,4.0739-1.5687,5.9058s-2.471,3.2639-4.2755,4.296c-1.8046,1.0321-3.7936,1.5482-5.9673,1.5482-3.199,0-5.9297-1.1381-8.1922-3.4143s-3.3938-5.0411-3.3938-8.2947c0-3.486,1.2782-6.3911,3.8346-8.7151,2.242-2.0232,4.8189-3.0349,7.7308-3.0349zm0.082,5.2701c-1.7362,0.00002-3.1819,0.60495-4.337,1.8148-1.1552,1.2099-1.7328,2.7581-1.7328,4.6446-0.00001,1.9412,0.57075,3.5134,1.7123,4.7164,1.1415,1.203,2.5872,1.8046,4.337,1.8045,1.7498,0.00001,3.2058-0.60834,4.3678-1.825s1.743-2.782,1.743-4.6959c-0.00002-1.9139-0.57078-3.469-1.7123-4.6652s-2.6009-1.7943-4.3781-1.7943z"/>
			<path id="path5232" style="" d="m590.16,737.33-4.0192,3.8346c-2.7342-2.8845-5.8101-4.3268-9.2278-4.3268-2.8846,0.00003-5.3145,0.98432-7.2899,2.9529s-2.9632,4.3952-2.9631,7.2797c-0.00001,2.0096,0.43746,3.7936,1.3124,5.3521,0.87491,1.5585,2.1121,2.782,3.7116,3.6706,1.5995,0.88861,3.3767,1.3329,5.3316,1.3329,1.6678,0.00001,3.1921-0.311,4.5729-0.93303,1.3807-0.62201,2.8982-1.7533,4.5524-3.3938l3.8962,4.0602c-2.2284,2.1737-4.3337,3.6809-6.3159,4.5216-1.9823,0.84075-4.2448,1.2611-6.7875,1.2611-4.6891,0-8.5272-1.4867-11.514-4.4601-2.9871-2.9734-4.4806-6.7841-4.4806-11.432-0.00001-3.0076,0.68011-5.6802,2.0404-8.0179,1.3602-2.3377,3.3083-4.2174,5.8442-5.6392,2.5359-1.4217,5.2666-2.1326,8.1922-2.1326,2.4881,0.00003,4.8839,0.52635,7.1874,1.579,2.3035,1.0527,4.2892,2.5496,5.957,4.4908z"/>
			<path id="path5234" style="" d="m594.53,739.87,5.6597,0,0,10.745c-0.00001,2.0916,0.14353,3.5442,0.43062,4.3576,0.28708,0.81342,0.74847,1.4457,1.3842,1.8968,0.63568,0.45114,1.4183,0.67671,2.348,0.6767,0.9296,0.00001,1.7191-0.22214,2.3685-0.66645,0.64935-0.44429,1.1312-1.0971,1.4457-1.9583,0.23238-0.64251,0.34859-2.0164,0.3486-4.1217v-10.93h5.6187v9.4533c-0.00003,3.8962-0.30762,6.562-0.92278,7.9974-0.75191,1.7499-1.8592,3.093-3.322,4.0295-1.4628,0.93645-3.322,1.4047-5.5777,1.4047-2.4471,0-4.4259-0.54683-5.9365-1.6405s-2.5735-2.618-3.1887-4.5729c-0.43747-1.3534-0.6562-3.8141-0.6562-7.3822z"/>
			<path id="path5236" style="" d="m642.08,752.65-17.984,0c0.25974,1.5858,0.95353,2.8469,2.0814,3.7834,1.1278,0.93645,2.5667,1.4047,4.3165,1.4047,2.0916,0,3.8893-0.73138,5.3931-2.1942l4.7164,2.2147c-1.1757,1.6678-2.5838,2.9016-4.2243,3.7014-1.6405,0.79974-3.5886,1.1996-5.8443,1.1996-3.4997,0-6.3501-1.1039-8.5511-3.3117s-3.3015-4.9727-3.3015-8.2947c0-3.404,1.0971-6.2304,3.2912-8.4793,2.1942-2.2488,4.9454-3.3732,8.2537-3.3733,3.5134,0.00002,6.3706,1.1244,8.5716,3.3733s3.3015,5.2188,3.3015,8.9099zm-5.6187-4.4088c-0.36913-1.244-1.0971-2.2557-2.1839-3.0349-1.0868-0.77922-2.348-1.1688-3.7834-1.1688-1.5585,0.00002-2.9256,0.43748-4.1012,1.3124-0.73823,0.54685-1.4218,1.5106-2.0506,2.8914z"/>
			<path id="path5238" style="fill:#9fdbff;" d="m645.65,732.02,18.25,0-10.766,24.648,10.069,0,0,5.5162-18.435,0,10.725-24.484-9.843,0z"/>
			<path id="path5240" style="fill:#9fdbff;" d="m689.98,752.65-17.984,0c0.25973,1.5858,0.95353,2.8469,2.0814,3.7834,1.1278,0.93645,2.5667,1.4047,4.3166,1.4047,2.0916,0,3.8893-0.73138,5.3931-2.1942l4.7164,2.2147c-1.1757,1.6678-2.5838,2.9016-4.2243,3.7014-1.6405,0.79974-3.5886,1.1996-5.8442,1.1996-3.4997,0-6.3501-1.1039-8.5511-3.3117s-3.3015-4.9727-3.3015-8.2947c0-3.404,1.0971-6.2304,3.2912-8.4793,2.1942-2.2488,4.9454-3.3732,8.2537-3.3733,3.5134,0.00002,6.3706,1.1244,8.5716,3.3733s3.3015,5.2188,3.3015,8.9099zm-5.6187-4.4088c-0.36913-1.244-1.0971-2.2557-2.1839-3.0349-1.0868-0.77922-2.348-1.1688-3.7834-1.1688-1.5585,0.00002-2.9256,0.43748-4.1012,1.3124-0.73823,0.54685-1.4218,1.5106-2.0506,2.8914z"/>
			<path id="path5242" style="fill:#9fdbff;" d="m693.22,739.87,4.7984,0,0,2.8093c0.51948-1.1073,1.2098-1.9481,2.0711-2.5222,0.86125-0.57415,1.8045-0.86124,2.8298-0.86126,0.72453,0.00002,1.4833,0.19141,2.2762,0.57417l-1.743,4.819c-0.65621-0.32809-1.1962-0.49213-1.62-0.49215-0.86127,0.00002-1.5892,0.53317-2.1839,1.5995-0.59469,1.0663-0.89203,3.158-0.89202,6.2749l0.0205,1.0868v9.0227h-5.5572z"/>
			<path id="path5244" style="fill:#9fdbff;" d="m718.47,739.3c2.1053,0.00002,4.0841,0.52634,5.9365,1.579s3.298,2.4813,4.337,4.2858c1.039,1.8046,1.5584,3.7526,1.5585,5.8442-0.00003,2.1053-0.52293,4.0739-1.5687,5.9058s-2.471,3.2639-4.2755,4.296c-1.8046,1.0321-3.7937,1.5482-5.9673,1.5482-3.199,0-5.9297-1.1381-8.1922-3.4143s-3.3938-5.0411-3.3938-8.2947c0-3.486,1.2782-6.3911,3.8346-8.7151,2.242-2.0232,4.8189-3.0349,7.7308-3.0349zm0.082,5.2701c-1.7362,0.00002-3.1819,0.60495-4.337,1.8148-1.1552,1.2099-1.7328,2.7581-1.7328,4.6446,0,1.9412,0.57075,3.5134,1.7123,4.7164,1.1415,1.203,2.5872,1.8046,4.337,1.8045,1.7498,0.00001,3.2058-0.60834,4.3678-1.825s1.743-2.782,1.743-4.6959c-0.00002-1.9139-0.57077-3.469-1.7123-4.6652s-2.6009-1.7943-4.3781-1.7943z"/>
		</g>
	</g>
</svg>
