<!-- Created with Inkscape (http://www.inkscape.org/) -->
<svg id="svg2" xmlns:rdf="http://www.w3.org/1999/02/22-rdf-syntax-ns#" xmlns="http://www.w3.org/2000/svg" viewBox="0 0 900 700" version="1.1" xmlns:cc="http://creativecommons.org/ns#" xmlns:dc="http://purl.org/dc/elements/1.1/">
	<metadata id="metadata7">
		<rdf:RDF>
			<cc:Work rdf:about="">
				<dc:format>image/svg+xml</dc:format>
				<dc:type rdf:resource="http://purl.org/dc/dcmitype/StillImage"/>
				<dc:title/>
			</cc:Work>
		</rdf:RDF>
	</metadata>
	<g id="layer1" transform="translate(0,-352.36218)">
		<path id="path3818-1" style="fill:#ffffff;" d="m448.57,245.71a154.29,154.29,0,1,1,-308.57,0,154.29,154.29,0,1,1,308.57,0z" transform="matrix(0.46504628,0,0,0.46504628,14.893518,362.34368)"/>
		<path id="path3818-1-7" style="fill:#ffffff;" d="m448.57,245.71a154.29,154.29,0,1,1,-308.57,0,154.29,154.29,0,1,1,308.57,0z" transform="matrix(0.40023147,0,0,0.40023147,325.09259,431.12674)"/>
		<path id="path3818-1-4" style="fill:#ffffff;" d="m448.57,245.71a154.29,154.29,0,1,1,-308.57,0,154.29,154.29,0,1,1,308.57,0z" transform="matrix(0.27060184,0,0,0.27060184,655.79433,760.12146)"/>
		<text id="text3892" style="font-size:50.49956894px;font-family:Century Gothic;writing-mode:lr-tb;fill:#ffffff;letter-spacing:0px;text-anchor:start;line-height:125%;word-spacing:0px;font-stretch:normal;font-variant:normal;font-weight:bold;font-style:normal;text-align:start;" xml:space="preserve" y="430.2756" x="136.31744"><tspan id="tspan3894" x="136.31744" y="430.2756"/></text>
		<path id="path3818-1-7-0" style="fill:#ffffff;" d="m448.57,245.71a154.29,154.29,0,1,1,-308.57,0,154.29,154.29,0,1,1,308.57,0z" transform="matrix(0.2150463,0,0,0.2150463,276.71494,359.52223)"/>
		<path id="path3818-1-7-9" style="fill:#ffffff;" d="m448.57,245.71a154.29,154.29,0,1,1,-308.57,0,154.29,154.29,0,1,1,308.57,0z" transform="matrix(0.25208333,0,0,0.25208333,577.24404,398.99314)"/>
		<path id="path3818-1-7-9-4" style="fill:#ffffff;" d="m448.57,245.71a154.29,154.29,0,1,1,-308.57,0,154.29,154.29,0,1,1,308.57,0z" transform="matrix(0.34467592,0,0,0.34467592,664.2811,590.52753)"/>
		<path id="path3818-1-4-8" style="fill:#ffffff;" d="m448.57,245.71a154.29,154.29,0,1,1,-308.57,0,154.29,154.29,0,1,1,308.57,0z" transform="matrix(0.41874999,0,0,0.41874999,509.625,862.32647)"/>
		<path id="path3818-1-7-0-8" style="fill:#ffffff;" d="m448.57,245.71a154.29,154.29,0,1,1,-308.57,0,154.29,154.29,0,1,1,308.57,0z" transform="matrix(0.15949075,0,0,0.15949075,290.20701,941.74445)"/>
		<path id="path3818-1-7-9-2" style="fill:#ffffff;" d="m448.57,245.71a154.29,154.29,0,1,1,-308.57,0,154.29,154.29,0,1,1,308.57,0z" transform="matrix(0.25208333,0,0,0.25208333,125.81548,833.27885)"/>
		<path id="path3818-1-7-9-4-4" style="fill:#ffffff;" d="m448.57,245.71a154.29,154.29,0,1,1,-308.57,0,154.29,154.29,0,1,1,308.57,0z" transform="matrix(0.34467592,0,0,0.34467592,42.852516,597.67038)"/>
		<text id="text4698" style="font-size:48px;font-family:Century Gothic;writing-mode:lr-tb;fill:#ffffff;letter-spacing:0px;text-anchor:middle;line-height:125%;word-spacing:0px;font-stretch:normal;font-variant:normal;font-weight:bold;font-style:normal;text-align:center;" xml:space="preserve" y="643.83844" x="449.87109"><tspan id="tspan4700" x="456.57422" y="643.83844">Collect and </tspan><tspan id="tspan4702" x="449.87109" y="703.83844">explore cues</tspan></text>
		<text id="text4704" style="font-size:41.47070313px;font-family:Century Gothic;writing-mode:lr-tb;fill:#ffffff;letter-spacing:0px;text-anchor:middle;line-height:125%;word-spacing:0px;font-stretch:normal;font-variant:normal;font-weight:normal;font-style:normal;text-align:center;" xml:space="preserve" y="751.33063" x="449.08878"><tspan id="tspan4706" x="454.8396" y="751.33063">Track progress, </tspan><tspan id="tspan4708" x="454.8396" y="803.16901">identify emerging </tspan><tspan id="tspan4710" x="454.8396" y="855.00739">opportunities </tspan><tspan id="tspan4712" x="449.08878" y="906.84576">and risks</tspan></text>
	</g>
</svg>
