<!-- Created with Inkscape (http://www.inkscape.org/) -->
<svg id="svg2" xmlns:rdf="http://www.w3.org/1999/02/22-rdf-syntax-ns#" xmlns="http://www.w3.org/2000/svg" viewBox="0 0 900 700" version="1.1" xmlns:cc="http://creativecommons.org/ns#" xmlns:dc="http://purl.org/dc/elements/1.1/">
	<metadata id="metadata7">
		<rdf:RDF>
			<cc:Work rdf:about="">
				<dc:format>image/svg+xml</dc:format>
				<dc:type rdf:resource="http://purl.org/dc/dcmitype/StillImage"/>
				<dc:title/>
			</cc:Work>
		</rdf:RDF>
	</metadata>
	<g id="layer1" transform="translate(0,-352.36218)">
		<path id="path3818" style="fill:#9fdbff;" d="m448.57,245.71a154.29,154.29,0,1,1,-308.57,0,154.29,154.29,0,1,1,308.57,0z" transform="matrix(1.5925925,0,0,1.5925925,-24.391516,304.18231)"/>
		<g id="text4644" style="font-size:56px;font-family:Century Gothic;writing-mode:lr-tb;fill:#272727;letter-spacing:0px;text-anchor:middle;line-height:125%;word-spacing:0px;font-stretch:normal;font-variant:normal;font-weight:bold;font-style:normal;text-align:center;">
			<path id="path4772" style="" d="m356.91,506.82,9.0781,0c5.8515,0.00004,10.199,0.72465,13.043,2.1738,2.8437,1.4493,5.1862,3.8054,7.0273,7.0684s2.7617,7.0729,2.7617,11.43c-0.00003,3.099-0.51501,5.9473-1.5449,8.5449-1.03,2.5977-2.4518,4.7533-4.2656,6.4668s-3.778,2.8984-5.8926,3.5547c-2.1146,0.65626-5.7787,0.98438-10.992,0.98438h-9.2148zm7.6289,7.3828,0,25.348,3.5547,0c3.5,0.00001,6.0384-0.40103,7.6152-1.2031,1.5768-0.80208,2.8665-2.151,3.8691-4.0469,1.0026-1.8958,1.5039-4.2292,1.5039-7-0.00003-4.2656-1.194-7.5742-3.582-9.9258-2.1511-2.1146-5.6055-3.1718-10.363-3.1719z"/>
			<path id="path4774" style="" d="m425.13,534.32-23.98,0c0.34635,2.1146,1.2715,3.7962,2.7754,5.0449s3.4225,1.873,5.7559,1.873c2.789,0.00001,5.1862-0.97525,7.1914-2.9258l6.2891,2.9531c-1.5677,2.224-3.4453,3.8691-5.6328,4.9356-2.1875,1.0664-4.7852,1.5996-7.793,1.5996-4.6667,0-8.4675-1.472-11.402-4.416-2.9349-2.944-4.4024-6.6308-4.4024-11.061,0-4.539,1.4629-8.3079,4.3887-11.307,2.9258-2.9987,6.5944-4.498,11.006-4.498,4.6849,0.00004,8.4948,1.4994,11.43,4.498,2.9349,2.9987,4.4023,6.959,4.4024,11.881zm-7.4922-5.8789c-0.49221-1.6588-1.4629-3.0078-2.9121-4.0469-1.4492-1.039-3.1309-1.5586-5.0449-1.5586-2.0781,0.00003-3.901,0.58336-5.4688,1.75-0.98438,0.72919-1.8958,2.0143-2.7344,3.8555z"/>
			<path id="path4776" style="" d="m427.65,517.29,2.6523,0c0.0182-3.901,0.082-6.207,0.19141-6.918,0.20051-1.6406,0.88867-2.9394,2.0644-3.8965,1.1758-0.95699,2.8392-1.4355,4.9902-1.4356,1.5495,0.00004,3.2995,0.35551,5.25,1.0664v5.6875c-1.0755-0.30986-1.9596-0.46481-2.6523-0.46485-0.87501,0.00004-1.513,0.18233-1.9141,0.54688-0.29168,0.27347-0.43751,0.83857-0.4375,1.6953l-0.0273,3.7188h4.7305v6.3438h-4.7305v23.406h-7.4648v-23.406h-2.6523z"/>
			<path id="path4778" style="" d="m449.77,505.04c1.3125,0.00004,2.4381,0.474,3.377,1.4219,0.9388,0.94796,1.4082,2.0964,1.4082,3.4453-0.00001,1.3308-0.46486,2.4655-1.3945,3.4043-0.9297,0.93884-2.0417,1.4082-3.3359,1.4082-1.3307,0.00003-2.4655-0.47849-3.4043-1.4356-0.9388-0.957-1.4082-2.1191-1.4082-3.4863,0-1.3125,0.46484-2.4336,1.3945-3.3633,0.92968-0.92964,2.0508-1.3945,3.3633-1.3945zm-3.7461,12.25,7.4922,0,0,29.75-7.4922,0z"/>
			<path id="path4780" style="" d="m460.3,517.29,7.4375,0,0,3.0352c1.6953-1.4218,3.2311-2.4108,4.6074-2.9668,1.3763-0.55596,2.7845-0.83395,4.2246-0.83399,2.9531,0.00004,5.4596,1.03,7.5195,3.0898,1.7317,1.75,2.5976,4.3386,2.5976,7.7656v19.66h-7.3828v-13.043c-0.00002-3.5547-0.15953-5.9153-0.47851-7.082-0.31904-1.1666-0.87503-2.0553-1.668-2.666-0.79299-0.61065-1.7728-0.91599-2.9395-0.91601-1.513,0.00002-2.8119,0.50588-3.8965,1.5176s-1.8366,2.4108-2.2559,4.1973c-0.21876,0.92971-0.32814,2.944-0.32813,6.043v11.949h-7.4375z"/>
			<path id="path4782" style="" d="m523.68,534.32-23.98,0c0.34634,2.1146,1.2715,3.7962,2.7754,5.0449s3.4225,1.873,5.7559,1.873c2.789,0.00001,5.1862-0.97525,7.1914-2.9258l6.2891,2.9531c-1.5677,2.224-3.4453,3.8691-5.6328,4.9356-2.1875,1.0664-4.7852,1.5996-7.793,1.5996-4.6667,0-8.4675-1.472-11.402-4.416-2.9349-2.944-4.4023-6.6308-4.4023-11.061,0-4.539,1.4629-8.3079,4.3887-11.307,2.9258-2.9987,6.5944-4.498,11.006-4.498,4.6849,0.00004,8.4948,1.4994,11.43,4.498,2.9349,2.9987,4.4023,6.959,4.4023,11.881zm-7.4922-5.8789c-0.49221-1.6588-1.4629-3.0078-2.9121-4.0469-1.4492-1.039-3.1309-1.5586-5.0449-1.5586-2.0781,0.00003-3.9011,0.58336-5.4688,1.75-0.98439,0.72919-1.8958,2.0143-2.7344,3.8555z"/>
			<path id="path4784" style="" d="m291.12,587.29,7.6289,0,7.7383,18.676,8.5312-18.676,7.6562,0-18.648,40.633-7.7109,0,6.125-13.098z"/>
			<path id="path4786" style="" d="m340.89,586.52c2.8073,0.00004,5.4459,0.70186,7.916,2.1055,2.47,1.4037,4.3978,3.3086,5.7832,5.7148,1.3854,2.4063,2.0781,5.0039,2.0781,7.793-0.00003,2.8073-0.6973,5.4323-2.0918,7.875-1.3946,2.4427-3.295,4.3522-5.7012,5.7285-2.4063,1.3763-5.0586,2.0644-7.957,2.0644-4.2656,0-7.9069-1.5176-10.924-4.5527-3.0169-3.0352-4.5254-6.722-4.5254-11.061,0-4.6484,1.7044-8.5221,5.1133-11.621,2.9896-2.6979,6.4258-4.0468,10.309-4.0469zm0.10937,7.0274c-2.3151,0.00002-4.2428,0.80666-5.7832,2.4199-1.5404,1.6133-2.3106,3.6778-2.3106,6.1934-0.00001,2.5886,0.76106,4.6849,2.2832,6.2891s3.4498,2.4063,5.7832,2.4062c2.3333,0.00001,4.2747-0.81119,5.8242-2.4336,1.5494-1.6224,2.3242-3.7096,2.3242-6.2617-0.00003-2.5521-0.7611-4.6256-2.2832-6.2207-1.5222-1.595-3.4681-2.3926-5.8379-2.3926z"/>
			<path id="path4788" style="" d="m362.76,587.29,7.5469,0,0,14.328c-0.00001,2.7891,0.1914,4.7259,0.57422,5.8106,0.3828,1.0846,0.99804,1.9277,1.8457,2.5293,0.84764,0.60157,1.8913,0.90235,3.1308,0.90234,1.2396,0.00001,2.2923-0.29622,3.1582-0.88867,0.86586-0.59244,1.5084-1.4629,1.9277-2.6113,0.30988-0.85676,0.46482-2.6888,0.46485-5.4961v-14.574h7.4922v12.605c-0.00003,5.1953-0.41018,8.75-1.2305,10.664-1.0026,2.3333-2.4792,4.1244-4.4297,5.373-1.9506,1.2487-4.4297,1.873-7.4375,1.873-3.263,0-5.9017-0.72916-7.916-2.1875s-3.4316-3.4909-4.252-6.0976c-0.58334-1.8047-0.87501-5.0859-0.875-9.8438z"/>
			<path id="path4790" style="" d="m394.62,587.29,6.3984,0,0,3.7461c0.6927-1.4765,1.6133-2.5976,2.7617-3.3633,1.1484-0.76559,2.4062-1.1484,3.7734-1.1484,0.96613,0.00004,1.9778,0.25524,3.0352,0.76563l-2.3242,6.4258c-0.87502-0.43748-1.5951-0.65623-2.1602-0.65625-1.1484,0.00002-2.1192,0.71096-2.9121,2.1328-0.79298,1.4219-1.1895,4.211-1.1894,8.3672l0.0273,1.4492v12.031h-7.4102z"/>
			<path id="path4792" style="" d="m430.85,576.32,7.4375,0,0,10.965,4.4297,0,0,6.4258-4.4297,0,0,23.324-7.4375,0,0-23.324-3.8281,0,0-6.4258,3.8281,0z"/>
			<path id="path4794" style="" d="m468.77,587.29,7.4375,0,0,29.75-7.4375,0,0-3.1445c-1.4584,1.3854-2.9212,2.3835-4.3887,2.9941-1.4675,0.61068-3.058,0.91601-4.7715,0.91601-3.8464,0-7.1732-1.4902-9.9805-4.4707s-4.2109-6.6855-4.2109-11.115c0-4.5937,1.3581-8.358,4.0742-11.293,2.7161-2.9349,6.0156-4.4023,9.8984-4.4024,1.7864,0.00004,3.4635,0.33727,5.0312,1.0117,1.5677,0.67451,3.0169,1.6862,4.3477,3.0352zm-7.8477,6.125c-2.3151,0.00002-4.2383,0.81578-5.7695,2.4473-1.5313,1.6315-2.2969,3.7233-2.2969,6.2754-0.00001,2.5703,0.77929,4.6849,2.3379,6.3438s3.4772,2.4883,5.7558,2.4883c2.3516,0,4.3021-0.81575,5.8516-2.4473,1.5494-1.6315,2.3242-3.7689,2.3242-6.4121-0.00003-2.5885-0.77477-4.6849-2.3242-6.2891-1.5495-1.6041-3.5091-2.4062-5.8789-2.4062z"/>
			<path id="path4796" style="" d="m482.01,587.29,6.3984,0,0,3.7461c0.6927-1.4765,1.6133-2.5976,2.7617-3.3633,1.1484-0.76559,2.4062-1.1484,3.7734-1.1484,0.96613,0.00004,1.9778,0.25524,3.0352,0.76563l-2.3242,6.4258c-0.87501-0.43748-1.5951-0.65623-2.1602-0.65625-1.1484,0.00002-2.1192,0.71096-2.9121,2.1328-0.79298,1.4219-1.1895,4.211-1.1895,8.3672l0.0273,1.4492v12.031h-7.4102z"/>
			<path id="path4798" style="" d="m523.68,587.29,7.4375,0,0,25.484c-0.00004,5.0312-1.0118,8.7318-3.0352,11.102-2.7162,3.2083-6.8086,4.8125-12.277,4.8125-2.9167-0.00001-5.3685-0.3646-7.3555-1.0938-1.987-0.72918-3.6641-1.8001-5.0312-3.2129-1.3672-1.4128-2.3789-3.1309-3.0352-5.1543h8.2305c0.72916,0.83854,1.668,1.472,2.8164,1.9004,1.1484,0.42838,2.5065,0.64257,4.0742,0.64258,2.0052-0.00001,3.6185-0.3099,4.8398-0.92969s2.0827-1.4219,2.584-2.4062c0.50128-0.98437,0.75193-2.6797,0.75196-5.0859-1.3125,1.3125-2.6888,2.2559-4.1289,2.8301-1.4401,0.57422-3.0716,0.86133-4.8945,0.86133-3.9922,0-7.3646-1.4401-10.117-4.3203-2.7526-2.8802-4.1289-6.526-4.1289-10.938-0.00001-4.7213,1.4583-8.513,4.375-11.375,2.6432-2.5885,5.7969-3.8828,9.4609-3.8828,1.7135,0.00004,3.3314,0.31449,4.8535,0.94336,1.5221,0.62894,3.0488,1.6634,4.5801,3.1035zm-7.7383,6.207c-2.3516,0.00002-4.293,0.78844-5.8242,2.3652-1.5313,1.5768-2.2969,3.5593-2.2969,5.9473-0.00001,2.4792,0.78385,4.5117,2.3516,6.0977,1.5677,1.5859,3.5364,2.3789,5.9062,2.3789,2.3151,0.00001,4.2246-0.77473,5.7285-2.3242s2.2558-3.582,2.2559-6.0976c-0.00003-2.4792-0.75654-4.4935-2.2695-6.043s-3.4636-2.3242-5.8516-2.3242z"/>
			<path id="path4800" style="" d="m568.47,604.32-23.98,0c0.34635,2.1146,1.2715,3.7962,2.7754,5.0449s3.4225,1.873,5.7559,1.873c2.789,0.00001,5.1862-0.97525,7.1914-2.9258l6.2891,2.9531c-1.5677,2.224-3.4453,3.8691-5.6328,4.9356-2.1875,1.0664-4.7852,1.5996-7.793,1.5996-4.6667,0-8.4675-1.472-11.402-4.416-2.9349-2.944-4.4023-6.6308-4.4023-11.061,0-4.539,1.4629-8.3079,4.3887-11.307,2.9258-2.9987,6.5944-4.498,11.006-4.498,4.6849,0.00004,8.4948,1.4994,11.43,4.498,2.9349,2.9987,4.4023,6.959,4.4023,11.881zm-7.4922-5.8789c-0.49221-1.6588-1.4629-3.0078-2.9121-4.0469-1.4492-1.039-3.1309-1.5586-5.0449-1.5586-2.0781,0.00003-3.901,0.58336-5.4688,1.75-0.98439,0.72919-1.8958,2.0143-2.7344,3.8555z"/>
			<path id="path4802" style="" d="m575.44,576.32,7.4375,0,0,10.965,4.4297,0,0,6.4258-4.4297,0,0,23.324-7.4375,0,0-23.324-3.8281,0,0-6.4258,3.8281,0z"/>
		</g>
		<g id="text4680" style="font-size:42px;font-family:Century Gothic;writing-mode:lr-tb;fill:#272727;letter-spacing:0px;text-anchor:middle;line-height:125%;word-spacing:0px;font-stretch:normal;font-variant:normal;font-weight:normal;font-style:normal;text-align:center;">
			<path id="path4805" style="" d="m332.32,688.96,2.4199,1.2715c-0.793,1.5586-1.709,2.8164-2.748,3.7734-1.0391,0.95703-2.208,1.6851-3.5068,2.1841-1.2988,0.49903-2.7686,0.74854-4.4092,0.74854-3.6367,0-6.4805-1.1929-8.5312-3.5786-2.0508-2.3857-3.0762-5.0825-3.0762-8.0903,0-2.8301,0.86816-5.3525,2.6045-7.5674,2.2012-2.8164,5.1474-4.2246,8.8389-4.2246,3.8008,0.00002,6.8359,1.4424,9.1055,4.3272,1.6133,2.0371,2.4336,4.5801,2.4609,7.6289h-20.057c0.0547,2.5977,0.88183,4.727,2.4814,6.3882,1.5996,1.6611,3.5752,2.4917,5.9268,2.4917,1.1348,0,2.2388-0.19824,3.312-0.59473,1.0732-0.39648,1.9858-0.92285,2.7378-1.5791,0.75194-0.65624,1.5654-1.7158,2.4404-3.1787zm0-6.0088c-0.38283-1.5312-0.93996-2.7549-1.6714-3.6709-0.73147-0.916-1.6988-1.6543-2.9019-2.2148-1.2031-0.56053-2.4678-0.8408-3.7939-0.84082-2.1875,0.00002-4.0674,0.70412-5.6396,2.1123-1.1484,1.0254-2.0166,2.5635-2.6045,4.6143z"/>
			<path id="path4807" style="" d="m344.01,691.85c0.69726,0.00001,1.292,0.2461,1.7842,0.73828,0.49218,0.49219,0.73827,1.0938,0.73828,1.8047-0.00001,0.69727-0.2461,1.2954-0.73828,1.7944-0.4922,0.49903-1.0869,0.74854-1.7842,0.74854-0.69727,0-1.292-0.24951-1.7842-0.74854-0.49219-0.49902-0.73829-1.0972-0.73828-1.7944-0.00001-0.71093,0.24609-1.3125,0.73828-1.8047,0.49218-0.49218,1.0869-0.73827,1.7842-0.73828z"/>
			<path id="path4809" style="" d="m371.72,674.05,2.8916,0,0,17.78c-0.00002,3.1309-0.27346,5.4209-0.82031,6.8701-0.75198,2.0508-2.0576,3.6299-3.917,4.7373s-4.0947,1.6611-6.7061,1.6611c-1.9141-0.00001-3.6333-0.27003-5.1577-0.81006-1.5244-0.54005-2.7651-1.2647-3.7222-2.1738-0.95703-0.90918-1.8389-2.2388-2.6455-3.9888h3.1172c0.84765,1.4766,1.9414,2.5703,3.2812,3.2812,1.3398,0.71093,3.001,1.0664,4.9834,1.0664,1.9551-0.00001,3.6059-0.36573,4.9526-1.0972,1.3467-0.73145,2.3071-1.6509,2.8813-2.7583s0.86131-2.8916,0.86133-5.3525v-1.1484c-1.0801,1.3672-2.3994,2.4165-3.958,3.148-1.5586,0.73145-3.2129,1.0972-4.9629,1.0972-2.0508,0-3.9785-0.50928-5.7832-1.5278-1.8047-1.0186-3.1992-2.3892-4.1836-4.1118-0.98438-1.7226-1.4766-3.6162-1.4766-5.6807,0-2.0644,0.5127-3.9888,1.5381-5.773s2.4438-3.1958,4.2554-4.2349c1.8115-1.039,3.7222-1.5586,5.7319-1.5586,1.668,0.00002,3.2231,0.34524,4.6655,1.0356,1.4424,0.69045,2.8335,1.8286,4.1733,3.4146zm-8.4697,2.1943c-1.627,0.00002-3.1377,0.39308-4.5322,1.1792-1.3945,0.78616-2.4883,1.8731-3.2812,3.2608-0.79298,1.3877-1.1895,2.8882-1.1894,4.5015-0.00001,2.4473,0.8203,4.4707,2.4609,6.0703s3.7666,2.3994,6.3779,2.3994c2.6387,0,4.7612-0.79297,6.3677-2.3789,1.6064-1.5859,2.4096-3.6709,2.4097-6.2549-0.00003-1.6816-0.36917-3.1821-1.1074-4.5015-0.7383-1.3193-1.7842-2.3618-3.1377-3.1274s-2.8096-1.1484-4.3682-1.1484z"/>
			<path id="path4811" style="" d="m383.96,691.85c0.69725,0.00001,1.292,0.2461,1.7842,0.73828,0.49217,0.49219,0.73827,1.0938,0.73828,1.8047-0.00001,0.69727-0.24611,1.2954-0.73828,1.7944-0.4922,0.49903-1.0869,0.74854-1.7842,0.74854-0.69728,0-1.292-0.24951-1.7842-0.74854-0.4922-0.49902-0.73829-1.0972-0.73828-1.7944-0.00001-0.71093,0.24608-1.3125,0.73828-1.8047,0.49218-0.49218,1.0869-0.73827,1.7842-0.73828z"/>
			<path id="path4813" style="" d="m401.46,690.74,2.5635-1.5381c1.8047,3.3223,3.8896,4.9834,6.2549,4.9834,1.0117,0,1.9619-0.23584,2.8506-0.70752,0.88865-0.47167,1.5654-1.104,2.0303-1.897,0.46483-0.79296,0.69725-1.6338,0.69726-2.5225-0.00001-1.0117-0.34181-2.0029-1.0254-2.9736-0.94337-1.3398-2.666-2.9531-5.168-4.8398-2.5156-1.9004-4.0811-3.2744-4.6963-4.1221-1.0664-1.4218-1.5996-2.9599-1.5996-4.6143-0.00001-1.3125,0.31445-2.5088,0.94336-3.5889,0.6289-1.08,1.5142-1.9311,2.6558-2.5532,1.1416-0.62204,2.3823-0.93307,3.7222-0.9331,1.4219,0.00003,2.7514,0.35208,3.9888,1.0562,1.2373,0.70413,2.5464,1.9995,3.9272,3.8862l-2.4609,1.8662c-1.1348-1.5039-2.1021-2.4951-2.9018-2.9736-0.79982-0.47849-1.6714-0.71775-2.6148-0.71777-1.2168,0.00002-2.2114,0.36916-2.9839,1.1074-0.77247,0.73831-1.1587,1.6475-1.1587,2.7275,0,0.65627,0.13672,1.292,0.41016,1.9072,0.27343,0.61526,0.77245,1.2852,1.4971,2.0098,0.39648,0.38283,1.6953,1.3877,3.8965,3.0146,2.6113,1.9278,4.4023,3.6436,5.373,5.1475,0.97069,1.5039,1.456,3.0147,1.4561,4.5322-0.00002,2.1875-0.83059,4.0879-2.4917,5.7012-1.6612,1.6133-3.6812,2.4199-6.0601,2.4199-1.832,0-3.4932-0.48877-4.9834-1.4663-1.4902-0.97754-2.8643-2.6147-4.1221-4.9116z"/>
			<path id="path4815" style="" d="m427.52,665.76,2.8916,0,0,8.2852,4.5527,0,0,2.4609-4.5527,0,0,19.852-2.8916,0,0-19.852-3.917,0,0-2.4609,3.917,0z"/>
			<path id="path4817" style="" d="m438.21,674.05,2.9326,0,0,3.2607c0.87499-1.2851,1.7978-2.2456,2.7686-2.8814,0.9707-0.63572,1.9824-0.95359,3.0352-0.95361,0.79296,0.00002,1.6406,0.25295,2.543,0.75879l-1.4971,2.4199c-0.60158-0.25974-1.1074-0.38963-1.5176-0.38965-0.95704,0.00002-1.8799,0.39309-2.7686,1.1792-0.88867,0.78615-1.5654,2.0064-2.0303,3.6606-0.35547,1.2715-0.53321,3.8418-0.5332,7.7109v7.5469h-2.9326z"/>
			<path id="path4819" style="" d="m474.16,674.05,0,22.312-2.8301,0,0-3.835c-1.2032,1.4629-2.5532,2.5635-4.0503,3.3018-1.4971,0.73828-3.1343,1.1074-4.9116,1.1074-3.1582,0-5.855-1.145-8.0903-3.4351-2.2354-2.29-3.353-5.0757-3.353-8.3569,0-3.2129,1.1279-5.9609,3.3838-8.2441,2.2558-2.2832,4.9697-3.4248,8.1416-3.4248,1.832,0.00002,3.4897,0.38967,4.9732,1.169,1.4834,0.77931,2.7856,1.9483,3.9067,3.5068v-4.1016zm-11.484,2.1943c-1.5996,0.00002-3.0762,0.39308-4.4297,1.1792-1.3535,0.78616-2.4302,1.8902-3.23,3.312-0.79981,1.4219-1.1997,2.9258-1.1997,4.5117-0.00001,1.5723,0.40331,3.0762,1.21,4.5117,0.80663,1.4356,1.8901,2.5532,3.2505,3.353,1.3604,0.79981,2.8198,1.1997,4.3784,1.1997,1.5722,0,3.0625-0.39648,4.4707-1.1894,1.4082-0.79297,2.4917-1.8662,3.2505-3.2197,0.75877-1.3535,1.1382-2.8779,1.1382-4.5732-0.00003-2.584-0.8511-4.7441-2.5532-6.4805-1.7022-1.7363-3.7974-2.6045-6.2856-2.6045z"/>
			<path id="path4821" style="" d="m483.14,665.76,2.8916,0,0,8.2852,4.5527,0,0,2.4609-4.5527,0,0,19.852-2.8916,0,0-19.852-3.917,0,0-2.4609,3.917,0z"/>
			<path id="path4823" style="" d="m513.69,688.96,2.4199,1.2715c-0.79299,1.5586-1.709,2.8164-2.748,3.7734-1.0391,0.95703-2.208,1.6851-3.5068,2.1841-1.2988,0.49903-2.7686,0.74854-4.4092,0.74854-3.6367,0-6.4805-1.1929-8.5312-3.5786-2.0508-2.3857-3.0762-5.0825-3.0762-8.0903-0.00001-2.8301,0.86816-5.3525,2.6045-7.5674,2.2012-2.8164,5.1474-4.2246,8.8389-4.2246,3.8008,0.00002,6.8359,1.4424,9.1055,4.3272,1.6133,2.0371,2.4336,4.5801,2.4609,7.6289h-20.057c0.0547,2.5977,0.88183,4.727,2.4814,6.3882,1.5996,1.6611,3.5752,2.4917,5.9268,2.4917,1.1348,0,2.2388-0.19824,3.312-0.59473,1.0732-0.39648,1.9858-0.92285,2.7378-1.5791,0.75193-0.65624,1.5654-1.7158,2.4404-3.1787zm0-6.0088c-0.38284-1.5312-0.93996-2.7549-1.6714-3.6709-0.73146-0.916-1.6988-1.6543-2.9018-2.2148-1.2032-0.56053-2.4678-0.8408-3.794-0.84082-2.1875,0.00002-4.0674,0.70412-5.6396,2.1123-1.1484,1.0254-2.0166,2.5635-2.6045,4.6143z"/>
			<path id="path4825" style="" d="m541.44,674.05,2.8916,0,0,17.78c-0.00003,3.1309-0.27346,5.4209-0.82031,6.8701-0.75198,2.0508-2.0576,3.6299-3.917,4.7373s-4.0948,1.6611-6.7061,1.6611c-1.9141-0.00001-3.6333-0.27003-5.1577-0.81006-1.5244-0.54005-2.7652-1.2647-3.7222-2.1738-0.95704-0.90918-1.8389-2.2388-2.6455-3.9888h3.1172c0.84765,1.4766,1.9414,2.5703,3.2812,3.2812,1.3398,0.71093,3.001,1.0664,4.9834,1.0664,1.9551-0.00001,3.6059-0.36573,4.9526-1.0972,1.3467-0.73145,2.3071-1.6509,2.8814-2.7583,0.5742-1.1074,0.86131-2.8916,0.86133-5.3525v-1.1484c-1.0801,1.3672-2.3994,2.4165-3.958,3.148-1.5586,0.73145-3.2129,1.0972-4.9629,1.0972-2.0508,0-3.9785-0.50928-5.7832-1.5278-1.8047-1.0186-3.1992-2.3892-4.1836-4.1118-0.98437-1.7226-1.4766-3.6162-1.4766-5.6807,0-2.0644,0.51269-3.9888,1.5381-5.773s2.4438-3.1958,4.2554-4.2349c1.8115-1.039,3.7222-1.5586,5.7319-1.5586,1.668,0.00002,3.2231,0.34524,4.6655,1.0356,1.4424,0.69045,2.8335,1.8286,4.1733,3.4146zm-8.4697,2.1943c-1.627,0.00002-3.1377,0.39308-4.5322,1.1792-1.3945,0.78616-2.4883,1.8731-3.2812,3.2608-0.79298,1.3877-1.1895,2.8882-1.1895,4.5015,0,2.4473,0.82031,4.4707,2.4609,6.0703s3.7666,2.3994,6.3779,2.3994c2.6386,0,4.7612-0.79297,6.3677-2.3789,1.6064-1.5859,2.4096-3.6709,2.4097-6.2549-0.00002-1.6816-0.36916-3.1821-1.1074-4.5015-0.7383-1.3193-1.7842-2.3618-3.1377-3.1274s-2.8096-1.1484-4.3682-1.1484z"/>
			<path id="path4827" style="" d="m548.13,674.05,3.0352,0,7.6699,17.186,7.4443-17.186,3.0557,0-13.31,30.475-3.0352,0,4.3066-9.8438z"/>
			<path id="path4829" style="" d="m575.94,690.82,2.7686,1.3125-4.1631,7.752-2.0303-0.86132z"/>
			<path id="path4831" style="" d="m360.69,717.36c0.65624,0.00003,1.2168,0.23245,1.6816,0.69727,0.46484,0.46487,0.69726,1.0254,0.69727,1.6816-0.00001,0.6426-0.23243,1.1963-0.69727,1.6611-0.46485,0.46487-1.0254,0.69729-1.6816,0.69726-0.64258,0.00003-1.1963-0.23239-1.6611-0.69726-0.46485-0.46482-0.69727-1.0185-0.69727-1.6611,0-0.65622,0.23242-1.2168,0.69727-1.6816,0.46484-0.46482,1.0186-0.69724,1.6611-0.69727zm-1.4356,9.1875,2.8916,0,0,22.312-2.8916,0z"/>
			<path id="path4833" style="" d="m368.13,726.55,2.8711,0,0,3.999c1.1484-1.5312,2.4199-2.6762,3.8144-3.4351,1.3945-0.75876,2.9121-1.1382,4.5527-1.1382,1.668,0.00002,3.1479,0.42385,4.4399,1.2715,1.292,0.84767,2.2456,1.9893,2.8608,3.4248,0.61521,1.4356,0.92283,3.6709,0.92285,6.706v11.484h-2.8506v-10.644c-0.00002-2.5703-0.10939-4.2861-0.32812-5.1475-0.34182-1.4765-0.9844-2.5874-1.9277-3.3325-0.94337-0.74509-2.1738-1.1176-3.6914-1.1177-1.7363,0.00002-3.2915,0.57424-4.6655,1.7227-1.374,1.1484-2.2798,2.5703-2.7173,4.2656-0.27344,1.1074-0.41016,3.1309-0.41015,6.0703v8.1826h-2.8711z"/>
			<path id="path4835" style="" d="m394.73,717.36c0.65624,0.00003,1.2168,0.23245,1.6816,0.69727,0.46484,0.46487,0.69726,1.0254,0.69726,1.6816,0,0.6426-0.23242,1.1963-0.69726,1.6611-0.46485,0.46487-1.0254,0.69729-1.6816,0.69726-0.64258,0.00003-1.1963-0.23239-1.6611-0.69726-0.46484-0.46482-0.69726-1.0185-0.69726-1.6611,0-0.65622,0.23242-1.2168,0.69726-1.6816,0.46485-0.46482,1.0186-0.69724,1.6611-0.69727zm-1.4356,9.1875,2.8916,0,0,22.312-2.8916,0z"/>
			<path id="path4837" style="" d="m404.67,718.26,2.8916,0,0,8.2852,4.5527,0,0,2.4609-4.5527,0,0,19.852-2.8916,0,0-19.852-3.917,0,0-2.4609,3.917,0z"/>
			<path id="path4839" style="" d="m417.45,717.36c0.65625,0.00003,1.2168,0.23245,1.6816,0.69727,0.46484,0.46487,0.69726,1.0254,0.69727,1.6816-0.00001,0.6426-0.23243,1.1963-0.69727,1.6611-0.46484,0.46487-1.0254,0.69729-1.6816,0.69726-0.64258,0.00003-1.1963-0.23239-1.6611-0.69726-0.46484-0.46482-0.69727-1.0185-0.69726-1.6611-0.00001-0.65622,0.23242-1.2168,0.69726-1.6816,0.46484-0.46482,1.0186-0.69724,1.6611-0.69727zm-1.4355,9.1875,2.8916,0,0,22.312-2.8916,0z"/>
			<path id="path4841" style="" d="m447.13,726.55,0,22.312-2.8301,0,0-3.835c-1.2032,1.4629-2.5532,2.5635-4.0503,3.3018-1.4971,0.73828-3.1343,1.1074-4.9116,1.1074-3.1582,0-5.855-1.145-8.0903-3.4351-2.2354-2.29-3.353-5.0757-3.353-8.3569-0.00001-3.2129,1.1279-5.9609,3.3838-8.2441,2.2558-2.2832,4.9697-3.4248,8.1416-3.4248,1.832,0.00002,3.4897,0.38967,4.9731,1.169,1.4834,0.77931,2.7856,1.9483,3.9067,3.5068v-4.1016zm-11.484,2.1943c-1.5996,0.00002-3.0762,0.39308-4.4297,1.1792-1.3535,0.78616-2.4302,1.8902-3.23,3.312-0.79981,1.4219-1.1997,2.9258-1.1997,4.5117-0.00001,1.5723,0.40331,3.0762,1.21,4.5117,0.80663,1.4356,1.8901,2.5532,3.2505,3.353,1.3603,0.79981,2.8198,1.1997,4.3784,1.1997,1.5722,0,3.0625-0.39648,4.4707-1.1894,1.4082-0.79297,2.4917-1.8662,3.2505-3.2197,0.75876-1.3535,1.1382-2.8779,1.1382-4.5732-0.00002-2.584-0.8511-4.7441-2.5532-6.4805-1.7022-1.7363-3.7974-2.6045-6.2856-2.6045z"/>
			<path id="path4843" style="" d="m456.11,718.26,2.8916,0,0,8.2852,4.5527,0,0,2.4609-4.5527,0,0,19.852-2.8916,0,0-19.852-3.917,0,0-2.4609,3.917,0z"/>
			<path id="path4845" style="" d="m468.88,717.36c0.65624,0.00003,1.2168,0.23245,1.6816,0.69727,0.46484,0.46487,0.69726,1.0254,0.69726,1.6816,0,0.6426-0.23242,1.1963-0.69726,1.6611-0.46485,0.46487-1.0254,0.69729-1.6816,0.69726-0.64258,0.00003-1.1963-0.23239-1.6611-0.69726-0.46484-0.46482-0.69726-1.0185-0.69726-1.6611,0-0.65622,0.23242-1.2168,0.69726-1.6816,0.46485-0.46482,1.0186-0.69724,1.6611-0.69727zm-1.4356,9.1875,2.8916,0,0,22.312-2.8916,0z"/>
			<path id="path4847" style="" d="m474.22,726.55,3.0557,0,7.4648,16.242,7.4033-16.242,3.0762,0-10.213,22.312-0.5127,0z"/>
			<path id="path4849" style="" d="m518.41,741.46,2.4199,1.2715c-0.793,1.5586-1.709,2.8164-2.748,3.7734-1.0391,0.95703-2.208,1.6851-3.5068,2.1841-1.2988,0.49903-2.7686,0.74854-4.4092,0.74854-3.6367,0-6.4805-1.1929-8.5312-3.5786-2.0508-2.3857-3.0762-5.0825-3.0762-8.0903,0-2.8301,0.86816-5.3525,2.6045-7.5674,2.2012-2.8164,5.1475-4.2246,8.8389-4.2246,3.8008,0.00002,6.8359,1.4424,9.1055,4.3272,1.6133,2.0371,2.4336,4.5801,2.4609,7.6289h-20.057c0.0547,2.5977,0.88183,4.727,2.4814,6.3882,1.5996,1.6611,3.5752,2.4917,5.9268,2.4917,1.1348,0,2.2388-0.19824,3.312-0.59473,1.0732-0.39648,1.9858-0.92285,2.7378-1.5791,0.75193-0.65624,1.5654-1.7158,2.4404-3.1787zm0-6.0088c-0.38283-1.5312-0.93996-2.7549-1.6714-3.6709-0.73147-0.916-1.6988-1.6543-2.9019-2.2148-1.2031-0.56053-2.4678-0.8408-3.7939-0.84082-2.1875,0.00002-4.0674,0.70412-5.6396,2.1123-1.1484,1.0254-2.0166,2.5635-2.6045,4.6143z"/>
			<path id="path4851" style="" d="m529.79,743.32,2.7686,1.3125-4.1631,7.752-2.0303-0.86132z"/>
			<path id="path4853" style="" d="m328.55,793.96,2.4199,1.2715c-0.79299,1.5586-1.709,2.8164-2.748,3.7734-1.0391,0.95703-2.208,1.6851-3.5068,2.1841-1.2988,0.49903-2.7686,0.74854-4.4092,0.74854-3.6367,0-6.4805-1.1929-8.5312-3.5786-2.0508-2.3857-3.0762-5.0825-3.0762-8.0903,0-2.8301,0.86817-5.3525,2.6045-7.5674,2.2012-2.8164,5.1474-4.2246,8.8389-4.2246,3.8008,0.00002,6.8359,1.4424,9.1055,4.3272,1.6133,2.0371,2.4336,4.5801,2.4609,7.6289h-20.057c0.0547,2.5977,0.88183,4.727,2.4814,6.3882,1.5996,1.6611,3.5752,2.4917,5.9268,2.4917,1.1348,0,2.2388-0.19824,3.312-0.59473,1.0732-0.39648,1.9858-0.92285,2.7378-1.5791,0.75193-0.65624,1.5654-1.7158,2.4404-3.1787zm0-6.0088c-0.38284-1.5312-0.93997-2.7549-1.6714-3.6709-0.73146-0.916-1.6988-1.6543-2.9019-2.2148-1.2031-0.56053-2.4678-0.8408-3.7939-0.84082-2.1875,0.00002-4.0674,0.70412-5.6396,2.1123-1.1484,1.0254-2.0166,2.5635-2.6045,4.6143z"/>
			<path id="path4855" style="" d="m346.27,770.43,0,2.8096c-1.0528-0.45114-1.9551-0.67673-2.707-0.67676-0.56056,0.00003-1.0254,0.11282-1.3945,0.33838-0.36914,0.22561-0.60157,0.48538-0.69726,0.7793-0.0957,0.29397-0.14356,1.0767-0.14356,2.3481v3.0146h4.6553v2.4609h-4.6758v19.852h-2.8711v-19.852h-2.9326v-2.4609h2.9326v-3.4863c0-1.5996,0.14697-2.7412,0.44092-3.4248,0.29394-0.68357,0.79296-1.2339,1.4971-1.6509,0.7041-0.41696,1.5552-0.62546,2.5532-0.62549,0.92968,0.00003,2.0439,0.19144,3.3428,0.57422z"/>
			<path id="path4857" style="" d="m359.48,770.43,0,2.8096c-1.0528-0.45114-1.9551-0.67673-2.707-0.67676-0.56056,0.00003-1.0254,0.11282-1.3945,0.33838-0.36915,0.22561-0.60157,0.48538-0.69727,0.7793-0.0957,0.29397-0.14356,1.0767-0.14355,2.3481v3.0146h4.6553v2.4609h-4.6758v19.852h-2.8711v-19.852h-2.9326v-2.4609h2.9326v-3.4863c0-1.5996,0.14697-2.7412,0.44092-3.4248,0.29394-0.68357,0.79296-1.2339,1.4971-1.6509,0.7041-0.41696,1.5552-0.62546,2.5532-0.62549,0.92968,0.00003,2.0439,0.19144,3.3428,0.57422z"/>
			<path id="path4859" style="" d="m382.28,793.96,2.4199,1.2715c-0.79299,1.5586-1.709,2.8164-2.748,3.7734-1.0391,0.95703-2.208,1.6851-3.5068,2.1841-1.2988,0.49903-2.7686,0.74854-4.4092,0.74854-3.6367,0-6.4805-1.1929-8.5312-3.5786-2.0508-2.3857-3.0762-5.0825-3.0762-8.0903,0-2.8301,0.86816-5.3525,2.6045-7.5674,2.2012-2.8164,5.1474-4.2246,8.8389-4.2246,3.8008,0.00002,6.8359,1.4424,9.1055,4.3272,1.6133,2.0371,2.4336,4.5801,2.4609,7.6289h-20.057c0.0547,2.5977,0.88183,4.727,2.4814,6.3882,1.5996,1.6611,3.5752,2.4917,5.9268,2.4917,1.1348,0,2.2388-0.19824,3.312-0.59473,1.0732-0.39648,1.9858-0.92285,2.7378-1.5791,0.75193-0.65624,1.5654-1.7158,2.4404-3.1787zm0-6.0088c-0.38284-1.5312-0.93997-2.7549-1.6714-3.6709-0.73147-0.916-1.6988-1.6543-2.9019-2.2148-1.2031-0.56053-2.4678-0.8408-3.7939-0.84082-2.1875,0.00002-4.0674,0.70412-5.6396,2.1123-1.1484,1.0254-2.0166,2.5635-2.6045,4.6143z"/>
			<path id="path4861" style="" d="m412.47,783.68-2.2764,1.415c-1.9688-2.6113-4.6553-3.917-8.0596-3.917-2.7207,0.00002-4.98,0.87502-6.7778,2.625-1.7979,1.75-2.6968,3.876-2.6968,6.3779-0.00001,1.627,0.41357,3.1582,1.2407,4.5938,0.82714,1.4356,1.9619,2.5498,3.4043,3.3428,1.4424,0.79297,3.0591,1.1894,4.8501,1.1894,3.2812,0,5.9609-1.3057,8.0391-3.917l2.2764,1.4971c-1.0664,1.5996-2.4986,2.8403-4.2964,3.7222-1.7979,0.88184-3.8452,1.3228-6.1421,1.3228-3.5274,0-6.4531-1.1211-8.7773-3.3633s-3.4863-4.9697-3.4863-8.1826c-0.00001-2.1601,0.54345-4.1665,1.6304-6.019,1.0869-1.8525,2.5806-3.2983,4.481-4.3374,1.9004-1.039,4.0264-1.5586,6.3779-1.5586,1.4766,0.00002,2.9018,0.22561,4.2759,0.67676,1.374,0.45119,2.5395,1.0391,3.4966,1.7637,0.957,0.72463,1.7705,1.6475,2.4404,2.7686z"/>
			<path id="path4863" style="" d="m420.47,770.76,2.8916,0,0,8.2852,4.5527,0,0,2.4609-4.5527,0,0,19.852-2.8916,0,0-19.852-3.917,0,0-2.4609,3.917,0z"/>
			<path id="path4865" style="" d="m433.24,769.86c0.65624,0.00003,1.2168,0.23245,1.6816,0.69727,0.46484,0.46487,0.69726,1.0254,0.69727,1.6816-0.00001,0.6426-0.23243,1.1963-0.69727,1.6611-0.46485,0.46487-1.0254,0.69729-1.6816,0.69726-0.64258,0.00003-1.1963-0.23239-1.6611-0.69726-0.46485-0.46482-0.69727-1.0185-0.69727-1.6611,0-0.65622,0.23242-1.2168,0.69727-1.6816,0.46484-0.46482,1.0186-0.69724,1.6611-0.69727zm-1.4356,9.1875,2.8916,0,0,22.312-2.8916,0z"/>
			<path id="path4867" style="" d="m438.57,779.05,3.0557,0,7.4648,16.242,7.4033-16.242,3.0762,0-10.213,22.312-0.5127,0z"/>
			<path id="path4869" style="" d="m482.77,793.96,2.4199,1.2715c-0.79299,1.5586-1.709,2.8164-2.748,3.7734-1.0391,0.95703-2.208,1.6851-3.5068,2.1841-1.2988,0.49903-2.7686,0.74854-4.4092,0.74854-3.6367,0-6.4805-1.1929-8.5312-3.5786-2.0508-2.3857-3.0762-5.0825-3.0762-8.0903,0-2.8301,0.86817-5.3525,2.6045-7.5674,2.2012-2.8164,5.1474-4.2246,8.8389-4.2246,3.8008,0.00002,6.8359,1.4424,9.1055,4.3272,1.6133,2.0371,2.4336,4.5801,2.4609,7.6289h-20.057c0.0547,2.5977,0.88183,4.727,2.4814,6.3882,1.5996,1.6611,3.5752,2.4917,5.9268,2.4917,1.1348,0,2.2388-0.19824,3.312-0.59473,1.0732-0.39648,1.9858-0.92285,2.7378-1.5791,0.75193-0.65624,1.5654-1.7158,2.4404-3.1787zm0-6.0088c-0.38284-1.5312-0.93997-2.7549-1.6714-3.6709-0.73146-0.916-1.6988-1.6543-2.9019-2.2148-1.2031-0.56053-2.4678-0.8408-3.7939-0.84082-2.1875,0.00002-4.0674,0.70412-5.6396,2.1123-1.1484,1.0254-2.0166,2.5635-2.6045,4.6143z"/>
			<path id="path4871" style="" d="m491.3,779.05,2.8711,0,0,3.999c1.1484-1.5312,2.4199-2.6762,3.8144-3.4351,1.3945-0.75876,2.9121-1.1382,4.5527-1.1382,1.668,0.00002,3.1479,0.42385,4.4399,1.2715,1.292,0.84767,2.2456,1.9893,2.8608,3.4248,0.61521,1.4356,0.92283,3.6709,0.92285,6.706v11.484h-2.8506v-10.644c-0.00001-2.5703-0.10939-4.2861-0.32812-5.1475-0.34182-1.4765-0.98439-2.5874-1.9277-3.3325-0.94338-0.74509-2.1738-1.1176-3.6914-1.1177-1.7363,0.00002-3.2915,0.57424-4.6655,1.7227-1.374,1.1484-2.2798,2.5703-2.7173,4.2656-0.27345,1.1074-0.41017,3.1309-0.41016,6.0703v8.1826h-2.8711z"/>
			<path id="path4873" style="" d="m535.68,793.96,2.4199,1.2715c-0.79299,1.5586-1.709,2.8164-2.748,3.7734-1.0391,0.95703-2.208,1.6851-3.5068,2.1841-1.2988,0.49903-2.7686,0.74854-4.4092,0.74854-3.6367,0-6.4805-1.1929-8.5312-3.5786-2.0508-2.3857-3.0762-5.0825-3.0762-8.0903,0-2.8301,0.86816-5.3525,2.6045-7.5674,2.2012-2.8164,5.1474-4.2246,8.8389-4.2246,3.8008,0.00002,6.8359,1.4424,9.1055,4.3272,1.6133,2.0371,2.4336,4.5801,2.4609,7.6289h-20.057c0.0547,2.5977,0.88183,4.727,2.4814,6.3882,1.5996,1.6611,3.5752,2.4917,5.9268,2.4917,1.1348,0,2.2388-0.19824,3.312-0.59473,1.0732-0.39648,1.9858-0.92285,2.7378-1.5791,0.75194-0.65624,1.5654-1.7158,2.4404-3.1787zm0-6.0088c-0.38283-1.5312-0.93996-2.7549-1.6714-3.6709-0.73147-0.916-1.6988-1.6543-2.9019-2.2148-1.2031-0.56053-2.4678-0.8408-3.7939-0.84082-2.1875,0.00002-4.0674,0.70412-5.6396,2.1123-1.1484,1.0254-2.0166,2.5635-2.6045,4.6143z"/>
			<path id="path4875" style="" d="m555.43,781.49-1.8457,1.9072c-1.5313-1.4902-3.0283-2.2353-4.4912-2.2354-0.92969,0.00002-1.7261,0.30764-2.3892,0.92286-0.66309,0.61525-0.99463,1.333-0.99463,2.1533,0,0.72462,0.27344,1.415,0.82032,2.0713,0.54686,0.66993,1.6953,1.4561,3.4453,2.3584,2.1328,1.1074,3.582,2.1738,4.3476,3.1992,0.75194,1.0391,1.1279,2.208,1.1279,3.5068-0.00001,1.832-0.64259,3.3838-1.9277,4.6553-1.2852,1.2715-2.8916,1.9072-4.8193,1.9072-1.2852,0-2.5122-0.28028-3.6812-0.84082-1.169-0.56055-2.1362-1.333-2.9018-2.3174l1.8047-2.0508c1.4629,1.6543,3.0146,2.4814,4.6553,2.4814,1.1484,0,2.126-0.36914,2.9326-1.1074,0.80663-0.73828,1.21-1.6064,1.21-2.6045-0.00002-0.82031-0.26662-1.5518-0.79981-2.1943-0.53321-0.6289-1.7363-1.4219-3.6094-2.3789-2.0098-1.039-3.377-2.0644-4.1016-3.0762-0.72461-1.0117-1.0869-2.167-1.0869-3.4658,0-1.6953,0.57763-3.1035,1.7329-4.2246s2.6147-1.6816,4.3784-1.6816c2.0508,0.00002,4.1152,1.0049,6.1934,3.0146z"/>
			<path id="path4877" style="" d="m571.75,781.49-1.8457,1.9072c-1.5313-1.4902-3.0283-2.2353-4.4912-2.2354-0.92969,0.00002-1.7261,0.30764-2.3892,0.92286-0.66309,0.61525-0.99463,1.333-0.99463,2.1533,0,0.72462,0.27343,1.415,0.82031,2.0713,0.54687,0.66993,1.6953,1.4561,3.4453,2.3584,2.1328,1.1074,3.582,2.1738,4.3476,3.1992,0.75194,1.0391,1.1279,2.208,1.1279,3.5068-0.00001,1.832-0.64259,3.3838-1.9277,4.6553-1.2852,1.2715-2.8916,1.9072-4.8193,1.9072-1.2852,0-2.5122-0.28028-3.6812-0.84082-1.169-0.56055-2.1362-1.333-2.9019-2.3174l1.8047-2.0508c1.4629,1.6543,3.0146,2.4814,4.6553,2.4814,1.1484,0,2.126-0.36914,2.9326-1.1074,0.80663-0.73828,1.21-1.6064,1.21-2.6045-0.00001-0.82031-0.26661-1.5518-0.7998-2.1943-0.53321-0.6289-1.7363-1.4219-3.6094-2.3789-2.0098-1.039-3.377-2.0644-4.1016-3.0762-0.72461-1.0117-1.0869-2.167-1.0869-3.4658,0-1.6953,0.57763-3.1035,1.7329-4.2246s2.6147-1.6816,4.3784-1.6816c2.0508,0.00002,4.1152,1.0049,6.1934,3.0146z"/>
			<path id="path4879" style="" d="m359.37,822.36c0.65624,0.00003,1.2168,0.23245,1.6816,0.69727,0.46484,0.46487,0.69726,1.0254,0.69727,1.6816-0.00001,0.6426-0.23243,1.1963-0.69727,1.6611-0.46485,0.46487-1.0254,0.69729-1.6816,0.69726-0.64258,0.00003-1.1963-0.23239-1.6611-0.69726-0.46485-0.46482-0.69727-1.0185-0.69727-1.6611,0-0.65622,0.23242-1.2168,0.69727-1.6816,0.46484-0.46482,1.0186-0.69724,1.6611-0.69727zm-1.4356,9.1875,2.8916,0,0,22.312-2.8916,0z"/>
			<path id="path4881" style="" d="m366.82,831.55,2.8711,0,0,3.999c1.1484-1.5312,2.4199-2.6762,3.8144-3.4351,1.3945-0.75876,2.9121-1.1382,4.5527-1.1382,1.668,0.00002,3.1479,0.42385,4.4399,1.2715,1.292,0.84767,2.2456,1.9893,2.8608,3.4248,0.61521,1.4356,0.92283,3.6709,0.92285,6.706v11.484h-2.8506v-10.644c-0.00002-2.5703-0.10939-4.2861-0.32812-5.1475-0.34182-1.4765-0.9844-2.5874-1.9277-3.3325-0.94337-0.74509-2.1738-1.1176-3.6914-1.1177-1.7363,0.00002-3.2915,0.57424-4.6655,1.7227-1.374,1.1484-2.2798,2.5703-2.7173,4.2656-0.27344,1.1074-0.41016,3.1309-0.41015,6.0703v8.1826h-2.8711z"/>
			<path id="path4883" style="" d="m414.68,822.93,0,30.926-2.8301,0,0-3.835c-1.2032,1.4629-2.5532,2.5635-4.0503,3.3018-1.4971,0.73828-3.1343,1.1074-4.9116,1.1074-3.1582,0-5.855-1.145-8.0903-3.4351-2.2354-2.29-3.353-5.0757-3.353-8.3569,0-3.2129,1.1279-5.9609,3.3838-8.2441,2.2558-2.2832,4.9697-3.4248,8.1416-3.4248,1.832,0.00002,3.4897,0.38967,4.9731,1.169,1.4834,0.77931,2.7856,1.9483,3.9067,3.5068v-12.715zm-11.484,10.808c-1.5996,0.00002-3.0762,0.39308-4.4297,1.1792-1.3535,0.78616-2.4302,1.8902-3.23,3.312-0.79981,1.4219-1.1997,2.9258-1.1997,4.5117-0.00001,1.5723,0.40331,3.0762,1.21,4.5117,0.80663,1.4356,1.8901,2.5532,3.2505,3.353,1.3603,0.79981,2.8198,1.1997,4.3784,1.1997,1.5722,0,3.0625-0.39648,4.4707-1.1894,1.4082-0.79297,2.4917-1.8662,3.2505-3.2197,0.75876-1.3535,1.1382-2.8779,1.1382-4.5732-0.00002-2.584-0.85109-4.7441-2.5532-6.4805-1.7022-1.7363-3.7974-2.6045-6.2856-2.6045z"/>
			<path id="path4885" style="" d="m422.21,822.36c0.65624,0.00003,1.2168,0.23245,1.6816,0.69727,0.46483,0.46487,0.69726,1.0254,0.69726,1.6816,0,0.6426-0.23243,1.1963-0.69726,1.6611-0.46485,0.46487-1.0254,0.69729-1.6816,0.69726-0.64259,0.00003-1.1963-0.23239-1.6611-0.69726-0.46484-0.46482-0.69726-1.0185-0.69726-1.6611,0-0.65622,0.23242-1.2168,0.69726-1.6816,0.46484-0.46482,1.0186-0.69724,1.6611-0.69727zm-1.4356,9.1875,2.8916,0,0,22.312-2.8916,0z"/>
			<path id="path4887" style="" d="m451.31,836.18-2.2764,1.415c-1.9688-2.6113-4.6553-3.917-8.0596-3.917-2.7207,0.00002-4.98,0.87502-6.7778,2.625s-2.6968,3.876-2.6968,6.3779c-0.00001,1.627,0.41356,3.1582,1.2407,4.5938s1.9619,2.5498,3.4043,3.3428c1.4424,0.79297,3.0591,1.1894,4.8501,1.1894,3.2812,0,5.9609-1.3057,8.0391-3.917l2.2764,1.4971c-1.0664,1.5996-2.4986,2.8403-4.2964,3.7222-1.7979,0.88184-3.8452,1.3228-6.1421,1.3228-3.5274,0-6.4531-1.1211-8.7774-3.3633-2.3242-2.2422-3.4863-4.9697-3.4863-8.1826,0-2.1601,0.54346-4.1665,1.6304-6.019s2.5806-3.2983,4.481-4.3374c1.9004-1.039,4.0264-1.5586,6.3779-1.5586,1.4766,0.00002,2.9018,0.22561,4.2759,0.67676,1.374,0.45119,2.5395,1.0391,3.4966,1.7637,0.95701,0.72463,1.7705,1.6475,2.4404,2.7686z"/>
			<path id="path4889" style="" d="m479.04,831.55,0,22.312-2.8301,0,0-3.835c-1.2032,1.4629-2.5532,2.5635-4.0503,3.3018-1.4971,0.73828-3.1343,1.1074-4.9116,1.1074-3.1582,0-5.855-1.145-8.0903-3.4351-2.2354-2.29-3.353-5.0757-3.353-8.3569,0-3.2129,1.1279-5.9609,3.3838-8.2441,2.2558-2.2832,4.9697-3.4248,8.1416-3.4248,1.832,0.00002,3.4897,0.38967,4.9732,1.169,1.4834,0.77931,2.7856,1.9483,3.9067,3.5068v-4.1016zm-11.484,2.1943c-1.5996,0.00002-3.0762,0.39308-4.4297,1.1792-1.3535,0.78616-2.4302,1.8902-3.23,3.312-0.79981,1.4219-1.1997,2.9258-1.1997,4.5117,0,1.5723,0.40332,3.0762,1.21,4.5117,0.80663,1.4356,1.8901,2.5532,3.2505,3.353,1.3603,0.79981,2.8198,1.1997,4.3784,1.1997,1.5722,0,3.0625-0.39648,4.4707-1.1894,1.4082-0.79297,2.4917-1.8662,3.2505-3.2197,0.75877-1.3535,1.1382-2.8779,1.1382-4.5732-0.00003-2.584-0.8511-4.7441-2.5532-6.4805-1.7022-1.7363-3.7974-2.6045-6.2856-2.6045z"/>
			<path id="path4891" style="" d="m488.02,823.26,2.8916,0,0,8.2852,4.5527,0,0,2.4609-4.5527,0,0,19.852-2.8916,0,0-19.852-3.917,0,0-2.4609,3.917,0z"/>
			<path id="path4893" style="" d="m510.35,830.97c3.4316,0.00002,6.2754,1.2442,8.5312,3.7324,2.0508,2.2696,3.0762,4.9561,3.0762,8.0596-0.00003,3.1172-1.0835,5.8413-3.2505,8.1724-2.167,2.331-4.9527,3.4966-8.3569,3.4966-3.418,0-6.2104-1.1655-8.3774-3.4966-2.167-2.331-3.2505-5.0552-3.2505-8.1724,0-3.0898,1.0254-5.7695,3.0762-8.0391,2.2558-2.5019,5.1064-3.7529,8.5518-3.7529zm0,2.8096c-2.3789,0.00002-4.4229,0.88186-6.1318,2.6455-1.709,1.7637-2.5635,3.8965-2.5635,6.3984,0,1.6133,0.38965,3.1172,1.169,4.5117,0.77929,1.3945,1.832,2.4712,3.1582,3.23,1.3262,0.75879,2.7822,1.1382,4.3682,1.1382,1.5859,0,3.042-0.37939,4.3682-1.1382,1.3262-0.75879,2.3789-1.8354,3.1582-3.23,0.77928-1.3945,1.1689-2.8984,1.169-4.5117-0.00003-2.5019-0.85793-4.6348-2.5737-6.3984s-3.7564-2.6455-6.1216-2.6455z"/>
			<path id="path4895" style="" d="m526.18,831.55,2.9326,0,0,3.2607c0.875-1.2851,1.7978-2.2456,2.7686-2.8814,0.97069-0.63572,1.9824-0.95359,3.0352-0.95361,0.79296,0.00002,1.6406,0.25295,2.543,0.75879l-1.4971,2.4199c-0.60157-0.25974-1.1074-0.38963-1.5176-0.38965-0.95704,0.00002-1.8799,0.39309-2.7686,1.1792-0.88868,0.78615-1.5654,2.0064-2.0303,3.6606-0.35548,1.2715-0.53321,3.8418-0.53321,7.7109v7.5469h-2.9326z"/>
		</g>
	</g>
</svg>
