<!-- Created with Inkscape (http://www.inkscape.org/) -->
<svg id="svg2" xmlns:rdf="http://www.w3.org/1999/02/22-rdf-syntax-ns#" xmlns="http://www.w3.org/2000/svg" viewBox="0 0 900 700" version="1.1" xmlns:cc="http://creativecommons.org/ns#" xmlns:dc="http://purl.org/dc/elements/1.1/">
	<metadata id="metadata7">
		<rdf:RDF>
			<cc:Work rdf:about="">
				<dc:format>image/svg+xml</dc:format>
				<dc:type rdf:resource="http://purl.org/dc/dcmitype/StillImage"/>
				<dc:title/>
			</cc:Work>
		</rdf:RDF>
	</metadata>
	<g id="layer1" transform="translate(0,-352.36218)">
		<path id="path3818-1" style="fill:#ffffff;" d="m448.57,245.71a154.29,154.29,0,1,1,-308.57,0,154.29,154.29,0,1,1,308.57,0z" transform="matrix(0.46504628,0,0,0.46504628,14.893518,362.34368)"/>
		<path id="path3818-1-7" style="fill:#ffffff;" d="m448.57,245.71a154.29,154.29,0,1,1,-308.57,0,154.29,154.29,0,1,1,308.57,0z" transform="matrix(0.40023147,0,0,0.40023147,325.09259,431.12674)"/>
		<path id="path3818-1-4" style="fill:#ffffff;" d="m448.57,245.71a154.29,154.29,0,1,1,-308.57,0,154.29,154.29,0,1,1,308.57,0z" transform="matrix(0.27060184,0,0,0.27060184,655.79433,760.12146)"/>
		<text id="text3892" style="font-size:50.49956894px;font-family:Century Gothic;writing-mode:lr-tb;fill:#ffffff;letter-spacing:0px;text-anchor:start;line-height:125%;word-spacing:0px;font-stretch:normal;font-variant:normal;font-weight:bold;font-style:normal;text-align:start;" xml:space="preserve" y="430.2756" x="136.31744"><tspan id="tspan3894" x="136.31744" y="430.2756"/></text>
		<path id="path3818-1-7-0" style="fill:#ffffff;" d="m448.57,245.71a154.29,154.29,0,1,1,-308.57,0,154.29,154.29,0,1,1,308.57,0z" transform="matrix(0.2150463,0,0,0.2150463,276.71494,359.52223)"/>
		<path id="path3818-1-7-9" style="fill:#ffffff;" d="m448.57,245.71a154.29,154.29,0,1,1,-308.57,0,154.29,154.29,0,1,1,308.57,0z" transform="matrix(0.25208333,0,0,0.25208333,577.24404,398.99314)"/>
		<path id="path3818-1-7-9-4" style="fill:#ffffff;" d="m448.57,245.71a154.29,154.29,0,1,1,-308.57,0,154.29,154.29,0,1,1,308.57,0z" transform="matrix(0.34467592,0,0,0.34467592,664.2811,590.52753)"/>
		<path id="path3818-1-4-8" style="fill:#ffffff;" d="m448.57,245.71a154.29,154.29,0,1,1,-308.57,0,154.29,154.29,0,1,1,308.57,0z" transform="matrix(0.41874999,0,0,0.41874999,509.625,862.32647)"/>
		<path id="path3818-1-7-0-8" style="fill:#ffffff;" d="m448.57,245.71a154.29,154.29,0,1,1,-308.57,0,154.29,154.29,0,1,1,308.57,0z" transform="matrix(0.15949075,0,0,0.15949075,290.20701,941.74445)"/>
		<path id="path3818-1-7-9-2" style="fill:#ffffff;" d="m448.57,245.71a154.29,154.29,0,1,1,-308.57,0,154.29,154.29,0,1,1,308.57,0z" transform="matrix(0.25208333,0,0,0.25208333,125.81548,833.27885)"/>
		<path id="path3818-1-7-9-4-4" style="fill:#ffffff;" d="m448.57,245.71a154.29,154.29,0,1,1,-308.57,0,154.29,154.29,0,1,1,308.57,0z" transform="matrix(0.34467592,0,0,0.34467592,42.852516,597.67038)"/>
		<g id="text4698" style="font-size:48px;font-family:Century Gothic;writing-mode:lr-tb;fill:#ffffff;letter-spacing:0px;text-anchor:middle;line-height:125%;word-spacing:0px;font-stretch:normal;font-variant:normal;font-weight:bold;font-style:normal;text-align:center;">
			<path id="path5171" style="" d="m349.14,615.43-4.5938,4.3828c-3.125-3.2968-6.6406-4.9453-10.547-4.9453-3.2969,0.00003-6.0742,1.125-8.332,3.375s-3.3867,5.0235-3.3867,8.3203c-0.00001,2.2969,0.49999,4.336,1.5,6.1172,0.99999,1.7813,2.414,3.1797,4.2422,4.1953,1.8281,1.0156,3.8594,1.5234,6.0938,1.5234,1.9062,0.00001,3.6484-0.35546,5.2266-1.0664,1.5781-0.71093,3.3125-2.0039,5.2031-3.8789l4.4531,4.6406c-2.5469,2.4844-4.9532,4.207-7.2188,5.168-2.2656,0.96094-4.8516,1.4414-7.7578,1.4414-5.3594,0-9.7461-1.6992-13.16-5.0977-3.4141-3.3984-5.1211-7.7539-5.1211-13.066,0-3.4375,0.77734-6.4922,2.332-9.1641,1.5547-2.6718,3.7812-4.8203,6.6797-6.4453,2.8984-1.625,6.0195-2.4375,9.3633-2.4375,2.8437,0.00004,5.582,0.6016,8.2148,1.8047,2.6328,1.2032,4.9023,2.9141,6.8086,5.1328z"/>
			<path id="path5173" style="" d="m366.13,617.68c2.4062,0.00003,4.668,0.60159,6.7852,1.8047,2.1172,1.2032,3.7695,2.836,4.957,4.8984,1.1875,2.0625,1.7812,4.2891,1.7812,6.6797-0.00002,2.4063-0.59768,4.6563-1.793,6.75-1.1953,2.0938-2.8242,3.7305-4.8867,4.9102s-4.336,1.7695-6.8203,1.7695c-3.6563,0-6.7774-1.3008-9.3633-3.9023-2.5859-2.6016-3.8789-5.7617-3.8789-9.4805-0.00001-3.9844,1.4609-7.3047,4.3828-9.9609,2.5625-2.3125,5.5078-3.4687,8.8359-3.4688zm0.0937,6.0234c-1.9844,0.00002-3.6367,0.69142-4.957,2.0742s-1.9805,3.1524-1.9805,5.3086c-0.00001,2.2188,0.65233,4.0156,1.957,5.3906s2.957,2.0625,4.957,2.0625c2,0.00001,3.664-0.6953,4.9922-2.0859,1.3281-1.3906,1.9922-3.1797,1.9922-5.3672-0.00002-2.1875-0.65236-3.9648-1.957-5.332-1.3047-1.3672-2.9727-2.0508-5.0039-2.0508z"/>
			<path id="path5175" style="" d="m384.22,608.49,6.3984,0,0,35.344-6.3984,0z"/>
			<path id="path5177" style="" d="m395.75,608.49,6.3984,0,0,35.344-6.3984,0z"/>
			<path id="path5179" style="" d="m433.51,632.94-20.555,0c0.29687,1.8125,1.0898,3.2539,2.3789,4.3242,1.289,1.0703,2.9336,1.6055,4.9336,1.6055,2.3906,0,4.4453-0.83593,6.1641-2.5078l5.3906,2.5312c-1.3438,1.9062-2.9532,3.3164-4.8281,4.2305-1.875,0.91406-4.1016,1.3711-6.6797,1.3711-4,0-7.2578-1.2617-9.7734-3.7852-2.5156-2.5234-3.7734-5.6836-3.7734-9.4805,0-3.8906,1.2539-7.1211,3.7617-9.6914s5.6523-3.8554,9.4336-3.8555c4.0156,0.00003,7.2812,1.2852,9.7969,3.8555,2.5156,2.5703,3.7734,5.9649,3.7734,10.184zm-6.4219-5.0391c-0.42189-1.4219-1.2539-2.5781-2.4961-3.4688-1.2422-0.8906-2.6836-1.3359-4.3242-1.3359-1.7813,0.00002-3.3438,0.50002-4.6875,1.5-0.84376,0.62502-1.625,1.7266-2.3438,3.3047z"/>
			<path id="path5181" style="" d="m463.68,623.49-5.3203,2.9297c-1-1.0469-1.9883-1.7734-2.9648-2.1797-0.97658-0.40623-2.1211-0.60935-3.4336-0.60938-2.3906,0.00003-4.3242,0.71487-5.8008,2.1445-1.4766,1.4297-2.2148,3.2617-2.2148,5.4961-0.00001,2.1719,0.71092,3.9453,2.1328,5.3203s3.289,2.0625,5.6016,2.0625c2.8594,0.00001,5.0859-0.97655,6.6797-2.9297l5.0391,3.4453c-2.7344,3.5469-6.5938,5.3203-11.578,5.3203-4.4844,0-7.9961-1.3281-10.535-3.9844-2.5391-2.6562-3.8086-5.7656-3.8086-9.3281-0.00001-2.4687,0.61718-4.7422,1.8516-6.8203s2.957-3.7109,5.168-4.8984c2.2109-1.1875,4.6836-1.7812,7.418-1.7812,2.5312,0.00003,4.8047,0.50393,6.8203,1.5117s3.664,2.4414,4.9453,4.3008z"/>
			<path id="path5183" style="" d="m470.24,608.94,6.375,0,0,9.3984,3.7969,0,0,5.5078-3.7969,0,0,19.992-6.375,0,0-19.992-3.2812,0,0-5.5078,3.2812,0z"/>
			<path id="path5185" style="" d="m516.15,618.34,6.375,0,0,25.5-6.375,0,0-2.6953c-1.25,1.1875-2.5039,2.043-3.7617,2.5664-1.2578,0.52344-2.6211,0.78516-4.0898,0.78516-3.2969,0-6.1484-1.2773-8.5547-3.832-2.4062-2.5547-3.6094-5.7305-3.6094-9.5274,0-3.9375,1.1641-7.164,3.4922-9.6797,2.3281-2.5156,5.1562-3.7734,8.4844-3.7734,1.5312,0.00003,2.9687,0.28909,4.3125,0.86719,1.3437,0.57815,2.5859,1.4453,3.7266,2.6016zm-6.7266,5.25c-1.9844,0.00002-3.6328,0.69924-4.9453,2.0977-1.3125,1.3984-1.9688,3.1914-1.9688,5.3789-0.00001,2.2031,0.66796,4.0156,2.0039,5.4375s2.9805,2.1328,4.9336,2.1328c2.0156,0.00001,3.6875-0.69921,5.0156-2.0976s1.9922-3.2305,1.9922-5.4961c-0.00002-2.2187-0.66408-4.0156-1.9922-5.3906s-3.0078-2.0625-5.0391-2.0625z"/>
			<path id="path5187" style="" d="m529,618.34,6.375,0,0,2.6016c1.4531-1.2187,2.7695-2.0664,3.9492-2.543,1.1797-0.47653,2.3867-0.71481,3.6211-0.71484,2.5312,0.00003,4.6797,0.88284,6.4453,2.6484,1.4844,1.5,2.2265,3.7188,2.2266,6.6562v16.852h-6.3281v-11.18c-0.00002-3.0469-0.13674-5.0703-0.41016-6.0703-0.27346-0.99998-0.75002-1.7617-1.4297-2.2852-0.6797-0.52341-1.5195-0.78513-2.5195-0.78515-1.2969,0.00002-2.4102,0.43361-3.3398,1.3008-0.9297,0.8672-1.5742,2.0664-1.9336,3.5976-0.18751,0.79689-0.28126,2.5235-0.28125,5.1797v10.242h-6.375z"/>
			<path id="path5189" style="" d="m576.62,608.49,6.375,0,0,35.344-6.375,0,0-2.6953c-1.25,1.1875-2.5039,2.043-3.7617,2.5664-1.2578,0.52344-2.6211,0.78516-4.0898,0.78516-3.2969,0-6.1484-1.2773-8.5547-3.832-2.4062-2.5547-3.6094-5.7305-3.6094-9.5274,0-3.9375,1.1641-7.164,3.4922-9.6797,2.3281-2.5156,5.1562-3.7734,8.4844-3.7734,1.5312,0.00003,2.9687,0.28909,4.3125,0.86719,1.3437,0.57815,2.5859,1.4453,3.7266,2.6016zm-6.7266,15.094c-1.9844,0.00002-3.6328,0.69924-4.9453,2.0977-1.3125,1.3984-1.9688,3.1914-1.9688,5.3789-0.00001,2.2031,0.66796,4.0156,2.0039,5.4375s2.9805,2.1328,4.9336,2.1328c2.0156,0.00001,3.6875-0.69921,5.0156-2.0976s1.9922-3.2305,1.9922-5.4961c-0.00002-2.2187-0.66408-4.0156-1.9922-5.3906s-3.0078-2.0625-5.0391-2.0625z"/>
			<path id="path5191" style="" d="m327.39,692.94-20.555,0c0.29687,1.8125,1.0898,3.2539,2.3789,4.3242,1.289,1.0703,2.9336,1.6055,4.9336,1.6055,2.3906,0,4.4453-0.83593,6.1641-2.5078l5.3906,2.5312c-1.3438,1.9062-2.9532,3.3164-4.8281,4.2305-1.875,0.91406-4.1016,1.3711-6.6797,1.3711-4,0-7.2578-1.2617-9.7734-3.7852-2.5156-2.5234-3.7734-5.6836-3.7734-9.4805,0-3.8906,1.2539-7.1211,3.7617-9.6914s5.6523-3.8554,9.4336-3.8555c4.0156,0.00003,7.2812,1.2852,9.7969,3.8555,2.5156,2.5703,3.7734,5.9649,3.7734,10.184zm-6.4219-5.0391c-0.42189-1.4219-1.2539-2.5781-2.4961-3.4688-1.2422-0.8906-2.6836-1.3359-4.3242-1.3359-1.7813,0.00002-3.3438,0.50002-4.6875,1.5-0.84376,0.62502-1.625,1.7266-2.3438,3.3047z"/>
			<path id="path5193" style="" d="m330.29,678.34,7.4297,0,4.9922,6.9609,5.0625-6.9609,7.3594,0-8.7188,12.07,9.7969,13.43-7.4297,0-6.0703-8.3672-6,8.3672-7.3359,0,9.6562-13.43z"/>
			<path id="path5195" style="" d="m365.85,678.34,0,2.8125c1.1562-1.1562,2.4062-2.0234,3.75-2.6016,1.3437-0.5781,2.7812-0.86716,4.3125-0.86719,3.3281,0.00003,6.1562,1.2578,8.4844,3.7734,2.3281,2.5156,3.4922,5.7422,3.4922,9.6797-0.00003,3.7969-1.2032,6.9727-3.6094,9.5274-2.4063,2.5547-5.2578,3.832-8.5547,3.832-1.4688,0-2.836-0.26172-4.1016-0.78516-1.2656-0.52343-2.5234-1.3789-3.7734-2.5664v12.023h-6.3516v-34.828zm6.7266,5.25c-2.0156,0.00002-3.6875,0.68752-5.0156,2.0625s-1.9922,3.1719-1.9922,5.3906c-0.00001,2.2656,0.66405,4.0977,1.9922,5.4961,1.3281,1.3984,3,2.0977,5.0156,2.0976,1.9531,0.00001,3.5976-0.71093,4.9336-2.1328,1.3359-1.4219,2.0039-3.2344,2.0039-5.4375-0.00002-2.1875-0.65627-3.9804-1.9688-5.3789-1.3125-1.3984-2.9688-2.0976-4.9688-2.0977z"/>
			<path id="path5197" style="" d="m390.5,668.49,6.3984,0,0,35.344-6.3984,0z"/>
			<path id="path5199" style="" d="m414.69,677.68c2.4062,0.00003,4.668,0.60159,6.7852,1.8047,2.1172,1.2032,3.7695,2.836,4.957,4.8984,1.1875,2.0625,1.7812,4.2891,1.7812,6.6797-0.00002,2.4063-0.59768,4.6563-1.793,6.75-1.1953,2.0938-2.8242,3.7305-4.8867,4.9102s-4.336,1.7695-6.8203,1.7695c-3.6563,0-6.7774-1.3008-9.3633-3.9023-2.5859-2.6016-3.8789-5.7617-3.8789-9.4805-0.00001-3.9844,1.4609-7.3047,4.3828-9.9609,2.5625-2.3125,5.5078-3.4687,8.8359-3.4688zm0.0937,6.0234c-1.9844,0.00002-3.6367,0.69142-4.957,2.0742s-1.9805,3.1524-1.9805,5.3086c-0.00001,2.2188,0.65233,4.0156,1.957,5.3906s2.957,2.0625,4.957,2.0625c2,0.00001,3.664-0.6953,4.9922-2.0859,1.3281-1.3906,1.9922-3.1797,1.9922-5.3672-0.00002-2.1875-0.65236-3.9648-1.957-5.332-1.3047-1.3672-2.9727-2.0508-5.0039-2.0508z"/>
			<path id="path5201" style="" d="m431.96,678.34,5.4844,0,0,3.2109c0.59374-1.2656,1.3828-2.2265,2.3672-2.8828,0.98436-0.65622,2.0625-0.98434,3.2344-0.98437,0.82811,0.00003,1.6953,0.21878,2.6016,0.65625l-1.9922,5.5078c-0.75002-0.37498-1.3672-0.56248-1.8516-0.5625-0.98438,0.00002-1.8164,0.6094-2.4961,1.8281-0.6797,1.2188-1.0195,3.6094-1.0195,7.1719l0.0234,1.2422v10.312h-6.3516z"/>
			<path id="path5203" style="" d="m474.39,692.94-20.555,0c0.29687,1.8125,1.0898,3.2539,2.3789,4.3242,1.289,1.0703,2.9336,1.6055,4.9336,1.6055,2.3906,0,4.4453-0.83593,6.1641-2.5078l5.3906,2.5312c-1.3438,1.9062-2.9532,3.3164-4.8281,4.2305-1.875,0.91406-4.1016,1.3711-6.6797,1.3711-4,0-7.2578-1.2617-9.7734-3.7852-2.5156-2.5234-3.7734-5.6836-3.7734-9.4805,0-3.8906,1.2539-7.1211,3.7617-9.6914s5.6523-3.8554,9.4336-3.8555c4.0156,0.00003,7.2812,1.2852,9.7969,3.8555,2.5156,2.5703,3.7734,5.9649,3.7734,10.184zm-6.4219-5.0391c-0.42189-1.4219-1.2539-2.5781-2.4961-3.4688-1.2422-0.8906-2.6836-1.3359-4.3242-1.3359-1.7813,0.00002-3.3438,0.50002-4.6875,1.5-0.84376,0.62502-1.625,1.7266-2.3438,3.3047z"/>
			<path id="path5205" style="" d="m517.96,683.49-5.3203,2.9297c-1-1.0469-1.9883-1.7734-2.9648-2.1797-0.97658-0.40623-2.1211-0.60935-3.4336-0.60938-2.3906,0.00003-4.3242,0.71487-5.8008,2.1445-1.4766,1.4297-2.2148,3.2617-2.2148,5.4961-0.00001,2.1719,0.71092,3.9453,2.1328,5.3203s3.289,2.0625,5.6016,2.0625c2.8594,0.00001,5.0859-0.97655,6.6797-2.9297l5.0391,3.4453c-2.7344,3.5469-6.5938,5.3203-11.578,5.3203-4.4844,0-7.9961-1.3281-10.535-3.9844-2.5391-2.6562-3.8086-5.7656-3.8086-9.3281-0.00001-2.4687,0.61718-4.7422,1.8516-6.8203s2.957-3.7109,5.168-4.8984c2.2109-1.1875,4.6836-1.7812,7.418-1.7812,2.5312,0.00003,4.8047,0.50393,6.8203,1.5117s3.664,2.4414,4.9453,4.3008z"/>
			<path id="path5207" style="" d="m523.72,678.34,6.4688,0,0,12.281c-0.00001,2.3906,0.16405,4.0508,0.49218,4.9805,0.32812,0.92969,0.85546,1.6524,1.582,2.168,0.72656,0.51563,1.6211,0.77344,2.6836,0.77343,1.0625,0.00001,1.9648-0.2539,2.707-0.76171,0.74217-0.50781,1.293-1.2539,1.6523-2.2383,0.26561-0.73436,0.39842-2.3047,0.39844-4.7109v-12.492h6.4219v10.805c-0.00003,4.4531-0.35159,7.5-1.0547,9.1406-0.8594,2-2.125,3.5352-3.7969,4.6055s-3.7969,1.6055-6.375,1.6055c-2.7969,0-5.0586-0.625-6.7852-1.875s-2.9414-2.9922-3.6445-5.2266c-0.50001-1.5469-0.75001-4.3594-0.75-8.4375z"/>
			<path id="path5209" style="" d="m578.07,692.94-20.555,0c0.29687,1.8125,1.0898,3.2539,2.3789,4.3242,1.289,1.0703,2.9336,1.6055,4.9336,1.6055,2.3906,0,4.4453-0.83593,6.1641-2.5078l5.3906,2.5312c-1.3438,1.9062-2.9532,3.3164-4.8281,4.2305-1.875,0.91406-4.1016,1.3711-6.6797,1.3711-4,0-7.2578-1.2617-9.7734-3.7852-2.5156-2.5234-3.7734-5.6836-3.7734-9.4805,0-3.8906,1.2539-7.1211,3.7617-9.6914s5.6523-3.8554,9.4336-3.8555c4.0156,0.00003,7.2812,1.2852,9.7969,3.8555,2.5156,2.5703,3.7734,5.9649,3.7734,10.184zm-6.4219-5.0391c-0.42189-1.4219-1.2539-2.5781-2.4961-3.4688-1.2422-0.8906-2.6836-1.3359-4.3242-1.3359-1.7813,0.00002-3.3438,0.50002-4.6875,1.5-0.84376,0.62502-1.625,1.7266-2.3438,3.3047z"/>
			<path id="path5211" style="" d="m598.89,681.9-3.9609,3.9609c-1.6094-1.5937-3.0703-2.3906-4.3828-2.3906-0.71876,0.00002-1.2813,0.15237-1.6875,0.45703-0.40626,0.30471-0.60938,0.68362-0.60938,1.1367,0,0.34377,0.1289,0.66018,0.38672,0.94922,0.25781,0.28908,0.89452,0.68361,1.9102,1.1836l2.3438,1.1719c2.4687,1.2188,4.164,2.461,5.0859,3.7266,0.92185,1.2656,1.3828,2.75,1.3828,4.4531-0.00002,2.2656-0.83205,4.1562-2.4961,5.6719-1.6641,1.5156-3.8945,2.2734-6.6914,2.2734-3.7188,0-6.6875-1.4531-8.9062-4.3594l3.9375-4.2891c0.74999,0.87501,1.6289,1.582,2.6367,2.1211,1.0078,0.53906,1.9023,0.8086,2.6836,0.80859,0.84374,0.00001,1.5234-0.20312,2.0391-0.60938,0.51562-0.40624,0.77343-0.87499,0.77344-1.4062-0.00001-0.98436-0.9297-1.9453-2.7891-2.8828l-2.1562-1.0781c-4.125-2.0781-6.1875-4.6797-6.1875-7.8047,0-2.0156,0.77734-3.7383,2.332-5.168s3.543-2.1445,5.9648-2.1445c1.6562,0.00003,3.2148,0.36331,4.6758,1.0898,1.4609,0.72659,2.6992,1.7696,3.7148,3.1289z"/>
		</g>
		<g id="text4704" style="font-size:42px;font-family:Century Gothic;writing-mode:lr-tb;fill:#ffffff;letter-spacing:0px;text-anchor:middle;line-height:125%;word-spacing:0px;font-stretch:normal;font-variant:normal;font-weight:normal;font-style:normal;text-align:center;">
			<path id="path5068" style="" d="m299.57,728.1,0-2.9326,16.55,0,0,2.9326-6.7266,0,0,27.234-3.0762,0,0-27.234z"/>
			<path id="path5070" style="" d="m318.88,733.02,2.9326,0,0,3.2607c0.875-1.2851,1.7978-2.2456,2.7686-2.8814,0.97069-0.63572,1.9824-0.95359,3.0352-0.95361,0.79296,0.00002,1.6406,0.25295,2.543,0.75879l-1.4971,2.4199c-0.60157-0.25975-1.1074-0.38963-1.5176-0.38965-0.95704,0.00002-1.8799,0.39309-2.7686,1.1792-0.88868,0.78615-1.5654,2.0064-2.0303,3.6606-0.35547,1.2715-0.5332,3.8418-0.5332,7.7109v7.5469h-2.9326z"/>
			<path id="path5072" style="" d="m354.83,733.02,0,22.312-2.8301,0,0-3.835c-1.2032,1.4629-2.5532,2.5635-4.0503,3.3018-1.4971,0.73829-3.1343,1.1074-4.9116,1.1074-3.1582,0-5.855-1.145-8.0903-3.4351-2.2354-2.29-3.353-5.0757-3.353-8.3569,0-3.2129,1.1279-5.9609,3.3838-8.2441,2.2558-2.2832,4.9697-3.4248,8.1416-3.4248,1.832,0.00002,3.4897,0.38967,4.9731,1.1689,1.4834,0.77932,2.7856,1.9483,3.9067,3.5068v-4.1016zm-11.484,2.1943c-1.5996,0.00002-3.0762,0.39309-4.4297,1.1792-1.3535,0.78615-2.4302,1.8902-3.23,3.312-0.79981,1.4219-1.1997,2.9258-1.1997,4.5117-0.00001,1.5723,0.40331,3.0762,1.21,4.5117,0.80663,1.4356,1.8901,2.5532,3.2505,3.353,1.3603,0.79981,2.8198,1.1997,4.3784,1.1997,1.5722,0,3.0625-0.39649,4.4707-1.1895,1.4082-0.79296,2.4917-1.8662,3.2505-3.2197,0.75876-1.3535,1.1382-2.8779,1.1382-4.5732-0.00002-2.584-0.85109-4.7441-2.5532-6.4805-1.7022-1.7363-3.7974-2.6045-6.2856-2.6045z"/>
			<path id="path5074" style="" d="m382.97,737.65-2.2764,1.415c-1.9688-2.6113-4.6553-3.917-8.0596-3.917-2.7207,0.00002-4.98,0.87502-6.7778,2.625-1.7979,1.75-2.6968,3.876-2.6968,6.3779,0,1.627,0.41357,3.1582,1.2407,4.5938,0.82715,1.4356,1.9619,2.5498,3.4043,3.3428,1.4424,0.79297,3.0591,1.1895,4.8501,1.1895,3.2812,0,5.9609-1.3057,8.0391-3.917l2.2764,1.4971c-1.0664,1.5996-2.4986,2.8403-4.2964,3.7222-1.7979,0.88184-3.8452,1.3228-6.1421,1.3228-3.5274,0-6.4531-1.1211-8.7773-3.3633s-3.4863-4.9697-3.4863-8.1826c0-2.1602,0.54345-4.1665,1.6304-6.019,1.0869-1.8525,2.5806-3.2983,4.481-4.3374,1.9004-1.039,4.0264-1.5586,6.3779-1.5586,1.4765,0.00002,2.9018,0.22561,4.2759,0.67676,1.374,0.45119,2.5395,1.0391,3.4966,1.7637,0.95701,0.72463,1.7705,1.6475,2.4404,2.7686z"/>
			<path id="path5076" style="" d="m388.45,724.4,2.8916,0,0,17.596,10.315-8.9824,4.2246,0-12.243,10.644,12.961,11.669-4.0606,0-11.197-10.028,0,10.028-2.8916,0z"/>
			<path id="path5078" style="" d="m421.24,733.02,2.8506,0,0,4.1016c1.1348-1.5586,2.4404-2.7275,3.917-3.5068,1.4766-0.77927,3.124-1.1689,4.9424-1.1689,3.1718,0.00002,5.8857,1.1416,8.1416,3.4248,2.2558,2.2832,3.3838,5.0313,3.3838,8.2441-0.00003,3.2813-1.1177,6.0669-3.353,8.3569-2.2354,2.29-4.9322,3.4351-8.0903,3.4351-1.7774,0-3.4112-0.36914-4.9014-1.1074-1.4902-0.73828-2.8369-1.8389-4.04-3.3018v11.997h-2.8506zm11.484,2.1943c-2.4883,0.00002-4.5835,0.86819-6.2856,2.6045-1.7022,1.7363-2.5532,3.8965-2.5532,6.4805,0,1.6953,0.37939,3.2197,1.1382,4.5732,0.75878,1.3535,1.8457,2.4268,3.2607,3.2197,1.415,0.79297,2.9087,1.1895,4.481,1.1895,1.5449,0,2.9975-0.3999,4.3579-1.1997,1.3603-0.7998,2.4438-1.9175,3.2505-3.353,0.80661-1.4355,1.2099-2.9394,1.21-4.5117-0.00003-1.5859-0.39993-3.0898-1.1997-4.5117-0.79983-1.4218-1.8765-2.5259-3.23-3.312-1.3535-0.78611-2.8301-1.1792-4.4297-1.1792z"/>
			<path id="path5080" style="" d="m448.74,733.02,2.9326,0,0,3.2607c0.87499-1.2851,1.7978-2.2456,2.7686-2.8814,0.9707-0.63572,1.9824-0.95359,3.0352-0.95361,0.79296,0.00002,1.6406,0.25295,2.543,0.75879l-1.4971,2.4199c-0.60157-0.25975-1.1074-0.38963-1.5176-0.38965-0.95704,0.00002-1.8799,0.39309-2.7686,1.1792-0.88868,0.78615-1.5654,2.0064-2.0303,3.6606-0.35547,1.2715-0.53321,3.8418-0.5332,7.7109v7.5469h-2.9326z"/>
			<path id="path5082" style="" d="m473.02,732.44c3.4316,0.00002,6.2754,1.2442,8.5312,3.7324,2.0508,2.2696,3.0762,4.9561,3.0762,8.0596-0.00002,3.1172-1.0835,5.8413-3.2505,8.1724s-4.9527,3.4966-8.3569,3.4966c-3.418,0-6.2104-1.1655-8.3774-3.4966-2.167-2.331-3.2505-5.0552-3.2505-8.1724,0-3.0898,1.0254-5.7695,3.0762-8.0391,2.2558-2.5019,5.1064-3.7529,8.5518-3.7529zm0,2.8096c-2.3789,0.00002-4.4229,0.88185-6.1318,2.6455-1.709,1.7637-2.5635,3.8965-2.5635,6.3984,0,1.6133,0.38964,3.1172,1.169,4.5117,0.77929,1.3945,1.832,2.4712,3.1582,3.23s2.7822,1.1382,4.3682,1.1382c1.5859,0,3.042-0.37939,4.3682-1.1382,1.3262-0.75878,2.3789-1.8354,3.1582-3.23,0.77927-1.3945,1.1689-2.8984,1.169-4.5117-0.00003-2.5019-0.85794-4.6348-2.5737-6.3984-1.7158-1.7637-3.7564-2.6455-6.1216-2.6455z"/>
			<path id="path5084" style="" d="m509.16,733.02,2.8916,0,0,17.78c-0.00003,3.1309-0.27346,5.4209-0.82031,6.8701-0.75198,2.0508-2.0576,3.6299-3.917,4.7373s-4.0948,1.6611-6.7061,1.6611c-1.9141-0.00001-3.6333-0.27003-5.1577-0.81006-1.5244-0.54005-2.7652-1.2647-3.7222-2.1738-0.95704-0.90919-1.8389-2.2388-2.6455-3.9888h3.1172c0.84765,1.4766,1.9414,2.5703,3.2812,3.2812,1.3398,0.71093,3.001,1.0664,4.9834,1.0664,1.9551-0.00001,3.6059-0.36573,4.9526-1.0972,1.3467-0.73145,2.3071-1.6509,2.8814-2.7583,0.5742-1.1074,0.86131-2.8916,0.86133-5.3525v-1.1484c-1.0801,1.3672-2.3994,2.4165-3.958,3.148-1.5586,0.73145-3.2129,1.0972-4.9629,1.0972-2.0508,0-3.9785-0.50928-5.7832-1.5278-1.8047-1.0186-3.1992-2.3892-4.1836-4.1118-0.98437-1.7226-1.4766-3.6162-1.4766-5.6807,0-2.0644,0.51269-3.9888,1.5381-5.7729,1.0254-1.7842,2.4438-3.1958,4.2554-4.2349,1.8115-1.039,3.7222-1.5586,5.7319-1.5586,1.668,0.00002,3.2231,0.34524,4.6655,1.0356,1.4424,0.69045,2.8335,1.8286,4.1733,3.4146zm-8.4697,2.1943c-1.627,0.00002-3.1377,0.39309-4.5322,1.1792-1.3945,0.78615-2.4883,1.8731-3.2812,3.2607-0.79298,1.3877-1.1895,2.8882-1.1895,4.5015,0,2.4473,0.82031,4.4707,2.4609,6.0703s3.7666,2.3994,6.3779,2.3994c2.6386,0,4.7612-0.79297,6.3677-2.3789,1.6064-1.5859,2.4096-3.6709,2.4097-6.2549-0.00002-1.6816-0.36916-3.1821-1.1074-4.5015-0.7383-1.3193-1.7842-2.3618-3.1377-3.1274s-2.8096-1.1484-4.3682-1.1484z"/>
			<path id="path5086" style="" d="m517.15,733.02,2.9326,0,0,3.2607c0.875-1.2851,1.7978-2.2456,2.7686-2.8814,0.97069-0.63572,1.9824-0.95359,3.0352-0.95361,0.79296,0.00002,1.6406,0.25295,2.543,0.75879l-1.4971,2.4199c-0.60157-0.25975-1.1074-0.38963-1.5176-0.38965-0.95704,0.00002-1.8799,0.39309-2.7686,1.1792-0.88868,0.78615-1.5654,2.0064-2.0303,3.6606-0.35548,1.2715-0.53321,3.8418-0.53321,7.7109v7.5469h-2.9326z"/>
			<path id="path5088" style="" d="m549.66,747.93,2.4199,1.2715c-0.79299,1.5586-1.709,2.8164-2.748,3.7734-1.0391,0.95703-2.208,1.6851-3.5068,2.1841-1.2988,0.49902-2.7686,0.74854-4.4092,0.74854-3.6367,0-6.4805-1.1929-8.5312-3.5786-2.0508-2.3857-3.0762-5.0825-3.0762-8.0903-0.00001-2.8301,0.86816-5.3525,2.6045-7.5674,2.2012-2.8164,5.1474-4.2246,8.8389-4.2246,3.8008,0.00002,6.8359,1.4424,9.1055,4.3272,1.6133,2.0371,2.4336,4.5801,2.4609,7.6289h-20.057c0.0547,2.5977,0.88183,4.7271,2.4814,6.3882s3.5752,2.4917,5.9268,2.4917c1.1348,0,2.2388-0.19824,3.312-0.59473,1.0732-0.39648,1.9858-0.92285,2.7378-1.5791,0.75193-0.65625,1.5654-1.7158,2.4404-3.1787zm0-6.0088c-0.38284-1.5312-0.93996-2.7549-1.6714-3.6709-0.73146-0.916-1.6988-1.6543-2.9018-2.2148-1.2032-0.56053-2.4678-0.8408-3.794-0.84082-2.1875,0.00002-4.0674,0.70412-5.6396,2.1123-1.1484,1.0254-2.0166,2.5635-2.6045,4.6143z"/>
			<path id="path5090" style="" d="m569.41,735.46-1.8457,1.9072c-1.5313-1.4902-3.0283-2.2353-4.4912-2.2354-0.9297,0.00002-1.7261,0.30764-2.3892,0.92285-0.66309,0.61526-0.99464,1.333-0.99463,2.1533-0.00001,0.72463,0.27343,1.4151,0.82031,2.0713,0.54687,0.66994,1.6953,1.4561,3.4453,2.3584,2.1328,1.1074,3.582,2.1738,4.3477,3.1992,0.75194,1.0391,1.1279,2.208,1.1279,3.5068-0.00002,1.832-0.64259,3.3838-1.9277,4.6553-1.2852,1.2715-2.8916,1.9072-4.8193,1.9072-1.2852,0-2.5122-0.28028-3.6812-0.84082-1.169-0.56055-2.1362-1.333-2.9019-2.3174l1.8047-2.0508c1.4629,1.6543,3.0146,2.4814,4.6553,2.4814,1.1484,0,2.126-0.36914,2.9326-1.1074,0.80663-0.73828,1.21-1.6064,1.21-2.6045-0.00001-0.8203-0.26661-1.5518-0.7998-2.1943-0.53322-0.6289-1.7363-1.4219-3.6094-2.3789-2.0098-1.039-3.377-2.0644-4.1016-3.0762-0.72461-1.0117-1.0869-2.167-1.0869-3.4658,0-1.6953,0.57764-3.1035,1.7329-4.2246s2.6147-1.6816,4.3784-1.6816c2.0508,0.00002,4.1152,1.0049,6.1934,3.0146z"/>
			<path id="path5092" style="" d="m585.73,735.46-1.8457,1.9072c-1.5313-1.4902-3.0283-2.2353-4.4912-2.2354-0.9297,0.00002-1.7261,0.30764-2.3892,0.92285-0.66309,0.61526-0.99464,1.333-0.99463,2.1533-0.00001,0.72463,0.27343,1.4151,0.82031,2.0713,0.54687,0.66994,1.6953,1.4561,3.4453,2.3584,2.1328,1.1074,3.582,2.1738,4.3477,3.1992,0.75194,1.0391,1.1279,2.208,1.1279,3.5068-0.00002,1.832-0.64259,3.3838-1.9277,4.6553-1.2852,1.2715-2.8916,1.9072-4.8193,1.9072-1.2852,0-2.5122-0.28028-3.6812-0.84082-1.169-0.56055-2.1362-1.333-2.9019-2.3174l1.8047-2.0508c1.4629,1.6543,3.0146,2.4814,4.6553,2.4814,1.1484,0,2.126-0.36914,2.9326-1.1074,0.80663-0.73828,1.21-1.6064,1.21-2.6045-0.00001-0.8203-0.26661-1.5518-0.79981-2.1943-0.53321-0.6289-1.7363-1.4219-3.6094-2.3789-2.0098-1.039-3.377-2.0644-4.1016-3.0762-0.72461-1.0117-1.0869-2.167-1.0869-3.4658,0-1.6953,0.57764-3.1035,1.7329-4.2246s2.6147-1.6816,4.3784-1.6816c2.0508,0.00002,4.1152,1.0049,6.1934,3.0146z"/>
			<path id="path5094" style="" d="m593.69,749.79,2.7686,1.3125-4.1631,7.752-2.0303-0.86133z"/>
			<path id="path5096" style="" d="m274.51,776.33c0.65624,0.00003,1.2168,0.23245,1.6816,0.69726,0.46484,0.46488,0.69726,1.0254,0.69726,1.6816,0,0.64261-0.23242,1.1963-0.69726,1.6611-0.46485,0.46487-1.0254,0.69729-1.6816,0.69726-0.64258,0.00003-1.1963-0.23239-1.6611-0.69726-0.46485-0.46482-0.69727-1.0185-0.69727-1.6611,0-0.65622,0.23242-1.2168,0.69727-1.6816,0.46484-0.46481,1.0186-0.69723,1.6611-0.69726zm-1.4356,9.1875,2.8916,0,0,22.312-2.8916,0z"/>
			<path id="path5098" style="" d="m304.22,776.9,0,30.926-2.8301,0,0-3.835c-1.2032,1.4629-2.5532,2.5635-4.0503,3.3018-1.4971,0.73829-3.1343,1.1074-4.9116,1.1074-3.1582,0-5.855-1.145-8.0903-3.4351-2.2354-2.29-3.353-5.0757-3.353-8.3569-0.00001-3.2129,1.1279-5.9609,3.3838-8.2441,2.2558-2.2832,4.9697-3.4248,8.1416-3.4248,1.832,0.00002,3.4897,0.38967,4.9731,1.1689,1.4834,0.77932,2.7856,1.9483,3.9067,3.5068v-12.715zm-11.484,10.808c-1.5996,0.00002-3.0762,0.39309-4.4297,1.1792-1.3535,0.78615-2.4302,1.8902-3.23,3.312-0.79982,1.4219-1.1997,2.9258-1.1997,4.5117-0.00001,1.5723,0.40331,3.0762,1.21,4.5117,0.80663,1.4356,1.8901,2.5532,3.2505,3.353,1.3603,0.79981,2.8198,1.1997,4.3784,1.1997,1.5722,0,3.0625-0.39649,4.4707-1.1895,1.4082-0.79296,2.4917-1.8662,3.2505-3.2197,0.75876-1.3535,1.1382-2.8779,1.1382-4.5732-0.00002-2.584-0.8511-4.7441-2.5532-6.4805-1.7022-1.7363-3.7974-2.6045-6.2856-2.6045z"/>
			<path id="path5100" style="" d="m329.53,800.43,2.4199,1.2715c-0.79299,1.5586-1.709,2.8164-2.748,3.7734-1.0391,0.95703-2.208,1.6851-3.5068,2.1841-1.2988,0.49902-2.7686,0.74854-4.4092,0.74854-3.6367,0-6.4805-1.1929-8.5312-3.5786-2.0508-2.3857-3.0762-5.0825-3.0762-8.0903-0.00001-2.8301,0.86816-5.3525,2.6045-7.5674,2.2012-2.8164,5.1474-4.2246,8.8389-4.2246,3.8008,0.00002,6.8359,1.4424,9.1055,4.3272,1.6133,2.0371,2.4336,4.5801,2.4609,7.6289h-20.057c0.0547,2.5977,0.88183,4.7271,2.4814,6.3882s3.5752,2.4917,5.9268,2.4917c1.1348,0,2.2388-0.19824,3.312-0.59473,1.0732-0.39648,1.9858-0.92285,2.7378-1.5791,0.75193-0.65625,1.5654-1.7158,2.4404-3.1787zm0-6.0088c-0.38284-1.5312-0.93996-2.7549-1.6714-3.6709-0.73146-0.916-1.6988-1.6543-2.9018-2.2148-1.2031-0.56053-2.4678-0.8408-3.794-0.84082-2.1875,0.00002-4.0674,0.70412-5.6396,2.1123-1.1484,1.0254-2.0166,2.5635-2.6045,4.6143z"/>
			<path id="path5102" style="" d="m338.06,785.52,2.8711,0,0,3.999c1.1484-1.5312,2.4199-2.6762,3.8145-3.4351,1.3945-0.75876,2.9121-1.1382,4.5527-1.1382,1.668,0.00002,3.1479,0.42385,4.4399,1.2715,1.292,0.84768,2.2456,1.9893,2.8608,3.4248,0.61521,1.4356,0.92283,3.6709,0.92285,6.706v11.484h-2.8506v-10.644c-0.00002-2.5703-0.1094-4.2861-0.32813-5.1475-0.34181-1.4765-0.98439-2.5874-1.9277-3.3325-0.94338-0.7451-2.1738-1.1176-3.6914-1.1177-1.7363,0.00002-3.2915,0.57423-4.6655,1.7226-1.374,1.1485-2.2798,2.5703-2.7173,4.2656-0.27344,1.1074-0.41016,3.1309-0.41016,6.0703v8.1826h-2.8711z"/>
			<path id="path5104" style="" d="m366.16,777.23,2.8916,0,0,8.2852,4.5527,0,0,2.4609-4.5527,0,0,19.852-2.8916,0,0-19.852-3.917,0,0-2.4609,3.917,0z"/>
			<path id="path5106" style="" d="m378.93,776.33c0.65624,0.00003,1.2168,0.23245,1.6816,0.69726,0.46484,0.46488,0.69726,1.0254,0.69727,1.6816-0.00001,0.64261-0.23243,1.1963-0.69727,1.6611-0.46485,0.46487-1.0254,0.69729-1.6816,0.69726-0.64258,0.00003-1.1963-0.23239-1.6611-0.69726-0.46485-0.46482-0.69727-1.0185-0.69727-1.6611,0-0.65622,0.23242-1.2168,0.69727-1.6816,0.46484-0.46481,1.0186-0.69723,1.6611-0.69726zm-1.4356,9.1875,2.8916,0,0,22.312-2.8916,0z"/>
			<path id="path5108" style="" d="m395.56,776.9,0,2.8096c-1.0528-0.45115-1.9551-0.67673-2.707-0.67676-0.56055,0.00003-1.0254,0.11282-1.3945,0.33838-0.36915,0.22561-0.60157,0.48538-0.69726,0.77929-0.0957,0.29398-0.14357,1.0767-0.14356,2.3482v3.0146h4.6553v2.4609h-4.6758v19.852h-2.8711v-19.852h-2.9326v-2.4609h2.9326v-3.4863c0-1.5996,0.14697-2.7412,0.44092-3.4248,0.29394-0.68356,0.79296-1.2338,1.4971-1.6509,0.70409-0.41697,1.5552-0.62546,2.5532-0.62549,0.92968,0.00003,2.0439,0.19143,3.3428,0.57422z"/>
			<path id="path5110" style="" d="m397.18,785.52,3.0352,0,7.6699,17.186,7.4443-17.186,3.0557,0-13.31,30.475-3.0352,0,4.3066-9.8438z"/>
			<path id="path5112" style="" d="m452.58,800.43,2.4199,1.2715c-0.793,1.5586-1.709,2.8164-2.748,3.7734-1.0391,0.95703-2.208,1.6851-3.5068,2.1841-1.2988,0.49902-2.7686,0.74854-4.4092,0.74854-3.6367,0-6.4805-1.1929-8.5312-3.5786-2.0508-2.3857-3.0762-5.0825-3.0762-8.0903,0-2.8301,0.86816-5.3525,2.6045-7.5674,2.2012-2.8164,5.1474-4.2246,8.8389-4.2246,3.8008,0.00002,6.8359,1.4424,9.1055,4.3272,1.6133,2.0371,2.4336,4.5801,2.4609,7.6289h-20.057c0.0547,2.5977,0.88183,4.7271,2.4814,6.3882s3.5752,2.4917,5.9268,2.4917c1.1348,0,2.2388-0.19824,3.312-0.59473,1.0732-0.39648,1.9858-0.92285,2.7378-1.5791,0.75194-0.65625,1.5654-1.7158,2.4404-3.1787zm0-6.0088c-0.38283-1.5312-0.93996-2.7549-1.6714-3.6709-0.73147-0.916-1.6988-1.6543-2.9019-2.2148-1.2031-0.56053-2.4678-0.8408-3.7939-0.84082-2.1875,0.00002-4.0674,0.70412-5.6396,2.1123-1.1484,1.0254-2.0166,2.5635-2.6045,4.6143z"/>
			<path id="path5114" style="" d="m461.09,785.52,2.8506,0,0,3.8555c0.99804-1.4219,2.0234-2.4609,3.0762-3.1172,1.4492-0.87498,2.9736-1.3125,4.5732-1.3125,1.0801,0.00002,2.1054,0.21194,3.0762,0.63574,0.97068,0.42385,1.7636,0.98782,2.3789,1.6919,0.61522,0.70412,1.1484,1.7124,1.5996,3.0249,0.95701-1.75,2.1533-3.0796,3.5889-3.9888,1.4355-0.90916,2.9804-1.3638,4.6348-1.3638,1.5449,0.00002,2.9087,0.38967,4.0913,1.1689,1.1826,0.77932,2.061,1.8662,2.6353,3.2608,0.57418,1.3945,0.86129,3.4863,0.86133,6.2754v12.182h-2.9326v-12.182c-0.00003-2.3926-0.17093-4.0366-0.5127-4.9321-0.34183-0.89549-0.9263-1.6167-1.7534-2.1636-0.82718-0.54685-1.815-0.82029-2.9634-0.82031-1.3946,0.00002-2.6695,0.41018-3.8247,1.2305-1.1553,0.82033-1.9995,1.9141-2.5327,3.2812-0.53323,1.3672-0.79983,3.6504-0.79981,6.8496v8.7363h-2.8506v-11.423c-0.00002-2.6934-0.1675-4.522-0.50245-5.4858-0.33497-0.96385-0.91945-1.7363-1.7534-2.3174-0.834-0.58103-1.8252-0.87156-2.9736-0.87158-1.3262,0.00002-2.5669,0.39992-3.7222,1.1997-1.1553,0.79982-2.0098,1.8765-2.5635,3.23-0.55372,1.3535-0.83057,3.4248-0.83057,6.2139v9.4541h-2.8506z"/>
			<path id="path5116" style="" d="m519.27,800.43,2.4199,1.2715c-0.79299,1.5586-1.709,2.8164-2.748,3.7734-1.0391,0.95703-2.208,1.6851-3.5068,2.1841-1.2988,0.49902-2.7686,0.74854-4.4092,0.74854-3.6367,0-6.4805-1.1929-8.5312-3.5786-2.0508-2.3857-3.0762-5.0825-3.0762-8.0903,0-2.8301,0.86816-5.3525,2.6045-7.5674,2.2012-2.8164,5.1474-4.2246,8.8389-4.2246,3.8008,0.00002,6.8359,1.4424,9.1055,4.3272,1.6132,2.0371,2.4336,4.5801,2.4609,7.6289h-20.057c0.0547,2.5977,0.88183,4.7271,2.4814,6.3882s3.5752,2.4917,5.9268,2.4917c1.1348,0,2.2388-0.19824,3.312-0.59473,1.0732-0.39648,1.9858-0.92285,2.7378-1.5791,0.75193-0.65625,1.5654-1.7158,2.4404-3.1787zm0-6.0088c-0.38283-1.5312-0.93996-2.7549-1.6714-3.6709-0.73146-0.916-1.6988-1.6543-2.9018-2.2148-1.2031-0.56053-2.4678-0.8408-3.794-0.84082-2.1875,0.00002-4.0674,0.70412-5.6396,2.1123-1.1484,1.0254-2.0166,2.5635-2.6045,4.6143z"/>
			<path id="path5118" style="" d="m526.71,785.52,2.9326,0,0,3.2607c0.875-1.2851,1.7978-2.2456,2.7686-2.8814,0.97069-0.63572,1.9824-0.95359,3.0352-0.95361,0.79296,0.00002,1.6406,0.25295,2.543,0.75879l-1.4971,2.4199c-0.60157-0.25975-1.1074-0.38963-1.5176-0.38965-0.95704,0.00002-1.8799,0.39309-2.7686,1.1792-0.88868,0.78615-1.5654,2.0064-2.0303,3.6606-0.35548,1.2715-0.53321,3.8418-0.53321,7.7109v7.5469h-2.9326z"/>
			<path id="path5120" style="" d="m559.65,785.52,2.8916,0,0,17.78c-0.00002,3.1309-0.27346,5.4209-0.82031,6.8701-0.75197,2.0508-2.0576,3.6299-3.917,4.7373s-4.0947,1.6611-6.706,1.6611c-1.9141-0.00001-3.6333-0.27003-5.1577-0.81006-1.5244-0.54005-2.7651-1.2647-3.7222-2.1738-0.95703-0.90919-1.8389-2.2388-2.6455-3.9888h3.1172c0.84765,1.4766,1.9414,2.5703,3.2812,3.2812,1.3398,0.71093,3.001,1.0664,4.9834,1.0664,1.9551-0.00001,3.6059-0.36573,4.9526-1.0972,1.3467-0.73145,2.3071-1.6509,2.8813-2.7583s0.86131-2.8916,0.86133-5.3525v-1.1484c-1.0801,1.3672-2.3994,2.4165-3.958,3.148-1.5586,0.73145-3.2129,1.0972-4.9629,1.0972-2.0508,0-3.9785-0.50928-5.7832-1.5278-1.8047-1.0186-3.1992-2.3892-4.1836-4.1118-0.98438-1.7226-1.4766-3.6162-1.4766-5.6807-0.00001-2.0644,0.51269-3.9888,1.5381-5.7729,1.0254-1.7842,2.4438-3.1958,4.2554-4.2349,1.8115-1.039,3.7222-1.5586,5.7319-1.5586,1.668,0.00002,3.2231,0.34524,4.6655,1.0356,1.4424,0.69045,2.8335,1.8286,4.1733,3.4146zm-8.4697,2.1943c-1.627,0.00002-3.1377,0.39309-4.5322,1.1792-1.3945,0.78615-2.4883,1.8731-3.2812,3.2607-0.79297,1.3877-1.1895,2.8882-1.1894,4.5015-0.00001,2.4473,0.8203,4.4707,2.4609,6.0703s3.7666,2.3994,6.3779,2.3994c2.6387,0,4.7612-0.79297,6.3677-2.3789,1.6064-1.5859,2.4096-3.6709,2.4097-6.2549-0.00003-1.6816-0.36917-3.1821-1.1074-4.5015-0.73831-1.3193-1.7842-2.3618-3.1377-3.1274s-2.8096-1.1484-4.3682-1.1484z"/>
			<path id="path5122" style="" d="m569.74,776.33c0.65624,0.00003,1.2168,0.23245,1.6816,0.69726,0.46483,0.46488,0.69726,1.0254,0.69726,1.6816,0,0.64261-0.23243,1.1963-0.69726,1.6611-0.46485,0.46487-1.0254,0.69729-1.6816,0.69726-0.64259,0.00003-1.1963-0.23239-1.6611-0.69726-0.46484-0.46482-0.69726-1.0185-0.69726-1.6611,0-0.65622,0.23242-1.2168,0.69726-1.6816,0.46484-0.46481,1.0186-0.69723,1.6611-0.69726zm-1.4356,9.1875,2.8916,0,0,22.312-2.8916,0z"/>
			<path id="path5124" style="" d="m577.18,785.52,2.8711,0,0,3.999c1.1484-1.5312,2.4199-2.6762,3.8144-3.4351,1.3945-0.75876,2.9121-1.1382,4.5527-1.1382,1.668,0.00002,3.1479,0.42385,4.44,1.2715,1.292,0.84768,2.2456,1.9893,2.8608,3.4248,0.61521,1.4356,0.92282,3.6709,0.92285,6.706v11.484h-2.8506v-10.644c-0.00002-2.5703-0.10939-4.2861-0.32812-5.1475-0.34182-1.4765-0.9844-2.5874-1.9277-3.3325-0.94337-0.7451-2.1738-1.1176-3.6914-1.1177-1.7364,0.00002-3.2915,0.57423-4.6655,1.7226-1.374,1.1485-2.2798,2.5703-2.7173,4.2656-0.27344,1.1074-0.41016,3.1309-0.41015,6.0703v8.1826h-2.8711z"/>
			<path id="path5126" style="" d="m621.99,785.52,2.8916,0,0,17.78c-0.00002,3.1309-0.27346,5.4209-0.82031,6.8701-0.75197,2.0508-2.0576,3.6299-3.917,4.7373s-4.0947,1.6611-6.706,1.6611c-1.9141-0.00001-3.6333-0.27003-5.1577-0.81006-1.5244-0.54005-2.7651-1.2647-3.7222-2.1738-0.95703-0.90919-1.8389-2.2388-2.6455-3.9888h3.1172c0.84765,1.4766,1.9414,2.5703,3.2812,3.2812,1.3398,0.71093,3.001,1.0664,4.9834,1.0664,1.9551-0.00001,3.6059-0.36573,4.9526-1.0972,1.3467-0.73145,2.3071-1.6509,2.8813-2.7583s0.86131-2.8916,0.86133-5.3525v-1.1484c-1.0801,1.3672-2.3994,2.4165-3.958,3.148-1.5586,0.73145-3.2129,1.0972-4.9629,1.0972-2.0508,0-3.9785-0.50928-5.7832-1.5278-1.8047-1.0186-3.1992-2.3892-4.1836-4.1118-0.98438-1.7226-1.4766-3.6162-1.4766-5.6807-0.00001-2.0644,0.51269-3.9888,1.5381-5.7729,1.0254-1.7842,2.4438-3.1958,4.2554-4.2349,1.8115-1.039,3.7222-1.5586,5.7319-1.5586,1.668,0.00002,3.2231,0.34524,4.6655,1.0356,1.4424,0.69045,2.8335,1.8286,4.1733,3.4146zm-8.4697,2.1943c-1.627,0.00002-3.1377,0.39309-4.5322,1.1792-1.3945,0.78615-2.4883,1.8731-3.2812,3.2607-0.79297,1.3877-1.1895,2.8882-1.1894,4.5015-0.00001,2.4473,0.8203,4.4707,2.4609,6.0703s3.7666,2.3994,6.3779,2.3994c2.6387,0,4.7612-0.79297,6.3677-2.3789,1.6064-1.5859,2.4096-3.6709,2.4097-6.2549-0.00003-1.6816-0.36917-3.1821-1.1074-4.5015-0.73831-1.3193-1.7842-2.3618-3.1377-3.1274s-2.8096-1.1484-4.3682-1.1484z"/>
			<path id="path5128" style="" d="m330.33,837.44c3.4316,0.00002,6.2754,1.2442,8.5312,3.7324,2.0508,2.2696,3.0762,4.9561,3.0762,8.0596-0.00003,3.1172-1.0835,5.8413-3.2505,8.1724s-4.9527,3.4966-8.3569,3.4966c-3.418,0-6.2104-1.1655-8.3774-3.4966-2.167-2.331-3.2505-5.0552-3.2505-8.1724,0-3.0898,1.0254-5.7695,3.0762-8.0391,2.2558-2.5019,5.1064-3.7529,8.5518-3.7529zm0,2.8096c-2.3789,0.00002-4.4229,0.88185-6.1318,2.6455-1.709,1.7637-2.5635,3.8965-2.5635,6.3984,0,1.6133,0.38964,3.1172,1.169,4.5117,0.77929,1.3945,1.832,2.4712,3.1582,3.23s2.7822,1.1382,4.3682,1.1382c1.5859,0,3.042-0.37939,4.3682-1.1382,1.3262-0.75878,2.3789-1.8354,3.1582-3.23,0.77928-1.3945,1.1689-2.8984,1.169-4.5117-0.00003-2.5019-0.85794-4.6348-2.5737-6.3984-1.7158-1.7637-3.7564-2.6455-6.1216-2.6455z"/>
			<path id="path5130" style="" d="m347.29,838.02,2.8506,0,0,4.1016c1.1348-1.5586,2.4404-2.7275,3.917-3.5068,1.4766-0.77927,3.124-1.1689,4.9424-1.1689,3.1718,0.00002,5.8857,1.1416,8.1416,3.4248,2.2558,2.2832,3.3838,5.0313,3.3838,8.2441-0.00003,3.2813-1.1177,6.0669-3.353,8.3569-2.2354,2.29-4.9322,3.4351-8.0903,3.4351-1.7774,0-3.4112-0.36914-4.9014-1.1074-1.4902-0.73828-2.8369-1.8389-4.04-3.3018v11.997h-2.8506zm11.484,2.1943c-2.4883,0.00002-4.5835,0.86819-6.2856,2.6045-1.7022,1.7363-2.5532,3.8965-2.5532,6.4805,0,1.6953,0.37939,3.2197,1.1382,4.5732,0.75878,1.3535,1.8457,2.4268,3.2607,3.2197,1.415,0.79297,2.9087,1.1895,4.481,1.1895,1.5449,0,2.9975-0.3999,4.3579-1.1997,1.3603-0.7998,2.4438-1.9175,3.2505-3.353,0.80662-1.4355,1.2099-2.9394,1.21-4.5117-0.00002-1.5859-0.39992-3.0898-1.1997-4.5117-0.79983-1.4218-1.8765-2.5259-3.23-3.312-1.3535-0.78611-2.8301-1.1792-4.4297-1.1792z"/>
			<path id="path5132" style="" d="m375.92,838.02,2.8506,0,0,4.1016c1.1348-1.5586,2.4404-2.7275,3.917-3.5068,1.4766-0.77927,3.124-1.1689,4.9424-1.1689,3.1719,0.00002,5.8857,1.1416,8.1416,3.4248,2.2558,2.2832,3.3838,5.0313,3.3838,8.2441-0.00002,3.2813-1.1177,6.0669-3.353,8.3569-2.2354,2.29-4.9321,3.4351-8.0903,3.4351-1.7774,0-3.4111-0.36914-4.9014-1.1074-1.4902-0.73828-2.8369-1.8389-4.04-3.3018v11.997h-2.8506zm11.484,2.1943c-2.4883,0.00002-4.5835,0.86819-6.2856,2.6045-1.7022,1.7363-2.5532,3.8965-2.5532,6.4805-0.00001,1.6953,0.37939,3.2197,1.1382,4.5732,0.75878,1.3535,1.8457,2.4268,3.2607,3.2197,1.415,0.79297,2.9087,1.1895,4.481,1.1895,1.5449,0,2.9975-0.3999,4.3579-1.1997,1.3603-0.7998,2.4438-1.9175,3.2505-3.353,0.80662-1.4355,1.2099-2.9394,1.21-4.5117-0.00002-1.5859-0.39992-3.0898-1.1997-4.5117-0.79982-1.4218-1.8765-2.5259-3.23-3.312-1.3535-0.78611-2.8301-1.1792-4.4297-1.1792z"/>
			<path id="path5134" style="" d="m415.07,837.44c3.4316,0.00002,6.2754,1.2442,8.5312,3.7324,2.0508,2.2696,3.0762,4.9561,3.0762,8.0596-0.00003,3.1172-1.0835,5.8413-3.2505,8.1724s-4.9527,3.4966-8.3569,3.4966c-3.418,0-6.2104-1.1655-8.3774-3.4966-2.167-2.331-3.2505-5.0552-3.2505-8.1724-0.00001-3.0898,1.0254-5.7695,3.0762-8.0391,2.2558-2.5019,5.1064-3.7529,8.5518-3.7529zm0,2.8096c-2.3789,0.00002-4.4229,0.88185-6.1318,2.6455-1.709,1.7637-2.5635,3.8965-2.5635,6.3984,0,1.6133,0.38965,3.1172,1.169,4.5117,0.77929,1.3945,1.832,2.4712,3.1582,3.23s2.7822,1.1382,4.3682,1.1382c1.5859,0,3.042-0.37939,4.3682-1.1382,1.3262-0.75878,2.3789-1.8354,3.1582-3.23,0.77928-1.3945,1.1689-2.8984,1.169-4.5117-0.00003-2.5019-0.85793-4.6348-2.5737-6.3984-1.7158-1.7637-3.7564-2.6455-6.1216-2.6455z"/>
			<path id="path5136" style="" d="m430.9,838.02,2.9326,0,0,3.2607c0.875-1.2851,1.7978-2.2456,2.7686-2.8814,0.97069-0.63572,1.9824-0.95359,3.0352-0.95361,0.79296,0.00002,1.6406,0.25295,2.543,0.75879l-1.4971,2.4199c-0.60157-0.25975-1.1074-0.38963-1.5176-0.38965-0.95704,0.00002-1.8799,0.39309-2.7686,1.1792-0.88868,0.78615-1.5654,2.0064-2.0303,3.6606-0.35548,1.2715-0.53321,3.8418-0.53321,7.7109v7.5469h-2.9326z"/>
			<path id="path5138" style="" d="m447.12,829.73,2.8916,0,0,8.2852,4.5527,0,0,2.4609-4.5527,0,0,19.852-2.8916,0,0-19.852-3.917,0,0-2.4609,3.917,0z"/>
			<path id="path5140" style="" d="m458.52,838.02,2.8916,0,0,10.418c0,2.543,0.13671,4.293,0.41016,5.25,0.41015,1.3672,1.1929,2.4473,2.3481,3.2402,1.1553,0.79297,2.5327,1.1895,4.1323,1.1894,1.5996,0.00001,2.9565-0.38622,4.0708-1.1587,1.1142-0.77245,1.8833-1.7876,2.3071-3.0454,0.28709-0.86132,0.43064-2.6865,0.43066-5.4756v-10.418h2.9326v10.951c-0.00003,3.0762-0.35891,5.3936-1.0767,6.9522-0.7178,1.5586-1.7979,2.7788-3.2402,3.6606-1.4424,0.88184-3.2505,1.3228-5.4243,1.3228s-3.9888-0.44092-5.4448-1.3228c-1.4561-0.88183-2.543-2.1123-3.2607-3.6914-0.71778-1.5791-1.0767-3.9546-1.0767-7.1265z"/>
			<path id="path5142" style="" d="m484.4,838.02,2.8711,0,0,3.999c1.1484-1.5312,2.4199-2.6762,3.8145-3.4351,1.3945-0.75876,2.9121-1.1382,4.5527-1.1382,1.668,0.00002,3.1479,0.42385,4.4399,1.2715,1.292,0.84768,2.2456,1.9893,2.8608,3.4248,0.61521,1.4356,0.92283,3.6709,0.92285,6.706v11.484h-2.8506v-10.644c-0.00002-2.5703-0.1094-4.2861-0.32813-5.1475-0.34181-1.4765-0.98439-2.5874-1.9277-3.3325-0.94338-0.7451-2.1738-1.1176-3.6914-1.1177-1.7363,0.00002-3.2915,0.57423-4.6655,1.7226-1.374,1.1485-2.2798,2.5703-2.7173,4.2656-0.27344,1.1074-0.41016,3.1309-0.41016,6.0703v8.1826h-2.8711z"/>
			<path id="path5144" style="" d="m511,828.83c0.65625,0.00003,1.2168,0.23245,1.6816,0.69726,0.46484,0.46488,0.69726,1.0254,0.69727,1.6816-0.00001,0.64261-0.23243,1.1963-0.69727,1.6611-0.46485,0.46487-1.0254,0.69729-1.6816,0.69726-0.64258,0.00003-1.1963-0.23239-1.6611-0.69726-0.46485-0.46482-0.69727-1.0185-0.69727-1.6611,0-0.65622,0.23242-1.2168,0.69727-1.6816,0.46484-0.46481,1.0186-0.69723,1.6611-0.69726zm-1.4356,9.1875,2.8916,0,0,22.312-2.8916,0z"/>
			<path id="path5146" style="" d="m520.95,829.73,2.8916,0,0,8.2852,4.5527,0,0,2.4609-4.5527,0,0,19.852-2.8916,0,0-19.852-3.917,0,0-2.4609,3.917,0z"/>
			<path id="path5148" style="" d="m533.72,828.83c0.65624,0.00003,1.2168,0.23245,1.6816,0.69726,0.46484,0.46488,0.69726,1.0254,0.69726,1.6816,0,0.64261-0.23242,1.1963-0.69726,1.6611-0.46485,0.46487-1.0254,0.69729-1.6816,0.69726-0.64258,0.00003-1.1963-0.23239-1.6611-0.69726-0.46485-0.46482-0.69727-1.0185-0.69727-1.6611,0-0.65622,0.23242-1.2168,0.69727-1.6816,0.46484-0.46481,1.0186-0.69723,1.6611-0.69726zm-1.4356,9.1875,2.8916,0,0,22.312-2.8916,0z"/>
			<path id="path5150" style="" d="m559.95,852.93,2.4199,1.2715c-0.79299,1.5586-1.709,2.8164-2.748,3.7734-1.0391,0.95703-2.208,1.6851-3.5068,2.1841-1.2988,0.49902-2.7686,0.74854-4.4092,0.74854-3.6367,0-6.4805-1.1929-8.5312-3.5786-2.0508-2.3857-3.0762-5.0825-3.0762-8.0903,0-2.8301,0.86816-5.3525,2.6045-7.5674,2.2012-2.8164,5.1474-4.2246,8.8389-4.2246,3.8008,0.00002,6.8359,1.4424,9.1055,4.3272,1.6132,2.0371,2.4336,4.5801,2.4609,7.6289h-20.057c0.0547,2.5977,0.88183,4.7271,2.4814,6.3882s3.5752,2.4917,5.9268,2.4917c1.1348,0,2.2388-0.19824,3.312-0.59473,1.0732-0.39648,1.9858-0.92285,2.7378-1.5791,0.75193-0.65625,1.5654-1.7158,2.4404-3.1787zm0-6.0088c-0.38283-1.5312-0.93996-2.7549-1.6714-3.6709-0.73146-0.916-1.6988-1.6543-2.9018-2.2148-1.2031-0.56053-2.4678-0.8408-3.794-0.84082-2.1875,0.00002-4.0674,0.70412-5.6396,2.1123-1.1484,1.0254-2.0166,2.5635-2.6045,4.6143z"/>
			<path id="path5152" style="" d="m579.7,840.46-1.8457,1.9072c-1.5313-1.4902-3.0283-2.2353-4.4912-2.2354-0.9297,0.00002-1.7261,0.30764-2.3892,0.92285-0.66309,0.61526-0.99463,1.333-0.99463,2.1533,0,0.72463,0.27343,1.4151,0.82031,2.0713,0.54687,0.66994,1.6953,1.4561,3.4453,2.3584,2.1328,1.1074,3.582,2.1738,4.3476,3.1992,0.75194,1.0391,1.1279,2.208,1.1279,3.5068-0.00001,1.832-0.64259,3.3838-1.9277,4.6553-1.2852,1.2715-2.8916,1.9072-4.8193,1.9072-1.2852,0-2.5122-0.28028-3.6812-0.84082-1.169-0.56055-2.1362-1.333-2.9019-2.3174l1.8047-2.0508c1.4629,1.6543,3.0146,2.4814,4.6553,2.4814,1.1484,0,2.126-0.36914,2.9326-1.1074,0.80663-0.73828,1.21-1.6064,1.21-2.6045-0.00001-0.8203-0.26661-1.5518-0.7998-2.1943-0.53322-0.6289-1.7363-1.4219-3.6094-2.3789-2.0098-1.039-3.377-2.0644-4.1016-3.0762-0.72461-1.0117-1.0869-2.167-1.0869-3.4658-0.00001-1.6953,0.57763-3.1035,1.7329-4.2246s2.6147-1.6816,4.3784-1.6816c2.0508,0.00002,4.1152,1.0049,6.1934,3.0146z"/>
			<path id="path5154" style="" d="m389.74,890.52,0,22.312-2.8301,0,0-3.835c-1.2032,1.4629-2.5532,2.5635-4.0503,3.3018-1.4971,0.73829-3.1343,1.1074-4.9116,1.1074-3.1582,0-5.855-1.145-8.0903-3.4351-2.2354-2.29-3.353-5.0757-3.353-8.3569,0-3.2129,1.1279-5.9609,3.3838-8.2441s4.9697-3.4248,8.1416-3.4248c1.832,0.00002,3.4897,0.38967,4.9731,1.1689,1.4834,0.77932,2.7856,1.9483,3.9067,3.5068v-4.1016zm-11.484,2.1943c-1.5996,0.00002-3.0762,0.39309-4.4297,1.1792-1.3535,0.78615-2.4302,1.8902-3.23,3.312-0.79981,1.4219-1.1997,2.9258-1.1997,4.5117-0.00001,1.5723,0.40331,3.0762,1.21,4.5117,0.80663,1.4356,1.8901,2.5532,3.2505,3.353,1.3603,0.79981,2.8198,1.1997,4.3784,1.1997,1.5722,0,3.0625-0.39649,4.4707-1.1895,1.4082-0.79296,2.4917-1.8662,3.2505-3.2197,0.75877-1.3535,1.1382-2.8779,1.1382-4.5732-0.00002-2.584-0.8511-4.7441-2.5532-6.4805-1.7022-1.7363-3.7974-2.6045-6.2856-2.6045z"/>
			<path id="path5156" style="" d="m396.22,890.52,2.8711,0,0,3.999c1.1484-1.5312,2.4199-2.6762,3.8144-3.4351,1.3945-0.75876,2.9121-1.1382,4.5527-1.1382,1.668,0.00002,3.1479,0.42385,4.4399,1.2715,1.292,0.84768,2.2456,1.9893,2.8608,3.4248,0.61521,1.4356,0.92283,3.6709,0.92285,6.706v11.484h-2.8506v-10.644c-0.00002-2.5703-0.10939-4.2861-0.32812-5.1475-0.34182-1.4765-0.9844-2.5874-1.9277-3.3325-0.94337-0.7451-2.1738-1.1176-3.6914-1.1177-1.7363,0.00002-3.2915,0.57423-4.6655,1.7226-1.374,1.1485-2.2798,2.5703-2.7173,4.2656-0.27345,1.1074-0.41017,3.1309-0.41016,6.0703v8.1826h-2.8711z"/>
			<path id="path5158" style="" d="m444.08,881.9,0,30.926-2.8301,0,0-3.835c-1.2032,1.4629-2.5532,2.5635-4.0503,3.3018-1.4971,0.73829-3.1343,1.1074-4.9116,1.1074-3.1582,0-5.855-1.145-8.0903-3.4351-2.2354-2.29-3.353-5.0757-3.353-8.3569,0-3.2129,1.1279-5.9609,3.3838-8.2441,2.2558-2.2832,4.9697-3.4248,8.1416-3.4248,1.832,0.00002,3.4897,0.38967,4.9731,1.1689,1.4834,0.77932,2.7856,1.9483,3.9067,3.5068v-12.715zm-11.484,10.808c-1.5996,0.00002-3.0762,0.39309-4.4297,1.1792-1.3535,0.78615-2.4302,1.8902-3.23,3.312-0.79981,1.4219-1.1997,2.9258-1.1997,4.5117-0.00001,1.5723,0.40331,3.0762,1.21,4.5117,0.80663,1.4356,1.8901,2.5532,3.2505,3.353,1.3603,0.79981,2.8198,1.1997,4.3784,1.1997,1.5722,0,3.0625-0.39649,4.4707-1.1895,1.4082-0.79296,2.4917-1.8662,3.2505-3.2197,0.75876-1.3535,1.1382-2.8779,1.1382-4.5732-0.00002-2.584-0.85109-4.7441-2.5532-6.4805-1.7022-1.7363-3.7974-2.6045-6.2856-2.6045z"/>
			<path id="path5160" style="" d="m461.17,890.52,2.9326,0,0,3.2607c0.875-1.2851,1.7978-2.2456,2.7686-2.8814,0.97069-0.63572,1.9824-0.95359,3.0352-0.95361,0.79295,0.00002,1.6406,0.25295,2.543,0.75879l-1.4971,2.4199c-0.60157-0.25975-1.1074-0.38963-1.5176-0.38965-0.95705,0.00002-1.8799,0.39309-2.7686,1.1792-0.88868,0.78615-1.5654,2.0064-2.0303,3.6606-0.35548,1.2715-0.53321,3.8418-0.53321,7.7109v7.5469h-2.9326z"/>
			<path id="path5162" style="" d="m475.89,881.33c0.65624,0.00003,1.2168,0.23245,1.6816,0.69726,0.46483,0.46488,0.69726,1.0254,0.69726,1.6816,0,0.64261-0.23243,1.1963-0.69726,1.6611-0.46485,0.46487-1.0254,0.69729-1.6816,0.69726-0.64259,0.00003-1.1963-0.23239-1.6611-0.69726-0.46484-0.46482-0.69726-1.0185-0.69726-1.6611,0-0.65622,0.23242-1.2168,0.69726-1.6816,0.46484-0.46481,1.0186-0.69723,1.6611-0.69726zm-1.4356,9.1875,2.8916,0,0,22.312-2.8916,0z"/>
			<path id="path5164" style="" d="m494.55,892.96-1.8457,1.9072c-1.5313-1.4902-3.0283-2.2353-4.4912-2.2354-0.92969,0.00002-1.7261,0.30764-2.3892,0.92285-0.66309,0.61526-0.99463,1.333-0.99463,2.1533,0,0.72463,0.27344,1.4151,0.82032,2.0713,0.54686,0.66994,1.6953,1.4561,3.4453,2.3584,2.1328,1.1074,3.582,2.1738,4.3476,3.1992,0.75194,1.0391,1.1279,2.208,1.1279,3.5068-0.00001,1.832-0.64259,3.3838-1.9277,4.6553-1.2852,1.2715-2.8916,1.9072-4.8193,1.9072-1.2852,0-2.5122-0.28028-3.6812-0.84082-1.169-0.56055-2.1362-1.333-2.9018-2.3174l1.8047-2.0508c1.4629,1.6543,3.0146,2.4814,4.6553,2.4814,1.1484,0,2.126-0.36914,2.9326-1.1074,0.80663-0.73828,1.21-1.6064,1.21-2.6045-0.00001-0.8203-0.26661-1.5518-0.7998-2.1943-0.53321-0.6289-1.7363-1.4219-3.6094-2.3789-2.0098-1.039-3.377-2.0644-4.1016-3.0762-0.72461-1.0117-1.0869-2.167-1.0869-3.4658,0-1.6953,0.57763-3.1035,1.7329-4.2246s2.6147-1.6816,4.3784-1.6816c2.0508,0.00002,4.1152,1.0049,6.1934,3.0146z"/>
			<path id="path5166" style="" d="m499.64,881.9,2.8916,0,0,17.596,10.315-8.9824,4.2246,0-12.243,10.644,12.961,11.669-4.0606,0-11.197-10.028,0,10.028-2.8916,0z"/>
			<path id="path5168" style="" d="m531.96,892.96-1.8457,1.9072c-1.5313-1.4902-3.0283-2.2353-4.4912-2.2354-0.92969,0.00002-1.7261,0.30764-2.3892,0.92285-0.66309,0.61526-0.99463,1.333-0.99463,2.1533,0,0.72463,0.27344,1.4151,0.82032,2.0713,0.54686,0.66994,1.6953,1.4561,3.4453,2.3584,2.1328,1.1074,3.582,2.1738,4.3476,3.1992,0.75194,1.0391,1.1279,2.208,1.1279,3.5068-0.00001,1.832-0.64259,3.3838-1.9277,4.6553-1.2852,1.2715-2.8916,1.9072-4.8193,1.9072-1.2852,0-2.5122-0.28028-3.6812-0.84082-1.169-0.56055-2.1362-1.333-2.9018-2.3174l1.8047-2.0508c1.4629,1.6543,3.0146,2.4814,4.6553,2.4814,1.1484,0,2.126-0.36914,2.9326-1.1074,0.80663-0.73828,1.21-1.6064,1.21-2.6045-0.00001-0.8203-0.26661-1.5518-0.7998-2.1943-0.53321-0.6289-1.7363-1.4219-3.6094-2.3789-2.0098-1.039-3.377-2.0644-4.1016-3.0762-0.72461-1.0117-1.0869-2.167-1.0869-3.4658,0-1.6953,0.57763-3.1035,1.7329-4.2246s2.6147-1.6816,4.3784-1.6816c2.0508,0.00002,4.1152,1.0049,6.1934,3.0146z"/>
		</g>
	</g>
</svg>
