<!-- Created with Inkscape (http://www.inkscape.org/) -->
<svg id="svg2" xmlns:rdf="http://www.w3.org/1999/02/22-rdf-syntax-ns#" xmlns="http://www.w3.org/2000/svg" viewBox="0 0 900 700" version="1.1" xmlns:cc="http://creativecommons.org/ns#" xmlns:dc="http://purl.org/dc/elements/1.1/">
	<metadata id="metadata7">
		<rdf:RDF>
			<cc:Work rdf:about="">
				<dc:format>image/svg+xml</dc:format>
				<dc:type rdf:resource="http://purl.org/dc/dcmitype/StillImage"/>
				<dc:title/>
			</cc:Work>
		</rdf:RDF>
	</metadata>
	<g id="layer1" transform="translate(0,-352.36218)">
		<path id="path3818" style="fill:#9fdbff;" d="M448.57,245.71c0,85.21-69.07,154.29-154.28,154.29s-154.29-69.08-154.29-154.29,69.076-154.29,154.29-154.29c85.21,0,154.29,69.076,154.29,154.29z" transform="matrix(0.97222218,0,0,0.97222218,-31.82539,566.90188)"/>
		<path id="path3818-1" style="fill:#ffffff;" d="M448.57,245.71c0,85.21-69.07,154.29-154.28,154.29s-154.29-69.08-154.29-154.29,69.076-154.29,154.29-154.29c85.21,0,154.29,69.076,154.29,154.29z" transform="matrix(0.46504628,0,0,0.46504628,286.32209,696.91511)"/>
		<path id="path3818-1-7" style="fill:#ffffff;" d="M448.57,245.71c0,85.21-69.07,154.29-154.28,154.29s-154.29-69.08-154.29-154.29,69.076-154.29,154.29-154.29c85.21,0,154.29,69.076,154.29,154.29z" transform="matrix(0.46504628,0,0,0.46504628,441.73281,696.91511)"/>
		<path id="path3818-1-4" style="fill:#ffffff;" d="M448.57,245.71c0,85.21-69.07,154.29-154.28,154.29s-154.29-69.08-154.29-154.29,69.076-154.29,154.29-154.29c85.21,0,154.29,69.076,154.29,154.29z" transform="matrix(0.46504628,0,0,0.46504628,597.14354,696.91511)"/>
		<g id="text3892" style="font-size:50.49956894px;font-family:Century Gothic;writing-mode:lr-tb;fill:#ffffff;letter-spacing:0px;text-anchor:start;line-height:125%;word-spacing:0px;font-stretch:normal;font-variant:normal;font-weight:bold;font-style:normal;text-align:start;">
			<path id="path4898" style="" d="m46.643,394,7.3234,0c4.011,0.00003,6.8672,0.35757,8.5687,1.0726,1.7014,0.71512,3.0699,1.9028,4.1056,3.5631,1.0356,1.6603,1.5534,3.6248,1.5535,5.8933-0.000026,2.3836-0.57127,4.3768-1.7137,5.9796-1.1425,1.6028-2.8645,2.8151-5.1658,3.6371l8.581,16.126h-7.5453l-8.1618-15.362h-0.64111v15.362h-6.9042zm6.9042,14.178,2.1699,0c2.2028,0.00002,3.7192-0.28765,4.5494-0.86303,0.83013-0.57533,1.2452-1.5288,1.2452-2.8603-0.00002-0.78903-0.2055-1.4754-0.61645-2.059-0.41098-0.58354-0.96168-1.0027-1.6521-1.2576-0.69044-0.25477-1.9562-0.38217-3.7973-0.3822h-1.8987z"/>
			<path id="path4900" style="" d="m101.61,418.81-21.625,0c0.31232,1.9069,1.1466,3.4234,2.5028,4.5494s3.0863,1.6891,5.1905,1.6891c2.5151,0.00001,4.6768-0.87946,6.4851-2.6384l5.6713,2.6631c-1.4138,2.0055-3.1069,3.4891-5.0795,4.4508-1.9727,0.96166-4.3152,1.4425-7.0275,1.4425-4.2083,0-7.6358-1.3274-10.282-3.9823-2.6466-2.6548-3.9699-5.9796-3.9699-9.9742-0.000002-4.0932,1.3192-7.4919,3.9576-10.196s5.9467-4.0562,9.9248-4.0562c4.2247,0.00003,7.6604,1.3521,10.307,4.0562,2.6466,2.7042,3.9699,6.2755,3.9699,10.714zm-6.7563-5.3015c-0.44387-1.4959-1.3192-2.7124-2.6261-3.6494-1.3069-0.93699-2.8234-1.4055-4.5494-1.4055-1.874,0.00002-3.5179,0.52606-4.9316,1.5781-0.8877,0.65757-1.7096,1.8165-2.4658,3.4768z"/>
			<path id="path4902" style="" d="m123.5,407.2-4.1672,4.1672c-1.6932-1.6767-3.2302-2.5151-4.611-2.5151-0.75619,0.00002-1.348,0.1603-1.7754,0.48083-0.42742,0.32057-0.64112,0.71921-0.64111,1.1959-0.00001,0.36167,0.13561,0.69455,0.40686,0.99865,0.27122,0.30413,0.9411,0.71921,2.0096,1.2452l2.4658,1.2329c2.5973,1.2822,4.3809,2.5891,5.3508,3.9206,0.96986,1.3315,1.4548,2.8932,1.4548,4.685-0.00002,2.3836-0.87538,4.3727-2.6261,5.9672-1.7507,1.5946-4.0974,2.3918-7.0399,2.3918-3.9124,0-7.0358-1.5288-9.37-4.5864l4.1425-4.5124c0.78905,0.92057,1.7137,1.6644,2.774,2.2316,1.0603,0.56714,2.0014,0.8507,2.8233,0.8507,0.88768,0,1.6028-0.2137,2.1452-0.64111,0.54246-0.4274,0.8137-0.92056,0.81371-1.4795-0.00001-1.0356-0.97811-2.0466-2.9343-3.0329l-2.2685-1.1343c-4.3398-2.1863-6.5097-4.9234-6.5097-8.2111,0-2.1206,0.81782-3.9329,2.4535-5.4371,1.6356-1.5041,3.7275-2.2562,6.2755-2.2562,1.7425,0.00003,3.3822,0.38223,4.9193,1.1466,1.537,0.76442,2.8398,1.8617,3.9083,3.2918z"/>
			<path id="path4904" style="" d="m135.95,403.45,0,2.959c1.2164-1.2164,2.5315-2.1288,3.9453-2.737,1.4137-0.6082,2.9261-0.91232,4.5371-0.91235,3.5014,0.00003,6.4768,1.3233,8.9262,3.9699,2.4493,2.6466,3.674,6.0412,3.674,10.184-0.00003,3.9946-1.2658,7.3358-3.7973,10.023-2.5316,2.6877-5.5316,4.0316-9.0002,4.0316-1.5452,0-2.9836-0.27535-4.3152-0.82604-1.3315-0.5507-2.6549-1.4507-3.9699-2.7v12.65h-6.6823v-36.642zm7.0768,5.5234c-2.1206,0.00002-3.8795,0.72332-5.2768,2.1699s-2.0959,3.3371-2.0959,5.6713c-0.00001,2.3836,0.69863,4.311,2.0959,5.7823s3.1562,2.2069,5.2768,2.2069c2.0548,0.00001,3.785-0.74795,5.1905-2.2439,1.4055-1.4959,2.1082-3.4028,2.1083-5.7206-0.00002-2.3014-0.69044-4.1877-2.0713-5.659-1.3809-1.4712-3.1234-2.2069-5.2275-2.2069z"/>
			<path id="path4906" style="" d="m175.21,402.76c2.5315,0.00003,4.911,0.63292,7.1385,1.8987,2.2274,1.2658,3.9658,2.9836,5.2152,5.1535,1.2493,2.1699,1.874,4.5124,1.874,7.0275-0.00003,2.5316-0.62881,4.8987-1.8863,7.1015-1.2576,2.2028-2.9713,3.9247-5.1412,5.1658s-4.5617,1.8617-7.1755,1.8617c-3.8467,0-7.1303-1.3685-9.8509-4.1056-2.7206-2.737-4.0809-6.0617-4.0809-9.9742,0-4.1918,1.537-7.685,4.611-10.48,2.6959-2.4329,5.7946-3.6494,9.2961-3.6494zm0.0986,6.3371c-2.0877,0.00002-3.8261,0.72743-5.2152,2.1822s-2.0836,3.3165-2.0836,5.585c-0.00001,2.3343,0.6863,4.2247,2.0589,5.6713s3.111,2.1699,5.2152,2.1699c2.1041,0,3.8548-0.73152,5.2522-2.1946,1.3973-1.463,2.0959-3.3453,2.0959-5.6467-0.00003-2.3014-0.68634-4.1713-2.059-5.6097-1.3726-1.4384-3.1275-2.1576-5.2645-2.1576z"/>
			<path id="path4908" style="" d="m194.96,403.45,6.707,0,0,2.737c1.5288-1.2822,2.9137-2.174,4.1549-2.6754,1.2411-0.50135,2.511-0.75204,3.8097-0.75207,2.663,0.00003,4.9234,0.92882,6.781,2.7864,1.5616,1.5781,2.3425,3.9124,2.3425,7.0029v17.729h-6.6577v-11.762c-0.00002-3.2055-0.14386-5.3343-0.43151-6.3864-0.2877-1.052-0.78908-1.8534-1.5041-2.4042-0.7151-0.55068-1.5987-0.82602-2.6507-0.82605-1.3644,0.00003-2.5357,0.4562-3.5138,1.3685-0.97811,0.91237-1.6562,2.174-2.0343,3.785-0.19728,0.83838-0.29591,2.6548-0.2959,5.4494v10.776h-6.707z"/>
			<path id="path4910" style="" d="m245.07,393.09,6.707,0,0,37.184-6.707,0,0-2.8357c-1.3151,1.2493-2.6343,2.1494-3.9576,2.7-1.3233,0.55069-2.7576,0.82604-4.3028,0.82604-3.4686,0-6.4686-1.3439-9.0002-4.0316s-3.7973-6.0289-3.7973-10.023c-0.00001-4.1425,1.2247-7.5371,3.674-10.184,2.4494-2.6466,5.4247-3.9699,8.9262-3.9699,1.611,0.00003,3.1233,0.30415,4.5371,0.91235,1.4137,0.60826,2.7206,1.5206,3.9206,2.737zm-7.0768,15.88c-2.0877,0.00002-3.822,0.73565-5.2028,2.2069-1.3809,1.4713-2.0713,3.3576-2.0713,5.659-0.00001,2.3179,0.70274,4.2247,2.1083,5.7206,1.4055,1.4959,3.1357,2.2439,5.1905,2.2439,2.1206,0.00001,3.8795-0.73562,5.2768-2.2069,1.3973-1.4712,2.0959-3.3987,2.0959-5.7823-0.00002-2.3343-0.69866-4.2247-2.0959-5.6713-1.3973-1.4466-3.1645-2.1699-5.3015-2.1699z"/>
			<path id="path4912" style="" d="m273.5,393.56,6.707,0,0,9.8879,3.9946,0,0,5.7946-3.9946,0,0,21.033-6.707,0,0-21.033-3.4521,0,0-5.7946,3.4521,0z"/>
			<path id="path4914" style="" d="m300.47,402.76c2.5315,0.00003,4.911,0.63292,7.1385,1.8987,2.2274,1.2658,3.9658,2.9836,5.2152,5.1535,1.2493,2.1699,1.874,4.5124,1.874,7.0275-0.00003,2.5316-0.62881,4.8987-1.8863,7.1015-1.2576,2.2028-2.9713,3.9247-5.1412,5.1658s-4.5618,1.8617-7.1755,1.8617c-3.8467,0-7.1303-1.3685-9.8509-4.1056-2.7206-2.737-4.0809-6.0617-4.0809-9.9742,0-4.1918,1.537-7.685,4.611-10.48,2.6959-2.4329,5.7946-3.6494,9.2961-3.6494zm0.0986,6.3371c-2.0877,0.00002-3.8261,0.72743-5.2152,2.1822s-2.0836,3.3165-2.0836,5.585c-0.00001,2.3343,0.68631,4.2247,2.0589,5.6713s3.111,2.1699,5.2152,2.1699c2.1041,0,3.8548-0.73152,5.2522-2.1946,1.3973-1.463,2.0959-3.3453,2.0959-5.6467-0.00002-2.3014-0.68634-4.1713-2.0589-5.6097s-3.1275-2.1576-5.2645-2.1576z"/>
			<path id="path4916" style="" d="m360.59,408.87-5.5974,3.0822c-1.0521-1.1014-2.0918-1.8658-3.1192-2.2932-1.0274-0.42738-2.2316-0.64108-3.6124-0.64111-2.5151,0.00003-4.5494,0.75209-6.1029,2.2562-1.5535,1.5042-2.3302,3.4316-2.3302,5.7823-0.00001,2.285,0.74795,4.1508,2.2439,5.5974,1.4959,1.4466,3.4603,2.1699,5.8933,2.1699,3.0082,0,5.3508-1.0274,7.0275-3.0822l5.3015,3.6247c-2.8768,3.7316-6.9371,5.5974-12.181,5.5974-4.7179,0-8.4125-1.3973-11.084-4.1919-2.6713-2.7946-4.0069-6.0659-4.0069-9.8139-0.00001-2.5973,0.64932-4.9891,1.948-7.1755,1.2986-2.1863,3.111-3.9042,5.4371-5.1535s4.9275-1.874,7.8043-1.874c2.663,0.00003,5.0549,0.53018,7.1755,1.5904,2.1206,1.0603,3.8548,2.5686,5.2028,4.5248z"/>
			<path id="path4918" style="" d="m366.65,403.45,6.8056,0,0,12.921c-0.00001,2.5151,0.17259,4.2617,0.51781,5.2398,0.3452,0.97811,0.90001,1.7384,1.6644,2.2809,0.76438,0.54249,1.7055,0.81372,2.8233,0.81372s2.0671-0.26712,2.848-0.80139c0.78081-0.53425,1.3603-1.3192,1.7384-2.3548,0.27944-0.7726,0.41917-2.4247,0.41919-4.9562v-13.143h6.7563v11.367c-0.00003,4.685-0.3699,7.8906-1.1096,9.6166-0.90415,2.1042-2.2357,3.7192-3.9946,4.8453-1.759,1.126-3.9946,1.6891-6.707,1.6891-2.9425,0-5.322-0.65755-7.1385-1.9726-1.8165-1.3151-3.0946-3.148-3.8343-5.4987-0.52605-1.6274-0.78906-4.5864-0.78906-8.8769z"/>
			<path id="path4920" style="" d="m423.84,418.81-21.625,0c0.31232,1.9069,1.1466,3.4234,2.5028,4.5494s3.0863,1.6891,5.1905,1.6891c2.5151,0.00001,4.6768-0.87946,6.485-2.6384l5.6713,2.6631c-1.4138,2.0055-3.1069,3.4891-5.0795,4.4508-1.9727,0.96166-4.3152,1.4425-7.0275,1.4425-4.2083,0-7.6358-1.3274-10.282-3.9823-2.6466-2.6548-3.9699-5.9796-3.9699-9.9742,0-4.0932,1.3192-7.4919,3.9576-10.196s5.9467-4.0562,9.9248-4.0562c4.2247,0.00003,7.6604,1.3521,10.307,4.0562,2.6466,2.7042,3.9699,6.2755,3.9699,10.714zm-6.7563-5.3015c-0.44387-1.4959-1.3192-2.7124-2.6261-3.6494-1.3069-0.93699-2.8234-1.4055-4.5494-1.4055-1.874,0.00002-3.5179,0.52606-4.9316,1.5781-0.88769,0.65757-1.7096,1.8165-2.4658,3.4768z"/>
			<path id="path4922" style="" d="m445.73,407.2-4.1672,4.1672c-1.6932-1.6767-3.2302-2.5151-4.611-2.5151-0.75619,0.00002-1.348,0.1603-1.7754,0.48083-0.42742,0.32057-0.64112,0.71921-0.64111,1.1959-0.00001,0.36167,0.13561,0.69455,0.40686,0.99865,0.27122,0.30413,0.9411,0.71921,2.0096,1.2452l2.4658,1.2329c2.5973,1.2822,4.3809,2.5891,5.3508,3.9206,0.96986,1.3315,1.4548,2.8932,1.4548,4.685-0.00002,2.3836-0.87538,4.3727-2.6261,5.9672-1.7507,1.5946-4.0974,2.3918-7.0399,2.3918-3.9124,0-7.0358-1.5288-9.37-4.5864l4.1425-4.5124c0.78905,0.92057,1.7137,1.6644,2.774,2.2316,1.0603,0.56714,2.0014,0.8507,2.8233,0.8507,0.88768,0,1.6028-0.2137,2.1452-0.64111,0.54246-0.4274,0.8137-0.92056,0.81371-1.4795-0.00001-1.0356-0.97811-2.0466-2.9343-3.0329l-2.2685-1.1343c-4.3398-2.1863-6.5097-4.9234-6.5097-8.2111-0.00001-2.1206,0.81782-3.9329,2.4535-5.4371,1.6356-1.5041,3.7275-2.2562,6.2755-2.2562,1.7425,0.00003,3.3822,0.38223,4.9193,1.1466,1.537,0.76442,2.8398,1.8617,3.9083,3.2918z"/>
			<path id="path4924" style="" d="m485.43,403.45,6.707,0,0,26.828-6.707,0,0-2.8357c-1.3151,1.2493-2.6343,2.1494-3.9576,2.7-1.3233,0.55069-2.7576,0.82604-4.3028,0.82604-3.4686,0-6.4686-1.3439-9.0002-4.0316s-3.7973-6.0289-3.7973-10.023c0-4.1425,1.2247-7.5371,3.674-10.184,2.4494-2.6466,5.4247-3.9699,8.9262-3.9699,1.611,0.00003,3.1233,0.30415,4.5371,0.91235,1.4137,0.60826,2.7206,1.5206,3.9206,2.737zm-7.0768,5.5234c-2.0877,0.00002-3.822,0.73565-5.2028,2.2069-1.3809,1.4713-2.0713,3.3576-2.0713,5.659-0.00001,2.3179,0.70274,4.2247,2.1083,5.7206,1.4055,1.4959,3.1357,2.2439,5.1905,2.2439,2.1206,0.00001,3.8795-0.73562,5.2768-2.2069,1.3973-1.4712,2.0959-3.3987,2.0959-5.7823-0.00002-2.3343-0.69866-4.2247-2.0959-5.6713-1.3973-1.4466-3.1645-2.1699-5.3015-2.1699z"/>
			<path id="path4926" style="" d="m498.94,403.45,6.707,0,0,2.737c1.5288-1.2822,2.9137-2.174,4.1549-2.6754,1.2411-0.50135,2.511-0.75204,3.8097-0.75207,2.663,0.00003,4.9234,0.92882,6.7809,2.7864,1.5616,1.5781,2.3425,3.9124,2.3425,7.0029v17.729h-6.6577v-11.762c-0.00002-3.2055-0.14385-5.3343-0.43151-6.3864-0.2877-1.052-0.78908-1.8534-1.5041-2.4042-0.7151-0.55068-1.5987-0.82602-2.6507-0.82605-1.3644,0.00003-2.5357,0.4562-3.5138,1.3685-0.97811,0.91237-1.6562,2.174-2.0343,3.785-0.19727,0.83838-0.29591,2.6548-0.2959,5.4494v10.776h-6.707z"/>
			<path id="path4928" style="" d="m549.05,393.09,6.707,0,0,37.184-6.707,0,0-2.8357c-1.3151,1.2493-2.6343,2.1494-3.9576,2.7-1.3233,0.55069-2.7576,0.82604-4.3028,0.82604-3.4686,0-6.4686-1.3439-9.0002-4.0316s-3.7973-6.0289-3.7973-10.023c0-4.1425,1.2247-7.5371,3.674-10.184,2.4494-2.6466,5.4248-3.9699,8.9262-3.9699,1.611,0.00003,3.1233,0.30415,4.5371,0.91235,1.4137,0.60826,2.7206,1.5206,3.9206,2.737zm-7.0768,15.88c-2.0877,0.00002-3.822,0.73565-5.2028,2.2069-1.3808,1.4713-2.0713,3.3576-2.0713,5.659-0.00001,2.3179,0.70275,4.2247,2.1083,5.7206,1.4055,1.4959,3.1357,2.2439,5.1905,2.2439,2.1206,0.00001,3.8795-0.73562,5.2768-2.2069,1.3973-1.4712,2.0959-3.3987,2.0959-5.7823-0.00002-2.3343-0.69867-4.2247-2.0959-5.6713-1.3973-1.4466-3.1645-2.1699-5.3015-2.1699z"/>
			<path id="path4930" style="" d="m577.48,393.56,6.707,0,0,9.8879,3.9946,0,0,5.7946-3.9946,0,0,21.033-6.707,0,0-21.033-3.4521,0,0-5.7946,3.4521,0z"/>
			<path id="path4932" style="" d="m611.68,403.45,6.707,0,0,26.828-6.707,0,0-2.8357c-1.3151,1.2493-2.6343,2.1494-3.9576,2.7-1.3233,0.55069-2.7576,0.82604-4.3028,0.82604-3.4686,0-6.4686-1.3439-9.0002-4.0316s-3.7973-6.0289-3.7973-10.023c-0.00001-4.1425,1.2247-7.5371,3.674-10.184,2.4494-2.6466,5.4247-3.9699,8.9262-3.9699,1.611,0.00003,3.1233,0.30415,4.5371,0.91235,1.4137,0.60826,2.7206,1.5206,3.9206,2.737zm-7.0768,5.5234c-2.0877,0.00002-3.822,0.73565-5.2028,2.2069-1.3809,1.4713-2.0713,3.3576-2.0713,5.659-0.00001,2.3179,0.70274,4.2247,2.1083,5.7206,1.4055,1.4959,3.1357,2.2439,5.1905,2.2439,2.1206,0.00001,3.8795-0.73562,5.2768-2.2069,1.3973-1.4712,2.0959-3.3987,2.0959-5.7823-0.00003-2.3343-0.69867-4.2247-2.0959-5.6713-1.3973-1.4466-3.1645-2.1699-5.3015-2.1699z"/>
			<path id="path4934" style="" d="m625.24,393.09,6.7316,0,0,21.428,9.9125-11.071,8.433,0-11.54,12.871,12.945,13.956-8.3591,0-11.392-12.354,0,12.354-6.7316,0z"/>
			<path id="path4936" style="" d="m681.36,418.81-21.625,0c0.31232,1.9069,1.1466,3.4234,2.5028,4.5494s3.0864,1.6891,5.1905,1.6891c2.5151,0.00001,4.6768-0.87946,6.485-2.6384l5.6713,2.6631c-1.4138,2.0055-3.1069,3.4891-5.0796,4.4508-1.9727,0.96166-4.3152,1.4425-7.0275,1.4425-4.2083,0-7.6358-1.3274-10.282-3.9823-2.6466-2.6548-3.9699-5.9796-3.9699-9.9742-0.00001-4.0932,1.3192-7.4919,3.9576-10.196s5.9467-4.0562,9.9248-4.0562c4.2247,0.00003,7.6604,1.3521,10.307,4.0562,2.6466,2.7042,3.9699,6.2755,3.9699,10.714zm-6.7563-5.3015c-0.44386-1.4959-1.3192-2.7124-2.6261-3.6494-1.3069-0.93699-2.8234-1.4055-4.5494-1.4055-1.874,0.00002-3.5179,0.52606-4.9316,1.5781-0.8877,0.65757-1.7096,1.8165-2.4658,3.4768z"/>
			<path id="path4938" style="" d="m720.77,403.45,6.707,0,0,26.828-6.707,0,0-2.8357c-1.3151,1.2493-2.6343,2.1494-3.9576,2.7-1.3233,0.55069-2.7576,0.82604-4.3028,0.82604-3.4686,0-6.4686-1.3439-9.0002-4.0316s-3.7973-6.0289-3.7973-10.023c0-4.1425,1.2247-7.5371,3.674-10.184,2.4494-2.6466,5.4248-3.9699,8.9262-3.9699,1.611,0.00003,3.1233,0.30415,4.5371,0.91235,1.4137,0.60826,2.7206,1.5206,3.9206,2.737zm-7.0768,5.5234c-2.0877,0.00002-3.822,0.73565-5.2028,2.2069-1.3809,1.4713-2.0713,3.3576-2.0713,5.659,0,2.3179,0.70275,4.2247,2.1083,5.7206,1.4055,1.4959,3.1357,2.2439,5.1905,2.2439,2.1206,0.00001,3.8795-0.73562,5.2768-2.2069,1.3973-1.4712,2.0959-3.3987,2.0959-5.7823-0.00002-2.3343-0.69867-4.2247-2.0959-5.6713-1.3973-1.4466-3.1645-2.1699-5.3015-2.1699z"/>
			<path id="path4940" style="" d="m760.54,408.87-5.5974,3.0822c-1.0521-1.1014-2.0918-1.8658-3.1192-2.2932-1.0274-0.42738-2.2316-0.64108-3.6124-0.64111-2.5151,0.00003-4.5494,0.75209-6.1028,2.2562-1.5535,1.5042-2.3302,3.4316-2.3302,5.7823-0.00001,2.285,0.74795,4.1508,2.2439,5.5974,1.4959,1.4466,3.4603,2.1699,5.8933,2.1699,3.0082,0,5.3508-1.0274,7.0275-3.0822l5.3015,3.6247c-2.8768,3.7316-6.9371,5.5974-12.181,5.5974-4.7179,0-8.4125-1.3973-11.084-4.1919-2.6713-2.7946-4.0069-6.0659-4.0069-9.8139,0-2.5973,0.64933-4.9891,1.948-7.1755,1.2986-2.1863,3.111-3.9042,5.4371-5.1535s4.9275-1.874,7.8043-1.874c2.663,0.00003,5.0549,0.53018,7.1755,1.5904,2.1206,1.0603,3.8548,2.5686,5.2028,4.5248z"/>
			<path id="path4942" style="" d="m767.45,393.56,6.707,0,0,9.8879,3.9946,0,0,5.7946-3.9946,0,0,21.033-6.707,0,0-21.033-3.4521,0,0-5.7946,3.4521,0z"/>
			<path id="path4944" style="" d="m784.46,392.4c1.1836,0.00004,2.1987,0.42744,3.0453,1.2822,0.84658,0.85485,1.2699,1.8905,1.2699,3.1069-0.00001,1.2-0.4192,2.2234-1.2576,3.0699-0.83838,0.84662-1.8411,1.2699-3.0083,1.2699-1.2,0.00003-2.2233-0.43149-3.0699-1.2946-0.8466-0.863-1.2699-1.911-1.2699-3.1439,0-1.1836,0.41918-2.1945,1.2576-3.0329,0.83837-0.83834,1.8493-1.2575,3.0329-1.2576zm-3.3781,11.047,6.7563,0,0,26.828-6.7563,0z"/>
			<path id="path4946" style="" d="m806.55,402.76c2.5315,0.00003,4.911,0.63292,7.1385,1.8987,2.2274,1.2658,3.9658,2.9836,5.2152,5.1535,1.2493,2.1699,1.874,4.5124,1.874,7.0275-0.00004,2.5316-0.62881,4.8987-1.8863,7.1015-1.2576,2.2028-2.9713,3.9247-5.1412,5.1658s-4.5618,1.8617-7.1755,1.8617c-3.8467,0-7.1303-1.3685-9.8509-4.1056-2.7206-2.737-4.0809-6.0617-4.0809-9.9742-0.00001-4.1918,1.537-7.685,4.611-10.48,2.6959-2.4329,5.7946-3.6494,9.2961-3.6494zm0.0986,6.3371c-2.0877,0.00002-3.8261,0.72743-5.2152,2.1822s-2.0836,3.3165-2.0836,5.585c-0.00001,2.3343,0.6863,4.2247,2.0589,5.6713s3.111,2.1699,5.2152,2.1699c2.1041,0,3.8548-0.73152,5.2522-2.1946,1.3973-1.463,2.0959-3.3453,2.0959-5.6467-0.00002-2.3014-0.68634-4.1713-2.0589-5.6097s-3.1275-2.1576-5.2645-2.1576z"/>
			<path id="path4948" style="" d="m826.3,403.45,6.707,0,0,2.737c1.5288-1.2822,2.9137-2.174,4.1549-2.6754,1.2411-0.50135,2.511-0.75204,3.8097-0.75207,2.663,0.00003,4.9234,0.92882,6.781,2.7864,1.5616,1.5781,2.3425,3.9124,2.3425,7.0029v17.729h-6.6577v-11.762c-0.00002-3.2055-0.14386-5.3343-0.43151-6.3864-0.2877-1.052-0.78908-1.8534-1.5041-2.4042-0.7151-0.55068-1.5987-0.82602-2.6507-0.82605-1.3644,0.00003-2.5357,0.4562-3.5138,1.3685-0.97811,0.91237-1.6562,2.174-2.0343,3.785-0.19728,0.83838-0.29591,2.6548-0.2959,5.4494v10.776h-6.707z"/>
		</g>
		<flowRoot id="flowRoot3900" xml:space="preserve" style="font-size:40px;font-family:Sans;font-weight:normal;letter-spacing:0px;line-height:125%;word-spacing:0px;font-style:normal;fill:black;"><flowRegion id="flowRegion3902"><rect id="rect3904" y="291.43" width="25.714" x="68.571" height="85.714"/></flowRegion><flowPara id="flowPara3906"/></flowRoot>
		<g id="text4690" style="font-size:42px;font-family:Century Gothic;writing-mode:lr-tb;fill:#ffffff;letter-spacing:0px;text-anchor:middle;line-height:125%;word-spacing:0px;font-stretch:normal;font-variant:normal;font-weight:normal;font-style:normal;text-align:center;">
			<path id="path4951" style="" d="m68.482,471.25,17.288,0,0,2.9736-14.273,0,0,9.4336,14.15,0,0,2.9531-14.15,0,0,11.833,14.15,0,0,2.9736-17.165,0z"/>
			<path id="path4953" style="" d="m90.549,479.1,2.8711,0,0,3.999c1.1484-1.5312,2.4199-2.6762,3.8145-3.4351,1.3945-0.75877,2.9121-1.1382,4.5527-1.1382,1.668,0.00003,3.1479,0.42386,4.44,1.2715,1.292,0.84768,2.2456,1.9893,2.8608,3.4248,0.61521,1.4356,0.92282,3.6709,0.92285,6.7061v11.484h-2.8506v-10.644c-0.00002-2.5703-0.10939-4.2861-0.32812-5.1475-0.34182-1.4766-0.9844-2.5874-1.9277-3.3325-0.94337-0.7451-2.1738-1.1177-3.6914-1.1177-1.7363,0.00002-3.2915,0.57424-4.6655,1.7227-1.374,1.1484-2.2798,2.5703-2.7173,4.2656-0.27344,1.1074-0.41016,3.1309-0.41016,6.0703v8.1826h-2.8711z"/>
			<path id="path4955" style="" d="m135.36,479.1,2.8916,0,0,17.78c-0.00002,3.1309-0.27346,5.4209-0.82031,6.8701-0.75197,2.0508-2.0576,3.6299-3.917,4.7373s-4.0947,1.6611-6.706,1.6611c-1.9141-0.00001-3.6333-0.27003-5.1577-0.81006-1.5244-0.54004-2.7651-1.2646-3.7222-2.1738-0.95703-0.90919-1.8389-2.2388-2.6455-3.9888h3.1172c0.84765,1.4766,1.9414,2.5703,3.2812,3.2812,1.3398,0.71093,3.001,1.0664,4.9834,1.0664,1.9551,0,3.6059-0.36573,4.9526-1.0972,1.3467-0.73145,2.3071-1.6509,2.8814-2.7583,0.57419-1.1074,0.8613-2.8916,0.86132-5.3525v-1.1484c-1.0801,1.3672-2.3994,2.4165-3.958,3.148-1.5586,0.73144-3.2129,1.0972-4.9629,1.0972-2.0508,0-3.9785-0.50927-5.7832-1.5278-1.8047-1.0186-3.1992-2.3892-4.1836-4.1118-0.98438-1.7226-1.4766-3.6162-1.4766-5.6807-0.00001-2.0644,0.51269-3.9888,1.5381-5.773s2.4438-3.1958,4.2554-4.2349c1.8115-1.039,3.7222-1.5586,5.7319-1.5586,1.668,0.00003,3.2231,0.34524,4.6655,1.0356,1.4424,0.69045,2.8335,1.8286,4.1733,3.4146zm-8.4697,2.1943c-1.627,0.00002-3.1377,0.39309-4.5322,1.1792-1.3945,0.78615-2.4883,1.8731-3.2812,3.2607-0.79297,1.3877-1.1895,2.8882-1.1894,4.5015-0.00001,2.4473,0.8203,4.4707,2.4609,6.0703s3.7666,2.3994,6.3779,2.3994c2.6387,0.00001,4.7612-0.79296,6.3677-2.3789,1.6064-1.5859,2.4096-3.6709,2.4097-6.2549-0.00002-1.6816-0.36916-3.1821-1.1074-4.5015-0.73831-1.3193-1.7842-2.3618-3.1377-3.1274-1.3535-0.76561-2.8096-1.1484-4.3682-1.1484z"/>
			<path id="path4957" style="" d="m166.67,479.1,0,22.312-2.8301,0,0-3.835c-1.2031,1.4629-2.5532,2.5635-4.0503,3.3018-1.4971,0.73828-3.1343,1.1074-4.9116,1.1074-3.1582,0-5.855-1.145-8.0903-3.4351-2.2354-2.29-3.353-5.0757-3.353-8.3569,0-3.2129,1.1279-5.9609,3.3838-8.2441,2.2558-2.2832,4.9697-3.4248,8.1416-3.4248,1.832,0.00003,3.4897,0.38968,4.9732,1.169,1.4834,0.77932,2.7856,1.9483,3.9067,3.5068v-4.1016zm-11.484,2.1943c-1.5996,0.00002-3.0762,0.39309-4.4297,1.1792-1.3535,0.78615-2.4302,1.8902-3.23,3.312-0.79981,1.4219-1.1997,2.9258-1.1997,4.5117,0,1.5723,0.40332,3.0762,1.21,4.5117,0.80664,1.4356,1.8901,2.5532,3.2505,3.353,1.3603,0.7998,2.8198,1.1997,4.3784,1.1997,1.5722,0,3.0625-0.39648,4.4707-1.1894,1.4082-0.79297,2.4917-1.8662,3.2505-3.2197,0.75877-1.3535,1.1382-2.8779,1.1382-4.5732-0.00003-2.584-0.8511-4.7441-2.5532-6.4805-1.7022-1.7363-3.7974-2.6045-6.2856-2.6045z"/>
			<path id="path4959" style="" d="m192.37,479.1,2.8916,0,0,17.78c-0.00002,3.1309-0.27346,5.4209-0.82031,6.8701-0.75198,2.0508-2.0576,3.6299-3.917,4.7373s-4.0947,1.6611-6.7061,1.6611c-1.9141-0.00001-3.6333-0.27003-5.1577-0.81006-1.5244-0.54004-2.7651-1.2646-3.7222-2.1738-0.95703-0.90919-1.8389-2.2388-2.6455-3.9888h3.1172c0.84765,1.4766,1.9414,2.5703,3.2812,3.2812,1.3398,0.71093,3.001,1.0664,4.9834,1.0664,1.9551,0,3.6059-0.36573,4.9526-1.0972,1.3467-0.73145,2.3071-1.6509,2.8813-2.7583s0.86131-2.8916,0.86133-5.3525v-1.1484c-1.0801,1.3672-2.3994,2.4165-3.958,3.148-1.5586,0.73144-3.2129,1.0972-4.9629,1.0972-2.0508,0-3.9785-0.50927-5.7832-1.5278-1.8047-1.0186-3.1992-2.3892-4.1836-4.1118-0.98438-1.7226-1.4766-3.6162-1.4766-5.6807,0-2.0644,0.5127-3.9888,1.5381-5.773s2.4438-3.1958,4.2554-4.2349c1.8115-1.039,3.7222-1.5586,5.7319-1.5586,1.668,0.00003,3.2231,0.34524,4.6655,1.0356,1.4424,0.69045,2.8335,1.8286,4.1733,3.4146zm-8.4697,2.1943c-1.627,0.00002-3.1377,0.39309-4.5322,1.1792-1.3945,0.78615-2.4883,1.8731-3.2812,3.2607-0.79298,1.3877-1.1895,2.8882-1.1894,4.5015-0.00001,2.4473,0.8203,4.4707,2.4609,6.0703s3.7666,2.3994,6.3779,2.3994c2.6387,0.00001,4.7612-0.79296,6.3677-2.3789,1.6064-1.5859,2.4096-3.6709,2.4097-6.2549-0.00003-1.6816-0.36917-3.1821-1.1074-4.5015-0.7383-1.3193-1.7842-2.3618-3.1377-3.1274-1.3535-0.76561-2.8096-1.1484-4.3682-1.1484z"/>
			<path id="path4961" style="" d="m220.24,494.01,2.4199,1.2715c-0.79299,1.5586-1.709,2.8164-2.748,3.7734-1.0391,0.95703-2.208,1.685-3.5068,2.1841-1.2988,0.49902-2.7686,0.74853-4.4092,0.74853-3.6367,0-6.4805-1.1929-8.5312-3.5786-2.0508-2.3857-3.0762-5.0825-3.0762-8.0903-0.00001-2.8301,0.86816-5.3525,2.6045-7.5674,2.2012-2.8164,5.1474-4.2246,8.8389-4.2246,3.8008,0.00003,6.8359,1.4424,9.1055,4.3272,1.6133,2.0371,2.4336,4.5801,2.4609,7.6289h-20.057c0.0547,2.5977,0.88183,4.7271,2.4814,6.3882s3.5752,2.4917,5.9268,2.4917c1.1348,0,2.2388-0.19824,3.312-0.59472,1.0732-0.39649,1.9858-0.92285,2.7378-1.5791,0.75193-0.65624,1.5654-1.7158,2.4404-3.1787zm0-6.0088c-0.38283-1.5312-0.93996-2.7549-1.6714-3.6709-0.73146-0.916-1.6988-1.6543-2.9018-2.2148-1.2031-0.56052-2.4678-0.8408-3.794-0.84082-2.1875,0.00002-4.0674,0.70412-5.6396,2.1123-1.1484,1.0254-2.0166,2.5635-2.6045,4.6142z"/>
			<path id="path4963" style="" d="m241.42,469.92c0.65624,0.00004,1.2168,0.23246,1.6816,0.69727,0.46484,0.46487,0.69726,1.0254,0.69727,1.6816-0.00001,0.64261-0.23243,1.1963-0.69727,1.6611-0.46485,0.46487-1.0254,0.6973-1.6816,0.69727-0.64258,0.00003-1.1963-0.2324-1.6611-0.69727-0.46485-0.46481-0.69727-1.0185-0.69727-1.6611,0-0.65622,0.23242-1.2168,0.69727-1.6816,0.46484-0.46481,1.0186-0.69723,1.6611-0.69727zm-1.4356,9.1875,2.8916,0,0,22.312-2.8916,0z"/>
			<path id="path4965" style="" d="m248.87,479.1,2.8711,0,0,3.999c1.1484-1.5312,2.4199-2.6762,3.8144-3.4351,1.3945-0.75877,2.9121-1.1382,4.5527-1.1382,1.668,0.00003,3.1479,0.42386,4.4399,1.2715,1.292,0.84768,2.2456,1.9893,2.8608,3.4248,0.61521,1.4356,0.92283,3.6709,0.92285,6.7061v11.484h-2.8506v-10.644c-0.00002-2.5703-0.10939-4.2861-0.32812-5.1475-0.34182-1.4766-0.98439-2.5874-1.9277-3.3325-0.94337-0.7451-2.1738-1.1177-3.6914-1.1177-1.7363,0.00002-3.2915,0.57424-4.6655,1.7227-1.374,1.1484-2.2798,2.5703-2.7173,4.2656-0.27345,1.1074-0.41017,3.1309-0.41016,6.0703v8.1826h-2.8711z"/>
			<path id="path4967" style="" d="m307.77,483.74-2.2764,1.415c-1.9688-2.6113-4.6553-3.917-8.0596-3.917-2.7207,0.00002-4.98,0.87502-6.7778,2.625s-2.6968,3.876-2.6968,6.3779c-0.00001,1.627,0.41356,3.1582,1.2407,4.5938s1.9619,2.5498,3.4043,3.3428c1.4424,0.79297,3.0591,1.1894,4.8501,1.1894,3.2812,0,5.9609-1.3057,8.0391-3.917l2.2764,1.4971c-1.0664,1.5996-2.4986,2.8403-4.2964,3.7222-1.7979,0.88183-3.8452,1.3228-6.1421,1.3228-3.5274,0-6.4531-1.1211-8.7774-3.3633-2.3242-2.2422-3.4863-4.9697-3.4863-8.1826,0-2.1601,0.54346-4.1665,1.6304-6.019s2.5806-3.2983,4.481-4.3374c1.9004-1.039,4.0264-1.5586,6.3779-1.5586,1.4766,0.00003,2.9018,0.22561,4.2759,0.67676,1.374,0.4512,2.5395,1.0391,3.4966,1.7637,0.95701,0.72463,1.7705,1.6475,2.4404,2.7686z"/>
			<path id="path4969" style="" d="m323.82,478.53c3.4316,0.00003,6.2754,1.2442,8.5312,3.7324,2.0508,2.2695,3.0762,4.9561,3.0762,8.0596-0.00002,3.1172-1.0835,5.8413-3.2505,8.1724s-4.9526,3.4966-8.3569,3.4966c-3.418,0-6.2105-1.1655-8.3774-3.4966-2.167-2.331-3.2505-5.0552-3.2505-8.1724,0-3.0898,1.0254-5.7695,3.0762-8.0391,2.2558-2.5019,5.1064-3.7529,8.5518-3.7529zm0,2.8096c-2.3789,0.00002-4.4229,0.88185-6.1318,2.6455-1.709,1.7637-2.5635,3.8965-2.5635,6.3984-0.00001,1.6133,0.38964,3.1172,1.1689,4.5117,0.77929,1.3945,1.832,2.4712,3.1582,3.23,1.3262,0.75879,2.7822,1.1382,4.3682,1.1382,1.5859,0.00001,3.042-0.37939,4.3682-1.1382,1.3262-0.75879,2.3789-1.8354,3.1582-3.23,0.77927-1.3945,1.1689-2.8984,1.1689-4.5117-0.00002-2.5019-0.85793-4.6348-2.5737-6.3984s-3.7564-2.6455-6.1216-2.6455z"/>
			<path id="path4971" style="" d="m340.74,479.1,2.8711,0,0,3.999c1.1484-1.5312,2.4199-2.6762,3.8144-3.4351,1.3945-0.75877,2.9121-1.1382,4.5527-1.1382,1.668,0.00003,3.1479,0.42386,4.4399,1.2715,1.292,0.84768,2.2456,1.9893,2.8608,3.4248,0.61521,1.4356,0.92283,3.6709,0.92285,6.7061v11.484h-2.8506v-10.644c-0.00002-2.5703-0.10939-4.2861-0.32812-5.1475-0.34182-1.4766-0.98439-2.5874-1.9277-3.3325-0.94337-0.7451-2.1738-1.1177-3.6914-1.1177-1.7363,0.00002-3.2915,0.57424-4.6655,1.7227-1.374,1.1484-2.2798,2.5703-2.7173,4.2656-0.27345,1.1074-0.41017,3.1309-0.41016,6.0703v8.1826h-2.8711z"/>
			<path id="path4973" style="" d="m377.56,481.55-1.8457,1.9072c-1.5313-1.4902-3.0283-2.2353-4.4912-2.2354-0.92969,0.00002-1.7261,0.30764-2.3892,0.92285-0.66309,0.61525-0.99463,1.333-0.99462,2.1533-0.00001,0.72463,0.27343,1.4151,0.82031,2.0713,0.54687,0.66994,1.6953,1.4561,3.4453,2.3584,2.1328,1.1074,3.582,2.1738,4.3477,3.1992,0.75194,1.0391,1.1279,2.208,1.1279,3.5068-0.00002,1.832-0.6426,3.3838-1.9277,4.6553-1.2852,1.2715-2.8916,1.9072-4.8193,1.9072-1.2852,0-2.5122-0.28027-3.6812-0.84082-1.1689-0.56054-2.1362-1.333-2.9018-2.3174l1.8047-2.0508c1.4629,1.6543,3.0146,2.4814,4.6553,2.4814,1.1484,0.00001,2.126-0.36913,2.9326-1.1074,0.80663-0.73828,1.21-1.6064,1.21-2.6045-0.00001-0.82031-0.26662-1.5518-0.79981-2.1943-0.53321-0.62889-1.7363-1.4219-3.6094-2.3789-2.0098-1.039-3.377-2.0644-4.1016-3.0762-0.72462-1.0117-1.0869-2.167-1.0869-3.4658,0-1.6953,0.57764-3.1035,1.7329-4.2246s2.6147-1.6816,4.3784-1.6816c2.0508,0.00003,4.1152,1.0049,6.1934,3.0146z"/>
			<path id="path4975" style="" d="m385.16,470.82,2.8916,0,0,8.2852,4.5527,0,0,2.4609-4.5527,0,0,19.852-2.8916,0,0-19.852-3.917,0,0-2.4609,3.917,0z"/>
			<path id="path4977" style="" d="m395.85,479.1,2.9326,0,0,3.2608c0.875-1.2851,1.7978-2.2456,2.7686-2.8814,0.97069-0.63572,1.9824-0.95359,3.0352-0.95362,0.79295,0.00003,1.6406,0.25296,2.543,0.75879l-1.4971,2.4199c-0.60157-0.25975-1.1074-0.38963-1.5176-0.38965-0.95704,0.00002-1.8799,0.39308-2.7686,1.1792-0.88868,0.78615-1.5654,2.0064-2.0303,3.6606-0.35548,1.2715-0.53321,3.8418-0.53321,7.7109v7.5469h-2.9326z"/>
			<path id="path4979" style="" d="m409.2,479.1,2.8916,0,0,10.418c-0.00001,2.543,0.13671,4.293,0.41015,5.25,0.41015,1.3672,1.1929,2.4473,2.3482,3.2402,1.1553,0.79297,2.5327,1.1894,4.1323,1.1894s2.9565-0.38623,4.0708-1.1587c1.1142-0.77246,1.8833-1.7876,2.3071-3.0454,0.28709-0.86132,0.43064-2.6865,0.43066-5.4756v-10.418h2.9326v10.951c-0.00002,3.0762-0.35891,5.3936-1.0767,6.9521-0.71779,1.5586-1.7979,2.7788-3.2402,3.6606-1.4424,0.88183-3.2505,1.3228-5.4243,1.3228s-3.9888-0.44092-5.4448-1.3228c-1.4561-0.88184-2.543-2.1123-3.2608-3.6914-0.71777-1.5791-1.0767-3.9546-1.0767-7.1265z"/>
			<path id="path4981" style="" d="m456.74,483.74-2.2764,1.415c-1.9688-2.6113-4.6553-3.917-8.0596-3.917-2.7207,0.00002-4.98,0.87502-6.7778,2.625s-2.6968,3.876-2.6968,6.3779c-0.00001,1.627,0.41356,3.1582,1.2407,4.5938s1.9619,2.5498,3.4043,3.3428c1.4424,0.79297,3.0591,1.1894,4.8501,1.1894,3.2812,0,5.9609-1.3057,8.0391-3.917l2.2764,1.4971c-1.0664,1.5996-2.4986,2.8403-4.2964,3.7222-1.7979,0.88183-3.8452,1.3228-6.1421,1.3228-3.5274,0-6.4531-1.1211-8.7774-3.3633-2.3242-2.2422-3.4863-4.9697-3.4863-8.1826,0-2.1601,0.54346-4.1665,1.6304-6.019s2.5806-3.2983,4.481-4.3374c1.9004-1.039,4.0264-1.5586,6.3779-1.5586,1.4766,0.00003,2.9018,0.22561,4.2759,0.67676,1.374,0.4512,2.5395,1.0391,3.4966,1.7637,0.95701,0.72463,1.7705,1.6475,2.4404,2.7686z"/>
			<path id="path4983" style="" d="m464.73,470.82,2.8916,0,0,8.2852,4.5527,0,0,2.4609-4.5527,0,0,19.852-2.8916,0,0-19.852-3.917,0,0-2.4609,3.917,0z"/>
			<path id="path4985" style="" d="m477.51,469.92c0.65624,0.00004,1.2168,0.23246,1.6816,0.69727,0.46484,0.46487,0.69726,1.0254,0.69726,1.6816,0,0.64261-0.23242,1.1963-0.69726,1.6611-0.46485,0.46487-1.0254,0.6973-1.6816,0.69727-0.64258,0.00003-1.1963-0.2324-1.6611-0.69727-0.46484-0.46481-0.69726-1.0185-0.69726-1.6611,0-0.65622,0.23242-1.2168,0.69726-1.6816,0.46484-0.46481,1.0186-0.69723,1.6611-0.69727zm-1.4356,9.1875,2.8916,0,0,22.312-2.8916,0z"/>
			<path id="path4987" style="" d="m482.84,479.1,3.0557,0,7.4648,16.242,7.4033-16.242,3.0762,0-10.213,22.312-0.5127,0z"/>
			<path id="path4989" style="" d="m527.04,494.01,2.4199,1.2715c-0.793,1.5586-1.709,2.8164-2.748,3.7734-1.0391,0.95703-2.208,1.685-3.5068,2.1841-1.2988,0.49902-2.7686,0.74853-4.4092,0.74853-3.6367,0-6.4805-1.1929-8.5312-3.5786-2.0508-2.3857-3.0762-5.0825-3.0762-8.0903,0-2.8301,0.86816-5.3525,2.6045-7.5674,2.2012-2.8164,5.1474-4.2246,8.8389-4.2246,3.8008,0.00003,6.8359,1.4424,9.1055,4.3272,1.6133,2.0371,2.4336,4.5801,2.4609,7.6289h-20.057c0.0547,2.5977,0.88183,4.7271,2.4814,6.3882s3.5752,2.4917,5.9268,2.4917c1.1348,0,2.2388-0.19824,3.312-0.59472,1.0732-0.39649,1.9858-0.92285,2.7378-1.5791,0.75194-0.65624,1.5654-1.7158,2.4404-3.1787zm0-6.0088c-0.38283-1.5312-0.93996-2.7549-1.6714-3.6709-0.73147-0.916-1.6988-1.6543-2.9019-2.2148-1.2031-0.56052-2.4678-0.8408-3.7939-0.84082-2.1875,0.00002-4.0674,0.70412-5.6396,2.1123-1.1484,1.0254-2.0166,2.5635-2.6045,4.6142z"/>
			<path id="path4991" style="" d="m569.49,470.49,0,30.926-2.8301,0,0-3.835c-1.2032,1.4629-2.5532,2.5635-4.0503,3.3018-1.4971,0.73828-3.1343,1.1074-4.9116,1.1074-3.1582,0-5.855-1.145-8.0903-3.4351-2.2354-2.29-3.353-5.0757-3.353-8.3569,0-3.2129,1.1279-5.9609,3.3838-8.2441s4.9697-3.4248,8.1416-3.4248c1.832,0.00003,3.4897,0.38968,4.9731,1.169s2.7856,1.9483,3.9067,3.5068v-12.715zm-11.484,10.808c-1.5996,0.00002-3.0762,0.39309-4.4297,1.1792-1.3535,0.78615-2.4302,1.8902-3.23,3.312-0.79981,1.4219-1.1997,2.9258-1.1997,4.5117-0.00001,1.5723,0.40331,3.0762,1.21,4.5117,0.80663,1.4356,1.8901,2.5532,3.2505,3.353,1.3603,0.7998,2.8198,1.1997,4.3784,1.1997,1.5722,0,3.0625-0.39648,4.4707-1.1894,1.4082-0.79297,2.4917-1.8662,3.2505-3.2197,0.75877-1.3535,1.1382-2.8779,1.1382-4.5732-0.00002-2.584-0.8511-4.7441-2.5532-6.4805-1.7022-1.7363-3.7974-2.6045-6.2856-2.6045z"/>
			<path id="path4993" style="" d="m577.01,469.92c0.65625,0.00004,1.2168,0.23246,1.6816,0.69727,0.46484,0.46487,0.69726,1.0254,0.69727,1.6816-0.00001,0.64261-0.23243,1.1963-0.69727,1.6611-0.46485,0.46487-1.0254,0.6973-1.6816,0.69727-0.64258,0.00003-1.1963-0.2324-1.6611-0.69727-0.46485-0.46481-0.69727-1.0185-0.69727-1.6611,0-0.65622,0.23242-1.2168,0.69727-1.6816,0.46484-0.46481,1.0186-0.69723,1.6611-0.69727zm-1.4355,9.1875,2.8916,0,0,22.312-2.8916,0z"/>
			<path id="path4995" style="" d="m606.69,479.1,0,22.312-2.8301,0,0-3.835c-1.2032,1.4629-2.5532,2.5635-4.0503,3.3018-1.4971,0.73828-3.1343,1.1074-4.9116,1.1074-3.1582,0-5.855-1.145-8.0903-3.4351-2.2354-2.29-3.353-5.0757-3.353-8.3569-0.00001-3.2129,1.1279-5.9609,3.3838-8.2441,2.2558-2.2832,4.9697-3.4248,8.1416-3.4248,1.832,0.00003,3.4897,0.38968,4.9731,1.169s2.7856,1.9483,3.9067,3.5068v-4.1016zm-11.484,2.1943c-1.5996,0.00002-3.0762,0.39309-4.4297,1.1792-1.3535,0.78615-2.4302,1.8902-3.23,3.312-0.79981,1.4219-1.1997,2.9258-1.1997,4.5117-0.00001,1.5723,0.40331,3.0762,1.21,4.5117,0.80663,1.4356,1.8901,2.5532,3.2505,3.353,1.3603,0.7998,2.8198,1.1997,4.3784,1.1997,1.5722,0,3.0625-0.39648,4.4707-1.1894,1.4082-0.79297,2.4917-1.8662,3.2505-3.2197,0.75876-1.3535,1.1382-2.8779,1.1382-4.5732-0.00002-2.584-0.8511-4.7441-2.5532-6.4805-1.7022-1.7363-3.7974-2.6045-6.2856-2.6045z"/>
			<path id="path4997" style="" d="m612.74,470.49,2.8711,0,0,30.926-2.8711,0z"/>
			<path id="path4999" style="" d="m632.18,478.53c3.4316,0.00003,6.2754,1.2442,8.5312,3.7324,2.0508,2.2695,3.0762,4.9561,3.0762,8.0596-0.00002,3.1172-1.0835,5.8413-3.2505,8.1724s-4.9526,3.4966-8.3569,3.4966c-3.418,0-6.2105-1.1655-8.3774-3.4966-2.167-2.331-3.2505-5.0552-3.2505-8.1724,0-3.0898,1.0254-5.7695,3.0762-8.0391,2.2558-2.5019,5.1064-3.7529,8.5518-3.7529zm0,2.8096c-2.3789,0.00002-4.4229,0.88185-6.1318,2.6455-1.709,1.7637-2.5635,3.8965-2.5635,6.3984-0.00001,1.6133,0.38964,3.1172,1.1689,4.5117,0.77929,1.3945,1.832,2.4712,3.1582,3.23,1.3262,0.75879,2.7822,1.1382,4.3682,1.1382,1.5859,0.00001,3.042-0.37939,4.3682-1.1382,1.3262-0.75879,2.3789-1.8354,3.1582-3.23,0.77927-1.3945,1.1689-2.8984,1.1689-4.5117-0.00002-2.5019-0.85793-4.6348-2.5737-6.3984s-3.7564-2.6455-6.1216-2.6455z"/>
			<path id="path5001" style="" d="m668.32,479.1,2.8916,0,0,17.78c-0.00003,3.1309-0.27347,5.4209-0.82032,6.8701-0.75197,2.0508-2.0576,3.6299-3.917,4.7373s-4.0947,1.6611-6.706,1.6611c-1.9141-0.00001-3.6333-0.27003-5.1577-0.81006-1.5244-0.54004-2.7651-1.2646-3.7222-2.1738-0.95703-0.90919-1.8389-2.2388-2.6455-3.9888h3.1172c0.84765,1.4766,1.9414,2.5703,3.2812,3.2812,1.3398,0.71093,3.001,1.0664,4.9834,1.0664,1.9551,0,3.6059-0.36573,4.9526-1.0972,1.3467-0.73145,2.3071-1.6509,2.8814-2.7583,0.57419-1.1074,0.8613-2.8916,0.86132-5.3525v-1.1484c-1.0801,1.3672-2.3994,2.4165-3.958,3.148-1.5586,0.73144-3.2129,1.0972-4.9629,1.0972-2.0508,0-3.9785-0.50927-5.7832-1.5278-1.8047-1.0186-3.1992-2.3892-4.1836-4.1118-0.98438-1.7226-1.4766-3.6162-1.4766-5.6807-0.00001-2.0644,0.51269-3.9888,1.5381-5.773s2.4438-3.1958,4.2554-4.2349c1.8115-1.039,3.7222-1.5586,5.7319-1.5586,1.668,0.00003,3.2231,0.34524,4.6655,1.0356,1.4424,0.69045,2.8335,1.8286,4.1733,3.4146zm-8.4697,2.1943c-1.627,0.00002-3.1377,0.39309-4.5322,1.1792-1.3945,0.78615-2.4883,1.8731-3.2812,3.2607-0.79297,1.3877-1.1895,2.8882-1.1894,4.5015-0.00001,2.4473,0.8203,4.4707,2.4609,6.0703s3.7666,2.3994,6.3779,2.3994c2.6386,0.00001,4.7612-0.79296,6.3677-2.3789,1.6064-1.5859,2.4096-3.6709,2.4097-6.2549-0.00002-1.6816-0.36916-3.1821-1.1074-4.5015-0.7383-1.3193-1.7842-2.3618-3.1377-3.1274-1.3535-0.76561-2.8096-1.1484-4.3682-1.1484z"/>
			<path id="path5003" style="" d="m677.03,479.1,2.8916,0,0,10.418c-0.00001,2.543,0.13671,4.293,0.41015,5.25,0.41015,1.3672,1.1929,2.4473,2.3482,3.2402,1.1553,0.79297,2.5327,1.1894,4.1323,1.1894s2.9565-0.38623,4.0708-1.1587c1.1142-0.77246,1.8833-1.7876,2.3071-3.0454,0.28709-0.86132,0.43065-2.6865,0.43067-5.4756v-10.418h2.9326v10.951c-0.00002,3.0762-0.35891,5.3936-1.0767,6.9521-0.71779,1.5586-1.7979,2.7788-3.2402,3.6606-1.4424,0.88183-3.2505,1.3228-5.4243,1.3228s-3.9888-0.44092-5.4448-1.3228c-1.4561-0.88184-2.543-2.1123-3.2608-3.6914-0.71777-1.5791-1.0767-3.9546-1.0767-7.1265z"/>
			<path id="path5005" style="" d="m721.7,494.01,2.4199,1.2715c-0.79299,1.5586-1.709,2.8164-2.748,3.7734-1.0391,0.95703-2.208,1.685-3.5068,2.1841-1.2988,0.49902-2.7686,0.74853-4.4092,0.74853-3.6367,0-6.4805-1.1929-8.5312-3.5786-2.0508-2.3857-3.0762-5.0825-3.0762-8.0903,0-2.8301,0.86816-5.3525,2.6045-7.5674,2.2012-2.8164,5.1474-4.2246,8.8389-4.2246,3.8008,0.00003,6.8359,1.4424,9.1055,4.3272,1.6132,2.0371,2.4336,4.5801,2.4609,7.6289h-20.057c0.0547,2.5977,0.88183,4.7271,2.4814,6.3882s3.5752,2.4917,5.9268,2.4917c1.1348,0,2.2388-0.19824,3.312-0.59472,1.0732-0.39649,1.9858-0.92285,2.7378-1.5791,0.75193-0.65624,1.5654-1.7158,2.4404-3.1787zm0-6.0088c-0.38283-1.5312-0.93996-2.7549-1.6714-3.6709-0.73146-0.916-1.6988-1.6543-2.9018-2.2148-1.2031-0.56052-2.4678-0.8408-3.794-0.84082-2.1875,0.00002-4.0674,0.70412-5.6396,2.1123-1.1484,1.0254-2.0166,2.5635-2.6045,4.6142z"/>
			<path id="path5007" style="" d="m733.08,495.88,2.7686,1.3125-4.1631,7.752-2.0303-0.86133z"/>
			<path id="path5009" style="" d="m756.03,470.82,2.8916,0,0,8.2852,4.5527,0,0,2.4609-4.5527,0,0,19.852-2.8916,0,0-19.852-3.917,0,0-2.4609,3.917,0z"/>
			<path id="path5011" style="" d="m786.58,494.01,2.4199,1.2715c-0.79299,1.5586-1.709,2.8164-2.748,3.7734-1.0391,0.95703-2.208,1.685-3.5068,2.1841-1.2988,0.49902-2.7686,0.74853-4.4092,0.74853-3.6367,0-6.4805-1.1929-8.5312-3.5786-2.0508-2.3857-3.0762-5.0825-3.0762-8.0903-0.00001-2.8301,0.86816-5.3525,2.6045-7.5674,2.2012-2.8164,5.1474-4.2246,8.8389-4.2246,3.8008,0.00003,6.8359,1.4424,9.1055,4.3272,1.6133,2.0371,2.4336,4.5801,2.4609,7.6289h-20.057c0.0547,2.5977,0.88183,4.7271,2.4814,6.3882s3.5752,2.4917,5.9268,2.4917c1.1348,0,2.2388-0.19824,3.312-0.59472,1.0732-0.39649,1.9858-0.92285,2.7378-1.5791,0.75193-0.65624,1.5654-1.7158,2.4404-3.1787zm0-6.0088c-0.38283-1.5312-0.93996-2.7549-1.6714-3.6709-0.73146-0.916-1.6988-1.6543-2.9018-2.2148-1.2031-0.56052-2.4678-0.8408-3.794-0.84082-2.1875,0.00002-4.0674,0.70412-5.6396,2.1123-1.1484,1.0254-2.0166,2.5635-2.6045,4.6142z"/>
			<path id="path5013" style="" d="m806.33,481.55-1.8457,1.9072c-1.5313-1.4902-3.0283-2.2353-4.4912-2.2354-0.9297,0.00002-1.7261,0.30764-2.3892,0.92285-0.66309,0.61525-0.99464,1.333-0.99463,2.1533-0.00001,0.72463,0.27343,1.4151,0.82031,2.0713,0.54687,0.66994,1.6953,1.4561,3.4453,2.3584,2.1328,1.1074,3.582,2.1738,4.3477,3.1992,0.75194,1.0391,1.1279,2.208,1.1279,3.5068-0.00001,1.832-0.64259,3.3838-1.9277,4.6553-1.2852,1.2715-2.8916,1.9072-4.8193,1.9072-1.2852,0-2.5122-0.28027-3.6812-0.84082-1.169-0.56054-2.1362-1.333-2.9019-2.3174l1.8047-2.0508c1.4629,1.6543,3.0146,2.4814,4.6553,2.4814,1.1484,0.00001,2.126-0.36913,2.9326-1.1074,0.80663-0.73828,1.21-1.6064,1.21-2.6045-0.00001-0.82031-0.26661-1.5518-0.7998-2.1943-0.53322-0.62889-1.7363-1.4219-3.6094-2.3789-2.0098-1.039-3.377-2.0644-4.1016-3.0762-0.72461-1.0117-1.0869-2.167-1.0869-3.4658-0.00001-1.6953,0.57763-3.1035,1.7329-4.2246s2.6147-1.6816,4.3784-1.6816c2.0508,0.00003,4.1152,1.0049,6.1934,3.0146z"/>
			<path id="path5015" style="" d="m813.94,470.82,2.8916,0,0,8.2852,4.5527,0,0,2.4609-4.5527,0,0,19.852-2.8916,0,0-19.852-3.917,0,0-2.4609,3.917,0z"/>
			<path id="path5017" style="" d="m177.24,534.05-1.8457,1.9072c-1.5313-1.4902-3.0283-2.2353-4.4912-2.2354-0.92969,0.00002-1.7261,0.30764-2.3892,0.92285-0.66309,0.61525-0.99463,1.333-0.99463,2.1533,0,0.72463,0.27344,1.4151,0.82032,2.0713,0.54686,0.66994,1.6953,1.4561,3.4453,2.3584,2.1328,1.1074,3.582,2.1738,4.3476,3.1992,0.75194,1.0391,1.1279,2.208,1.1279,3.5068-0.00001,1.832-0.64259,3.3838-1.9277,4.6553-1.2852,1.2715-2.8916,1.9072-4.8193,1.9072-1.2852,0-2.5122-0.28027-3.6812-0.84082-1.169-0.56054-2.1362-1.333-2.9018-2.3174l1.8047-2.0508c1.4629,1.6543,3.0146,2.4814,4.6553,2.4814,1.1484,0.00001,2.126-0.36913,2.9326-1.1074,0.80663-0.73828,1.21-1.6064,1.21-2.6045-0.00002-0.82031-0.26662-1.5518-0.79981-2.1943-0.53321-0.62889-1.7363-1.4219-3.6094-2.3789-2.0098-1.039-3.377-2.0644-4.1016-3.0762-0.72461-1.0117-1.0869-2.167-1.0869-3.4658,0-1.6953,0.57763-3.1035,1.7329-4.2246s2.6147-1.6816,4.3784-1.6816c2.0508,0.00003,4.1152,1.0049,6.1934,3.0146z"/>
			<path id="path5019" style="" d="m192.9,531.03c3.4316,0.00003,6.2754,1.2442,8.5312,3.7324,2.0508,2.2695,3.0761,4.9561,3.0762,8.0596-0.00003,3.1172-1.0835,5.8413-3.2505,8.1724s-4.9527,3.4966-8.3569,3.4966c-3.418,0-6.2105-1.1655-8.3774-3.4966-2.167-2.331-3.2505-5.0552-3.2505-8.1724-0.00001-3.0898,1.0254-5.7695,3.0762-8.0391,2.2558-2.5019,5.1064-3.7529,8.5518-3.7529zm0,2.8096c-2.3789,0.00002-4.4229,0.88185-6.1318,2.6455-1.709,1.7637-2.5635,3.8965-2.5635,6.3984,0,1.6133,0.38965,3.1172,1.169,4.5117,0.77929,1.3945,1.832,2.4712,3.1582,3.23,1.3262,0.75879,2.7822,1.1382,4.3682,1.1382,1.5859,0.00001,3.042-0.37939,4.3682-1.1382,1.3262-0.75879,2.3789-1.8354,3.1582-3.23,0.77928-1.3945,1.1689-2.8984,1.169-4.5117-0.00002-2.5019-0.85793-4.6348-2.5737-6.3984s-3.7564-2.6455-6.1216-2.6455z"/>
			<path id="path5021" style="" d="m209.39,522.99,2.8711,0,0,30.926-2.8711,0z"/>
			<path id="path5023" style="" d="m217.9,531.6,2.8916,0,0,10.418c-0.00001,2.543,0.13671,4.293,0.41016,5.25,0.41015,1.3672,1.1929,2.4473,2.3481,3.2402,1.1553,0.79297,2.5327,1.1894,4.1323,1.1894s2.9565-0.38623,4.0708-1.1587c1.1142-0.77246,1.8833-1.7876,2.3071-3.0454,0.28709-0.86132,0.43065-2.6865,0.43067-5.4756v-10.418h2.9326v10.951c-0.00003,3.0762-0.35891,5.3936-1.0767,6.9521-0.7178,1.5586-1.7979,2.7788-3.2402,3.6606-1.4424,0.88183-3.2505,1.3228-5.4243,1.3228s-3.9888-0.44092-5.4448-1.3228c-1.4561-0.88184-2.543-2.1123-3.2607-3.6914-0.71778-1.5791-1.0767-3.9546-1.0767-7.1265z"/>
			<path id="path5025" style="" d="m246.28,523.32,2.8916,0,0,8.2852,4.5527,0,0,2.4609-4.5527,0,0,19.852-2.8916,0,0-19.852-3.917,0,0-2.4609,3.917,0z"/>
			<path id="path5027" style="" d="m259.06,522.42c0.65624,0.00004,1.2168,0.23246,1.6816,0.69727,0.46484,0.46487,0.69726,1.0254,0.69726,1.6816,0,0.64261-0.23242,1.1963-0.69726,1.6611-0.46485,0.46487-1.0254,0.6973-1.6816,0.69727-0.64258,0.00003-1.1963-0.2324-1.6611-0.69727-0.46485-0.46481-0.69727-1.0185-0.69727-1.6611,0-0.65622,0.23242-1.2168,0.69727-1.6816,0.46484-0.46481,1.0186-0.69723,1.6611-0.69727zm-1.4356,9.1875,2.8916,0,0,22.312-2.8916,0z"/>
			<path id="path5029" style="" d="m277.07,531.03c3.4316,0.00003,6.2754,1.2442,8.5312,3.7324,2.0508,2.2695,3.0761,4.9561,3.0762,8.0596-0.00003,3.1172-1.0835,5.8413-3.2505,8.1724s-4.9526,3.4966-8.3569,3.4966c-3.418,0-6.2105-1.1655-8.3774-3.4966-2.167-2.331-3.2505-5.0552-3.2505-8.1724,0-3.0898,1.0254-5.7695,3.0762-8.0391,2.2558-2.5019,5.1064-3.7529,8.5518-3.7529zm0,2.8096c-2.3789,0.00002-4.4229,0.88185-6.1318,2.6455-1.709,1.7637-2.5635,3.8965-2.5635,6.3984-0.00001,1.6133,0.38964,3.1172,1.1689,4.5117,0.77929,1.3945,1.832,2.4712,3.1582,3.23,1.3262,0.75879,2.7822,1.1382,4.3682,1.1382,1.5859,0.00001,3.042-0.37939,4.3682-1.1382,1.3262-0.75879,2.3789-1.8354,3.1582-3.23,0.77928-1.3945,1.1689-2.8984,1.169-4.5117-0.00002-2.5019-0.85793-4.6348-2.5737-6.3984s-3.7564-2.6455-6.1216-2.6455z"/>
			<path id="path5031" style="" d="m293.99,531.6,2.8711,0,0,3.999c1.1484-1.5312,2.4199-2.6762,3.8144-3.4351,1.3945-0.75877,2.9121-1.1382,4.5527-1.1382,1.668,0.00003,3.1479,0.42386,4.44,1.2715,1.292,0.84768,2.2456,1.9893,2.8608,3.4248,0.61521,1.4356,0.92282,3.6709,0.92285,6.7061v11.484h-2.8506v-10.644c-0.00002-2.5703-0.10939-4.2861-0.32812-5.1475-0.34182-1.4766-0.9844-2.5874-1.9277-3.3325-0.94337-0.7451-2.1738-1.1177-3.6914-1.1177-1.7363,0.00002-3.2915,0.57424-4.6655,1.7227-1.374,1.1484-2.2798,2.5703-2.7173,4.2656-0.27344,1.1074-0.41016,3.1309-0.41015,6.0703v8.1826h-2.8711z"/>
			<path id="path5033" style="" d="m330.8,534.05-1.8457,1.9072c-1.5313-1.4902-3.0283-2.2353-4.4912-2.2354-0.92969,0.00002-1.7261,0.30764-2.3892,0.92285-0.66309,0.61525-0.99463,1.333-0.99463,2.1533,0,0.72463,0.27344,1.4151,0.82032,2.0713,0.54686,0.66994,1.6953,1.4561,3.4453,2.3584,2.1328,1.1074,3.582,2.1738,4.3476,3.1992,0.75194,1.0391,1.1279,2.208,1.1279,3.5068-0.00001,1.832-0.64259,3.3838-1.9277,4.6553-1.2852,1.2715-2.8916,1.9072-4.8193,1.9072-1.2852,0-2.5122-0.28027-3.6812-0.84082-1.169-0.56054-2.1362-1.333-2.9018-2.3174l1.8047-2.0508c1.4629,1.6543,3.0146,2.4814,4.6553,2.4814,1.1484,0.00001,2.126-0.36913,2.9326-1.1074,0.80663-0.73828,1.21-1.6064,1.21-2.6045-0.00002-0.82031-0.26662-1.5518-0.79981-2.1943-0.53321-0.62889-1.7363-1.4219-3.6094-2.3789-2.0098-1.039-3.377-2.0644-4.1016-3.0762-0.72461-1.0117-1.0869-2.167-1.0869-3.4658,0-1.6953,0.57763-3.1035,1.7329-4.2246s2.6147-1.6816,4.3784-1.6816c2.0508,0.00003,4.1152,1.0049,6.1934,3.0146z"/>
			<path id="path5035" style="" d="m338.75,548.38,2.7686,1.3125-4.1631,7.752-2.0303-0.86133z"/>
			<path id="path5037" style="" d="m360.21,522.42c0.65624,0.00004,1.2168,0.23246,1.6816,0.69727,0.46484,0.46487,0.69726,1.0254,0.69727,1.6816-0.00001,0.64261-0.23243,1.1963-0.69727,1.6611-0.46485,0.46487-1.0254,0.6973-1.6816,0.69727-0.64258,0.00003-1.1963-0.2324-1.6611-0.69727-0.46485-0.46481-0.69727-1.0185-0.69727-1.6611,0-0.65622,0.23242-1.2168,0.69727-1.6816,0.46484-0.46481,1.0186-0.69723,1.6611-0.69727zm-1.4356,9.1875,2.8916,0,0,22.312-2.8916,0z"/>
			<path id="path5039" style="" d="m370.15,523.32,2.8916,0,0,8.2852,4.5527,0,0,2.4609-4.5527,0,0,19.852-2.8916,0,0-19.852-3.917,0,0-2.4609,3.917,0z"/>
			<path id="path5041" style="" d="m400.71,546.51,2.4199,1.2715c-0.79299,1.5586-1.709,2.8164-2.748,3.7734-1.0391,0.95703-2.208,1.685-3.5068,2.1841-1.2988,0.49902-2.7686,0.74853-4.4092,0.74853-3.6367,0-6.4805-1.1929-8.5312-3.5786-2.0508-2.3857-3.0762-5.0825-3.0762-8.0903-0.00001-2.8301,0.86816-5.3525,2.6045-7.5674,2.2012-2.8164,5.1474-4.2246,8.8389-4.2246,3.8008,0.00003,6.8359,1.4424,9.1055,4.3272,1.6133,2.0371,2.4336,4.5801,2.4609,7.6289h-20.057c0.0547,2.5977,0.88183,4.7271,2.4814,6.3882s3.5752,2.4917,5.9268,2.4917c1.1348,0,2.2388-0.19824,3.312-0.59472,1.0732-0.39649,1.9858-0.92285,2.7378-1.5791,0.75193-0.65624,1.5654-1.7158,2.4404-3.1787zm0-6.0088c-0.38283-1.5312-0.93996-2.7549-1.6714-3.6709-0.73146-0.916-1.6988-1.6543-2.9018-2.2148-1.2031-0.56052-2.4678-0.8408-3.794-0.84082-2.1875,0.00002-4.0674,0.70412-5.6396,2.1123-1.1484,1.0254-2.0166,2.5635-2.6045,4.6142z"/>
			<path id="path5043" style="" d="m408.15,531.6,2.9326,0,0,3.2608c0.875-1.2851,1.7978-2.2456,2.7686-2.8814,0.97069-0.63572,1.9824-0.95359,3.0352-0.95362,0.79296,0.00003,1.6406,0.25296,2.543,0.75879l-1.4971,2.4199c-0.60157-0.25975-1.1074-0.38963-1.5176-0.38965-0.95704,0.00002-1.8799,0.39308-2.7686,1.1792-0.88868,0.78615-1.5654,2.0064-2.0303,3.6606-0.35548,1.2715-0.53321,3.8418-0.53321,7.7109v7.5469h-2.9326z"/>
			<path id="path5045" style="" d="m444.1,531.6,0,22.312-2.8301,0,0-3.835c-1.2031,1.4629-2.5532,2.5635-4.0503,3.3018-1.4971,0.73828-3.1343,1.1074-4.9116,1.1074-3.1582,0-5.855-1.145-8.0903-3.4351-2.2354-2.29-3.353-5.0757-3.353-8.3569,0-3.2129,1.1279-5.9609,3.3838-8.2441,2.2558-2.2832,4.9697-3.4248,8.1416-3.4248,1.832,0.00003,3.4897,0.38968,4.9731,1.169s2.7856,1.9483,3.9067,3.5068v-4.1016zm-11.484,2.1943c-1.5996,0.00002-3.0762,0.39309-4.4297,1.1792-1.3535,0.78615-2.4302,1.8902-3.23,3.312-0.79981,1.4219-1.1997,2.9258-1.1997,4.5117,0,1.5723,0.40332,3.0762,1.21,4.5117,0.80663,1.4356,1.8901,2.5532,3.2505,3.353,1.3603,0.7998,2.8198,1.1997,4.3784,1.1997,1.5722,0,3.0625-0.39648,4.4707-1.1894,1.4082-0.79297,2.4917-1.8662,3.2505-3.2197,0.75877-1.3535,1.1382-2.8779,1.1382-4.5732-0.00002-2.584-0.85109-4.7441-2.5532-6.4805-1.7022-1.7363-3.7974-2.6045-6.2856-2.6045z"/>
			<path id="path5047" style="" d="m453.09,523.32,2.8916,0,0,8.2852,4.5527,0,0,2.4609-4.5527,0,0,19.852-2.8916,0,0-19.852-3.917,0,0-2.4609,3.917,0z"/>
			<path id="path5049" style="" d="m483.64,546.51,2.4199,1.2715c-0.79299,1.5586-1.709,2.8164-2.748,3.7734-1.0391,0.95703-2.208,1.685-3.5068,2.1841-1.2988,0.49902-2.7686,0.74853-4.4092,0.74853-3.6367,0-6.4805-1.1929-8.5312-3.5786-2.0508-2.3857-3.0762-5.0825-3.0762-8.0903,0-2.8301,0.86816-5.3525,2.6045-7.5674,2.2012-2.8164,5.1474-4.2246,8.8389-4.2246,3.8008,0.00003,6.8359,1.4424,9.1055,4.3272,1.6133,2.0371,2.4336,4.5801,2.4609,7.6289h-20.057c0.0547,2.5977,0.88183,4.7271,2.4814,6.3882s3.5752,2.4917,5.9268,2.4917c1.1348,0,2.2388-0.19824,3.312-0.59472,1.0732-0.39649,1.9858-0.92285,2.7378-1.5791,0.75194-0.65624,1.5654-1.7158,2.4404-3.1787zm0-6.0088c-0.38283-1.5312-0.93996-2.7549-1.6714-3.6709-0.73147-0.916-1.6988-1.6543-2.9019-2.2148-1.2031-0.56052-2.4678-0.8408-3.7939-0.84082-2.1875,0.00002-4.0674,0.70412-5.6396,2.1123-1.1484,1.0254-2.0166,2.5635-2.6045,4.6142z"/>
			<path id="path5051" style="" d="m526.05,531.6,0,22.312-2.8301,0,0-3.835c-1.2032,1.4629-2.5532,2.5635-4.0503,3.3018-1.4971,0.73828-3.1343,1.1074-4.9116,1.1074-3.1582,0-5.855-1.145-8.0903-3.4351-2.2354-2.29-3.353-5.0757-3.353-8.3569,0-3.2129,1.1279-5.9609,3.3838-8.2441,2.2558-2.2832,4.9697-3.4248,8.1416-3.4248,1.832,0.00003,3.4897,0.38968,4.9731,1.169s2.7856,1.9483,3.9067,3.5068v-4.1016zm-11.484,2.1943c-1.5996,0.00002-3.0762,0.39309-4.4297,1.1792-1.3535,0.78615-2.4302,1.8902-3.23,3.312-0.79981,1.4219-1.1997,2.9258-1.1997,4.5117-0.00001,1.5723,0.40331,3.0762,1.21,4.5117,0.80663,1.4356,1.8901,2.5532,3.2505,3.353,1.3603,0.7998,2.8198,1.1997,4.3784,1.1997,1.5722,0,3.0625-0.39648,4.4707-1.1894,1.4082-0.79297,2.4917-1.8662,3.2505-3.2197,0.75876-1.3535,1.1382-2.8779,1.1382-4.5732-0.00002-2.584-0.85109-4.7441-2.5532-6.4805-1.7022-1.7363-3.7974-2.6045-6.2856-2.6045z"/>
			<path id="path5053" style="" d="m532.53,531.6,2.8711,0,0,3.999c1.1484-1.5312,2.4199-2.6762,3.8144-3.4351,1.3945-0.75877,2.9121-1.1382,4.5527-1.1382,1.668,0.00003,3.1479,0.42386,4.4399,1.2715,1.292,0.84768,2.2456,1.9893,2.8608,3.4248,0.61521,1.4356,0.92283,3.6709,0.92285,6.7061v11.484h-2.8506v-10.644c-0.00002-2.5703-0.1094-4.2861-0.32813-5.1475-0.34181-1.4766-0.98439-2.5874-1.9277-3.3325-0.94338-0.7451-2.1738-1.1177-3.6914-1.1177-1.7363,0.00002-3.2915,0.57424-4.6655,1.7227-1.374,1.1484-2.2798,2.5703-2.7173,4.2656-0.27345,1.1074-0.41016,3.1309-0.41016,6.0703v8.1826h-2.8711z"/>
			<path id="path5055" style="" d="m580.4,522.99,0,30.926-2.8301,0,0-3.835c-1.2031,1.4629-2.5532,2.5635-4.0503,3.3018-1.4971,0.73828-3.1343,1.1074-4.9116,1.1074-3.1582,0-5.855-1.145-8.0903-3.4351-2.2354-2.29-3.353-5.0757-3.353-8.3569,0-3.2129,1.1279-5.9609,3.3838-8.2441,2.2558-2.2832,4.9697-3.4248,8.1416-3.4248,1.832,0.00003,3.4897,0.38968,4.9732,1.169,1.4834,0.77932,2.7856,1.9483,3.9067,3.5068v-12.715zm-11.484,10.808c-1.5996,0.00002-3.0762,0.39309-4.4297,1.1792-1.3535,0.78615-2.4302,1.8902-3.23,3.312-0.79981,1.4219-1.1997,2.9258-1.1997,4.5117,0,1.5723,0.40332,3.0762,1.21,4.5117,0.80664,1.4356,1.8901,2.5532,3.2505,3.353,1.3603,0.7998,2.8198,1.1997,4.3784,1.1997,1.5722,0,3.0625-0.39648,4.4707-1.1894,1.4082-0.79297,2.4917-1.8662,3.2505-3.2197,0.75877-1.3535,1.1382-2.8779,1.1382-4.5732-0.00002-2.584-0.85109-4.7441-2.5532-6.4805-1.7022-1.7363-3.7974-2.6045-6.2856-2.6045z"/>
			<path id="path5057" style="" d="m620.8,531.6,0,22.312-2.8301,0,0-3.835c-1.2031,1.4629-2.5532,2.5635-4.0503,3.3018-1.4971,0.73828-3.1343,1.1074-4.9116,1.1074-3.1582,0-5.855-1.145-8.0903-3.4351-2.2354-2.29-3.353-5.0757-3.353-8.3569,0-3.2129,1.1279-5.9609,3.3838-8.2441,2.2558-2.2832,4.9697-3.4248,8.1416-3.4248,1.832,0.00003,3.4897,0.38968,4.9732,1.169,1.4834,0.77932,2.7856,1.9483,3.9067,3.5068v-4.1016zm-11.484,2.1943c-1.5996,0.00002-3.0762,0.39309-4.4297,1.1792-1.3535,0.78615-2.4302,1.8902-3.23,3.312-0.79981,1.4219-1.1997,2.9258-1.1997,4.5117,0,1.5723,0.40332,3.0762,1.21,4.5117,0.80664,1.4356,1.8901,2.5532,3.2505,3.353,1.3603,0.7998,2.8198,1.1997,4.3784,1.1997,1.5722,0,3.0625-0.39648,4.4707-1.1894,1.4082-0.79297,2.4917-1.8662,3.2505-3.2197,0.75877-1.3535,1.1382-2.8779,1.1382-4.5732-0.00003-2.584-0.8511-4.7441-2.5532-6.4805-1.7022-1.7363-3.7974-2.6045-6.2856-2.6045z"/>
			<path id="path5059" style="" d="m649.55,522.99,0,30.926-2.8301,0,0-3.835c-1.2032,1.4629-2.5532,2.5635-4.0503,3.3018-1.4971,0.73828-3.1343,1.1074-4.9116,1.1074-3.1582,0-5.855-1.145-8.0903-3.4351-2.2354-2.29-3.353-5.0757-3.353-8.3569,0-3.2129,1.1279-5.9609,3.3838-8.2441s4.9697-3.4248,8.1416-3.4248c1.832,0.00003,3.4897,0.38968,4.9731,1.169s2.7856,1.9483,3.9067,3.5068v-12.715zm-11.484,10.808c-1.5996,0.00002-3.0762,0.39309-4.4297,1.1792-1.3535,0.78615-2.4302,1.8902-3.23,3.312-0.79981,1.4219-1.1997,2.9258-1.1997,4.5117-0.00001,1.5723,0.40331,3.0762,1.21,4.5117,0.80663,1.4356,1.8901,2.5532,3.2505,3.353,1.3603,0.7998,2.8198,1.1997,4.3784,1.1997,1.5722,0,3.0625-0.39648,4.4707-1.1894,1.4082-0.79297,2.4917-1.8662,3.2505-3.2197,0.75877-1.3535,1.1382-2.8779,1.1382-4.5732-0.00002-2.584-0.8511-4.7441-2.5532-6.4805-1.7022-1.7363-3.7974-2.6045-6.2856-2.6045z"/>
			<path id="path5061" style="" d="m678.3,531.6,0,22.312-2.8301,0,0-3.835c-1.2032,1.4629-2.5532,2.5635-4.0503,3.3018-1.4971,0.73828-3.1343,1.1074-4.9116,1.1074-3.1582,0-5.855-1.145-8.0903-3.4351-2.2354-2.29-3.353-5.0757-3.353-8.3569,0-3.2129,1.1279-5.9609,3.3838-8.2441,2.2558-2.2832,4.9697-3.4248,8.1416-3.4248,1.832,0.00003,3.4897,0.38968,4.9731,1.169s2.7856,1.9483,3.9067,3.5068v-4.1016zm-11.484,2.1943c-1.5996,0.00002-3.0762,0.39309-4.4297,1.1792-1.3535,0.78615-2.4302,1.8902-3.23,3.312-0.79981,1.4219-1.1997,2.9258-1.1997,4.5117-0.00001,1.5723,0.40331,3.0762,1.21,4.5117,0.80663,1.4356,1.8901,2.5532,3.2505,3.353,1.3603,0.7998,2.8198,1.1997,4.3784,1.1997,1.5722,0,3.0625-0.39648,4.4707-1.1894,1.4082-0.79297,2.4917-1.8662,3.2505-3.2197,0.75876-1.3535,1.1382-2.8779,1.1382-4.5732-0.00002-2.584-0.85109-4.7441-2.5532-6.4805-1.7022-1.7363-3.7974-2.6045-6.2856-2.6045z"/>
			<path id="path5063" style="" d="m684.82,531.6,2.8506,0,0,4.1016c1.1348-1.5586,2.4404-2.7275,3.917-3.5068,1.4766-0.77927,3.124-1.1689,4.9424-1.169,3.1719,0.00003,5.8857,1.1416,8.1416,3.4248,2.2558,2.2832,3.3838,5.0313,3.3838,8.2441-0.00003,3.2813-1.1177,6.0669-3.353,8.3569-2.2354,2.29-4.9322,3.4351-8.0903,3.4351-1.7774,0-3.4112-0.36914-4.9014-1.1074-1.4902-0.73828-2.8369-1.8389-4.04-3.3018v11.997h-2.8506zm11.484,2.1943c-2.4883,0.00002-4.5835,0.86818-6.2856,2.6045-1.7022,1.7364-2.5532,3.8965-2.5532,6.4805,0,1.6953,0.37939,3.2197,1.1382,4.5732,0.75879,1.3535,1.8457,2.4268,3.2608,3.2197,1.415,0.79297,2.9087,1.1894,4.481,1.1894,1.5449,0,2.9976-0.3999,4.3579-1.1997,1.3603-0.79981,2.4438-1.9175,3.2505-3.353,0.80662-1.4355,1.2099-2.9394,1.21-4.5117-0.00002-1.5859-0.39992-3.0898-1.1997-4.5117-0.79983-1.4219-1.8765-2.5259-3.23-3.312-1.3535-0.78611-2.8301-1.1792-4.4297-1.1792z"/>
			<path id="path5065" style="" d="m715.91,523.32,2.8916,0,0,8.2852,4.5527,0,0,2.4609-4.5527,0,0,19.852-2.8916,0,0-19.852-3.917,0,0-2.4609,3.917,0z"/>
		</g>
	</g>
</svg>
