<!-- Created with Inkscape (http://www.inkscape.org/) -->
<svg id="svg2" xmlns:rdf="http://www.w3.org/1999/02/22-rdf-syntax-ns#" xmlns="http://www.w3.org/2000/svg" viewBox="0 0 900 700" version="1.1" xmlns:cc="http://creativecommons.org/ns#" xmlns:dc="http://purl.org/dc/elements/1.1/">
	<metadata id="metadata7">
		<rdf:RDF>
			<cc:Work rdf:about="">
				<dc:format>image/svg+xml</dc:format>
				<dc:type rdf:resource="http://purl.org/dc/dcmitype/StillImage"/>
				<dc:title/>
			</cc:Work>
		</rdf:RDF>
	</metadata>
	<g id="layer1" transform="translate(0,-352.36218)">
		<path id="path3818" style="fill:#9fdbff;" d="M448.57,245.71c0,85.21-69.07,154.29-154.28,154.29s-154.29-69.08-154.29-154.29,69.076-154.29,154.29-154.29c85.21,0,154.29,69.076,154.29,154.29z" transform="matrix(0.97222218,0,0,0.97222218,-31.82539,566.90188)"/>
		<path id="path3818-1" style="fill:#ffffff;" d="M448.57,245.71c0,85.21-69.07,154.29-154.28,154.29s-154.29-69.08-154.29-154.29,69.076-154.29,154.29-154.29c85.21,0,154.29,69.076,154.29,154.29z" transform="matrix(0.46504628,0,0,0.46504628,286.32209,696.91511)"/>
		<path id="path3818-1-7" style="fill:#ffffff;" d="M448.57,245.71c0,85.21-69.07,154.29-154.28,154.29s-154.29-69.08-154.29-154.29,69.076-154.29,154.29-154.29c85.21,0,154.29,69.076,154.29,154.29z" transform="matrix(0.46504628,0,0,0.46504628,441.73281,696.91511)"/>
		<path id="path3818-1-4" style="fill:#ffffff;" d="M448.57,245.71c0,85.21-69.07,154.29-154.28,154.29s-154.29-69.08-154.29-154.29,69.076-154.29,154.29-154.29c85.21,0,154.29,69.076,154.29,154.29z" transform="matrix(0.46504628,0,0,0.46504628,597.14354,696.91511)"/>
		<text id="text3892" style="font-size:50.49956894px;font-family:Century Gothic;writing-mode:lr;fill:#ffffff;letter-spacing:0px;text-anchor:start;line-height:125%;word-spacing:0px;font-stretch:normal;font-variant:normal;font-weight:bold;font-style:normal;text-align:start;" xml:space="preserve" y="430.2756" x="42.031731"><tspan id="tspan3894" x="42.031731" y="430.2756">Respond to cues and take action</tspan></text>
		<flowRoot id="flowRoot3900" xml:space="preserve" style="font-size:40px;font-family:Sans;font-weight:normal;letter-spacing:0px;line-height:125%;word-spacing:0px;font-style:normal;fill:black;"><flowRegion id="flowRegion3902"><rect id="rect3904" y="291.43" width="25.714" x="68.571" height="85.714"/></flowRegion><flowPara id="flowPara3906"/></flowRoot>
		<text id="text4690" style="font-size:42px;font-family:Century Gothic;writing-mode:lr-tb;fill:#ffffff;letter-spacing:0px;text-anchor:middle;line-height:125%;word-spacing:0px;font-stretch:normal;font-variant:normal;font-weight:normal;font-style:normal;text-align:center;" xml:space="preserve" y="501.41708" x="443.65204"><tspan id="tspan4694" x="449.47626" y="501.41708">Engage in constructive dialogue, test </tspan><tspan id="tspan4696" x="443.65204" y="553.91711">solutions, iterate and adapt</tspan></text>
	</g>
</svg>
